<?xml version="1.0" encoding="utf-8" standalone="no"?>
<!DOCTYPE svg PUBLIC "-//W3C//DTD SVG 1.1//EN"
  "http://www.w3.org/Graphics/SVG/1.1/DTD/svg11.dtd">
<!-- Created with matplotlib (https://matplotlib.org/) -->
<svg height="308.85575pt" version="1.1" viewBox="0 0 406.73875 308.85575" width="406.73875pt" xmlns="http://www.w3.org/2000/svg" xmlns:xlink="http://www.w3.org/1999/xlink">
 <metadata>
  <rdf:RDF xmlns:cc="http://creativecommons.org/ns#" xmlns:dc="http://purl.org/dc/elements/1.1/" xmlns:rdf="http://www.w3.org/1999/02/22-rdf-syntax-ns#">
   <cc:Work>
    <dc:type rdf:resource="http://purl.org/dc/dcmitype/StillImage"/>
    <dc:date>2022-01-05T17:45:57.044269</dc:date>
    <dc:format>image/svg+xml</dc:format>
    <dc:creator>
     <cc:Agent>
      <dc:title>Matplotlib v3.3.2, https://matplotlib.org/</dc:title>
     </cc:Agent>
    </dc:creator>
   </cc:Work>
  </rdf:RDF>
 </metadata>
 <defs>
  <style type="text/css">*{stroke-linecap:butt;stroke-linejoin:round;}</style>
 </defs>
 <g id="figure_1">
  <g id="patch_1">
   <path d="M 0 308.85575 
L 406.73875 308.85575 
L 406.73875 0 
L 0 0 
z
" style="fill:#ffffff;"/>
  </g>
  <g id="axes_1">
   <g id="patch_2">
    <path d="M 42.41875 273.312 
L 399.53875 273.312 
L 399.53875 7.2 
L 42.41875 7.2 
z
" style="fill:#ffffff;"/>
   </g>
   <g id="matplotlib.axis_1">
    <g id="xtick_1">
     <g id="line2d_1">
      <path clip-path="url(#pe08479dbb6)" d="M 58.651477 273.312 
L 58.651477 7.2 
" style="fill:none;stroke:#b0b0b0;stroke-dasharray:2.96,1.28;stroke-dashoffset:0;stroke-width:0.8;"/>
     </g>
     <g id="line2d_2">
      <defs>
       <path d="M 0 0 
L 0 3.5 
" id="ma69f981358" style="stroke:#000000;stroke-width:0.8;"/>
      </defs>
      <g>
       <use style="stroke:#000000;stroke-width:0.8;" x="58.651477" xlink:href="#ma69f981358" y="273.312"/>
      </g>
     </g>
     <g id="text_1">
      <!-- 1 -->
      <g transform="translate(56.151477 287.187)scale(0.1 -0.1)">
       <defs>
        <path d="M 21.875 56.25 
Q 16.796875 51.171875 8.984375 46.484375 
L 8.984375 53.90625 
Q 18.75 60.546875 25 69.53125 
L 29.6875 69.53125 
L 29.6875 2.34375 
L 21.875 2.34375 
z
" id="SimHei-49"/>
       </defs>
       <use xlink:href="#SimHei-49"/>
      </g>
     </g>
    </g>
    <g id="xtick_2">
     <g id="line2d_3">
      <path clip-path="url(#pe08479dbb6)" d="M 75.738559 273.312 
L 75.738559 7.2 
" style="fill:none;stroke:#b0b0b0;stroke-dasharray:2.96,1.28;stroke-dashoffset:0;stroke-width:0.8;"/>
     </g>
     <g id="line2d_4">
      <g>
       <use style="stroke:#000000;stroke-width:0.8;" x="75.738559" xlink:href="#ma69f981358" y="273.312"/>
      </g>
     </g>
     <g id="text_2">
      <!-- 2 -->
      <g transform="translate(73.238559 287.187)scale(0.1 -0.1)">
       <defs>
        <path d="M 4.6875 3.90625 
Q 5.078125 9.765625 10.15625 14.453125 
Q 15.234375 19.140625 23.046875 29.09375 
Q 30.859375 39.0625 33.203125 44.53125 
Q 35.546875 50 34.953125 53.90625 
Q 34.375 57.8125 31.25 60.34375 
Q 28.125 62.890625 24.015625 62.5 
Q 19.921875 62.109375 16.203125 59.375 
Q 12.5 56.640625 10.546875 51.171875 
L 3.125 52.34375 
Q 6.25 61.328125 11.125 65.421875 
Q 16.015625 69.53125 22.65625 69.921875 
Q 26.5625 70.3125 29.6875 69.71875 
Q 32.8125 69.140625 36.125 66.984375 
Q 39.453125 64.84375 41.59375 60.546875 
Q 43.75 56.25 43.15625 50.1875 
Q 42.578125 44.140625 37.109375 35.734375 
Q 31.640625 27.34375 16.015625 9.375 
L 44.140625 9.375 
L 44.140625 2.34375 
L 4.6875 2.34375 
z
" id="SimHei-50"/>
       </defs>
       <use xlink:href="#SimHei-50"/>
      </g>
     </g>
    </g>
    <g id="xtick_3">
     <g id="line2d_5">
      <path clip-path="url(#pe08479dbb6)" d="M 92.82564 273.312 
L 92.82564 7.2 
" style="fill:none;stroke:#b0b0b0;stroke-dasharray:2.96,1.28;stroke-dashoffset:0;stroke-width:0.8;"/>
     </g>
     <g id="line2d_6">
      <g>
       <use style="stroke:#000000;stroke-width:0.8;" x="92.82564" xlink:href="#ma69f981358" y="273.312"/>
      </g>
     </g>
     <g id="text_3">
      <!-- 3 -->
      <g transform="translate(90.32564 287.187)scale(0.1 -0.1)">
       <defs>
        <path d="M 3.90625 19.140625 
L 10.9375 20.3125 
Q 12.5 15.234375 16.015625 11.90625 
Q 19.53125 8.59375 24.796875 8.78125 
Q 30.078125 8.984375 33.203125 13.078125 
Q 36.328125 17.1875 35.9375 22.453125 
Q 35.546875 27.734375 31.828125 30.65625 
Q 28.125 33.59375 19.921875 34.765625 
L 19.921875 39.84375 
Q 28.125 40.625 31.828125 44.140625 
Q 35.546875 47.65625 35.15625 53.3125 
Q 34.765625 58.984375 30.078125 61.515625 
Q 25.390625 64.0625 20.109375 62.109375 
Q 14.84375 60.15625 11.71875 51.171875 
L 4.6875 52.34375 
Q 7.03125 59.375 11.125 64.0625 
Q 15.234375 68.75 22.265625 69.53125 
Q 29.296875 70.3125 34.5625 67.765625 
Q 39.84375 65.234375 41.984375 59.953125 
Q 44.140625 54.6875 42.578125 48.4375 
Q 41.015625 42.1875 33.59375 37.5 
Q 39.0625 35.15625 41.984375 30.46875 
Q 44.921875 25.78125 43.9375 18.15625 
Q 42.96875 10.546875 37.109375 5.859375 
Q 31.25 1.171875 23.828125 1.359375 
Q 16.40625 1.5625 10.9375 6.046875 
Q 5.46875 10.546875 3.90625 19.140625 
z
" id="SimHei-51"/>
       </defs>
       <use xlink:href="#SimHei-51"/>
      </g>
     </g>
    </g>
    <g id="xtick_4">
     <g id="line2d_7">
      <path clip-path="url(#pe08479dbb6)" d="M 109.912721 273.312 
L 109.912721 7.2 
" style="fill:none;stroke:#b0b0b0;stroke-dasharray:2.96,1.28;stroke-dashoffset:0;stroke-width:0.8;"/>
     </g>
     <g id="line2d_8">
      <g>
       <use style="stroke:#000000;stroke-width:0.8;" x="109.912721" xlink:href="#ma69f981358" y="273.312"/>
      </g>
     </g>
     <g id="text_4">
      <!-- 4 -->
      <g transform="translate(107.412721 287.187)scale(0.1 -0.1)">
       <defs>
        <path d="M 31.25 17.1875 
L 1.171875 17.1875 
L 1.171875 23.828125 
L 32.8125 69.53125 
L 38.671875 69.53125 
L 38.671875 23.828125 
L 48.046875 23.828125 
L 48.046875 17.1875 
L 38.671875 17.1875 
L 38.671875 2.34375 
L 31.25 2.34375 
z
M 31.25 23.828125 
L 31.25 54.6875 
L 9.375 23.828125 
z
" id="SimHei-52"/>
       </defs>
       <use xlink:href="#SimHei-52"/>
      </g>
     </g>
    </g>
    <g id="xtick_5">
     <g id="line2d_9">
      <path clip-path="url(#pe08479dbb6)" d="M 126.999803 273.312 
L 126.999803 7.2 
" style="fill:none;stroke:#b0b0b0;stroke-dasharray:2.96,1.28;stroke-dashoffset:0;stroke-width:0.8;"/>
     </g>
     <g id="line2d_10">
      <g>
       <use style="stroke:#000000;stroke-width:0.8;" x="126.999803" xlink:href="#ma69f981358" y="273.312"/>
      </g>
     </g>
     <g id="text_5">
      <!-- 5 -->
      <g transform="translate(124.499803 287.187)scale(0.1 -0.1)">
       <defs>
        <path d="M 8.59375 20.703125 
Q 11.328125 10.15625 17.96875 8.984375 
Q 24.609375 7.8125 28.703125 10.34375 
Q 32.8125 12.890625 34.5625 16.984375 
Q 36.328125 21.09375 36.125 26.171875 
Q 35.9375 31.25 33.390625 34.765625 
Q 30.859375 38.28125 26.953125 39.453125 
Q 23.046875 40.625 18.15625 39.453125 
Q 13.28125 38.28125 10.15625 33.984375 
L 3.515625 34.765625 
Q 4.296875 37.109375 10.9375 68.359375 
L 41.796875 68.359375 
L 41.796875 61.328125 
L 16.796875 61.328125 
Q 14.84375 50.78125 12.890625 44.53125 
Q 18.75 47.265625 23.828125 47.0625 
Q 28.90625 46.875 33.59375 44.71875 
Q 38.28125 42.578125 40.421875 38.859375 
Q 42.578125 35.15625 43.546875 31.4375 
Q 44.53125 27.734375 44.328125 23.4375 
Q 44.140625 19.140625 42.578125 14.640625 
Q 41.015625 10.15625 37.890625 7.21875 
Q 34.765625 4.296875 30.265625 2.53125 
Q 25.78125 0.78125 19.921875 1.171875 
Q 14.0625 1.5625 8.78125 5.46875 
Q 3.515625 9.375 1.5625 18.75 
z
" id="SimHei-53"/>
       </defs>
       <use xlink:href="#SimHei-53"/>
      </g>
     </g>
    </g>
    <g id="xtick_6">
     <g id="line2d_11">
      <path clip-path="url(#pe08479dbb6)" d="M 144.086884 273.312 
L 144.086884 7.2 
" style="fill:none;stroke:#b0b0b0;stroke-dasharray:2.96,1.28;stroke-dashoffset:0;stroke-width:0.8;"/>
     </g>
     <g id="line2d_12">
      <g>
       <use style="stroke:#000000;stroke-width:0.8;" x="144.086884" xlink:href="#ma69f981358" y="273.312"/>
      </g>
     </g>
     <g id="text_6">
      <!-- 6 -->
      <g transform="translate(141.586884 287.187)scale(0.1 -0.1)">
       <defs>
        <path d="M 3.515625 19.53125 
Q 4.296875 30.859375 6.046875 34.765625 
Q 7.8125 38.671875 11.328125 44.53125 
L 27.34375 69.53125 
L 36.328125 69.53125 
L 19.921875 43.75 
Q 30.46875 46.484375 36.71875 42.96875 
Q 42.96875 39.453125 45.109375 34.953125 
Q 47.265625 30.46875 47.453125 25.1875 
Q 47.65625 19.921875 45.890625 14.84375 
Q 44.140625 9.765625 39.640625 5.65625 
Q 35.15625 1.5625 27.140625 1.171875 
Q 19.140625 0.78125 13.46875 4.09375 
Q 7.8125 7.421875 5.65625 13.46875 
Q 3.515625 19.53125 4.296875 30.859375 
z
M 12.5 16.015625 
Q 19.53125 8.59375 25.390625 8.203125 
Q 31.25 7.8125 35.15625 12.109375 
Q 39.0625 16.40625 39.0625 24.609375 
Q 39.0625 32.8125 34.171875 35.9375 
Q 29.296875 39.0625 23.234375 38.28125 
Q 17.1875 37.5 14.453125 32.421875 
Q 11.71875 27.34375 12.109375 21.671875 
Q 12.5 16.015625 19.53125 8.59375 
z
" id="SimHei-54"/>
       </defs>
       <use xlink:href="#SimHei-54"/>
      </g>
     </g>
    </g>
    <g id="xtick_7">
     <g id="line2d_13">
      <path clip-path="url(#pe08479dbb6)" d="M 161.173965 273.312 
L 161.173965 7.2 
" style="fill:none;stroke:#b0b0b0;stroke-dasharray:2.96,1.28;stroke-dashoffset:0;stroke-width:0.8;"/>
     </g>
     <g id="line2d_14">
      <g>
       <use style="stroke:#000000;stroke-width:0.8;" x="161.173965" xlink:href="#ma69f981358" y="273.312"/>
      </g>
     </g>
     <g id="text_7">
      <!-- 7 -->
      <g transform="translate(158.673965 287.187)scale(0.1 -0.1)">
       <defs>
        <path d="M 13.28125 2.34375 
Q 20.3125 32.03125 37.890625 61.328125 
L 4.296875 61.328125 
L 4.296875 68.359375 
L 46.09375 68.359375 
L 46.09375 61.71875 
Q 27.734375 32.03125 21.875 2.34375 
L 13.28125 2.34375 
z
" id="SimHei-55"/>
       </defs>
       <use xlink:href="#SimHei-55"/>
      </g>
     </g>
    </g>
    <g id="xtick_8">
     <g id="line2d_15">
      <path clip-path="url(#pe08479dbb6)" d="M 178.261047 273.312 
L 178.261047 7.2 
" style="fill:none;stroke:#b0b0b0;stroke-dasharray:2.96,1.28;stroke-dashoffset:0;stroke-width:0.8;"/>
     </g>
     <g id="line2d_16">
      <g>
       <use style="stroke:#000000;stroke-width:0.8;" x="178.261047" xlink:href="#ma69f981358" y="273.312"/>
      </g>
     </g>
     <g id="text_8">
      <!-- 8 -->
      <g transform="translate(175.761047 287.187)scale(0.1 -0.1)">
       <defs>
        <path d="M 2.734375 16.796875 
Q 2.734375 26.171875 5.078125 30.65625 
Q 7.421875 35.15625 12.890625 37.890625 
Q 8.203125 40.625 6.640625 43.9375 
Q 5.078125 47.265625 4.875 51.5625 
Q 4.6875 55.859375 6.046875 58.984375 
Q 7.421875 62.109375 10.15625 64.84375 
Q 12.890625 67.578125 16.203125 68.546875 
Q 19.53125 69.53125 23.4375 69.53125 
Q 27.34375 69.53125 30.46875 68.75 
Q 33.59375 67.96875 37.109375 65.421875 
Q 40.625 62.890625 42.1875 58.203125 
Q 43.75 53.515625 41.984375 47.265625 
Q 40.234375 41.015625 32.8125 37.5 
Q 39.453125 35.546875 42.1875 31.4375 
Q 44.921875 27.34375 44.921875 21.484375 
Q 44.921875 15.625 43.15625 12.109375 
Q 41.40625 8.59375 39.25 6.25 
Q 37.109375 3.90625 33.390625 2.53125 
Q 29.6875 1.171875 24.015625 1.171875 
Q 18.359375 1.171875 14.25 2.53125 
Q 10.15625 3.90625 7.421875 6.640625 
Q 4.6875 9.375 3.703125 13.078125 
Q 2.734375 16.796875 2.734375 26.171875 
z
M 10.9375 26.5625 
Q 10.546875 17.1875 12.296875 13.671875 
Q 14.0625 10.15625 18.75 9.171875 
Q 23.4375 8.203125 28.515625 9.375 
Q 33.59375 10.546875 35.546875 14.84375 
Q 37.5 19.140625 36.90625 23.4375 
Q 36.328125 27.734375 32.03125 30.65625 
Q 27.734375 33.59375 22.65625 33.203125 
Q 17.578125 32.8125 14.25 29.6875 
Q 10.9375 26.5625 10.546875 17.1875 
z
M 12.109375 56.25 
Q 12.109375 48.4375 14.84375 44.921875 
Q 17.578125 41.40625 23.4375 41.40625 
Q 29.296875 41.40625 32.21875 44.921875 
Q 35.15625 48.4375 34.953125 53.3125 
Q 34.765625 58.203125 31.4375 60.546875 
Q 28.125 62.890625 22.453125 62.5 
Q 16.796875 62.109375 14.453125 59.171875 
Q 12.109375 56.25 12.109375 48.4375 
z
" id="SimHei-56"/>
       </defs>
       <use xlink:href="#SimHei-56"/>
      </g>
     </g>
    </g>
    <g id="xtick_9">
     <g id="line2d_17">
      <path clip-path="url(#pe08479dbb6)" d="M 195.348128 273.312 
L 195.348128 7.2 
" style="fill:none;stroke:#b0b0b0;stroke-dasharray:2.96,1.28;stroke-dashoffset:0;stroke-width:0.8;"/>
     </g>
     <g id="line2d_18">
      <g>
       <use style="stroke:#000000;stroke-width:0.8;" x="195.348128" xlink:href="#ma69f981358" y="273.312"/>
      </g>
     </g>
     <g id="text_9">
      <!-- 9 -->
      <g transform="translate(192.848128 287.187)scale(0.1 -0.1)">
       <defs>
        <path d="M 12.5 1.171875 
Q 21.09375 15.625 26.5625 27.34375 
Q 16.796875 25.78125 10.34375 29.875 
Q 3.90625 33.984375 2.53125 41.015625 
Q 1.171875 48.046875 2.734375 53.703125 
Q 4.296875 59.375 7.609375 63.078125 
Q 10.9375 66.796875 15.625 68.359375 
Q 20.3125 69.921875 24.015625 69.921875 
Q 27.734375 69.921875 31.640625 68.359375 
Q 35.546875 66.796875 38.671875 63.671875 
Q 41.796875 60.546875 42.96875 57.21875 
Q 44.140625 53.90625 44.140625 48.625 
Q 44.140625 43.359375 40.234375 35.15625 
Q 36.328125 26.953125 21.09375 1.171875 
z
M 9.765625 50 
Q 10.9375 39.84375 14.640625 36.515625 
Q 18.359375 33.203125 22.65625 33.59375 
Q 26.953125 33.984375 29.484375 35.9375 
Q 32.03125 37.890625 34.375 42.578125 
Q 35.9375 48.4375 35.15625 52.53125 
Q 34.375 56.640625 31.046875 59.375 
Q 27.734375 62.109375 23.828125 62.109375 
Q 21.484375 62.5 17.765625 60.9375 
Q 14.0625 59.375 11.90625 54.6875 
Q 9.765625 50 10.9375 39.84375 
z
" id="SimHei-57"/>
       </defs>
       <use xlink:href="#SimHei-57"/>
      </g>
     </g>
    </g>
    <g id="xtick_10">
     <g id="line2d_19">
      <path clip-path="url(#pe08479dbb6)" d="M 212.435209 273.312 
L 212.435209 7.2 
" style="fill:none;stroke:#b0b0b0;stroke-dasharray:2.96,1.28;stroke-dashoffset:0;stroke-width:0.8;"/>
     </g>
     <g id="line2d_20">
      <g>
       <use style="stroke:#000000;stroke-width:0.8;" x="212.435209" xlink:href="#ma69f981358" y="273.312"/>
      </g>
     </g>
     <g id="text_10">
      <!-- 10 -->
      <g transform="translate(207.435209 287.187)scale(0.1 -0.1)">
       <defs>
        <path d="M 3.125 29.296875 
Q 3.90625 50 6.4375 56.046875 
Q 8.984375 62.109375 13.671875 66.015625 
Q 18.359375 69.921875 25.1875 69.921875 
Q 32.03125 69.921875 37.109375 64.25 
Q 42.1875 58.59375 43.75 50 
Q 45.3125 41.40625 44.71875 30.265625 
Q 44.140625 19.140625 40.8125 12.109375 
Q 37.5 5.078125 30.859375 2.34375 
Q 24.21875 -0.390625 17.578125 2.921875 
Q 10.9375 6.25 8.203125 11.71875 
Q 5.46875 17.1875 4.296875 23.234375 
Q 3.125 29.296875 3.90625 50 
z
M 12.890625 52.734375 
Q 10.546875 31.25 12.5 22.84375 
Q 14.453125 14.453125 18.9375 10.9375 
Q 23.4375 7.421875 28.125 9.5625 
Q 32.8125 11.71875 34.953125 18.15625 
Q 37.109375 24.609375 37.109375 32.21875 
Q 37.109375 39.84375 36.515625 46.09375 
Q 35.9375 52.34375 33 57.421875 
Q 30.078125 62.5 25.1875 62.6875 
Q 20.3125 62.890625 16.59375 57.8125 
Q 12.890625 52.734375 10.546875 31.25 
z
" id="SimHei-48"/>
       </defs>
       <use xlink:href="#SimHei-49"/>
       <use x="50" xlink:href="#SimHei-48"/>
      </g>
     </g>
    </g>
    <g id="xtick_11">
     <g id="line2d_21">
      <path clip-path="url(#pe08479dbb6)" d="M 229.522291 273.312 
L 229.522291 7.2 
" style="fill:none;stroke:#b0b0b0;stroke-dasharray:2.96,1.28;stroke-dashoffset:0;stroke-width:0.8;"/>
     </g>
     <g id="line2d_22">
      <g>
       <use style="stroke:#000000;stroke-width:0.8;" x="229.522291" xlink:href="#ma69f981358" y="273.312"/>
      </g>
     </g>
     <g id="text_11">
      <!-- 11 -->
      <g transform="translate(224.522291 287.187)scale(0.1 -0.1)">
       <use xlink:href="#SimHei-49"/>
       <use x="50" xlink:href="#SimHei-49"/>
      </g>
     </g>
    </g>
    <g id="xtick_12">
     <g id="line2d_23">
      <path clip-path="url(#pe08479dbb6)" d="M 246.609372 273.312 
L 246.609372 7.2 
" style="fill:none;stroke:#b0b0b0;stroke-dasharray:2.96,1.28;stroke-dashoffset:0;stroke-width:0.8;"/>
     </g>
     <g id="line2d_24">
      <g>
       <use style="stroke:#000000;stroke-width:0.8;" x="246.609372" xlink:href="#ma69f981358" y="273.312"/>
      </g>
     </g>
     <g id="text_12">
      <!-- 12 -->
      <g transform="translate(241.609372 287.187)scale(0.1 -0.1)">
       <use xlink:href="#SimHei-49"/>
       <use x="50" xlink:href="#SimHei-50"/>
      </g>
     </g>
    </g>
    <g id="xtick_13">
     <g id="line2d_25">
      <path clip-path="url(#pe08479dbb6)" d="M 263.696453 273.312 
L 263.696453 7.2 
" style="fill:none;stroke:#b0b0b0;stroke-dasharray:2.96,1.28;stroke-dashoffset:0;stroke-width:0.8;"/>
     </g>
     <g id="line2d_26">
      <g>
       <use style="stroke:#000000;stroke-width:0.8;" x="263.696453" xlink:href="#ma69f981358" y="273.312"/>
      </g>
     </g>
     <g id="text_13">
      <!-- 13 -->
      <g transform="translate(258.696453 287.187)scale(0.1 -0.1)">
       <use xlink:href="#SimHei-49"/>
       <use x="50" xlink:href="#SimHei-51"/>
      </g>
     </g>
    </g>
    <g id="xtick_14">
     <g id="line2d_27">
      <path clip-path="url(#pe08479dbb6)" d="M 280.783535 273.312 
L 280.783535 7.2 
" style="fill:none;stroke:#b0b0b0;stroke-dasharray:2.96,1.28;stroke-dashoffset:0;stroke-width:0.8;"/>
     </g>
     <g id="line2d_28">
      <g>
       <use style="stroke:#000000;stroke-width:0.8;" x="280.783535" xlink:href="#ma69f981358" y="273.312"/>
      </g>
     </g>
     <g id="text_14">
      <!-- 14 -->
      <g transform="translate(275.783535 287.187)scale(0.1 -0.1)">
       <use xlink:href="#SimHei-49"/>
       <use x="50" xlink:href="#SimHei-52"/>
      </g>
     </g>
    </g>
    <g id="xtick_15">
     <g id="line2d_29">
      <path clip-path="url(#pe08479dbb6)" d="M 297.870616 273.312 
L 297.870616 7.2 
" style="fill:none;stroke:#b0b0b0;stroke-dasharray:2.96,1.28;stroke-dashoffset:0;stroke-width:0.8;"/>
     </g>
     <g id="line2d_30">
      <g>
       <use style="stroke:#000000;stroke-width:0.8;" x="297.870616" xlink:href="#ma69f981358" y="273.312"/>
      </g>
     </g>
     <g id="text_15">
      <!-- 15 -->
      <g transform="translate(292.870616 287.187)scale(0.1 -0.1)">
       <use xlink:href="#SimHei-49"/>
       <use x="50" xlink:href="#SimHei-53"/>
      </g>
     </g>
    </g>
    <g id="xtick_16">
     <g id="line2d_31">
      <path clip-path="url(#pe08479dbb6)" d="M 314.957697 273.312 
L 314.957697 7.2 
" style="fill:none;stroke:#b0b0b0;stroke-dasharray:2.96,1.28;stroke-dashoffset:0;stroke-width:0.8;"/>
     </g>
     <g id="line2d_32">
      <g>
       <use style="stroke:#000000;stroke-width:0.8;" x="314.957697" xlink:href="#ma69f981358" y="273.312"/>
      </g>
     </g>
     <g id="text_16">
      <!-- 16 -->
      <g transform="translate(309.957697 287.187)scale(0.1 -0.1)">
       <use xlink:href="#SimHei-49"/>
       <use x="50" xlink:href="#SimHei-54"/>
      </g>
     </g>
    </g>
    <g id="xtick_17">
     <g id="line2d_33">
      <path clip-path="url(#pe08479dbb6)" d="M 332.044779 273.312 
L 332.044779 7.2 
" style="fill:none;stroke:#b0b0b0;stroke-dasharray:2.96,1.28;stroke-dashoffset:0;stroke-width:0.8;"/>
     </g>
     <g id="line2d_34">
      <g>
       <use style="stroke:#000000;stroke-width:0.8;" x="332.044779" xlink:href="#ma69f981358" y="273.312"/>
      </g>
     </g>
     <g id="text_17">
      <!-- 17 -->
      <g transform="translate(327.044779 287.187)scale(0.1 -0.1)">
       <use xlink:href="#SimHei-49"/>
       <use x="50" xlink:href="#SimHei-55"/>
      </g>
     </g>
    </g>
    <g id="xtick_18">
     <g id="line2d_35">
      <path clip-path="url(#pe08479dbb6)" d="M 349.13186 273.312 
L 349.13186 7.2 
" style="fill:none;stroke:#b0b0b0;stroke-dasharray:2.96,1.28;stroke-dashoffset:0;stroke-width:0.8;"/>
     </g>
     <g id="line2d_36">
      <g>
       <use style="stroke:#000000;stroke-width:0.8;" x="349.13186" xlink:href="#ma69f981358" y="273.312"/>
      </g>
     </g>
     <g id="text_18">
      <!-- 18 -->
      <g transform="translate(344.13186 287.187)scale(0.1 -0.1)">
       <use xlink:href="#SimHei-49"/>
       <use x="50" xlink:href="#SimHei-56"/>
      </g>
     </g>
    </g>
    <g id="xtick_19">
     <g id="line2d_37">
      <path clip-path="url(#pe08479dbb6)" d="M 366.218941 273.312 
L 366.218941 7.2 
" style="fill:none;stroke:#b0b0b0;stroke-dasharray:2.96,1.28;stroke-dashoffset:0;stroke-width:0.8;"/>
     </g>
     <g id="line2d_38">
      <g>
       <use style="stroke:#000000;stroke-width:0.8;" x="366.218941" xlink:href="#ma69f981358" y="273.312"/>
      </g>
     </g>
     <g id="text_19">
      <!-- 19 -->
      <g transform="translate(361.218941 287.187)scale(0.1 -0.1)">
       <use xlink:href="#SimHei-49"/>
       <use x="50" xlink:href="#SimHei-57"/>
      </g>
     </g>
    </g>
    <g id="xtick_20">
     <g id="line2d_39">
      <path clip-path="url(#pe08479dbb6)" d="M 383.306023 273.312 
L 383.306023 7.2 
" style="fill:none;stroke:#b0b0b0;stroke-dasharray:2.96,1.28;stroke-dashoffset:0;stroke-width:0.8;"/>
     </g>
     <g id="line2d_40">
      <g>
       <use style="stroke:#000000;stroke-width:0.8;" x="383.306023" xlink:href="#ma69f981358" y="273.312"/>
      </g>
     </g>
     <g id="text_20">
      <!-- 20 -->
      <g transform="translate(378.306023 287.187)scale(0.1 -0.1)">
       <use xlink:href="#SimHei-50"/>
       <use x="50" xlink:href="#SimHei-48"/>
      </g>
     </g>
    </g>
    <g id="text_21">
     <!-- 迭代次数 -->
     <g transform="translate(200.97875 300.40575)scale(0.1 -0.1)">
      <defs>
       <path d="M 60.9375 29.296875 
Q 56.25 21.09375 51.359375 15.8125 
Q 46.484375 10.546875 38.28125 4.296875 
Q 36.71875 7.421875 31.640625 10.9375 
Q 40.625 15.234375 47.0625 22.265625 
Q 53.515625 29.296875 56.25 38.28125 
Q 36.71875 38.28125 30.46875 37.890625 
L 30.46875 45.3125 
Q 37.109375 44.921875 57.421875 44.921875 
Q 58.203125 50.78125 58.59375 58.984375 
L 43.75 58.984375 
Q 41.796875 53.90625 39.84375 49.609375 
Q 35.9375 51.5625 32.421875 52.34375 
Q 35.546875 57.421875 37.890625 64.25 
Q 40.234375 71.09375 42.1875 79.6875 
Q 44.53125 78.125 50.390625 76.953125 
Q 48.046875 73.828125 46.09375 65.625 
L 58.59375 65.625 
Q 58.59375 75.78125 57.8125 82.03125 
L 66.796875 81.640625 
Q 66.015625 76.953125 65.625 65.625 
L 77.34375 65.625 
Q 80.859375 65.625 87.109375 66.015625 
L 87.109375 58.203125 
Q 80.859375 58.984375 76.171875 58.984375 
L 65.625 58.984375 
Q 65.234375 50.78125 64.453125 44.921875 
L 80.46875 44.921875 
Q 85.546875 44.921875 92.578125 45.3125 
L 92.578125 37.890625 
Q 85.546875 38.28125 79.296875 38.28125 
L 64.0625 38.28125 
L 63.28125 35.9375 
Q 72.65625 27.734375 89.453125 10.9375 
Q 87.5 10.15625 82.421875 4.6875 
Q 74.609375 15.234375 60.9375 29.296875 
z
M 24.21875 46.09375 
L 24.21875 9.765625 
Q 34.375 -0.390625 58 -0.1875 
Q 81.640625 0 95.703125 1.5625 
Q 92.96875 -3.515625 92.1875 -7.421875 
L 55.859375 -7.421875 
Q 46.484375 -7.421875 39.453125 -6.046875 
Q 32.421875 -4.6875 26.953125 -0.78125 
Q 21.484375 3.125 18.15625 0.1875 
Q 14.84375 -2.734375 10.15625 -8.59375 
Q 7.8125 -5.46875 3.90625 -2.734375 
Q 12.109375 4.296875 16.796875 8.984375 
L 16.796875 39.453125 
Q 11.71875 39.453125 5.46875 39.0625 
L 5.46875 46.484375 
Q 12.109375 46.09375 16.796875 46.09375 
z
M 17.578125 78.515625 
Q 23.828125 66.796875 26.171875 60.9375 
Q 22.65625 60.546875 18.359375 57.03125 
Q 14.84375 66.796875 10.15625 74.21875 
Q 14.0625 75.78125 17.578125 78.515625 
z
" id="SimHei-36845"/>
       <path d="M 51.5625 46.09375 
Q 49.609375 71.484375 49.21875 79.6875 
Q 51.5625 79.296875 58.203125 78.515625 
Q 57.421875 73.828125 59.375 47.65625 
Q 78.125 51.171875 88.28125 54.296875 
L 90.234375 46.875 
Q 85.9375 46.484375 60.15625 41.015625 
Q 64.84375 16.40625 74.015625 7.03125 
Q 83.203125 -2.34375 84.5625 1.953125 
Q 85.9375 6.25 86.328125 11.328125 
Q 90.625 8.59375 94.921875 7.8125 
Q 92.1875 -3.125 89.640625 -6.640625 
Q 87.109375 -10.15625 80.265625 -7.8125 
Q 73.4375 -5.46875 65.421875 4.6875 
Q 57.421875 14.84375 52.34375 39.453125 
Q 37.5 36.328125 33.984375 35.15625 
L 31.640625 42.578125 
Q 37.890625 43.359375 51.5625 46.09375 
z
M 35.15625 77.734375 
Q 32.8125 73.828125 26.5625 57.03125 
L 26.5625 7.421875 
Q 26.5625 -0.78125 26.953125 -9.375 
L 18.75 -9.375 
Q 19.140625 -0.78125 19.140625 7.421875 
L 19.140625 42.96875 
Q 13.28125 33.59375 9.375 28.90625 
Q 7.03125 32.03125 3.515625 34.765625 
Q 9.765625 40.625 16.40625 53.515625 
Q 23.046875 66.40625 26.171875 81.25 
Q 32.03125 78.515625 35.15625 77.734375 
z
M 73.4375 76.171875 
Q 80.46875 67.578125 83.203125 63.28125 
Q 79.6875 60.9375 76.171875 58.203125 
Q 72.65625 64.84375 67.1875 71.484375 
Q 70.3125 73.4375 73.4375 76.171875 
z
" id="SimHei-20195"/>
       <path d="M 64.84375 47.265625 
Q 62.5 39.84375 63.28125 34.171875 
Q 64.0625 28.515625 66.796875 22.65625 
Q 69.53125 16.796875 75 11.71875 
Q 80.46875 6.640625 85.546875 3.3125 
Q 90.625 0 96.09375 -2.34375 
Q 91.796875 -5.46875 89.84375 -9.765625 
Q 82.03125 -5.078125 76.359375 -0.390625 
Q 70.703125 4.296875 66.796875 9.5625 
Q 62.890625 14.84375 59.765625 22.265625 
Q 55.078125 9.765625 46.09375 1.953125 
Q 37.109375 -5.859375 28.90625 -10.15625 
Q 26.171875 -6.25 23.046875 -3.515625 
Q 31.640625 0 38.859375 5.65625 
Q 46.09375 11.328125 49.40625 17.1875 
Q 52.734375 23.046875 53.90625 28.515625 
Q 55.078125 33.984375 55.265625 37.5 
Q 55.46875 41.015625 55.078125 48.828125 
Q 59.765625 47.65625 64.84375 47.265625 
z
M 57.8125 77.734375 
Q 56.640625 76.5625 54.296875 71.484375 
Q 51.953125 66.40625 50.78125 63.671875 
L 90.234375 63.671875 
Q 88.28125 58.203125 86.71875 52.53125 
Q 85.15625 46.875 82.421875 39.0625 
Q 78.125 40.234375 74.609375 40.625 
Q 78.515625 52.34375 79.6875 57.03125 
L 48.4375 57.03125 
Q 46.484375 53.125 43.9375 48.4375 
Q 41.40625 43.75 37.890625 38.28125 
Q 35.546875 40.625 30.859375 42.1875 
Q 35.9375 47.65625 41.015625 58.78125 
Q 46.09375 69.921875 48.828125 81.25 
Q 53.90625 78.515625 57.8125 77.734375 
z
M 31.640625 31.25 
Q 28.515625 26.171875 23.046875 16.984375 
Q 17.578125 7.8125 11.328125 -3.125 
Q 7.8125 -0.390625 3.90625 2.734375 
Q 11.328125 11.328125 16.203125 19.71875 
Q 21.09375 28.125 24.609375 36.328125 
Q 27.34375 33.984375 31.640625 31.25 
z
M 14.0625 74.21875 
Q 26.953125 58.203125 30.46875 52.734375 
Q 27.34375 50.78125 23.4375 47.65625 
Q 19.53125 55.078125 7.8125 69.140625 
Q 10.9375 71.484375 14.0625 74.21875 
z
" id="SimHei-27425"/>
       <path d="M 70.703125 76.953125 
Q 69.921875 75 68.75 71.671875 
Q 67.578125 68.359375 65.234375 59.765625 
L 83.203125 59.765625 
Q 87.109375 59.765625 92.578125 60.15625 
L 92.578125 53.125 
Q 88.28125 53.515625 85.9375 53.515625 
Q 85.9375 47.265625 83.78125 33.78125 
Q 81.640625 20.3125 76.171875 10.546875 
Q 80.078125 5.859375 84.953125 2.140625 
Q 89.84375 -1.5625 94.140625 -3.125 
Q 89.453125 -6.640625 87.890625 -9.765625 
Q 83.203125 -7.03125 79.296875 -3.515625 
Q 75.390625 0 71.484375 5.078125 
Q 67.1875 0.390625 62.296875 -2.921875 
Q 57.421875 -6.25 50 -10.15625 
Q 48.046875 -6.640625 44.53125 -4.6875 
Q 50.390625 -2.34375 57.03125 1.953125 
Q 63.671875 6.25 67.1875 10.546875 
Q 64.453125 16.015625 61.90625 22.265625 
Q 59.375 28.515625 57.421875 38.671875 
Q 56.25 35.546875 53.515625 30.46875 
Q 50.78125 32.03125 46.875 33.59375 
Q 53.125 44.53125 57.03125 57.421875 
Q 60.9375 70.3125 62.109375 79.6875 
Q 66.796875 77.734375 70.703125 76.953125 
z
M 32.8125 35.15625 
Q 31.25 33.59375 29.296875 30.078125 
L 50.78125 30.078125 
Q 48.4375 20.3125 42.578125 10.546875 
Q 48.828125 8.203125 52.34375 6.25 
Q 50.390625 3.515625 48.828125 0.390625 
Q 45.3125 2.734375 38.28125 5.078125 
Q 30.46875 -3.515625 11.328125 -10.15625 
Q 9.375 -5.859375 6.25 -4.296875 
Q 24.609375 0 31.25 7.421875 
Q 20.3125 10.15625 13.28125 12.109375 
Q 15.625 15.625 19.53125 23.828125 
Q 15.625 23.828125 6.640625 23.4375 
L 6.640625 30.46875 
Q 14.0625 30.078125 21.875 30.078125 
Q 23.4375 33.59375 24.21875 37.890625 
Q 28.515625 36.328125 32.8125 35.15625 
z
M 27.734375 61.71875 
Q 27.734375 71.09375 27.34375 79.6875 
L 35.15625 79.6875 
Q 34.765625 71.484375 34.765625 61.71875 
Q 48.046875 61.71875 53.515625 62.109375 
L 53.515625 55.078125 
Q 48.046875 55.46875 34.765625 55.46875 
Q 34.765625 44.140625 35.15625 37.890625 
L 27.34375 37.890625 
Q 27.734375 43.359375 27.734375 51.5625 
Q 25.78125 48.4375 20.3125 43.546875 
Q 14.84375 38.671875 10.15625 35.9375 
Q 8.203125 39.453125 4.296875 41.015625 
Q 7.8125 42.1875 13.671875 46.484375 
Q 19.53125 50.78125 22.65625 55.46875 
Q 14.84375 55.46875 7.8125 55.078125 
L 7.8125 62.109375 
Q 14.453125 61.71875 27.734375 61.71875 
z
M 62.109375 49.609375 
Q 65.625 26.5625 71.875 17.578125 
Q 75.78125 26.5625 77.140625 35.734375 
Q 78.515625 44.921875 78.90625 53.515625 
L 63.671875 53.515625 
L 62.109375 49.609375 
z
M 22.65625 15.625 
Q 27.34375 14.453125 35.546875 12.5 
Q 38.671875 16.40625 41.40625 23.828125 
L 26.953125 23.828125 
Q 25 19.921875 22.65625 15.625 
z
M 51.953125 75.390625 
Q 50 72.265625 48.828125 69.53125 
Q 47.65625 66.796875 45.703125 62.890625 
Q 42.578125 64.453125 39.453125 65.234375 
Q 42.578125 70.3125 45.3125 78.125 
Q 49.21875 76.171875 51.953125 75.390625 
z
M 40.234375 52.734375 
Q 45.3125 47.65625 50 42.578125 
Q 47.65625 40.625 44.921875 37.890625 
Q 39.453125 44.53125 35.9375 48.4375 
Q 38.28125 50.390625 40.234375 52.734375 
z
M 14.453125 78.125 
Q 19.921875 72.65625 23.4375 67.1875 
L 17.578125 63.671875 
Q 14.84375 69.140625 9.375 73.828125 
Q 12.890625 76.171875 14.453125 78.125 
z
" id="SimHei-25968"/>
      </defs>
      <use xlink:href="#SimHei-36845"/>
      <use x="100" xlink:href="#SimHei-20195"/>
      <use x="200" xlink:href="#SimHei-27425"/>
      <use x="300" xlink:href="#SimHei-25968"/>
     </g>
    </g>
   </g>
   <g id="matplotlib.axis_2">
    <g id="ytick_1">
     <g id="line2d_41">
      <path clip-path="url(#pe08479dbb6)" d="M 42.41875 263.003467 
L 399.53875 263.003467 
" style="fill:none;stroke:#b0b0b0;stroke-dasharray:2.96,1.28;stroke-dashoffset:0;stroke-width:0.8;"/>
     </g>
     <g id="line2d_42">
      <defs>
       <path d="M 0 0 
L -3.5 0 
" id="mbcf149e7e3" style="stroke:#000000;stroke-width:0.8;"/>
      </defs>
      <g>
       <use style="stroke:#000000;stroke-width:0.8;" x="42.41875" xlink:href="#mbcf149e7e3" y="263.003467"/>
      </g>
     </g>
     <g id="text_22">
      <!-- 0.0 -->
      <g transform="translate(20.41875 266.440967)scale(0.1 -0.1)">
       <defs>
        <path d="M 16.796875 1.953125 
L 7.8125 1.953125 
L 7.8125 10.546875 
L 16.796875 10.546875 
z
" id="SimHei-46"/>
       </defs>
       <use xlink:href="#SimHei-48"/>
       <use x="50" xlink:href="#SimHei-46"/>
       <use x="100" xlink:href="#SimHei-48"/>
      </g>
     </g>
    </g>
    <g id="ytick_2">
     <g id="line2d_43">
      <path clip-path="url(#pe08479dbb6)" d="M 42.41875 211.172531 
L 399.53875 211.172531 
" style="fill:none;stroke:#b0b0b0;stroke-dasharray:2.96,1.28;stroke-dashoffset:0;stroke-width:0.8;"/>
     </g>
     <g id="line2d_44">
      <g>
       <use style="stroke:#000000;stroke-width:0.8;" x="42.41875" xlink:href="#mbcf149e7e3" y="211.172531"/>
      </g>
     </g>
     <g id="text_23">
      <!-- 0.5 -->
      <g transform="translate(20.41875 214.610031)scale(0.1 -0.1)">
       <use xlink:href="#SimHei-48"/>
       <use x="50" xlink:href="#SimHei-46"/>
       <use x="100" xlink:href="#SimHei-53"/>
      </g>
     </g>
    </g>
    <g id="ytick_3">
     <g id="line2d_45">
      <path clip-path="url(#pe08479dbb6)" d="M 42.41875 159.341596 
L 399.53875 159.341596 
" style="fill:none;stroke:#b0b0b0;stroke-dasharray:2.96,1.28;stroke-dashoffset:0;stroke-width:0.8;"/>
     </g>
     <g id="line2d_46">
      <g>
       <use style="stroke:#000000;stroke-width:0.8;" x="42.41875" xlink:href="#mbcf149e7e3" y="159.341596"/>
      </g>
     </g>
     <g id="text_24">
      <!-- 1.0 -->
      <g transform="translate(20.41875 162.779096)scale(0.1 -0.1)">
       <use xlink:href="#SimHei-49"/>
       <use x="50" xlink:href="#SimHei-46"/>
       <use x="100" xlink:href="#SimHei-48"/>
      </g>
     </g>
    </g>
    <g id="ytick_4">
     <g id="line2d_47">
      <path clip-path="url(#pe08479dbb6)" d="M 42.41875 107.510661 
L 399.53875 107.510661 
" style="fill:none;stroke:#b0b0b0;stroke-dasharray:2.96,1.28;stroke-dashoffset:0;stroke-width:0.8;"/>
     </g>
     <g id="line2d_48">
      <g>
       <use style="stroke:#000000;stroke-width:0.8;" x="42.41875" xlink:href="#mbcf149e7e3" y="107.510661"/>
      </g>
     </g>
     <g id="text_25">
      <!-- 1.5 -->
      <g transform="translate(20.41875 110.948161)scale(0.1 -0.1)">
       <use xlink:href="#SimHei-49"/>
       <use x="50" xlink:href="#SimHei-46"/>
       <use x="100" xlink:href="#SimHei-53"/>
      </g>
     </g>
    </g>
    <g id="ytick_5">
     <g id="line2d_49">
      <path clip-path="url(#pe08479dbb6)" d="M 42.41875 55.679726 
L 399.53875 55.679726 
" style="fill:none;stroke:#b0b0b0;stroke-dasharray:2.96,1.28;stroke-dashoffset:0;stroke-width:0.8;"/>
     </g>
     <g id="line2d_50">
      <g>
       <use style="stroke:#000000;stroke-width:0.8;" x="42.41875" xlink:href="#mbcf149e7e3" y="55.679726"/>
      </g>
     </g>
     <g id="text_26">
      <!-- 2.0 -->
      <g transform="translate(20.41875 59.117226)scale(0.1 -0.1)">
       <use xlink:href="#SimHei-50"/>
       <use x="50" xlink:href="#SimHei-46"/>
       <use x="100" xlink:href="#SimHei-48"/>
      </g>
     </g>
    </g>
    <g id="text_27">
     <!-- 训练损失值 -->
     <g transform="translate(15.16875 165.256)rotate(-90)scale(0.1 -0.1)">
      <defs>
       <path d="M 25.78125 51.5625 
Q 25.390625 42.578125 25.390625 34.765625 
L 25.390625 10.546875 
Q 30.46875 17.578125 32.03125 19.921875 
Q 33.984375 17.578125 36.71875 14.0625 
Q 31.640625 7.8125 28.125 3.3125 
Q 24.609375 -1.171875 20.703125 -6.640625 
Q 17.96875 -3.125 14.84375 -0.78125 
Q 17.96875 3.515625 17.96875 9.765625 
L 17.96875 44.921875 
L 15.234375 44.921875 
Q 9.375 44.921875 4.6875 44.53125 
L 4.6875 51.953125 
Q 9.375 51.5625 15.234375 51.5625 
z
M 53.515625 71.875 
Q 52.734375 67.96875 52.921875 52.53125 
Q 53.125 37.109375 52.140625 29.484375 
Q 51.171875 21.875 48.234375 13.078125 
Q 45.3125 4.296875 38.28125 -5.859375 
Q 34.765625 -3.125 30.859375 -1.953125 
Q 39.84375 7.8125 43.15625 21.28125 
Q 46.484375 34.765625 46.09375 52.140625 
Q 45.703125 69.53125 45.3125 73.046875 
Q 49.21875 72.265625 53.515625 71.875 
z
M 91.796875 73.4375 
Q 91.40625 70.3125 91.40625 62.109375 
L 91.40625 9.765625 
Q 91.40625 1.953125 91.796875 -6.25 
L 84.375 -6.25 
Q 84.765625 1.953125 84.765625 9.375 
L 84.765625 62.109375 
Q 84.765625 70.3125 84.375 73.4375 
L 91.796875 73.4375 
z
M 71.875 2.734375 
L 64.453125 2.734375 
Q 64.84375 11.328125 64.84375 17.96875 
L 64.84375 56.25 
Q 64.84375 63.28125 64.453125 67.96875 
L 71.875 67.96875 
z
M 15.625 80.46875 
Q 25.78125 71.875 32.8125 64.0625 
Q 29.296875 61.328125 27.34375 58.59375 
Q 16.40625 71.09375 10.9375 75 
Q 13.28125 77.34375 15.625 80.46875 
z
" id="SimHei-35757"/>
       <path d="M 51.5625 59.765625 
Q 46.09375 59.765625 37.5 59.375 
L 37.5 66.40625 
Q 46.09375 66.015625 51.953125 66.015625 
L 56.640625 66.015625 
Q 60.546875 77.34375 60.9375 80.859375 
Q 65.625 78.515625 69.53125 76.953125 
Q 67.96875 75.390625 66.59375 72.0625 
Q 65.234375 68.75 64.0625 66.015625 
L 78.515625 66.015625 
Q 84.765625 66.015625 92.1875 66.40625 
L 92.1875 59.375 
Q 86.71875 59.765625 78.515625 59.765625 
L 62.109375 59.765625 
Q 60.15625 55.078125 57.8125 49.21875 
L 73.046875 49.21875 
Q 72.65625 44.921875 72.65625 38.671875 
L 72.65625 30.859375 
L 77.734375 30.859375 
Q 83.59375 30.859375 90.625 31.25 
L 90.625 24.21875 
Q 83.59375 24.609375 77.734375 24.609375 
L 72.65625 24.609375 
L 72.65625 1.953125 
Q 72.65625 -4.6875 69.71875 -6.640625 
Q 66.796875 -8.59375 57.03125 -9.765625 
Q 56.640625 -5.859375 53.90625 -1.5625 
Q 63.671875 -1.953125 64.640625 -0.390625 
Q 65.625 1.171875 65.625 5.078125 
L 65.625 24.609375 
L 53.515625 24.609375 
Q 50.78125 24.609375 48.4375 24.40625 
Q 46.09375 24.21875 42.96875 23.046875 
Q 41.40625 26.953125 39.84375 30.46875 
Q 43.75 31.640625 48.828125 43.359375 
Q 46.09375 43.359375 38.28125 42.96875 
L 38.28125 49.609375 
Q 47.265625 49.21875 50.78125 49.21875 
Q 53.125 55.078125 54.6875 59.765625 
z
M 25.78125 46.09375 
Q 29.296875 51.5625 32.8125 60.9375 
Q 36.328125 58.203125 40.234375 56.25 
Q 36.328125 51.171875 31.640625 42.96875 
Q 26.953125 34.765625 16.796875 21.09375 
Q 20.3125 21.875 37.5 24.609375 
Q 36.71875 20.3125 37.109375 17.96875 
Q 28.515625 17.1875 10.15625 12.890625 
Q 8.203125 16.796875 6.25 19.921875 
Q 9.765625 21.875 13.859375 27.140625 
Q 17.96875 32.421875 22.65625 40.234375 
Q 20.3125 40.625 15.8125 40.03125 
Q 11.328125 39.453125 7.03125 38.28125 
Q 5.46875 41.796875 3.90625 45.703125 
Q 7.8125 48.046875 12.6875 58.203125 
Q 17.578125 68.359375 20.703125 78.125 
Q 25 75.390625 28.90625 74.21875 
Q 25 68.359375 21.671875 61.90625 
Q 18.359375 55.46875 12.5 45.703125 
Q 21.484375 45.703125 25.78125 46.09375 
z
M 37.890625 10.9375 
Q 37.5 6.640625 37.890625 3.90625 
Q 31.25 2.34375 22.84375 -0.390625 
Q 14.453125 -3.125 7.421875 -6.640625 
Q 6.25 -2.34375 4.6875 1.953125 
Q 14.84375 4.296875 18.546875 5.265625 
Q 22.265625 6.25 37.890625 10.9375 
z
M 58.203125 13.671875 
Q 57.03125 12.5 51.359375 6.25 
Q 45.703125 0 38.671875 -7.421875 
Q 35.9375 -3.90625 33.59375 -1.953125 
Q 37.890625 1.5625 42.96875 7.21875 
Q 48.046875 12.890625 51.953125 19.140625 
Q 54.296875 16.40625 58.203125 13.671875 
z
M 82.421875 19.140625 
Q 92.578125 5.859375 96.875 -1.5625 
Q 92.96875 -3.125 89.84375 -5.859375 
Q 85.546875 2.734375 76.5625 14.84375 
Q 79.296875 16.40625 82.421875 19.140625 
z
M 65.625 30.859375 
L 65.625 43.359375 
L 55.859375 43.359375 
Q 51.953125 35.15625 49.609375 30.859375 
z
" id="SimHei-32451"/>
       <path d="M 18.359375 71.875 
Q 18.359375 77.34375 17.96875 82.03125 
L 26.171875 82.03125 
Q 25.78125 77.734375 25.78125 71.875 
L 25.78125 63.671875 
Q 30.46875 63.671875 36.328125 64.0625 
L 36.328125 56.640625 
Q 30.46875 57.03125 25.78125 57.03125 
L 25.78125 39.0625 
Q 29.296875 39.84375 35.546875 42.96875 
Q 35.546875 39.84375 35.9375 35.9375 
Q 31.640625 34.375 25.78125 31.640625 
L 25.78125 2.734375 
Q 25.78125 -3.515625 22.265625 -5.078125 
Q 18.75 -6.640625 9.765625 -7.8125 
Q 9.375 -3.90625 7.03125 0.78125 
Q 12.5 0.390625 15.421875 0.578125 
Q 18.359375 0.78125 18.359375 5.46875 
L 18.359375 28.90625 
Q 10.546875 26.171875 6.25 23.4375 
Q 5.859375 28.125 3.90625 32.8125 
Q 9.375 33.59375 18.359375 36.71875 
L 18.359375 57.03125 
Q 10.15625 57.03125 5.078125 56.640625 
L 5.078125 64.0625 
Q 9.765625 63.671875 18.359375 63.671875 
z
M 86.71875 78.515625 
Q 86.328125 72.65625 86.328125 66.796875 
Q 86.328125 61.328125 86.71875 55.078125 
L 45.3125 55.078125 
Q 45.703125 61.328125 45.703125 66.796875 
Q 45.703125 72.65625 45.3125 78.515625 
L 86.71875 78.515625 
z
M 90.234375 48.046875 
Q 89.84375 42.578125 89.84375 36.71875 
L 89.84375 26.953125 
Q 89.84375 21.09375 90.234375 13.671875 
L 82.421875 13.671875 
L 82.421875 41.40625 
L 49.21875 41.40625 
L 49.21875 13.28125 
L 41.40625 13.28125 
Q 41.796875 19.921875 41.796875 26.5625 
L 41.796875 36.328125 
Q 41.796875 40.625 41.40625 48.046875 
L 90.234375 48.046875 
z
M 70.703125 34.375 
Q 69.140625 28.515625 68.15625 20.890625 
Q 67.1875 13.28125 64.453125 8.390625 
Q 61.71875 3.515625 56.25 -0.96875 
Q 50.78125 -5.46875 37.890625 -10.15625 
Q 36.328125 -7.03125 32.03125 -2.734375 
Q 42.96875 -0.78125 49.015625 3.125 
Q 55.078125 7.03125 57.8125 11.90625 
Q 60.546875 16.796875 60.9375 22.84375 
Q 61.328125 28.90625 61.328125 35.546875 
Q 66.015625 34.765625 70.703125 34.375 
z
M 79.6875 61.328125 
L 79.6875 72.65625 
L 52.734375 72.65625 
L 52.734375 61.328125 
z
M 73.046875 11.71875 
Q 77.734375 8.984375 84.5625 5.265625 
Q 91.40625 1.5625 96.484375 -1.953125 
Q 93.359375 -5.078125 91.40625 -8.59375 
Q 86.328125 -4.6875 81.25 -1.359375 
Q 76.171875 1.953125 68.359375 5.46875 
Q 71.09375 8.59375 73.046875 11.71875 
z
" id="SimHei-25439"/>
       <path d="M 32.03125 69.53125 
Q 30.078125 67.578125 26.171875 58.59375 
L 46.09375 58.59375 
Q 46.09375 72.65625 45.703125 79.6875 
Q 49.609375 79.296875 54.6875 78.90625 
Q 53.90625 73.4375 53.703125 69.140625 
Q 53.515625 64.84375 53.515625 58.59375 
L 71.875 58.59375 
Q 78.125 58.59375 84.765625 58.984375 
L 84.765625 51.5625 
Q 78.515625 51.953125 71.875 51.953125 
L 53.515625 51.953125 
Q 53.515625 43.359375 52.734375 34.375 
L 78.90625 34.375 
Q 84.765625 34.375 91.796875 34.765625 
L 91.796875 27.34375 
Q 84.765625 27.734375 78.90625 27.734375 
L 55.859375 27.734375 
Q 60.546875 17.1875 71.875 10.546875 
Q 83.203125 3.90625 94.140625 1.5625 
Q 91.015625 -2.34375 88.671875 -7.421875 
Q 77.34375 -3.125 66.40625 4.484375 
Q 55.46875 12.109375 50 23.046875 
Q 45.3125 12.890625 36.328125 4.6875 
Q 27.34375 -3.515625 12.109375 -10.15625 
Q 10.15625 -6.25 6.25 -2.734375 
Q 19.53125 0.78125 29.875 9.171875 
Q 40.234375 17.578125 43.359375 27.734375 
L 20.703125 27.734375 
Q 14.453125 27.734375 7.03125 27.34375 
L 7.03125 34.765625 
Q 14.453125 34.375 20.703125 34.375 
L 44.921875 34.375 
Q 46.09375 42.578125 46.09375 51.953125 
L 23.4375 51.953125 
Q 18.75 43.75 15.234375 38.28125 
Q 12.109375 40.234375 7.8125 41.796875 
Q 14.84375 50.390625 18.546875 58.59375 
Q 22.265625 66.796875 23.4375 73.046875 
Q 28.125 70.703125 32.03125 69.53125 
z
" id="SimHei-22833"/>
       <path d="M 57.421875 69.53125 
L 57.421875 79.6875 
Q 62.109375 79.296875 67.96875 78.90625 
Q 66.015625 76.171875 65.625 69.53125 
L 80.078125 69.53125 
Q 86.71875 69.53125 91.796875 69.921875 
L 91.796875 62.890625 
Q 86.328125 63.28125 80.078125 63.28125 
L 65.234375 63.28125 
L 64.453125 54.6875 
L 84.375 54.6875 
Q 83.984375 50 83.984375 42.1875 
L 83.984375 2.34375 
Q 91.796875 2.34375 95.3125 2.734375 
L 95.3125 -4.296875 
Q 90.234375 -3.90625 81.25 -3.90625 
L 44.53125 -3.90625 
Q 35.546875 -3.90625 29.6875 -4.296875 
L 29.6875 2.734375 
Q 33.203125 2.34375 40.625 2.34375 
L 40.625 42.1875 
Q 40.625 49.609375 40.234375 54.6875 
L 56.25 54.6875 
L 57.03125 63.28125 
L 50 63.28125 
Q 40.234375 63.28125 34.765625 62.890625 
L 34.765625 69.921875 
Q 39.84375 69.53125 50 69.53125 
z
M 34.765625 76.5625 
Q 31.640625 73.046875 25.78125 58.59375 
L 25.78125 7.03125 
Q 25.78125 -1.171875 26.171875 -8.59375 
L 17.96875 -8.59375 
Q 18.359375 -1.953125 18.359375 5.859375 
L 18.359375 46.09375 
Q 13.671875 38.28125 9.765625 33.59375 
Q 6.640625 37.890625 3.90625 40.234375 
Q 7.8125 44.140625 14.640625 55.265625 
Q 21.484375 66.40625 25.390625 80.46875 
Q 30.859375 77.734375 34.765625 76.5625 
z
M 76.953125 41.40625 
L 76.953125 49.21875 
L 48.046875 49.21875 
L 48.046875 41.40625 
z
M 76.953125 2.34375 
L 76.953125 9.765625 
L 48.046875 9.765625 
L 48.046875 2.34375 
z
M 76.953125 15.625 
L 76.953125 22.65625 
L 48.046875 22.65625 
L 48.046875 15.625 
z
M 76.953125 28.515625 
L 76.953125 35.546875 
L 48.046875 35.546875 
L 48.046875 28.515625 
z
" id="SimHei-20540"/>
      </defs>
      <use xlink:href="#SimHei-35757"/>
      <use x="100" xlink:href="#SimHei-32451"/>
      <use x="200" xlink:href="#SimHei-25439"/>
      <use x="300" xlink:href="#SimHei-22833"/>
      <use x="400" xlink:href="#SimHei-20540"/>
     </g>
    </g>
   </g>
   <g id="line2d_51">
    <path clip-path="url(#pe08479dbb6)" d="M 58.651477 19.296 
L 75.738559 119.417556 
L 92.82564 153.098897 
L 109.912721 171.374007 
L 126.999803 182.586925 
L 144.086884 190.462176 
L 161.173965 196.43001 
L 178.261047 201.913859 
L 195.348128 206.046705 
L 212.435209 209.765895 
L 229.522291 213.096167 
L 246.609372 215.501152 
L 263.696453 217.865353 
L 280.783535 220.332615 
L 297.870616 222.00417 
L 314.957697 223.46109 
L 332.044779 225.43255 
L 349.13186 227.020505 
L 366.218941 227.92447 
L 383.306023 229.289875 
" style="fill:none;stroke:#4169e1;stroke-linecap:square;stroke-width:1.5;"/>
   </g>
   <g id="line2d_52">
    <path clip-path="url(#pe08479dbb6)" d="M 58.651477 94.196633 
L 75.738559 166.480248 
L 92.82564 193.866325 
L 109.912721 209.757093 
L 126.999803 210.487077 
L 144.086884 225.455301 
L 161.173965 231.865871 
L 178.261047 231.843001 
L 195.348128 237.927131 
L 212.435209 241.392126 
L 229.522291 244.239785 
L 246.609372 246.425056 
L 263.696453 247.737074 
L 280.783535 249.173134 
L 297.870616 250.836476 
L 314.957697 251.089958 
L 332.044779 252.650454 
L 349.13186 253.75762 
L 366.218941 254.576758 
L 383.306023 255.361724 
" style="fill:none;stroke:#add8e6;stroke-linecap:square;stroke-width:1.5;"/>
   </g>
   <g id="line2d_53">
    <path clip-path="url(#pe08479dbb6)" d="M 58.651477 184.909567 
L 75.738559 243.040983 
L 92.82564 247.478193 
L 109.912721 250.612183 
L 126.999803 252.391339 
L 144.086884 253.640451 
L 161.173965 254.909167 
L 178.261047 255.720155 
L 195.348128 256.491165 
L 212.435209 257.331381 
L 229.522291 257.895885 
L 246.609372 258.347493 
L 263.696453 259.196818 
L 280.783535 259.571107 
L 297.870616 259.746783 
L 314.957697 259.868748 
L 332.044779 260.577927 
L 349.13186 260.991138 
L 366.218941 261.003838 
L 383.306023 261.216 
" style="fill:none;stroke:#ffa500;stroke-linecap:square;stroke-width:1.5;"/>
   </g>
   <g id="patch_3">
    <path d="M 42.41875 273.312 
L 42.41875 7.2 
" style="fill:none;stroke:#000000;stroke-linecap:square;stroke-linejoin:miter;stroke-width:0.8;"/>
   </g>
   <g id="patch_4">
    <path d="M 399.53875 273.312 
L 399.53875 7.2 
" style="fill:none;stroke:#000000;stroke-linecap:square;stroke-linejoin:miter;stroke-width:0.8;"/>
   </g>
   <g id="patch_5">
    <path d="M 42.41875 273.312 
L 399.53875 273.312 
" style="fill:none;stroke:#000000;stroke-linecap:square;stroke-linejoin:miter;stroke-width:0.8;"/>
   </g>
   <g id="patch_6">
    <path d="M 42.41875 7.2 
L 399.53875 7.2 
" style="fill:none;stroke:#000000;stroke-linecap:square;stroke-linejoin:miter;stroke-width:0.8;"/>
   </g>
   <g id="legend_1">
    <g id="patch_7">
     <path d="M 285.53875 58.207812 
L 392.53875 58.207812 
Q 394.53875 58.207812 394.53875 56.207812 
L 394.53875 14.2 
Q 394.53875 12.2 392.53875 12.2 
L 285.53875 12.2 
Q 283.53875 12.2 283.53875 14.2 
L 283.53875 56.207812 
Q 283.53875 58.207812 285.53875 58.207812 
z
" style="fill:#ffffff;opacity:0.8;stroke:#cccccc;stroke-linejoin:miter;"/>
    </g>
    <g id="line2d_54">
     <path d="M 287.53875 20.942187 
L 307.53875 20.942187 
" style="fill:none;stroke:#4169e1;stroke-linecap:square;stroke-width:1.5;"/>
    </g>
    <g id="line2d_55"/>
    <g id="text_28">
     <!-- 激活函数sigmoid -->
     <g transform="translate(315.53875 24.442187)scale(0.1 -0.1)">
      <defs>
       <path d="M 28.515625 41.015625 
Q 28.90625 47.65625 28.90625 53.125 
L 28.90625 60.15625 
Q 28.90625 65.625 28.515625 72.65625 
L 37.109375 72.65625 
Q 37.890625 76.171875 38.671875 82.421875 
Q 42.96875 81.640625 46.875 80.859375 
Q 44.921875 76.953125 44.140625 72.65625 
L 58.203125 72.65625 
Q 57.8125 66.015625 57.8125 60.15625 
L 57.8125 41.40625 
Q 60.15625 45.3125 62.109375 49.609375 
Q 64.453125 54.6875 66.203125 60.15625 
Q 67.96875 65.625 69.328125 71.484375 
Q 70.703125 77.34375 71.09375 81.25 
Q 75.390625 79.6875 80.078125 79.296875 
Q 78.515625 76.171875 77.53125 72.65625 
Q 76.5625 69.140625 74.21875 63.28125 
L 85.546875 63.28125 
Q 89.84375 63.28125 95.3125 63.671875 
L 95.3125 56.640625 
Q 91.40625 57.03125 89.84375 57.03125 
Q 89.0625 49.609375 88.671875 46.671875 
Q 88.28125 43.75 87.5 38.28125 
Q 86.71875 32.8125 84.953125 26.171875 
Q 83.203125 19.53125 80.859375 13.671875 
Q 84.765625 7.03125 88.859375 2.734375 
Q 92.96875 -1.5625 96.875 -3.515625 
Q 92.96875 -6.25 91.015625 -10.15625 
Q 85.546875 -5.078125 82.609375 -1.5625 
Q 79.6875 1.953125 76.5625 6.640625 
Q 73.046875 2.34375 69.140625 -1.953125 
Q 65.234375 -6.25 60.15625 -10.15625 
Q 57.421875 -6.640625 53.90625 -3.515625 
Q 59.375 -1.171875 63.671875 2.921875 
Q 67.96875 7.03125 72.265625 14.0625 
Q 69.140625 21.484375 67.578125 26.953125 
Q 66.015625 32.03125 64.84375 39.84375 
Q 63.671875 37.5 62.5 35.15625 
Q 60.546875 37.5 56.640625 39.84375 
L 57.421875 41.015625 
L 28.515625 41.015625 
z
M 46.09375 40.625 
Q 47.265625 35.9375 48.046875 33.203125 
L 50.78125 33.203125 
Q 54.296875 33.203125 60.9375 33.59375 
L 60.9375 26.953125 
Q 54.296875 27.34375 48.046875 27.34375 
L 42.96875 27.34375 
Q 42.578125 25 41.796875 21.484375 
L 58.59375 21.484375 
Q 58.203125 3.515625 55.46875 0.1875 
Q 52.734375 -3.125 44.140625 -4.6875 
Q 43.359375 -1.171875 41.40625 3.125 
Q 49.21875 2.734375 50 6.046875 
Q 50.78125 9.375 51.171875 15.625 
L 40.625 15.625 
Q 39.0625 8.984375 35.734375 3.515625 
Q 32.421875 -1.953125 26.953125 -7.8125 
Q 23.828125 -4.296875 19.53125 -2.734375 
Q 26.5625 2.734375 30.65625 9.953125 
Q 34.765625 17.1875 35.9375 27.34375 
L 33.203125 27.34375 
Q 31.25 27.34375 24.21875 26.953125 
L 24.21875 33.59375 
Q 31.25 33.203125 37.109375 33.203125 
L 40.625 33.203125 
Q 40.234375 35.546875 38.671875 39.453125 
Q 42.1875 39.84375 46.09375 40.625 
z
M 72.265625 57.03125 
Q 70.703125 53.125 69.53125 50 
Q 70.703125 39.0625 73.046875 31.25 
Q 75.390625 23.4375 76.953125 21.09375 
Q 79.296875 29.6875 80.265625 35.34375 
Q 81.25 41.015625 81.828125 45.703125 
Q 82.421875 50.390625 82.8125 57.03125 
L 72.265625 57.03125 
z
M 23.828125 27.734375 
Q 20.3125 19.53125 18.75 15.234375 
Q 17.1875 10.9375 15.234375 5.65625 
Q 13.28125 0.390625 11.71875 -4.296875 
Q 7.421875 -1.171875 3.125 0.78125 
Q 5.46875 3.90625 7.421875 7.609375 
Q 9.375 11.328125 11.125 15.234375 
Q 12.890625 19.140625 17.578125 32.03125 
Q 20.3125 29.6875 23.828125 27.734375 
z
M 10.15625 56.25 
Q 13.28125 53.90625 16.59375 50.96875 
Q 19.921875 48.046875 23.828125 44.53125 
Q 20.703125 41.40625 18.75 37.890625 
Q 16.40625 41.015625 13.28125 43.9375 
Q 10.15625 46.875 5.46875 50.390625 
Q 7.421875 52.734375 10.15625 56.25 
z
M 14.84375 78.125 
Q 17.1875 76.171875 20.5 72.84375 
Q 23.828125 69.53125 26.953125 66.796875 
Q 23.046875 63.671875 20.703125 60.9375 
Q 18.359375 64.84375 15.625 67.578125 
Q 12.890625 70.3125 9.375 73.046875 
Q 12.109375 75.78125 14.84375 78.125 
z
M 51.5625 46.875 
L 51.5625 53.90625 
L 35.546875 53.90625 
L 35.546875 46.875 
z
M 51.5625 59.765625 
L 51.5625 66.796875 
L 35.546875 66.796875 
L 35.546875 59.765625 
z
" id="SimHei-28608"/>
       <path d="M 83.984375 78.125 
Q 85.9375 74.609375 89.453125 70.703125 
Q 83.203125 69.921875 77.921875 69.140625 
Q 72.65625 68.359375 66.40625 67.578125 
L 66.40625 51.171875 
L 83.203125 51.171875 
Q 89.453125 51.171875 94.921875 51.5625 
L 94.921875 44.53125 
Q 90.234375 44.921875 83.203125 44.921875 
L 66.40625 44.921875 
L 66.40625 28.515625 
L 88.28125 28.515625 
Q 87.890625 21.09375 87.890625 8.59375 
Q 87.890625 -3.90625 88.28125 -8.59375 
L 80.46875 -8.59375 
L 80.46875 -1.171875 
L 46.484375 -1.171875 
L 46.484375 -8.984375 
L 39.0625 -8.984375 
Q 39.453125 -3.90625 39.453125 9.765625 
Q 39.453125 23.828125 39.0625 28.515625 
L 58.984375 28.515625 
L 58.984375 44.921875 
L 46.484375 44.921875 
Q 37.890625 44.921875 31.640625 44.53125 
L 31.640625 51.5625 
Q 38.28125 51.171875 46.875 51.171875 
L 58.984375 51.171875 
L 58.984375 66.015625 
Q 48.4375 64.84375 38.671875 63.28125 
Q 38.28125 67.578125 35.546875 70.703125 
Q 44.140625 70.3125 61.90625 73.046875 
Q 79.6875 75.78125 83.984375 78.125 
z
M 80.46875 5.078125 
L 80.46875 22.265625 
L 46.484375 22.265625 
L 46.484375 5.078125 
z
M 32.421875 26.953125 
Q 26.5625 15.625 21.875 5.859375 
Q 17.1875 -3.90625 14.84375 -8.203125 
Q 10.9375 -5.078125 6.25 -3.125 
Q 9.375 0.390625 14.0625 7.8125 
Q 18.75 15.234375 25.78125 32.03125 
Q 29.296875 28.515625 32.421875 26.953125 
z
M 11.328125 54.296875 
Q 19.53125 48.828125 29.6875 41.796875 
Q 26.953125 38.671875 24.21875 35.15625 
Q 14.84375 42.578125 6.25 48.046875 
Q 8.984375 51.171875 11.328125 54.296875 
z
M 17.1875 78.515625 
Q 25.390625 73.046875 33.59375 66.015625 
Q 29.6875 62.890625 27.734375 59.765625 
Q 21.875 66.015625 11.71875 72.65625 
Q 14.453125 75.390625 17.1875 78.515625 
z
" id="SimHei-27963"/>
       <path d="M 18.75 3.125 
L 81.25 3.125 
L 81.25 34.765625 
Q 81.25 40.625 80.46875 48.046875 
L 89.0625 48.046875 
Q 88.671875 39.0625 88.671875 34.765625 
L 88.671875 0.78125 
Q 88.671875 -4.296875 89.0625 -9.765625 
L 81.25 -9.765625 
L 81.25 -3.515625 
L 10.9375 -3.515625 
Q 11.328125 0.78125 11.328125 21.484375 
Q 11.328125 42.1875 10.9375 48.046875 
L 19.140625 48.046875 
Q 18.75 43.75 18.75 38.671875 
z
M 85.15625 76.953125 
L 85.15625 69.53125 
Q 79.296875 67.578125 69.921875 63.078125 
Q 60.546875 58.59375 54.296875 55.859375 
L 54.296875 17.1875 
Q 54.296875 10.9375 50 9.171875 
Q 45.703125 7.421875 39.453125 6.25 
Q 38.671875 10.546875 36.71875 14.84375 
Q 42.96875 14.84375 45.109375 15.625 
Q 47.265625 16.40625 47.265625 21.484375 
L 47.265625 48.046875 
Q 47.265625 55.46875 46.484375 60.15625 
Q 50.390625 61.328125 57.8125 64.453125 
Q 65.234375 67.578125 70.3125 70.3125 
L 30.46875 70.3125 
Q 22.265625 70.3125 16.015625 69.921875 
L 16.015625 77.34375 
Q 23.828125 76.953125 30.46875 76.953125 
z
M 70.3125 27.34375 
Q 73.4375 24.609375 78.125 19.921875 
Q 75.390625 17.578125 72.65625 14.0625 
Q 68.75 18.359375 65.625 21.484375 
Q 62.5 24.609375 56.25 30.078125 
Q 58.984375 32.8125 60.9375 35.546875 
z
M 42.1875 28.125 
Q 39.453125 26.171875 34.953125 23.234375 
Q 30.46875 20.3125 25 15.625 
Q 23.828125 18.359375 20.703125 22.265625 
Q 23.4375 23.4375 29.484375 27.140625 
Q 35.546875 30.859375 39.84375 34.765625 
Q 40.625 31.640625 42.1875 28.125 
z
M 77.734375 49.609375 
Q 75 48.4375 71.28125 45.5 
Q 67.578125 42.578125 62.5 38.671875 
Q 60.546875 42.1875 58.59375 44.53125 
Q 62.890625 47.65625 65.625 50 
Q 68.359375 52.34375 71.875 55.859375 
Q 74.609375 52.734375 77.734375 49.609375 
z
M 36.71875 39.84375 
Q 34.375 42.96875 31.25 45.890625 
Q 28.125 48.828125 23.046875 52.34375 
Q 25.78125 55.078125 27.34375 57.8125 
Q 31.640625 54.6875 41.40625 46.09375 
Q 38.671875 42.578125 36.71875 39.84375 
z
" id="SimHei-20989"/>
       <path d="M 42.96875 14.0625 
Q 42.96875 7.8125 38.078125 4.484375 
Q 33.203125 1.171875 25.78125 1.171875 
Q 16.40625 1.171875 11.328125 4.875 
Q 6.25 8.59375 6.25 15.625 
L 14.0625 15.625 
Q 14.0625 10.9375 17.375 9.375 
Q 20.703125 7.8125 25.390625 7.8125 
Q 30.078125 7.8125 32.421875 9.5625 
Q 34.765625 11.328125 34.765625 14.0625 
Q 34.765625 16.015625 32.8125 17.96875 
Q 30.859375 19.921875 23.046875 21.09375 
Q 14.0625 22.265625 10.734375 25.578125 
Q 7.421875 28.90625 7.421875 34.375 
Q 7.421875 39.0625 11.90625 42.765625 
Q 16.40625 46.484375 25 46.484375 
Q 32.8125 46.484375 37.296875 42.96875 
Q 41.796875 39.453125 41.796875 33.59375 
L 33.984375 33.59375 
Q 33.984375 37.109375 31.4375 38.46875 
Q 28.90625 39.84375 25 39.84375 
Q 19.921875 39.84375 17.765625 38.078125 
Q 15.625 36.328125 15.625 33.984375 
Q 15.625 31.25 17.578125 29.6875 
Q 19.53125 28.125 25.78125 27.34375 
Q 35.9375 25.78125 39.453125 22.453125 
Q 42.96875 19.140625 42.96875 14.0625 
z
" id="SimHei-115"/>
       <path d="M 28.125 58.203125 
L 20.3125 58.203125 
L 20.3125 68.359375 
L 28.125 68.359375 
z
M 28.125 1.953125 
L 20.3125 1.953125 
L 20.3125 45.703125 
L 28.125 45.703125 
z
" id="SimHei-105"/>
       <path d="M 46.484375 39.0625 
Q 43.75 39.84375 41.203125 40.03125 
Q 38.671875 40.234375 35.9375 39.453125 
Q 37.109375 38.28125 37.890625 36.515625 
Q 38.671875 34.765625 38.671875 31.25 
Q 38.671875 24.609375 34.171875 20.3125 
Q 29.6875 16.015625 23.046875 16.015625 
Q 21.484375 16.015625 18.9375 16.59375 
Q 16.40625 17.1875 14.84375 17.96875 
Q 13.671875 17.1875 13.28125 16.40625 
Q 12.890625 15.625 12.890625 14.453125 
Q 12.890625 12.5 15.625 11.515625 
Q 18.359375 10.546875 25.390625 10.546875 
Q 36.71875 10.546875 40.8125 7.421875 
Q 44.921875 4.296875 44.921875 -0.390625 
Q 44.921875 -6.640625 38.859375 -9.5625 
Q 32.8125 -12.5 24.609375 -12.5 
Q 14.0625 -12.5 8.984375 -9.765625 
Q 3.90625 -7.03125 3.90625 -2.34375 
Q 3.90625 0 5.859375 2.34375 
Q 7.8125 4.6875 10.9375 6.25 
Q 8.59375 7.421875 7.21875 9.171875 
Q 5.859375 10.9375 5.859375 13.671875 
Q 5.859375 16.015625 7.609375 17.765625 
Q 9.375 19.53125 11.71875 20.703125 
Q 9.765625 22.65625 8.59375 25.390625 
Q 7.421875 28.125 7.421875 31.25 
Q 7.421875 37.890625 11.90625 42.1875 
Q 16.40625 46.484375 23.046875 46.484375 
Q 26.5625 46.484375 29.09375 45.5 
Q 31.640625 44.53125 33.59375 42.578125 
Q 36.71875 44.921875 39.84375 45.890625 
Q 42.96875 46.875 46.484375 46.484375 
z
M 30.859375 31.25 
Q 30.859375 35.15625 28.90625 37.5 
Q 26.953125 39.84375 23.046875 39.84375 
Q 19.140625 39.84375 17.1875 37.5 
Q 15.234375 35.15625 15.234375 31.25 
Q 15.234375 27.34375 17.1875 25 
Q 19.140625 22.65625 23.046875 22.65625 
Q 26.953125 22.65625 28.90625 25 
Q 30.859375 27.34375 30.859375 31.25 
z
M 37.5 -1.171875 
Q 37.5 0.390625 35.734375 1.953125 
Q 33.984375 3.515625 26.953125 3.515625 
Q 25.390625 3.515625 22.65625 3.703125 
Q 19.921875 3.90625 16.40625 4.296875 
Q 13.28125 3.125 12.109375 1.5625 
Q 10.9375 0 10.9375 -1.5625 
Q 10.9375 -3.90625 14.0625 -5.46875 
Q 17.1875 -7.03125 25 -7.03125 
Q 31.640625 -7.03125 34.5625 -5.265625 
Q 37.5 -3.515625 37.5 -1.171875 
z
" id="SimHei-103"/>
       <path d="M 47.65625 1.953125 
L 39.84375 1.953125 
L 39.84375 33.59375 
Q 39.84375 35.9375 39.0625 37.5 
Q 38.28125 39.0625 35.9375 39.0625 
Q 33.203125 39.0625 30.859375 36.125 
Q 28.515625 33.203125 28.515625 28.515625 
L 28.515625 1.953125 
L 20.703125 1.953125 
L 20.703125 33.59375 
Q 20.703125 35.9375 19.921875 37.5 
Q 19.140625 39.0625 16.796875 39.0625 
Q 14.0625 39.0625 11.71875 36.125 
Q 9.375 33.203125 9.375 28.515625 
L 9.375 1.953125 
L 1.5625 1.953125 
L 1.5625 45.703125 
L 9.375 45.703125 
L 9.375 39.84375 
Q 11.328125 42.96875 14.0625 44.71875 
Q 16.796875 46.484375 19.921875 46.484375 
Q 23.046875 46.484375 25.1875 44.71875 
Q 27.34375 42.96875 28.125 39.84375 
Q 30.078125 42.96875 32.609375 44.71875 
Q 35.15625 46.484375 38.28125 46.484375 
Q 42.96875 46.484375 45.3125 43.9375 
Q 47.65625 41.40625 47.65625 36.71875 
z
" id="SimHei-109"/>
       <path d="M 45.703125 23.828125 
Q 45.703125 13.671875 39.453125 7.421875 
Q 33.203125 1.171875 24.609375 1.171875 
Q 16.015625 1.171875 9.765625 7.421875 
Q 3.515625 13.671875 3.515625 23.828125 
Q 3.515625 33.984375 9.765625 40.234375 
Q 16.015625 46.484375 24.609375 46.484375 
Q 33.203125 46.484375 39.453125 40.234375 
Q 45.703125 33.984375 45.703125 23.828125 
z
M 37.109375 23.828125 
Q 37.109375 31.640625 33.203125 35.546875 
Q 29.296875 39.453125 24.609375 39.453125 
Q 19.921875 39.453125 16.015625 35.546875 
Q 12.109375 31.640625 12.109375 23.828125 
Q 12.109375 16.015625 16.015625 12.109375 
Q 19.921875 8.203125 24.609375 8.203125 
Q 29.296875 8.203125 33.203125 12.109375 
Q 37.109375 16.015625 37.109375 23.828125 
z
" id="SimHei-111"/>
       <path d="M 42.96875 1.953125 
L 35.15625 1.953125 
L 35.15625 7.8125 
Q 32.8125 4.296875 29.6875 2.734375 
Q 26.5625 1.171875 22.265625 1.171875 
Q 14.453125 1.171875 8.984375 6.828125 
Q 3.515625 12.5 3.515625 23.828125 
Q 3.515625 35.15625 8.984375 41.015625 
Q 14.453125 46.875 22.265625 46.875 
Q 26.5625 46.875 29.6875 45.109375 
Q 32.8125 43.359375 35.15625 39.84375 
L 35.15625 68.75 
L 42.96875 68.75 
z
M 35.15625 23.828125 
Q 35.15625 31.25 31.828125 35.546875 
Q 28.515625 39.84375 23.828125 39.84375 
Q 17.96875 39.84375 15.03125 35.546875 
Q 12.109375 31.25 12.109375 23.828125 
Q 12.109375 16.40625 15.03125 12.296875 
Q 17.96875 8.203125 23.828125 8.203125 
Q 28.515625 8.203125 31.828125 12.296875 
Q 35.15625 16.40625 35.15625 23.828125 
z
" id="SimHei-100"/>
      </defs>
      <use xlink:href="#SimHei-28608"/>
      <use x="100" xlink:href="#SimHei-27963"/>
      <use x="200" xlink:href="#SimHei-20989"/>
      <use x="300" xlink:href="#SimHei-25968"/>
      <use x="400" xlink:href="#SimHei-115"/>
      <use x="450" xlink:href="#SimHei-105"/>
      <use x="500" xlink:href="#SimHei-103"/>
      <use x="550" xlink:href="#SimHei-109"/>
      <use x="600" xlink:href="#SimHei-111"/>
      <use x="650" xlink:href="#SimHei-105"/>
      <use x="700" xlink:href="#SimHei-100"/>
     </g>
    </g>
    <g id="line2d_56">
     <path d="M 287.53875 35.2 
L 307.53875 35.2 
" style="fill:none;stroke:#add8e6;stroke-linecap:square;stroke-width:1.5;"/>
    </g>
    <g id="line2d_57"/>
    <g id="text_29">
     <!-- 激活函数tanh -->
     <g transform="translate(315.53875 38.7)scale(0.1 -0.1)">
      <defs>
       <path d="M 42.96875 3.125 
Q 41.015625 2.34375 38.46875 1.75 
Q 35.9375 1.171875 31.640625 1.171875 
Q 24.609375 1.171875 20.3125 5.078125 
Q 16.015625 8.984375 16.015625 16.015625 
L 16.015625 39.453125 
L 2.734375 39.453125 
L 2.734375 45.703125 
L 16.015625 45.703125 
L 16.015625 60.9375 
L 23.828125 60.9375 
L 23.828125 45.703125 
L 39.84375 45.703125 
L 39.84375 39.453125 
L 23.828125 39.453125 
L 23.828125 15.625 
Q 23.828125 12.5 25.390625 10.34375 
Q 26.953125 8.203125 31.25 8.203125 
Q 35.546875 8.203125 38.28125 8.984375 
Q 41.015625 9.765625 42.96875 10.9375 
z
" id="SimHei-116"/>
       <path d="M 44.921875 1.953125 
L 35.546875 1.953125 
Q 34.765625 2.734375 34.375 4.09375 
Q 33.984375 5.46875 33.984375 7.421875 
Q 31.25 4.296875 27.34375 2.734375 
Q 23.4375 1.171875 19.140625 1.171875 
Q 12.890625 1.171875 8.59375 4.296875 
Q 4.296875 7.421875 4.296875 13.28125 
Q 4.296875 19.140625 8.203125 22.65625 
Q 12.109375 26.171875 20.3125 27.34375 
Q 25.78125 28.125 29.875 29.296875 
Q 33.984375 30.46875 33.984375 32.421875 
Q 33.984375 34.765625 32.21875 37.109375 
Q 30.46875 39.453125 24.609375 39.453125 
Q 19.921875 39.453125 17.765625 37.6875 
Q 15.625 35.9375 14.84375 32.8125 
L 6.25 32.8125 
Q 7.03125 39.0625 11.90625 42.765625 
Q 16.796875 46.484375 24.609375 46.484375 
Q 33.203125 46.484375 37.5 42.578125 
Q 41.796875 38.671875 41.796875 31.640625 
L 41.796875 10.15625 
Q 41.796875 7.8125 42.578125 5.859375 
Q 43.359375 3.90625 44.921875 1.953125 
z
M 33.984375 16.40625 
L 33.984375 24.21875 
Q 31.640625 23.4375 29.484375 22.84375 
Q 27.34375 22.265625 22.265625 21.484375 
Q 16.40625 20.703125 14.640625 18.75 
Q 12.890625 16.796875 12.890625 14.0625 
Q 12.890625 11.71875 14.640625 9.953125 
Q 16.40625 8.203125 19.921875 8.203125 
Q 23.4375 8.203125 27.53125 10.15625 
Q 31.640625 12.109375 33.984375 16.40625 
z
" id="SimHei-97"/>
       <path d="M 43.75 1.953125 
L 35.9375 1.953125 
L 35.9375 30.078125 
Q 35.9375 34.765625 33.59375 37.5 
Q 31.25 40.234375 27.34375 40.234375 
Q 22.265625 40.234375 17.765625 34.953125 
Q 13.28125 29.6875 13.28125 21.875 
L 13.28125 1.953125 
L 5.46875 1.953125 
L 5.46875 45.703125 
L 13.28125 45.703125 
L 13.28125 37.5 
Q 16.40625 41.796875 20.109375 44.140625 
Q 23.828125 46.484375 29.6875 46.484375 
Q 36.71875 46.484375 40.234375 42.578125 
Q 43.75 38.671875 43.75 32.8125 
z
" id="SimHei-110"/>
       <path d="M 43.75 1.953125 
L 35.9375 1.953125 
L 35.9375 30.078125 
Q 35.9375 34.765625 33.59375 37.5 
Q 31.25 40.234375 27.34375 40.234375 
Q 22.265625 40.234375 17.765625 34.953125 
Q 13.28125 29.6875 13.28125 21.875 
L 13.28125 1.953125 
L 5.46875 1.953125 
L 5.46875 68.75 
L 13.28125 68.75 
L 13.28125 37.5 
Q 16.40625 41.796875 20.109375 44.140625 
Q 23.828125 46.484375 29.6875 46.484375 
Q 36.71875 46.484375 40.234375 42.578125 
Q 43.75 38.671875 43.75 32.8125 
z
" id="SimHei-104"/>
      </defs>
      <use xlink:href="#SimHei-28608"/>
      <use x="100" xlink:href="#SimHei-27963"/>
      <use x="200" xlink:href="#SimHei-20989"/>
      <use x="300" xlink:href="#SimHei-25968"/>
      <use x="400" xlink:href="#SimHei-116"/>
      <use x="450" xlink:href="#SimHei-97"/>
      <use x="500" xlink:href="#SimHei-110"/>
      <use x="550" xlink:href="#SimHei-104"/>
     </g>
    </g>
    <g id="line2d_58">
     <path d="M 287.53875 49.457812 
L 307.53875 49.457812 
" style="fill:none;stroke:#ffa500;stroke-linecap:square;stroke-width:1.5;"/>
    </g>
    <g id="line2d_59"/>
    <g id="text_30">
     <!-- 激活函数ReLU -->
     <g transform="translate(315.53875 52.957812)scale(0.1 -0.1)">
      <defs>
       <path d="M 46.875 1.953125 
L 37.5 1.953125 
L 23.4375 30.859375 
L 13.28125 30.859375 
L 13.28125 1.953125 
L 4.296875 1.953125 
L 4.296875 68.75 
L 23.828125 68.75 
Q 33.203125 68.75 39.0625 64.25 
Q 44.921875 59.765625 44.921875 49.609375 
Q 44.921875 41.796875 41.015625 37.5 
Q 37.109375 33.203125 32.03125 32.03125 
z
M 35.9375 49.609375 
Q 35.9375 55.078125 32.609375 58.203125 
Q 29.296875 61.328125 21.875 61.328125 
L 13.28125 61.328125 
L 13.28125 38.28125 
L 24.21875 38.28125 
Q 28.90625 38.28125 32.421875 40.8125 
Q 35.9375 43.359375 35.9375 49.609375 
z
" id="SimHei-82"/>
       <path d="M 44.53125 16.796875 
Q 43.75 9.765625 38.28125 5.46875 
Q 32.8125 1.171875 25.390625 1.171875 
Q 16.015625 1.171875 9.953125 7.21875 
Q 3.90625 13.28125 3.90625 23.828125 
Q 3.90625 34.375 9.953125 40.421875 
Q 16.015625 46.484375 25.390625 46.484375 
Q 33.59375 46.484375 38.859375 41.203125 
Q 44.140625 35.9375 44.140625 23.828125 
L 12.5 23.828125 
Q 12.5 15.234375 16.203125 11.71875 
Q 19.921875 8.203125 25.390625 8.203125 
Q 29.6875 8.203125 32.421875 10.34375 
Q 35.15625 12.5 35.9375 16.796875 
z
M 35.15625 30.078125 
Q 34.375 35.546875 31.640625 37.6875 
Q 28.90625 39.84375 24.609375 39.84375 
Q 20.703125 39.84375 17.578125 37.6875 
Q 14.453125 35.546875 12.890625 30.078125 
z
" id="SimHei-101"/>
       <path d="M 45.3125 1.953125 
L 4.6875 1.953125 
L 4.6875 68.75 
L 13.671875 68.75 
L 13.671875 9.375 
L 45.3125 9.375 
z
" id="SimHei-76"/>
       <path d="M 44.921875 21.484375 
Q 44.921875 12.109375 40.03125 6.640625 
Q 35.15625 1.171875 24.609375 1.171875 
Q 14.0625 1.171875 9.171875 6.640625 
Q 4.296875 12.109375 4.296875 21.484375 
L 4.296875 68.75 
L 13.28125 68.75 
L 13.28125 21.484375 
Q 13.28125 14.84375 16.40625 11.71875 
Q 19.53125 8.59375 24.609375 8.59375 
Q 29.6875 8.59375 32.8125 11.71875 
Q 35.9375 14.84375 35.9375 21.484375 
L 35.9375 68.75 
L 44.921875 68.75 
z
" id="SimHei-85"/>
      </defs>
      <use xlink:href="#SimHei-28608"/>
      <use x="100" xlink:href="#SimHei-27963"/>
      <use x="200" xlink:href="#SimHei-20989"/>
      <use x="300" xlink:href="#SimHei-25968"/>
      <use x="400" xlink:href="#SimHei-82"/>
      <use x="450" xlink:href="#SimHei-101"/>
      <use x="500" xlink:href="#SimHei-76"/>
      <use x="550" xlink:href="#SimHei-85"/>
     </g>
    </g>
   </g>
  </g>
 </g>
 <defs>
  <clipPath id="pe08479dbb6">
   <rect height="266.112" width="357.12" x="42.41875" y="7.2"/>
  </clipPath>
 </defs>
</svg>
