<?xml version="1.0" encoding="utf-8" standalone="no"?>
<!DOCTYPE svg PUBLIC "-//W3C//DTD SVG 1.1//EN"
  "http://www.w3.org/Graphics/SVG/1.1/DTD/svg11.dtd">
<!-- Created with matplotlib (https://matplotlib.org/) -->
<svg height="308.85575pt" version="1.1" viewBox="0 0 396.73875 308.85575" width="396.73875pt" xmlns="http://www.w3.org/2000/svg" xmlns:xlink="http://www.w3.org/1999/xlink">
 <metadata>
  <rdf:RDF xmlns:cc="http://creativecommons.org/ns#" xmlns:dc="http://purl.org/dc/elements/1.1/" xmlns:rdf="http://www.w3.org/1999/02/22-rdf-syntax-ns#">
   <cc:Work>
    <dc:type rdf:resource="http://purl.org/dc/dcmitype/StillImage"/>
    <dc:date>2022-01-05T18:01:39.408541</dc:date>
    <dc:format>image/svg+xml</dc:format>
    <dc:creator>
     <cc:Agent>
      <dc:title>Matplotlib v3.3.2, https://matplotlib.org/</dc:title>
     </cc:Agent>
    </dc:creator>
   </cc:Work>
  </rdf:RDF>
 </metadata>
 <defs>
  <style type="text/css">*{stroke-linecap:butt;stroke-linejoin:round;}</style>
 </defs>
 <g id="figure_1">
  <g id="patch_1">
   <path d="M 0 308.85575 
L 396.73875 308.85575 
L 396.73875 0 
L 0 0 
z
" style="fill:#ffffff;"/>
  </g>
  <g id="axes_1">
   <g id="patch_2">
    <path d="M 32.41875 273.312 
L 389.53875 273.312 
L 389.53875 7.2 
L 32.41875 7.2 
z
" style="fill:#ffffff;"/>
   </g>
   <g id="matplotlib.axis_1">
    <g id="xtick_1">
     <g id="line2d_1">
      <path clip-path="url(#p1bbea63e73)" d="M 48.651477 273.312 
L 48.651477 7.2 
" style="fill:none;stroke:#b0b0b0;stroke-dasharray:2.96,1.28;stroke-dashoffset:0;stroke-width:0.8;"/>
     </g>
     <g id="line2d_2">
      <defs>
       <path d="M 0 0 
L 0 3.5 
" id="mdd09be8a28" style="stroke:#000000;stroke-width:0.8;"/>
      </defs>
      <g>
       <use style="stroke:#000000;stroke-width:0.8;" x="48.651477" xlink:href="#mdd09be8a28" y="273.312"/>
      </g>
     </g>
     <g id="text_1">
      <!-- 1 -->
      <g transform="translate(46.151477 287.187)scale(0.1 -0.1)">
       <defs>
        <path d="M 21.875 56.25 
Q 16.796875 51.171875 8.984375 46.484375 
L 8.984375 53.90625 
Q 18.75 60.546875 25 69.53125 
L 29.6875 69.53125 
L 29.6875 2.34375 
L 21.875 2.34375 
z
" id="SimHei-49"/>
       </defs>
       <use xlink:href="#SimHei-49"/>
      </g>
     </g>
    </g>
    <g id="xtick_2">
     <g id="line2d_3">
      <path clip-path="url(#p1bbea63e73)" d="M 65.738559 273.312 
L 65.738559 7.2 
" style="fill:none;stroke:#b0b0b0;stroke-dasharray:2.96,1.28;stroke-dashoffset:0;stroke-width:0.8;"/>
     </g>
     <g id="line2d_4">
      <g>
       <use style="stroke:#000000;stroke-width:0.8;" x="65.738559" xlink:href="#mdd09be8a28" y="273.312"/>
      </g>
     </g>
     <g id="text_2">
      <!-- 2 -->
      <g transform="translate(63.238559 287.187)scale(0.1 -0.1)">
       <defs>
        <path d="M 4.6875 3.90625 
Q 5.078125 9.765625 10.15625 14.453125 
Q 15.234375 19.140625 23.046875 29.09375 
Q 30.859375 39.0625 33.203125 44.53125 
Q 35.546875 50 34.953125 53.90625 
Q 34.375 57.8125 31.25 60.34375 
Q 28.125 62.890625 24.015625 62.5 
Q 19.921875 62.109375 16.203125 59.375 
Q 12.5 56.640625 10.546875 51.171875 
L 3.125 52.34375 
Q 6.25 61.328125 11.125 65.421875 
Q 16.015625 69.53125 22.65625 69.921875 
Q 26.5625 70.3125 29.6875 69.71875 
Q 32.8125 69.140625 36.125 66.984375 
Q 39.453125 64.84375 41.59375 60.546875 
Q 43.75 56.25 43.15625 50.1875 
Q 42.578125 44.140625 37.109375 35.734375 
Q 31.640625 27.34375 16.015625 9.375 
L 44.140625 9.375 
L 44.140625 2.34375 
L 4.6875 2.34375 
z
" id="SimHei-50"/>
       </defs>
       <use xlink:href="#SimHei-50"/>
      </g>
     </g>
    </g>
    <g id="xtick_3">
     <g id="line2d_5">
      <path clip-path="url(#p1bbea63e73)" d="M 82.82564 273.312 
L 82.82564 7.2 
" style="fill:none;stroke:#b0b0b0;stroke-dasharray:2.96,1.28;stroke-dashoffset:0;stroke-width:0.8;"/>
     </g>
     <g id="line2d_6">
      <g>
       <use style="stroke:#000000;stroke-width:0.8;" x="82.82564" xlink:href="#mdd09be8a28" y="273.312"/>
      </g>
     </g>
     <g id="text_3">
      <!-- 3 -->
      <g transform="translate(80.32564 287.187)scale(0.1 -0.1)">
       <defs>
        <path d="M 3.90625 19.140625 
L 10.9375 20.3125 
Q 12.5 15.234375 16.015625 11.90625 
Q 19.53125 8.59375 24.796875 8.78125 
Q 30.078125 8.984375 33.203125 13.078125 
Q 36.328125 17.1875 35.9375 22.453125 
Q 35.546875 27.734375 31.828125 30.65625 
Q 28.125 33.59375 19.921875 34.765625 
L 19.921875 39.84375 
Q 28.125 40.625 31.828125 44.140625 
Q 35.546875 47.65625 35.15625 53.3125 
Q 34.765625 58.984375 30.078125 61.515625 
Q 25.390625 64.0625 20.109375 62.109375 
Q 14.84375 60.15625 11.71875 51.171875 
L 4.6875 52.34375 
Q 7.03125 59.375 11.125 64.0625 
Q 15.234375 68.75 22.265625 69.53125 
Q 29.296875 70.3125 34.5625 67.765625 
Q 39.84375 65.234375 41.984375 59.953125 
Q 44.140625 54.6875 42.578125 48.4375 
Q 41.015625 42.1875 33.59375 37.5 
Q 39.0625 35.15625 41.984375 30.46875 
Q 44.921875 25.78125 43.9375 18.15625 
Q 42.96875 10.546875 37.109375 5.859375 
Q 31.25 1.171875 23.828125 1.359375 
Q 16.40625 1.5625 10.9375 6.046875 
Q 5.46875 10.546875 3.90625 19.140625 
z
" id="SimHei-51"/>
       </defs>
       <use xlink:href="#SimHei-51"/>
      </g>
     </g>
    </g>
    <g id="xtick_4">
     <g id="line2d_7">
      <path clip-path="url(#p1bbea63e73)" d="M 99.912721 273.312 
L 99.912721 7.2 
" style="fill:none;stroke:#b0b0b0;stroke-dasharray:2.96,1.28;stroke-dashoffset:0;stroke-width:0.8;"/>
     </g>
     <g id="line2d_8">
      <g>
       <use style="stroke:#000000;stroke-width:0.8;" x="99.912721" xlink:href="#mdd09be8a28" y="273.312"/>
      </g>
     </g>
     <g id="text_4">
      <!-- 4 -->
      <g transform="translate(97.412721 287.187)scale(0.1 -0.1)">
       <defs>
        <path d="M 31.25 17.1875 
L 1.171875 17.1875 
L 1.171875 23.828125 
L 32.8125 69.53125 
L 38.671875 69.53125 
L 38.671875 23.828125 
L 48.046875 23.828125 
L 48.046875 17.1875 
L 38.671875 17.1875 
L 38.671875 2.34375 
L 31.25 2.34375 
z
M 31.25 23.828125 
L 31.25 54.6875 
L 9.375 23.828125 
z
" id="SimHei-52"/>
       </defs>
       <use xlink:href="#SimHei-52"/>
      </g>
     </g>
    </g>
    <g id="xtick_5">
     <g id="line2d_9">
      <path clip-path="url(#p1bbea63e73)" d="M 116.999803 273.312 
L 116.999803 7.2 
" style="fill:none;stroke:#b0b0b0;stroke-dasharray:2.96,1.28;stroke-dashoffset:0;stroke-width:0.8;"/>
     </g>
     <g id="line2d_10">
      <g>
       <use style="stroke:#000000;stroke-width:0.8;" x="116.999803" xlink:href="#mdd09be8a28" y="273.312"/>
      </g>
     </g>
     <g id="text_5">
      <!-- 5 -->
      <g transform="translate(114.499803 287.187)scale(0.1 -0.1)">
       <defs>
        <path d="M 8.59375 20.703125 
Q 11.328125 10.15625 17.96875 8.984375 
Q 24.609375 7.8125 28.703125 10.34375 
Q 32.8125 12.890625 34.5625 16.984375 
Q 36.328125 21.09375 36.125 26.171875 
Q 35.9375 31.25 33.390625 34.765625 
Q 30.859375 38.28125 26.953125 39.453125 
Q 23.046875 40.625 18.15625 39.453125 
Q 13.28125 38.28125 10.15625 33.984375 
L 3.515625 34.765625 
Q 4.296875 37.109375 10.9375 68.359375 
L 41.796875 68.359375 
L 41.796875 61.328125 
L 16.796875 61.328125 
Q 14.84375 50.78125 12.890625 44.53125 
Q 18.75 47.265625 23.828125 47.0625 
Q 28.90625 46.875 33.59375 44.71875 
Q 38.28125 42.578125 40.421875 38.859375 
Q 42.578125 35.15625 43.546875 31.4375 
Q 44.53125 27.734375 44.328125 23.4375 
Q 44.140625 19.140625 42.578125 14.640625 
Q 41.015625 10.15625 37.890625 7.21875 
Q 34.765625 4.296875 30.265625 2.53125 
Q 25.78125 0.78125 19.921875 1.171875 
Q 14.0625 1.5625 8.78125 5.46875 
Q 3.515625 9.375 1.5625 18.75 
z
" id="SimHei-53"/>
       </defs>
       <use xlink:href="#SimHei-53"/>
      </g>
     </g>
    </g>
    <g id="xtick_6">
     <g id="line2d_11">
      <path clip-path="url(#p1bbea63e73)" d="M 134.086884 273.312 
L 134.086884 7.2 
" style="fill:none;stroke:#b0b0b0;stroke-dasharray:2.96,1.28;stroke-dashoffset:0;stroke-width:0.8;"/>
     </g>
     <g id="line2d_12">
      <g>
       <use style="stroke:#000000;stroke-width:0.8;" x="134.086884" xlink:href="#mdd09be8a28" y="273.312"/>
      </g>
     </g>
     <g id="text_6">
      <!-- 6 -->
      <g transform="translate(131.586884 287.187)scale(0.1 -0.1)">
       <defs>
        <path d="M 3.515625 19.53125 
Q 4.296875 30.859375 6.046875 34.765625 
Q 7.8125 38.671875 11.328125 44.53125 
L 27.34375 69.53125 
L 36.328125 69.53125 
L 19.921875 43.75 
Q 30.46875 46.484375 36.71875 42.96875 
Q 42.96875 39.453125 45.109375 34.953125 
Q 47.265625 30.46875 47.453125 25.1875 
Q 47.65625 19.921875 45.890625 14.84375 
Q 44.140625 9.765625 39.640625 5.65625 
Q 35.15625 1.5625 27.140625 1.171875 
Q 19.140625 0.78125 13.46875 4.09375 
Q 7.8125 7.421875 5.65625 13.46875 
Q 3.515625 19.53125 4.296875 30.859375 
z
M 12.5 16.015625 
Q 19.53125 8.59375 25.390625 8.203125 
Q 31.25 7.8125 35.15625 12.109375 
Q 39.0625 16.40625 39.0625 24.609375 
Q 39.0625 32.8125 34.171875 35.9375 
Q 29.296875 39.0625 23.234375 38.28125 
Q 17.1875 37.5 14.453125 32.421875 
Q 11.71875 27.34375 12.109375 21.671875 
Q 12.5 16.015625 19.53125 8.59375 
z
" id="SimHei-54"/>
       </defs>
       <use xlink:href="#SimHei-54"/>
      </g>
     </g>
    </g>
    <g id="xtick_7">
     <g id="line2d_13">
      <path clip-path="url(#p1bbea63e73)" d="M 151.173965 273.312 
L 151.173965 7.2 
" style="fill:none;stroke:#b0b0b0;stroke-dasharray:2.96,1.28;stroke-dashoffset:0;stroke-width:0.8;"/>
     </g>
     <g id="line2d_14">
      <g>
       <use style="stroke:#000000;stroke-width:0.8;" x="151.173965" xlink:href="#mdd09be8a28" y="273.312"/>
      </g>
     </g>
     <g id="text_7">
      <!-- 7 -->
      <g transform="translate(148.673965 287.187)scale(0.1 -0.1)">
       <defs>
        <path d="M 13.28125 2.34375 
Q 20.3125 32.03125 37.890625 61.328125 
L 4.296875 61.328125 
L 4.296875 68.359375 
L 46.09375 68.359375 
L 46.09375 61.71875 
Q 27.734375 32.03125 21.875 2.34375 
L 13.28125 2.34375 
z
" id="SimHei-55"/>
       </defs>
       <use xlink:href="#SimHei-55"/>
      </g>
     </g>
    </g>
    <g id="xtick_8">
     <g id="line2d_15">
      <path clip-path="url(#p1bbea63e73)" d="M 168.261047 273.312 
L 168.261047 7.2 
" style="fill:none;stroke:#b0b0b0;stroke-dasharray:2.96,1.28;stroke-dashoffset:0;stroke-width:0.8;"/>
     </g>
     <g id="line2d_16">
      <g>
       <use style="stroke:#000000;stroke-width:0.8;" x="168.261047" xlink:href="#mdd09be8a28" y="273.312"/>
      </g>
     </g>
     <g id="text_8">
      <!-- 8 -->
      <g transform="translate(165.761047 287.187)scale(0.1 -0.1)">
       <defs>
        <path d="M 2.734375 16.796875 
Q 2.734375 26.171875 5.078125 30.65625 
Q 7.421875 35.15625 12.890625 37.890625 
Q 8.203125 40.625 6.640625 43.9375 
Q 5.078125 47.265625 4.875 51.5625 
Q 4.6875 55.859375 6.046875 58.984375 
Q 7.421875 62.109375 10.15625 64.84375 
Q 12.890625 67.578125 16.203125 68.546875 
Q 19.53125 69.53125 23.4375 69.53125 
Q 27.34375 69.53125 30.46875 68.75 
Q 33.59375 67.96875 37.109375 65.421875 
Q 40.625 62.890625 42.1875 58.203125 
Q 43.75 53.515625 41.984375 47.265625 
Q 40.234375 41.015625 32.8125 37.5 
Q 39.453125 35.546875 42.1875 31.4375 
Q 44.921875 27.34375 44.921875 21.484375 
Q 44.921875 15.625 43.15625 12.109375 
Q 41.40625 8.59375 39.25 6.25 
Q 37.109375 3.90625 33.390625 2.53125 
Q 29.6875 1.171875 24.015625 1.171875 
Q 18.359375 1.171875 14.25 2.53125 
Q 10.15625 3.90625 7.421875 6.640625 
Q 4.6875 9.375 3.703125 13.078125 
Q 2.734375 16.796875 2.734375 26.171875 
z
M 10.9375 26.5625 
Q 10.546875 17.1875 12.296875 13.671875 
Q 14.0625 10.15625 18.75 9.171875 
Q 23.4375 8.203125 28.515625 9.375 
Q 33.59375 10.546875 35.546875 14.84375 
Q 37.5 19.140625 36.90625 23.4375 
Q 36.328125 27.734375 32.03125 30.65625 
Q 27.734375 33.59375 22.65625 33.203125 
Q 17.578125 32.8125 14.25 29.6875 
Q 10.9375 26.5625 10.546875 17.1875 
z
M 12.109375 56.25 
Q 12.109375 48.4375 14.84375 44.921875 
Q 17.578125 41.40625 23.4375 41.40625 
Q 29.296875 41.40625 32.21875 44.921875 
Q 35.15625 48.4375 34.953125 53.3125 
Q 34.765625 58.203125 31.4375 60.546875 
Q 28.125 62.890625 22.453125 62.5 
Q 16.796875 62.109375 14.453125 59.171875 
Q 12.109375 56.25 12.109375 48.4375 
z
" id="SimHei-56"/>
       </defs>
       <use xlink:href="#SimHei-56"/>
      </g>
     </g>
    </g>
    <g id="xtick_9">
     <g id="line2d_17">
      <path clip-path="url(#p1bbea63e73)" d="M 185.348128 273.312 
L 185.348128 7.2 
" style="fill:none;stroke:#b0b0b0;stroke-dasharray:2.96,1.28;stroke-dashoffset:0;stroke-width:0.8;"/>
     </g>
     <g id="line2d_18">
      <g>
       <use style="stroke:#000000;stroke-width:0.8;" x="185.348128" xlink:href="#mdd09be8a28" y="273.312"/>
      </g>
     </g>
     <g id="text_9">
      <!-- 9 -->
      <g transform="translate(182.848128 287.187)scale(0.1 -0.1)">
       <defs>
        <path d="M 12.5 1.171875 
Q 21.09375 15.625 26.5625 27.34375 
Q 16.796875 25.78125 10.34375 29.875 
Q 3.90625 33.984375 2.53125 41.015625 
Q 1.171875 48.046875 2.734375 53.703125 
Q 4.296875 59.375 7.609375 63.078125 
Q 10.9375 66.796875 15.625 68.359375 
Q 20.3125 69.921875 24.015625 69.921875 
Q 27.734375 69.921875 31.640625 68.359375 
Q 35.546875 66.796875 38.671875 63.671875 
Q 41.796875 60.546875 42.96875 57.21875 
Q 44.140625 53.90625 44.140625 48.625 
Q 44.140625 43.359375 40.234375 35.15625 
Q 36.328125 26.953125 21.09375 1.171875 
z
M 9.765625 50 
Q 10.9375 39.84375 14.640625 36.515625 
Q 18.359375 33.203125 22.65625 33.59375 
Q 26.953125 33.984375 29.484375 35.9375 
Q 32.03125 37.890625 34.375 42.578125 
Q 35.9375 48.4375 35.15625 52.53125 
Q 34.375 56.640625 31.046875 59.375 
Q 27.734375 62.109375 23.828125 62.109375 
Q 21.484375 62.5 17.765625 60.9375 
Q 14.0625 59.375 11.90625 54.6875 
Q 9.765625 50 10.9375 39.84375 
z
" id="SimHei-57"/>
       </defs>
       <use xlink:href="#SimHei-57"/>
      </g>
     </g>
    </g>
    <g id="xtick_10">
     <g id="line2d_19">
      <path clip-path="url(#p1bbea63e73)" d="M 202.435209 273.312 
L 202.435209 7.2 
" style="fill:none;stroke:#b0b0b0;stroke-dasharray:2.96,1.28;stroke-dashoffset:0;stroke-width:0.8;"/>
     </g>
     <g id="line2d_20">
      <g>
       <use style="stroke:#000000;stroke-width:0.8;" x="202.435209" xlink:href="#mdd09be8a28" y="273.312"/>
      </g>
     </g>
     <g id="text_10">
      <!-- 10 -->
      <g transform="translate(197.435209 287.187)scale(0.1 -0.1)">
       <defs>
        <path d="M 3.125 29.296875 
Q 3.90625 50 6.4375 56.046875 
Q 8.984375 62.109375 13.671875 66.015625 
Q 18.359375 69.921875 25.1875 69.921875 
Q 32.03125 69.921875 37.109375 64.25 
Q 42.1875 58.59375 43.75 50 
Q 45.3125 41.40625 44.71875 30.265625 
Q 44.140625 19.140625 40.8125 12.109375 
Q 37.5 5.078125 30.859375 2.34375 
Q 24.21875 -0.390625 17.578125 2.921875 
Q 10.9375 6.25 8.203125 11.71875 
Q 5.46875 17.1875 4.296875 23.234375 
Q 3.125 29.296875 3.90625 50 
z
M 12.890625 52.734375 
Q 10.546875 31.25 12.5 22.84375 
Q 14.453125 14.453125 18.9375 10.9375 
Q 23.4375 7.421875 28.125 9.5625 
Q 32.8125 11.71875 34.953125 18.15625 
Q 37.109375 24.609375 37.109375 32.21875 
Q 37.109375 39.84375 36.515625 46.09375 
Q 35.9375 52.34375 33 57.421875 
Q 30.078125 62.5 25.1875 62.6875 
Q 20.3125 62.890625 16.59375 57.8125 
Q 12.890625 52.734375 10.546875 31.25 
z
" id="SimHei-48"/>
       </defs>
       <use xlink:href="#SimHei-49"/>
       <use x="50" xlink:href="#SimHei-48"/>
      </g>
     </g>
    </g>
    <g id="xtick_11">
     <g id="line2d_21">
      <path clip-path="url(#p1bbea63e73)" d="M 219.522291 273.312 
L 219.522291 7.2 
" style="fill:none;stroke:#b0b0b0;stroke-dasharray:2.96,1.28;stroke-dashoffset:0;stroke-width:0.8;"/>
     </g>
     <g id="line2d_22">
      <g>
       <use style="stroke:#000000;stroke-width:0.8;" x="219.522291" xlink:href="#mdd09be8a28" y="273.312"/>
      </g>
     </g>
     <g id="text_11">
      <!-- 11 -->
      <g transform="translate(214.522291 287.187)scale(0.1 -0.1)">
       <use xlink:href="#SimHei-49"/>
       <use x="50" xlink:href="#SimHei-49"/>
      </g>
     </g>
    </g>
    <g id="xtick_12">
     <g id="line2d_23">
      <path clip-path="url(#p1bbea63e73)" d="M 236.609372 273.312 
L 236.609372 7.2 
" style="fill:none;stroke:#b0b0b0;stroke-dasharray:2.96,1.28;stroke-dashoffset:0;stroke-width:0.8;"/>
     </g>
     <g id="line2d_24">
      <g>
       <use style="stroke:#000000;stroke-width:0.8;" x="236.609372" xlink:href="#mdd09be8a28" y="273.312"/>
      </g>
     </g>
     <g id="text_12">
      <!-- 12 -->
      <g transform="translate(231.609372 287.187)scale(0.1 -0.1)">
       <use xlink:href="#SimHei-49"/>
       <use x="50" xlink:href="#SimHei-50"/>
      </g>
     </g>
    </g>
    <g id="xtick_13">
     <g id="line2d_25">
      <path clip-path="url(#p1bbea63e73)" d="M 253.696453 273.312 
L 253.696453 7.2 
" style="fill:none;stroke:#b0b0b0;stroke-dasharray:2.96,1.28;stroke-dashoffset:0;stroke-width:0.8;"/>
     </g>
     <g id="line2d_26">
      <g>
       <use style="stroke:#000000;stroke-width:0.8;" x="253.696453" xlink:href="#mdd09be8a28" y="273.312"/>
      </g>
     </g>
     <g id="text_13">
      <!-- 13 -->
      <g transform="translate(248.696453 287.187)scale(0.1 -0.1)">
       <use xlink:href="#SimHei-49"/>
       <use x="50" xlink:href="#SimHei-51"/>
      </g>
     </g>
    </g>
    <g id="xtick_14">
     <g id="line2d_27">
      <path clip-path="url(#p1bbea63e73)" d="M 270.783535 273.312 
L 270.783535 7.2 
" style="fill:none;stroke:#b0b0b0;stroke-dasharray:2.96,1.28;stroke-dashoffset:0;stroke-width:0.8;"/>
     </g>
     <g id="line2d_28">
      <g>
       <use style="stroke:#000000;stroke-width:0.8;" x="270.783535" xlink:href="#mdd09be8a28" y="273.312"/>
      </g>
     </g>
     <g id="text_14">
      <!-- 14 -->
      <g transform="translate(265.783535 287.187)scale(0.1 -0.1)">
       <use xlink:href="#SimHei-49"/>
       <use x="50" xlink:href="#SimHei-52"/>
      </g>
     </g>
    </g>
    <g id="xtick_15">
     <g id="line2d_29">
      <path clip-path="url(#p1bbea63e73)" d="M 287.870616 273.312 
L 287.870616 7.2 
" style="fill:none;stroke:#b0b0b0;stroke-dasharray:2.96,1.28;stroke-dashoffset:0;stroke-width:0.8;"/>
     </g>
     <g id="line2d_30">
      <g>
       <use style="stroke:#000000;stroke-width:0.8;" x="287.870616" xlink:href="#mdd09be8a28" y="273.312"/>
      </g>
     </g>
     <g id="text_15">
      <!-- 15 -->
      <g transform="translate(282.870616 287.187)scale(0.1 -0.1)">
       <use xlink:href="#SimHei-49"/>
       <use x="50" xlink:href="#SimHei-53"/>
      </g>
     </g>
    </g>
    <g id="xtick_16">
     <g id="line2d_31">
      <path clip-path="url(#p1bbea63e73)" d="M 304.957697 273.312 
L 304.957697 7.2 
" style="fill:none;stroke:#b0b0b0;stroke-dasharray:2.96,1.28;stroke-dashoffset:0;stroke-width:0.8;"/>
     </g>
     <g id="line2d_32">
      <g>
       <use style="stroke:#000000;stroke-width:0.8;" x="304.957697" xlink:href="#mdd09be8a28" y="273.312"/>
      </g>
     </g>
     <g id="text_16">
      <!-- 16 -->
      <g transform="translate(299.957697 287.187)scale(0.1 -0.1)">
       <use xlink:href="#SimHei-49"/>
       <use x="50" xlink:href="#SimHei-54"/>
      </g>
     </g>
    </g>
    <g id="xtick_17">
     <g id="line2d_33">
      <path clip-path="url(#p1bbea63e73)" d="M 322.044779 273.312 
L 322.044779 7.2 
" style="fill:none;stroke:#b0b0b0;stroke-dasharray:2.96,1.28;stroke-dashoffset:0;stroke-width:0.8;"/>
     </g>
     <g id="line2d_34">
      <g>
       <use style="stroke:#000000;stroke-width:0.8;" x="322.044779" xlink:href="#mdd09be8a28" y="273.312"/>
      </g>
     </g>
     <g id="text_17">
      <!-- 17 -->
      <g transform="translate(317.044779 287.187)scale(0.1 -0.1)">
       <use xlink:href="#SimHei-49"/>
       <use x="50" xlink:href="#SimHei-55"/>
      </g>
     </g>
    </g>
    <g id="xtick_18">
     <g id="line2d_35">
      <path clip-path="url(#p1bbea63e73)" d="M 339.13186 273.312 
L 339.13186 7.2 
" style="fill:none;stroke:#b0b0b0;stroke-dasharray:2.96,1.28;stroke-dashoffset:0;stroke-width:0.8;"/>
     </g>
     <g id="line2d_36">
      <g>
       <use style="stroke:#000000;stroke-width:0.8;" x="339.13186" xlink:href="#mdd09be8a28" y="273.312"/>
      </g>
     </g>
     <g id="text_18">
      <!-- 18 -->
      <g transform="translate(334.13186 287.187)scale(0.1 -0.1)">
       <use xlink:href="#SimHei-49"/>
       <use x="50" xlink:href="#SimHei-56"/>
      </g>
     </g>
    </g>
    <g id="xtick_19">
     <g id="line2d_37">
      <path clip-path="url(#p1bbea63e73)" d="M 356.218941 273.312 
L 356.218941 7.2 
" style="fill:none;stroke:#b0b0b0;stroke-dasharray:2.96,1.28;stroke-dashoffset:0;stroke-width:0.8;"/>
     </g>
     <g id="line2d_38">
      <g>
       <use style="stroke:#000000;stroke-width:0.8;" x="356.218941" xlink:href="#mdd09be8a28" y="273.312"/>
      </g>
     </g>
     <g id="text_19">
      <!-- 19 -->
      <g transform="translate(351.218941 287.187)scale(0.1 -0.1)">
       <use xlink:href="#SimHei-49"/>
       <use x="50" xlink:href="#SimHei-57"/>
      </g>
     </g>
    </g>
    <g id="xtick_20">
     <g id="line2d_39">
      <path clip-path="url(#p1bbea63e73)" d="M 373.306023 273.312 
L 373.306023 7.2 
" style="fill:none;stroke:#b0b0b0;stroke-dasharray:2.96,1.28;stroke-dashoffset:0;stroke-width:0.8;"/>
     </g>
     <g id="line2d_40">
      <g>
       <use style="stroke:#000000;stroke-width:0.8;" x="373.306023" xlink:href="#mdd09be8a28" y="273.312"/>
      </g>
     </g>
     <g id="text_20">
      <!-- 20 -->
      <g transform="translate(368.306023 287.187)scale(0.1 -0.1)">
       <use xlink:href="#SimHei-50"/>
       <use x="50" xlink:href="#SimHei-48"/>
      </g>
     </g>
    </g>
    <g id="text_21">
     <!-- 迭代次数 -->
     <g transform="translate(190.97875 300.40575)scale(0.1 -0.1)">
      <defs>
       <path d="M 60.9375 29.296875 
Q 56.25 21.09375 51.359375 15.8125 
Q 46.484375 10.546875 38.28125 4.296875 
Q 36.71875 7.421875 31.640625 10.9375 
Q 40.625 15.234375 47.0625 22.265625 
Q 53.515625 29.296875 56.25 38.28125 
Q 36.71875 38.28125 30.46875 37.890625 
L 30.46875 45.3125 
Q 37.109375 44.921875 57.421875 44.921875 
Q 58.203125 50.78125 58.59375 58.984375 
L 43.75 58.984375 
Q 41.796875 53.90625 39.84375 49.609375 
Q 35.9375 51.5625 32.421875 52.34375 
Q 35.546875 57.421875 37.890625 64.25 
Q 40.234375 71.09375 42.1875 79.6875 
Q 44.53125 78.125 50.390625 76.953125 
Q 48.046875 73.828125 46.09375 65.625 
L 58.59375 65.625 
Q 58.59375 75.78125 57.8125 82.03125 
L 66.796875 81.640625 
Q 66.015625 76.953125 65.625 65.625 
L 77.34375 65.625 
Q 80.859375 65.625 87.109375 66.015625 
L 87.109375 58.203125 
Q 80.859375 58.984375 76.171875 58.984375 
L 65.625 58.984375 
Q 65.234375 50.78125 64.453125 44.921875 
L 80.46875 44.921875 
Q 85.546875 44.921875 92.578125 45.3125 
L 92.578125 37.890625 
Q 85.546875 38.28125 79.296875 38.28125 
L 64.0625 38.28125 
L 63.28125 35.9375 
Q 72.65625 27.734375 89.453125 10.9375 
Q 87.5 10.15625 82.421875 4.6875 
Q 74.609375 15.234375 60.9375 29.296875 
z
M 24.21875 46.09375 
L 24.21875 9.765625 
Q 34.375 -0.390625 58 -0.1875 
Q 81.640625 0 95.703125 1.5625 
Q 92.96875 -3.515625 92.1875 -7.421875 
L 55.859375 -7.421875 
Q 46.484375 -7.421875 39.453125 -6.046875 
Q 32.421875 -4.6875 26.953125 -0.78125 
Q 21.484375 3.125 18.15625 0.1875 
Q 14.84375 -2.734375 10.15625 -8.59375 
Q 7.8125 -5.46875 3.90625 -2.734375 
Q 12.109375 4.296875 16.796875 8.984375 
L 16.796875 39.453125 
Q 11.71875 39.453125 5.46875 39.0625 
L 5.46875 46.484375 
Q 12.109375 46.09375 16.796875 46.09375 
z
M 17.578125 78.515625 
Q 23.828125 66.796875 26.171875 60.9375 
Q 22.65625 60.546875 18.359375 57.03125 
Q 14.84375 66.796875 10.15625 74.21875 
Q 14.0625 75.78125 17.578125 78.515625 
z
" id="SimHei-36845"/>
       <path d="M 51.5625 46.09375 
Q 49.609375 71.484375 49.21875 79.6875 
Q 51.5625 79.296875 58.203125 78.515625 
Q 57.421875 73.828125 59.375 47.65625 
Q 78.125 51.171875 88.28125 54.296875 
L 90.234375 46.875 
Q 85.9375 46.484375 60.15625 41.015625 
Q 64.84375 16.40625 74.015625 7.03125 
Q 83.203125 -2.34375 84.5625 1.953125 
Q 85.9375 6.25 86.328125 11.328125 
Q 90.625 8.59375 94.921875 7.8125 
Q 92.1875 -3.125 89.640625 -6.640625 
Q 87.109375 -10.15625 80.265625 -7.8125 
Q 73.4375 -5.46875 65.421875 4.6875 
Q 57.421875 14.84375 52.34375 39.453125 
Q 37.5 36.328125 33.984375 35.15625 
L 31.640625 42.578125 
Q 37.890625 43.359375 51.5625 46.09375 
z
M 35.15625 77.734375 
Q 32.8125 73.828125 26.5625 57.03125 
L 26.5625 7.421875 
Q 26.5625 -0.78125 26.953125 -9.375 
L 18.75 -9.375 
Q 19.140625 -0.78125 19.140625 7.421875 
L 19.140625 42.96875 
Q 13.28125 33.59375 9.375 28.90625 
Q 7.03125 32.03125 3.515625 34.765625 
Q 9.765625 40.625 16.40625 53.515625 
Q 23.046875 66.40625 26.171875 81.25 
Q 32.03125 78.515625 35.15625 77.734375 
z
M 73.4375 76.171875 
Q 80.46875 67.578125 83.203125 63.28125 
Q 79.6875 60.9375 76.171875 58.203125 
Q 72.65625 64.84375 67.1875 71.484375 
Q 70.3125 73.4375 73.4375 76.171875 
z
" id="SimHei-20195"/>
       <path d="M 64.84375 47.265625 
Q 62.5 39.84375 63.28125 34.171875 
Q 64.0625 28.515625 66.796875 22.65625 
Q 69.53125 16.796875 75 11.71875 
Q 80.46875 6.640625 85.546875 3.3125 
Q 90.625 0 96.09375 -2.34375 
Q 91.796875 -5.46875 89.84375 -9.765625 
Q 82.03125 -5.078125 76.359375 -0.390625 
Q 70.703125 4.296875 66.796875 9.5625 
Q 62.890625 14.84375 59.765625 22.265625 
Q 55.078125 9.765625 46.09375 1.953125 
Q 37.109375 -5.859375 28.90625 -10.15625 
Q 26.171875 -6.25 23.046875 -3.515625 
Q 31.640625 0 38.859375 5.65625 
Q 46.09375 11.328125 49.40625 17.1875 
Q 52.734375 23.046875 53.90625 28.515625 
Q 55.078125 33.984375 55.265625 37.5 
Q 55.46875 41.015625 55.078125 48.828125 
Q 59.765625 47.65625 64.84375 47.265625 
z
M 57.8125 77.734375 
Q 56.640625 76.5625 54.296875 71.484375 
Q 51.953125 66.40625 50.78125 63.671875 
L 90.234375 63.671875 
Q 88.28125 58.203125 86.71875 52.53125 
Q 85.15625 46.875 82.421875 39.0625 
Q 78.125 40.234375 74.609375 40.625 
Q 78.515625 52.34375 79.6875 57.03125 
L 48.4375 57.03125 
Q 46.484375 53.125 43.9375 48.4375 
Q 41.40625 43.75 37.890625 38.28125 
Q 35.546875 40.625 30.859375 42.1875 
Q 35.9375 47.65625 41.015625 58.78125 
Q 46.09375 69.921875 48.828125 81.25 
Q 53.90625 78.515625 57.8125 77.734375 
z
M 31.640625 31.25 
Q 28.515625 26.171875 23.046875 16.984375 
Q 17.578125 7.8125 11.328125 -3.125 
Q 7.8125 -0.390625 3.90625 2.734375 
Q 11.328125 11.328125 16.203125 19.71875 
Q 21.09375 28.125 24.609375 36.328125 
Q 27.34375 33.984375 31.640625 31.25 
z
M 14.0625 74.21875 
Q 26.953125 58.203125 30.46875 52.734375 
Q 27.34375 50.78125 23.4375 47.65625 
Q 19.53125 55.078125 7.8125 69.140625 
Q 10.9375 71.484375 14.0625 74.21875 
z
" id="SimHei-27425"/>
       <path d="M 70.703125 76.953125 
Q 69.921875 75 68.75 71.671875 
Q 67.578125 68.359375 65.234375 59.765625 
L 83.203125 59.765625 
Q 87.109375 59.765625 92.578125 60.15625 
L 92.578125 53.125 
Q 88.28125 53.515625 85.9375 53.515625 
Q 85.9375 47.265625 83.78125 33.78125 
Q 81.640625 20.3125 76.171875 10.546875 
Q 80.078125 5.859375 84.953125 2.140625 
Q 89.84375 -1.5625 94.140625 -3.125 
Q 89.453125 -6.640625 87.890625 -9.765625 
Q 83.203125 -7.03125 79.296875 -3.515625 
Q 75.390625 0 71.484375 5.078125 
Q 67.1875 0.390625 62.296875 -2.921875 
Q 57.421875 -6.25 50 -10.15625 
Q 48.046875 -6.640625 44.53125 -4.6875 
Q 50.390625 -2.34375 57.03125 1.953125 
Q 63.671875 6.25 67.1875 10.546875 
Q 64.453125 16.015625 61.90625 22.265625 
Q 59.375 28.515625 57.421875 38.671875 
Q 56.25 35.546875 53.515625 30.46875 
Q 50.78125 32.03125 46.875 33.59375 
Q 53.125 44.53125 57.03125 57.421875 
Q 60.9375 70.3125 62.109375 79.6875 
Q 66.796875 77.734375 70.703125 76.953125 
z
M 32.8125 35.15625 
Q 31.25 33.59375 29.296875 30.078125 
L 50.78125 30.078125 
Q 48.4375 20.3125 42.578125 10.546875 
Q 48.828125 8.203125 52.34375 6.25 
Q 50.390625 3.515625 48.828125 0.390625 
Q 45.3125 2.734375 38.28125 5.078125 
Q 30.46875 -3.515625 11.328125 -10.15625 
Q 9.375 -5.859375 6.25 -4.296875 
Q 24.609375 0 31.25 7.421875 
Q 20.3125 10.15625 13.28125 12.109375 
Q 15.625 15.625 19.53125 23.828125 
Q 15.625 23.828125 6.640625 23.4375 
L 6.640625 30.46875 
Q 14.0625 30.078125 21.875 30.078125 
Q 23.4375 33.59375 24.21875 37.890625 
Q 28.515625 36.328125 32.8125 35.15625 
z
M 27.734375 61.71875 
Q 27.734375 71.09375 27.34375 79.6875 
L 35.15625 79.6875 
Q 34.765625 71.484375 34.765625 61.71875 
Q 48.046875 61.71875 53.515625 62.109375 
L 53.515625 55.078125 
Q 48.046875 55.46875 34.765625 55.46875 
Q 34.765625 44.140625 35.15625 37.890625 
L 27.34375 37.890625 
Q 27.734375 43.359375 27.734375 51.5625 
Q 25.78125 48.4375 20.3125 43.546875 
Q 14.84375 38.671875 10.15625 35.9375 
Q 8.203125 39.453125 4.296875 41.015625 
Q 7.8125 42.1875 13.671875 46.484375 
Q 19.53125 50.78125 22.65625 55.46875 
Q 14.84375 55.46875 7.8125 55.078125 
L 7.8125 62.109375 
Q 14.453125 61.71875 27.734375 61.71875 
z
M 62.109375 49.609375 
Q 65.625 26.5625 71.875 17.578125 
Q 75.78125 26.5625 77.140625 35.734375 
Q 78.515625 44.921875 78.90625 53.515625 
L 63.671875 53.515625 
L 62.109375 49.609375 
z
M 22.65625 15.625 
Q 27.34375 14.453125 35.546875 12.5 
Q 38.671875 16.40625 41.40625 23.828125 
L 26.953125 23.828125 
Q 25 19.921875 22.65625 15.625 
z
M 51.953125 75.390625 
Q 50 72.265625 48.828125 69.53125 
Q 47.65625 66.796875 45.703125 62.890625 
Q 42.578125 64.453125 39.453125 65.234375 
Q 42.578125 70.3125 45.3125 78.125 
Q 49.21875 76.171875 51.953125 75.390625 
z
M 40.234375 52.734375 
Q 45.3125 47.65625 50 42.578125 
Q 47.65625 40.625 44.921875 37.890625 
Q 39.453125 44.53125 35.9375 48.4375 
Q 38.28125 50.390625 40.234375 52.734375 
z
M 14.453125 78.125 
Q 19.921875 72.65625 23.4375 67.1875 
L 17.578125 63.671875 
Q 14.84375 69.140625 9.375 73.828125 
Q 12.890625 76.171875 14.453125 78.125 
z
" id="SimHei-25968"/>
      </defs>
      <use xlink:href="#SimHei-36845"/>
      <use x="100" xlink:href="#SimHei-20195"/>
      <use x="200" xlink:href="#SimHei-27425"/>
      <use x="300" xlink:href="#SimHei-25968"/>
     </g>
    </g>
   </g>
   <g id="matplotlib.axis_2">
    <g id="ytick_1">
     <g id="line2d_41">
      <path clip-path="url(#p1bbea63e73)" d="M 32.41875 262.022708 
L 389.53875 262.022708 
" style="fill:none;stroke:#b0b0b0;stroke-dasharray:2.96,1.28;stroke-dashoffset:0;stroke-width:0.8;"/>
     </g>
     <g id="line2d_42">
      <defs>
       <path d="M 0 0 
L -3.5 0 
" id="m12d7e12b17" style="stroke:#000000;stroke-width:0.8;"/>
      </defs>
      <g>
       <use style="stroke:#000000;stroke-width:0.8;" x="32.41875" xlink:href="#m12d7e12b17" y="262.022708"/>
      </g>
     </g>
     <g id="text_22">
      <!-- 0 -->
      <g transform="translate(20.41875 265.460208)scale(0.1 -0.1)">
       <use xlink:href="#SimHei-48"/>
      </g>
     </g>
    </g>
    <g id="ytick_2">
     <g id="line2d_43">
      <path clip-path="url(#p1bbea63e73)" d="M 32.41875 232.183593 
L 389.53875 232.183593 
" style="fill:none;stroke:#b0b0b0;stroke-dasharray:2.96,1.28;stroke-dashoffset:0;stroke-width:0.8;"/>
     </g>
     <g id="line2d_44">
      <g>
       <use style="stroke:#000000;stroke-width:0.8;" x="32.41875" xlink:href="#m12d7e12b17" y="232.183593"/>
      </g>
     </g>
     <g id="text_23">
      <!-- 1 -->
      <g transform="translate(20.41875 235.621093)scale(0.1 -0.1)">
       <use xlink:href="#SimHei-49"/>
      </g>
     </g>
    </g>
    <g id="ytick_3">
     <g id="line2d_45">
      <path clip-path="url(#p1bbea63e73)" d="M 32.41875 202.344478 
L 389.53875 202.344478 
" style="fill:none;stroke:#b0b0b0;stroke-dasharray:2.96,1.28;stroke-dashoffset:0;stroke-width:0.8;"/>
     </g>
     <g id="line2d_46">
      <g>
       <use style="stroke:#000000;stroke-width:0.8;" x="32.41875" xlink:href="#m12d7e12b17" y="202.344478"/>
      </g>
     </g>
     <g id="text_24">
      <!-- 2 -->
      <g transform="translate(20.41875 205.781978)scale(0.1 -0.1)">
       <use xlink:href="#SimHei-50"/>
      </g>
     </g>
    </g>
    <g id="ytick_4">
     <g id="line2d_47">
      <path clip-path="url(#p1bbea63e73)" d="M 32.41875 172.505363 
L 389.53875 172.505363 
" style="fill:none;stroke:#b0b0b0;stroke-dasharray:2.96,1.28;stroke-dashoffset:0;stroke-width:0.8;"/>
     </g>
     <g id="line2d_48">
      <g>
       <use style="stroke:#000000;stroke-width:0.8;" x="32.41875" xlink:href="#m12d7e12b17" y="172.505363"/>
      </g>
     </g>
     <g id="text_25">
      <!-- 3 -->
      <g transform="translate(20.41875 175.942863)scale(0.1 -0.1)">
       <use xlink:href="#SimHei-51"/>
      </g>
     </g>
    </g>
    <g id="ytick_5">
     <g id="line2d_49">
      <path clip-path="url(#p1bbea63e73)" d="M 32.41875 142.666248 
L 389.53875 142.666248 
" style="fill:none;stroke:#b0b0b0;stroke-dasharray:2.96,1.28;stroke-dashoffset:0;stroke-width:0.8;"/>
     </g>
     <g id="line2d_50">
      <g>
       <use style="stroke:#000000;stroke-width:0.8;" x="32.41875" xlink:href="#m12d7e12b17" y="142.666248"/>
      </g>
     </g>
     <g id="text_26">
      <!-- 4 -->
      <g transform="translate(20.41875 146.103748)scale(0.1 -0.1)">
       <use xlink:href="#SimHei-52"/>
      </g>
     </g>
    </g>
    <g id="ytick_6">
     <g id="line2d_51">
      <path clip-path="url(#p1bbea63e73)" d="M 32.41875 112.827133 
L 389.53875 112.827133 
" style="fill:none;stroke:#b0b0b0;stroke-dasharray:2.96,1.28;stroke-dashoffset:0;stroke-width:0.8;"/>
     </g>
     <g id="line2d_52">
      <g>
       <use style="stroke:#000000;stroke-width:0.8;" x="32.41875" xlink:href="#m12d7e12b17" y="112.827133"/>
      </g>
     </g>
     <g id="text_27">
      <!-- 5 -->
      <g transform="translate(20.41875 116.264633)scale(0.1 -0.1)">
       <use xlink:href="#SimHei-53"/>
      </g>
     </g>
    </g>
    <g id="ytick_7">
     <g id="line2d_53">
      <path clip-path="url(#p1bbea63e73)" d="M 32.41875 82.988018 
L 389.53875 82.988018 
" style="fill:none;stroke:#b0b0b0;stroke-dasharray:2.96,1.28;stroke-dashoffset:0;stroke-width:0.8;"/>
     </g>
     <g id="line2d_54">
      <g>
       <use style="stroke:#000000;stroke-width:0.8;" x="32.41875" xlink:href="#m12d7e12b17" y="82.988018"/>
      </g>
     </g>
     <g id="text_28">
      <!-- 6 -->
      <g transform="translate(20.41875 86.425518)scale(0.1 -0.1)">
       <use xlink:href="#SimHei-54"/>
      </g>
     </g>
    </g>
    <g id="ytick_8">
     <g id="line2d_55">
      <path clip-path="url(#p1bbea63e73)" d="M 32.41875 53.148903 
L 389.53875 53.148903 
" style="fill:none;stroke:#b0b0b0;stroke-dasharray:2.96,1.28;stroke-dashoffset:0;stroke-width:0.8;"/>
     </g>
     <g id="line2d_56">
      <g>
       <use style="stroke:#000000;stroke-width:0.8;" x="32.41875" xlink:href="#m12d7e12b17" y="53.148903"/>
      </g>
     </g>
     <g id="text_29">
      <!-- 7 -->
      <g transform="translate(20.41875 56.586403)scale(0.1 -0.1)">
       <use xlink:href="#SimHei-55"/>
      </g>
     </g>
    </g>
    <g id="ytick_9">
     <g id="line2d_57">
      <path clip-path="url(#p1bbea63e73)" d="M 32.41875 23.309788 
L 389.53875 23.309788 
" style="fill:none;stroke:#b0b0b0;stroke-dasharray:2.96,1.28;stroke-dashoffset:0;stroke-width:0.8;"/>
     </g>
     <g id="line2d_58">
      <g>
       <use style="stroke:#000000;stroke-width:0.8;" x="32.41875" xlink:href="#m12d7e12b17" y="23.309788"/>
      </g>
     </g>
     <g id="text_30">
      <!-- 8 -->
      <g transform="translate(20.41875 26.747288)scale(0.1 -0.1)">
       <use xlink:href="#SimHei-56"/>
      </g>
     </g>
    </g>
    <g id="text_31">
     <!-- 训练损失值 -->
     <g transform="translate(15.16875 165.256)rotate(-90)scale(0.1 -0.1)">
      <defs>
       <path d="M 25.78125 51.5625 
Q 25.390625 42.578125 25.390625 34.765625 
L 25.390625 10.546875 
Q 30.46875 17.578125 32.03125 19.921875 
Q 33.984375 17.578125 36.71875 14.0625 
Q 31.640625 7.8125 28.125 3.3125 
Q 24.609375 -1.171875 20.703125 -6.640625 
Q 17.96875 -3.125 14.84375 -0.78125 
Q 17.96875 3.515625 17.96875 9.765625 
L 17.96875 44.921875 
L 15.234375 44.921875 
Q 9.375 44.921875 4.6875 44.53125 
L 4.6875 51.953125 
Q 9.375 51.5625 15.234375 51.5625 
z
M 53.515625 71.875 
Q 52.734375 67.96875 52.921875 52.53125 
Q 53.125 37.109375 52.140625 29.484375 
Q 51.171875 21.875 48.234375 13.078125 
Q 45.3125 4.296875 38.28125 -5.859375 
Q 34.765625 -3.125 30.859375 -1.953125 
Q 39.84375 7.8125 43.15625 21.28125 
Q 46.484375 34.765625 46.09375 52.140625 
Q 45.703125 69.53125 45.3125 73.046875 
Q 49.21875 72.265625 53.515625 71.875 
z
M 91.796875 73.4375 
Q 91.40625 70.3125 91.40625 62.109375 
L 91.40625 9.765625 
Q 91.40625 1.953125 91.796875 -6.25 
L 84.375 -6.25 
Q 84.765625 1.953125 84.765625 9.375 
L 84.765625 62.109375 
Q 84.765625 70.3125 84.375 73.4375 
L 91.796875 73.4375 
z
M 71.875 2.734375 
L 64.453125 2.734375 
Q 64.84375 11.328125 64.84375 17.96875 
L 64.84375 56.25 
Q 64.84375 63.28125 64.453125 67.96875 
L 71.875 67.96875 
z
M 15.625 80.46875 
Q 25.78125 71.875 32.8125 64.0625 
Q 29.296875 61.328125 27.34375 58.59375 
Q 16.40625 71.09375 10.9375 75 
Q 13.28125 77.34375 15.625 80.46875 
z
" id="SimHei-35757"/>
       <path d="M 51.5625 59.765625 
Q 46.09375 59.765625 37.5 59.375 
L 37.5 66.40625 
Q 46.09375 66.015625 51.953125 66.015625 
L 56.640625 66.015625 
Q 60.546875 77.34375 60.9375 80.859375 
Q 65.625 78.515625 69.53125 76.953125 
Q 67.96875 75.390625 66.59375 72.0625 
Q 65.234375 68.75 64.0625 66.015625 
L 78.515625 66.015625 
Q 84.765625 66.015625 92.1875 66.40625 
L 92.1875 59.375 
Q 86.71875 59.765625 78.515625 59.765625 
L 62.109375 59.765625 
Q 60.15625 55.078125 57.8125 49.21875 
L 73.046875 49.21875 
Q 72.65625 44.921875 72.65625 38.671875 
L 72.65625 30.859375 
L 77.734375 30.859375 
Q 83.59375 30.859375 90.625 31.25 
L 90.625 24.21875 
Q 83.59375 24.609375 77.734375 24.609375 
L 72.65625 24.609375 
L 72.65625 1.953125 
Q 72.65625 -4.6875 69.71875 -6.640625 
Q 66.796875 -8.59375 57.03125 -9.765625 
Q 56.640625 -5.859375 53.90625 -1.5625 
Q 63.671875 -1.953125 64.640625 -0.390625 
Q 65.625 1.171875 65.625 5.078125 
L 65.625 24.609375 
L 53.515625 24.609375 
Q 50.78125 24.609375 48.4375 24.40625 
Q 46.09375 24.21875 42.96875 23.046875 
Q 41.40625 26.953125 39.84375 30.46875 
Q 43.75 31.640625 48.828125 43.359375 
Q 46.09375 43.359375 38.28125 42.96875 
L 38.28125 49.609375 
Q 47.265625 49.21875 50.78125 49.21875 
Q 53.125 55.078125 54.6875 59.765625 
z
M 25.78125 46.09375 
Q 29.296875 51.5625 32.8125 60.9375 
Q 36.328125 58.203125 40.234375 56.25 
Q 36.328125 51.171875 31.640625 42.96875 
Q 26.953125 34.765625 16.796875 21.09375 
Q 20.3125 21.875 37.5 24.609375 
Q 36.71875 20.3125 37.109375 17.96875 
Q 28.515625 17.1875 10.15625 12.890625 
Q 8.203125 16.796875 6.25 19.921875 
Q 9.765625 21.875 13.859375 27.140625 
Q 17.96875 32.421875 22.65625 40.234375 
Q 20.3125 40.625 15.8125 40.03125 
Q 11.328125 39.453125 7.03125 38.28125 
Q 5.46875 41.796875 3.90625 45.703125 
Q 7.8125 48.046875 12.6875 58.203125 
Q 17.578125 68.359375 20.703125 78.125 
Q 25 75.390625 28.90625 74.21875 
Q 25 68.359375 21.671875 61.90625 
Q 18.359375 55.46875 12.5 45.703125 
Q 21.484375 45.703125 25.78125 46.09375 
z
M 37.890625 10.9375 
Q 37.5 6.640625 37.890625 3.90625 
Q 31.25 2.34375 22.84375 -0.390625 
Q 14.453125 -3.125 7.421875 -6.640625 
Q 6.25 -2.34375 4.6875 1.953125 
Q 14.84375 4.296875 18.546875 5.265625 
Q 22.265625 6.25 37.890625 10.9375 
z
M 58.203125 13.671875 
Q 57.03125 12.5 51.359375 6.25 
Q 45.703125 0 38.671875 -7.421875 
Q 35.9375 -3.90625 33.59375 -1.953125 
Q 37.890625 1.5625 42.96875 7.21875 
Q 48.046875 12.890625 51.953125 19.140625 
Q 54.296875 16.40625 58.203125 13.671875 
z
M 82.421875 19.140625 
Q 92.578125 5.859375 96.875 -1.5625 
Q 92.96875 -3.125 89.84375 -5.859375 
Q 85.546875 2.734375 76.5625 14.84375 
Q 79.296875 16.40625 82.421875 19.140625 
z
M 65.625 30.859375 
L 65.625 43.359375 
L 55.859375 43.359375 
Q 51.953125 35.15625 49.609375 30.859375 
z
" id="SimHei-32451"/>
       <path d="M 18.359375 71.875 
Q 18.359375 77.34375 17.96875 82.03125 
L 26.171875 82.03125 
Q 25.78125 77.734375 25.78125 71.875 
L 25.78125 63.671875 
Q 30.46875 63.671875 36.328125 64.0625 
L 36.328125 56.640625 
Q 30.46875 57.03125 25.78125 57.03125 
L 25.78125 39.0625 
Q 29.296875 39.84375 35.546875 42.96875 
Q 35.546875 39.84375 35.9375 35.9375 
Q 31.640625 34.375 25.78125 31.640625 
L 25.78125 2.734375 
Q 25.78125 -3.515625 22.265625 -5.078125 
Q 18.75 -6.640625 9.765625 -7.8125 
Q 9.375 -3.90625 7.03125 0.78125 
Q 12.5 0.390625 15.421875 0.578125 
Q 18.359375 0.78125 18.359375 5.46875 
L 18.359375 28.90625 
Q 10.546875 26.171875 6.25 23.4375 
Q 5.859375 28.125 3.90625 32.8125 
Q 9.375 33.59375 18.359375 36.71875 
L 18.359375 57.03125 
Q 10.15625 57.03125 5.078125 56.640625 
L 5.078125 64.0625 
Q 9.765625 63.671875 18.359375 63.671875 
z
M 86.71875 78.515625 
Q 86.328125 72.65625 86.328125 66.796875 
Q 86.328125 61.328125 86.71875 55.078125 
L 45.3125 55.078125 
Q 45.703125 61.328125 45.703125 66.796875 
Q 45.703125 72.65625 45.3125 78.515625 
L 86.71875 78.515625 
z
M 90.234375 48.046875 
Q 89.84375 42.578125 89.84375 36.71875 
L 89.84375 26.953125 
Q 89.84375 21.09375 90.234375 13.671875 
L 82.421875 13.671875 
L 82.421875 41.40625 
L 49.21875 41.40625 
L 49.21875 13.28125 
L 41.40625 13.28125 
Q 41.796875 19.921875 41.796875 26.5625 
L 41.796875 36.328125 
Q 41.796875 40.625 41.40625 48.046875 
L 90.234375 48.046875 
z
M 70.703125 34.375 
Q 69.140625 28.515625 68.15625 20.890625 
Q 67.1875 13.28125 64.453125 8.390625 
Q 61.71875 3.515625 56.25 -0.96875 
Q 50.78125 -5.46875 37.890625 -10.15625 
Q 36.328125 -7.03125 32.03125 -2.734375 
Q 42.96875 -0.78125 49.015625 3.125 
Q 55.078125 7.03125 57.8125 11.90625 
Q 60.546875 16.796875 60.9375 22.84375 
Q 61.328125 28.90625 61.328125 35.546875 
Q 66.015625 34.765625 70.703125 34.375 
z
M 79.6875 61.328125 
L 79.6875 72.65625 
L 52.734375 72.65625 
L 52.734375 61.328125 
z
M 73.046875 11.71875 
Q 77.734375 8.984375 84.5625 5.265625 
Q 91.40625 1.5625 96.484375 -1.953125 
Q 93.359375 -5.078125 91.40625 -8.59375 
Q 86.328125 -4.6875 81.25 -1.359375 
Q 76.171875 1.953125 68.359375 5.46875 
Q 71.09375 8.59375 73.046875 11.71875 
z
" id="SimHei-25439"/>
       <path d="M 32.03125 69.53125 
Q 30.078125 67.578125 26.171875 58.59375 
L 46.09375 58.59375 
Q 46.09375 72.65625 45.703125 79.6875 
Q 49.609375 79.296875 54.6875 78.90625 
Q 53.90625 73.4375 53.703125 69.140625 
Q 53.515625 64.84375 53.515625 58.59375 
L 71.875 58.59375 
Q 78.125 58.59375 84.765625 58.984375 
L 84.765625 51.5625 
Q 78.515625 51.953125 71.875 51.953125 
L 53.515625 51.953125 
Q 53.515625 43.359375 52.734375 34.375 
L 78.90625 34.375 
Q 84.765625 34.375 91.796875 34.765625 
L 91.796875 27.34375 
Q 84.765625 27.734375 78.90625 27.734375 
L 55.859375 27.734375 
Q 60.546875 17.1875 71.875 10.546875 
Q 83.203125 3.90625 94.140625 1.5625 
Q 91.015625 -2.34375 88.671875 -7.421875 
Q 77.34375 -3.125 66.40625 4.484375 
Q 55.46875 12.109375 50 23.046875 
Q 45.3125 12.890625 36.328125 4.6875 
Q 27.34375 -3.515625 12.109375 -10.15625 
Q 10.15625 -6.25 6.25 -2.734375 
Q 19.53125 0.78125 29.875 9.171875 
Q 40.234375 17.578125 43.359375 27.734375 
L 20.703125 27.734375 
Q 14.453125 27.734375 7.03125 27.34375 
L 7.03125 34.765625 
Q 14.453125 34.375 20.703125 34.375 
L 44.921875 34.375 
Q 46.09375 42.578125 46.09375 51.953125 
L 23.4375 51.953125 
Q 18.75 43.75 15.234375 38.28125 
Q 12.109375 40.234375 7.8125 41.796875 
Q 14.84375 50.390625 18.546875 58.59375 
Q 22.265625 66.796875 23.4375 73.046875 
Q 28.125 70.703125 32.03125 69.53125 
z
" id="SimHei-22833"/>
       <path d="M 57.421875 69.53125 
L 57.421875 79.6875 
Q 62.109375 79.296875 67.96875 78.90625 
Q 66.015625 76.171875 65.625 69.53125 
L 80.078125 69.53125 
Q 86.71875 69.53125 91.796875 69.921875 
L 91.796875 62.890625 
Q 86.328125 63.28125 80.078125 63.28125 
L 65.234375 63.28125 
L 64.453125 54.6875 
L 84.375 54.6875 
Q 83.984375 50 83.984375 42.1875 
L 83.984375 2.34375 
Q 91.796875 2.34375 95.3125 2.734375 
L 95.3125 -4.296875 
Q 90.234375 -3.90625 81.25 -3.90625 
L 44.53125 -3.90625 
Q 35.546875 -3.90625 29.6875 -4.296875 
L 29.6875 2.734375 
Q 33.203125 2.34375 40.625 2.34375 
L 40.625 42.1875 
Q 40.625 49.609375 40.234375 54.6875 
L 56.25 54.6875 
L 57.03125 63.28125 
L 50 63.28125 
Q 40.234375 63.28125 34.765625 62.890625 
L 34.765625 69.921875 
Q 39.84375 69.53125 50 69.53125 
z
M 34.765625 76.5625 
Q 31.640625 73.046875 25.78125 58.59375 
L 25.78125 7.03125 
Q 25.78125 -1.171875 26.171875 -8.59375 
L 17.96875 -8.59375 
Q 18.359375 -1.953125 18.359375 5.859375 
L 18.359375 46.09375 
Q 13.671875 38.28125 9.765625 33.59375 
Q 6.640625 37.890625 3.90625 40.234375 
Q 7.8125 44.140625 14.640625 55.265625 
Q 21.484375 66.40625 25.390625 80.46875 
Q 30.859375 77.734375 34.765625 76.5625 
z
M 76.953125 41.40625 
L 76.953125 49.21875 
L 48.046875 49.21875 
L 48.046875 41.40625 
z
M 76.953125 2.34375 
L 76.953125 9.765625 
L 48.046875 9.765625 
L 48.046875 2.34375 
z
M 76.953125 15.625 
L 76.953125 22.65625 
L 48.046875 22.65625 
L 48.046875 15.625 
z
M 76.953125 28.515625 
L 76.953125 35.546875 
L 48.046875 35.546875 
L 48.046875 28.515625 
z
" id="SimHei-20540"/>
      </defs>
      <use xlink:href="#SimHei-35757"/>
      <use x="100" xlink:href="#SimHei-32451"/>
      <use x="200" xlink:href="#SimHei-25439"/>
      <use x="300" xlink:href="#SimHei-22833"/>
      <use x="400" xlink:href="#SimHei-20540"/>
     </g>
    </g>
   </g>
   <g id="line2d_59">
    <path clip-path="url(#p1bbea63e73)" d="M 48.651477 236.488606 
L 65.738559 254.873481 
L 82.82564 256.766718 
L 99.912721 257.72631 
L 116.999803 258.312322 
L 134.086884 258.845343 
L 151.173965 259.166753 
L 168.261047 259.47938 
L 185.348128 259.771127 
L 202.435209 259.991658 
L 219.522291 260.129122 
L 236.609372 260.307207 
L 253.696453 260.506298 
L 270.783535 260.600271 
L 287.870616 260.755882 
L 304.957697 260.895649 
L 322.044779 261.006163 
L 339.13186 261.07785 
L 356.218941 261.197227 
L 373.306023 261.216 
" style="fill:none;stroke:#add8e6;stroke-linecap:square;stroke-width:1.5;"/>
   </g>
   <g id="line2d_60">
    <path clip-path="url(#p1bbea63e73)" d="M 48.651477 171.381986 
L 65.738559 236.194901 
L 82.82564 243.492992 
L 99.912721 247.315178 
L 116.999803 249.650887 
L 134.086884 251.0753 
L 151.173965 252.272184 
L 168.261047 253.051432 
L 185.348128 253.676326 
L 202.435209 254.20668 
L 219.522291 254.689411 
L 236.609372 255.065152 
L 253.696453 255.449055 
L 270.783535 255.659824 
L 287.870616 255.983162 
L 304.957697 256.184046 
L 322.044779 256.391425 
L 339.13186 256.633055 
L 356.218941 256.72144 
L 373.306023 256.963714 
" style="fill:none;stroke:#4169e1;stroke-linecap:square;stroke-width:1.5;"/>
   </g>
   <g id="line2d_61">
    <path clip-path="url(#p1bbea63e73)" d="M 48.651477 19.296 
L 65.738559 53.829179 
L 82.82564 123.532976 
L 99.912721 180.256395 
L 116.999803 204.243064 
L 134.086884 215.298544 
L 151.173965 221.638519 
L 168.261047 225.802727 
L 185.348128 228.834824 
L 202.435209 231.197975 
L 219.522291 233.111197 
L 236.609372 234.735035 
L 253.696453 236.132279 
L 270.783535 237.332105 
L 287.870616 238.436366 
L 304.957697 239.389946 
L 322.044779 240.288541 
L 339.13186 241.112007 
L 356.218941 241.840002 
L 373.306023 242.512111 
" style="fill:none;stroke:#ffa500;stroke-linecap:square;stroke-width:1.5;"/>
   </g>
   <g id="patch_3">
    <path d="M 32.41875 273.312 
L 32.41875 7.2 
" style="fill:none;stroke:#000000;stroke-linecap:square;stroke-linejoin:miter;stroke-width:0.8;"/>
   </g>
   <g id="patch_4">
    <path d="M 389.53875 273.312 
L 389.53875 7.2 
" style="fill:none;stroke:#000000;stroke-linecap:square;stroke-linejoin:miter;stroke-width:0.8;"/>
   </g>
   <g id="patch_5">
    <path d="M 32.41875 273.312 
L 389.53875 273.312 
" style="fill:none;stroke:#000000;stroke-linecap:square;stroke-linejoin:miter;stroke-width:0.8;"/>
   </g>
   <g id="patch_6">
    <path d="M 32.41875 7.2 
L 389.53875 7.2 
" style="fill:none;stroke:#000000;stroke-linecap:square;stroke-linejoin:miter;stroke-width:0.8;"/>
   </g>
   <g id="legend_1">
    <g id="patch_7">
     <path d="M 295.53875 58.325 
L 382.53875 58.325 
Q 384.53875 58.325 384.53875 56.325 
L 384.53875 14.2 
Q 384.53875 12.2 382.53875 12.2 
L 295.53875 12.2 
Q 293.53875 12.2 293.53875 14.2 
L 293.53875 56.325 
Q 293.53875 58.325 295.53875 58.325 
z
" style="fill:#ffffff;opacity:0.8;stroke:#cccccc;stroke-linejoin:miter;"/>
    </g>
    <g id="line2d_62">
     <path d="M 297.53875 20.825 
L 317.53875 20.825 
" style="fill:none;stroke:#add8e6;stroke-linecap:square;stroke-width:1.5;"/>
    </g>
    <g id="line2d_63"/>
    <g id="text_32">
     <!-- 学习率0.1 -->
     <g transform="translate(325.53875 24.325)scale(0.1 -0.1)">
      <defs>
       <path d="M 76.171875 41.796875 
L 76.171875 33.59375 
Q 70.703125 32.421875 66.203125 29.875 
Q 61.71875 27.34375 55.859375 24.609375 
L 55.859375 21.09375 
L 80.46875 21.09375 
Q 85.15625 21.09375 92.578125 21.484375 
L 92.578125 13.671875 
Q 84.765625 14.0625 80.46875 14.0625 
L 55.859375 14.0625 
L 55.859375 -1.953125 
Q 55.859375 -7.421875 51.5625 -8.78125 
Q 47.265625 -10.15625 37.5 -10.9375 
Q 36.328125 -6.640625 33.59375 -2.34375 
L 44.140625 -2.34375 
Q 48.046875 -2.34375 48.046875 1.953125 
L 48.046875 14.0625 
L 21.09375 14.0625 
Q 14.84375 14.0625 7.03125 13.671875 
L 7.03125 21.484375 
Q 15.234375 21.09375 20.703125 21.09375 
L 48.046875 21.09375 
Q 48.046875 24.21875 47.265625 28.125 
L 61.328125 35.15625 
L 39.84375 35.15625 
Q 32.421875 35.15625 23.046875 34.765625 
L 23.046875 42.1875 
Q 31.640625 41.796875 39.453125 41.796875 
z
M 83.59375 77.734375 
Q 75.78125 68.75 70.3125 59.375 
L 91.796875 59.375 
Q 91.40625 55.859375 91.40625 51.171875 
Q 91.40625 46.484375 91.796875 42.1875 
L 83.59375 42.1875 
L 83.59375 52.734375 
L 16.015625 52.734375 
L 16.015625 41.796875 
L 7.8125 41.796875 
Q 8.203125 46.484375 8.203125 51.171875 
Q 8.203125 55.859375 7.8125 59.375 
L 62.109375 59.375 
Q 65.234375 64.84375 68.546875 70.890625 
Q 71.875 76.953125 73.828125 82.8125 
Q 80.078125 79.296875 83.59375 77.734375 
z
M 46.09375 81.640625 
Q 53.515625 72.265625 55.859375 67.96875 
Q 52.34375 65.234375 48.4375 62.890625 
Q 45.3125 69.140625 39.0625 76.953125 
Q 42.96875 79.6875 46.09375 81.640625 
z
M 19.53125 78.90625 
Q 26.5625 73.046875 31.640625 66.796875 
Q 27.34375 63.671875 25 60.9375 
Q 19.921875 68.359375 13.28125 73.828125 
Q 17.578125 76.953125 19.53125 78.90625 
z
" id="SimHei-23398"/>
       <path d="M 39.0625 67.578125 
Q 27.734375 67.578125 17.578125 67.1875 
L 17.578125 75 
Q 30.46875 74.609375 37.109375 74.609375 
L 85.9375 74.609375 
Q 85.15625 69.140625 84.765625 57.8125 
L 83.203125 5.859375 
Q 82.421875 -4.6875 76.953125 -6.640625 
Q 71.484375 -8.59375 58.984375 -9.375 
Q 57.8125 -4.6875 54.6875 0 
Q 66.015625 -0.78125 70.3125 0.1875 
Q 74.609375 1.171875 75.390625 7.421875 
L 76.953125 67.578125 
z
M 65.625 32.421875 
Q 65.625 28.125 66.40625 24.21875 
Q 44.140625 16.015625 19.921875 3.90625 
Q 17.96875 8.59375 14.453125 12.890625 
Q 19.53125 14.0625 34.5625 19.53125 
Q 49.609375 25 65.625 32.421875 
z
M 28.125 59.765625 
Q 44.921875 50 53.125 43.75 
Q 51.5625 41.40625 47.65625 36.328125 
Q 40.625 42.96875 23.4375 53.125 
Q 26.171875 56.640625 28.125 59.765625 
z
" id="SimHei-20064"/>
       <path d="M 51.953125 80.46875 
Q 53.515625 76.5625 55.46875 70.703125 
L 75 70.703125 
Q 82.03125 70.703125 90.625 71.09375 
L 90.625 64.453125 
Q 82.03125 65.234375 74.609375 65.234375 
L 43.75 65.234375 
Q 46.484375 63.28125 51.5625 60.9375 
Q 48.046875 58.59375 44.921875 55.265625 
Q 41.796875 51.953125 38.671875 48.828125 
L 51.171875 48.828125 
Q 55.859375 53.515625 58.984375 58.984375 
Q 62.5 56.25 66.796875 53.515625 
Q 61.71875 50.78125 56.25 44.921875 
Q 50.78125 39.0625 41.015625 31.25 
L 60.15625 32.8125 
Q 58.203125 35.15625 56.25 37.890625 
Q 58.59375 38.671875 62.5 41.40625 
Q 66.40625 36.71875 73.4375 26.5625 
Q 69.921875 25.390625 66.015625 22.65625 
Q 65.234375 25 62.890625 27.734375 
Q 57.8125 27.34375 53.515625 27.34375 
L 53.515625 16.40625 
L 80.46875 16.40625 
Q 88.671875 16.40625 95.3125 16.796875 
L 95.3125 10.15625 
Q 89.0625 10.546875 80.078125 10.546875 
L 53.515625 10.546875 
L 53.515625 2.734375 
Q 53.515625 -4.6875 53.90625 -9.765625 
L 45.3125 -9.765625 
Q 45.703125 -4.6875 45.703125 2.734375 
L 45.703125 10.546875 
L 20.703125 10.546875 
Q 12.890625 10.546875 5.078125 10.15625 
L 5.078125 16.796875 
Q 12.890625 16.40625 21.09375 16.40625 
L 45.703125 16.40625 
L 45.703125 26.5625 
Q 42.1875 26.171875 38.671875 25.578125 
Q 35.15625 25 31.640625 23.828125 
Q 30.46875 27.734375 28.90625 31.25 
Q 32.421875 31.640625 36.328125 34.375 
Q 40.234375 37.109375 46.484375 43.75 
Q 35.9375 42.578125 31.640625 41.015625 
Q 30.859375 44.921875 28.90625 49.609375 
Q 32.421875 49.609375 36.328125 54.484375 
Q 40.234375 59.375 42.96875 65.234375 
L 26.5625 65.234375 
Q 17.96875 65.234375 10.15625 64.453125 
L 10.15625 71.09375 
Q 17.96875 70.703125 24.21875 70.703125 
L 46.484375 70.703125 
Q 45.3125 75.390625 43.75 78.515625 
Q 47.265625 79.296875 51.953125 80.46875 
z
M 25.390625 40.234375 
Q 26.953125 37.5 28.515625 34.375 
Q 24.609375 32.03125 20.703125 29.09375 
Q 16.796875 26.171875 12.5 22.265625 
Q 9.765625 26.171875 7.421875 29.296875 
Q 12.5 31.640625 17.1875 34.5625 
Q 21.875 37.5 25.390625 40.234375 
z
M 75.78125 41.40625 
Q 80.078125 38.671875 83.390625 36.515625 
Q 86.71875 34.375 91.796875 30.46875 
Q 88.671875 28.125 85.9375 25 
Q 82.8125 27.734375 79.09375 30.859375 
Q 75.390625 33.984375 71.484375 36.328125 
Q 73.828125 38.671875 75.78125 41.40625 
z
M 89.453125 55.078125 
Q 86.71875 53.90625 82.8125 50.96875 
Q 78.90625 48.046875 75 44.140625 
Q 72.265625 47.65625 69.921875 49.609375 
Q 73.4375 51.953125 76.171875 54.484375 
Q 78.90625 57.03125 82.8125 61.328125 
Q 86.328125 57.8125 89.453125 55.078125 
z
M 16.40625 60.15625 
Q 22.265625 56.25 27.734375 51.171875 
Q 24.609375 48.4375 22.265625 45.703125 
Q 16.796875 51.5625 10.546875 55.078125 
Q 13.671875 57.8125 16.40625 60.15625 
z
" id="SimHei-29575"/>
       <path d="M 16.796875 1.953125 
L 7.8125 1.953125 
L 7.8125 10.546875 
L 16.796875 10.546875 
z
" id="SimHei-46"/>
      </defs>
      <use xlink:href="#SimHei-23398"/>
      <use x="100" xlink:href="#SimHei-20064"/>
      <use x="200" xlink:href="#SimHei-29575"/>
      <use x="300" xlink:href="#SimHei-48"/>
      <use x="350" xlink:href="#SimHei-46"/>
      <use x="400" xlink:href="#SimHei-49"/>
     </g>
    </g>
    <g id="line2d_64">
     <path d="M 297.53875 35.2 
L 317.53875 35.2 
" style="fill:none;stroke:#4169e1;stroke-linecap:square;stroke-width:1.5;"/>
    </g>
    <g id="line2d_65"/>
    <g id="text_33">
     <!-- 学习率0.01 -->
     <g transform="translate(325.53875 38.7)scale(0.1 -0.1)">
      <use xlink:href="#SimHei-23398"/>
      <use x="100" xlink:href="#SimHei-20064"/>
      <use x="200" xlink:href="#SimHei-29575"/>
      <use x="300" xlink:href="#SimHei-48"/>
      <use x="350" xlink:href="#SimHei-46"/>
      <use x="400" xlink:href="#SimHei-48"/>
      <use x="450" xlink:href="#SimHei-49"/>
     </g>
    </g>
    <g id="line2d_66">
     <path d="M 297.53875 49.575 
L 317.53875 49.575 
" style="fill:none;stroke:#ffa500;stroke-linecap:square;stroke-width:1.5;"/>
    </g>
    <g id="line2d_67"/>
    <g id="text_34">
     <!-- 学习率0.001 -->
     <g transform="translate(325.53875 53.075)scale(0.1 -0.1)">
      <use xlink:href="#SimHei-23398"/>
      <use x="100" xlink:href="#SimHei-20064"/>
      <use x="200" xlink:href="#SimHei-29575"/>
      <use x="300" xlink:href="#SimHei-48"/>
      <use x="350" xlink:href="#SimHei-46"/>
      <use x="400" xlink:href="#SimHei-48"/>
      <use x="450" xlink:href="#SimHei-48"/>
      <use x="500" xlink:href="#SimHei-49"/>
     </g>
    </g>
   </g>
  </g>
 </g>
 <defs>
  <clipPath id="p1bbea63e73">
   <rect height="266.112" width="357.12" x="32.41875" y="7.2"/>
  </clipPath>
 </defs>
</svg>
