<?xml version="1.0" encoding="utf-8" standalone="no"?>
<!DOCTYPE svg PUBLIC "-//W3C//DTD SVG 1.1//EN"
  "http://www.w3.org/Graphics/SVG/1.1/DTD/svg11.dtd">
<svg height="319.94375pt" version="1.1" viewBox="0 0 663.41875 319.94375" width="663.41875pt" xmlns="http://www.w3.org/2000/svg" xmlns:xlink="http://www.w3.org/1999/xlink">
 <metadata>
  <rdf:RDF xmlns:cc="http://creativecommons.org/ns#" xmlns:dc="http://purl.org/dc/elements/1.1/" xmlns:rdf="http://www.w3.org/1999/02/22-rdf-syntax-ns#">
   <cc:Work>
    <dc:type rdf:resource="http://purl.org/dc/dcmitype/StillImage"/>
    <dc:date>2022-01-14T00:45:14.010105</dc:date>
    <dc:format>image/svg+xml</dc:format>
    <dc:creator>
     <cc:Agent>
      <dc:title>Matplotlib v3.4.3, https://matplotlib.org/</dc:title>
     </cc:Agent>
    </dc:creator>
   </cc:Work>
  </rdf:RDF>
 </metadata>
 <defs>
  <style type="text/css">*{stroke-linecap:butt;stroke-linejoin:round;}</style>
 </defs>
 <g id="figure_1">
  <g id="patch_1">
   <path d="M 0 319.94375 
L 663.41875 319.94375 
L 663.41875 0 
L 0 0 
z
" style="fill:#ffffff;"/>
  </g>
  <g id="axes_1">
   <g id="patch_2">
    <path d="M 42.41875 284.4 
L 321.41875 284.4 
L 321.41875 7.2 
L 42.41875 7.2 
z
" style="fill:#ffffff;"/>
   </g>
   <g id="matplotlib.axis_1">
    <g id="xtick_1">
     <g id="line2d_1">
      <path clip-path="url(#p7376552198)" d="M 55.100568 284.4 
L 55.100568 7.2 
" style="fill:none;stroke:#b0b0b0;stroke-dasharray:2.96,1.28;stroke-dashoffset:0;stroke-width:0.8;"/>
     </g>
     <g id="line2d_2">
      <defs>
       <path d="M 0 0 
L 0 3.5 
" id="meb73f1684e" style="stroke:#000000;stroke-width:0.8;"/>
      </defs>
      <g>
       <use style="stroke:#000000;stroke-width:0.8;" x="55.100568" xlink:href="#meb73f1684e" y="284.4"/>
      </g>
     </g>
     <g id="text_1">
      <!-- 1 -->
      <g transform="translate(52.600568 298.275)scale(0.1 -0.1)">
       <defs>
        <path d="M 1400 3600 
Q 1075 3275 575 2975 
L 575 3450 
Q 1200 3875 1600 4450 
L 1900 4450 
L 1900 150 
L 1400 150 
L 1400 3600 
z
" id="SimHei-31" transform="scale(0.015625)"/>
       </defs>
       <use xlink:href="#SimHei-31"/>
      </g>
     </g>
    </g>
    <g id="xtick_2">
     <g id="line2d_3">
      <path clip-path="url(#p7376552198)" d="M 68.44985 284.4 
L 68.44985 7.2 
" style="fill:none;stroke:#b0b0b0;stroke-dasharray:2.96,1.28;stroke-dashoffset:0;stroke-width:0.8;"/>
     </g>
     <g id="line2d_4">
      <g>
       <use style="stroke:#000000;stroke-width:0.8;" x="68.44985" xlink:href="#meb73f1684e" y="284.4"/>
      </g>
     </g>
     <g id="text_2">
      <!-- 2 -->
      <g transform="translate(65.94985 298.275)scale(0.1 -0.1)">
       <defs>
        <path d="M 300 250 
Q 325 625 650 925 
Q 975 1225 1475 1862 
Q 1975 2500 2125 2850 
Q 2275 3200 2237 3450 
Q 2200 3700 2000 3862 
Q 1800 4025 1537 4000 
Q 1275 3975 1037 3800 
Q 800 3625 675 3275 
L 200 3350 
Q 400 3925 712 4187 
Q 1025 4450 1450 4475 
Q 1700 4500 1900 4462 
Q 2100 4425 2312 4287 
Q 2525 4150 2662 3875 
Q 2800 3600 2762 3212 
Q 2725 2825 2375 2287 
Q 2025 1750 1025 600 
L 2825 600 
L 2825 150 
L 300 150 
L 300 250 
z
" id="SimHei-32" transform="scale(0.015625)"/>
       </defs>
       <use xlink:href="#SimHei-32"/>
      </g>
     </g>
    </g>
    <g id="xtick_3">
     <g id="line2d_5">
      <path clip-path="url(#p7376552198)" d="M 81.799133 284.4 
L 81.799133 7.2 
" style="fill:none;stroke:#b0b0b0;stroke-dasharray:2.96,1.28;stroke-dashoffset:0;stroke-width:0.8;"/>
     </g>
     <g id="line2d_6">
      <g>
       <use style="stroke:#000000;stroke-width:0.8;" x="81.799133" xlink:href="#meb73f1684e" y="284.4"/>
      </g>
     </g>
     <g id="text_3">
      <!-- 3 -->
      <g transform="translate(79.299133 298.275)scale(0.1 -0.1)">
       <defs>
        <path d="M 250 1225 
L 700 1300 
Q 800 975 1025 762 
Q 1250 550 1587 562 
Q 1925 575 2125 837 
Q 2325 1100 2300 1437 
Q 2275 1775 2037 1962 
Q 1800 2150 1275 2225 
L 1275 2550 
Q 1800 2600 2037 2825 
Q 2275 3050 2250 3412 
Q 2225 3775 1925 3937 
Q 1625 4100 1287 3975 
Q 950 3850 750 3275 
L 300 3350 
Q 450 3800 712 4100 
Q 975 4400 1425 4450 
Q 1875 4500 2212 4337 
Q 2550 4175 2687 3837 
Q 2825 3500 2725 3100 
Q 2625 2700 2150 2400 
Q 2500 2250 2687 1950 
Q 2875 1650 2812 1162 
Q 2750 675 2375 375 
Q 2000 75 1525 87 
Q 1050 100 700 387 
Q 350 675 250 1225 
z
" id="SimHei-33" transform="scale(0.015625)"/>
       </defs>
       <use xlink:href="#SimHei-33"/>
      </g>
     </g>
    </g>
    <g id="xtick_4">
     <g id="line2d_7">
      <path clip-path="url(#p7376552198)" d="M 95.148415 284.4 
L 95.148415 7.2 
" style="fill:none;stroke:#b0b0b0;stroke-dasharray:2.96,1.28;stroke-dashoffset:0;stroke-width:0.8;"/>
     </g>
     <g id="line2d_8">
      <g>
       <use style="stroke:#000000;stroke-width:0.8;" x="95.148415" xlink:href="#meb73f1684e" y="284.4"/>
      </g>
     </g>
     <g id="text_4">
      <!-- 4 -->
      <g transform="translate(92.648415 298.275)scale(0.1 -0.1)">
       <defs>
        <path d="M 2000 1100 
L 75 1100 
L 75 1525 
L 2100 4450 
L 2475 4450 
L 2475 1525 
L 3075 1525 
L 3075 1100 
L 2475 1100 
L 2475 150 
L 2000 150 
L 2000 1100 
z
M 2000 1525 
L 2000 3500 
L 600 1525 
L 2000 1525 
z
" id="SimHei-34" transform="scale(0.015625)"/>
       </defs>
       <use xlink:href="#SimHei-34"/>
      </g>
     </g>
    </g>
    <g id="xtick_5">
     <g id="line2d_9">
      <path clip-path="url(#p7376552198)" d="M 108.497697 284.4 
L 108.497697 7.2 
" style="fill:none;stroke:#b0b0b0;stroke-dasharray:2.96,1.28;stroke-dashoffset:0;stroke-width:0.8;"/>
     </g>
     <g id="line2d_10">
      <g>
       <use style="stroke:#000000;stroke-width:0.8;" x="108.497697" xlink:href="#meb73f1684e" y="284.4"/>
      </g>
     </g>
     <g id="text_5">
      <!-- 5 -->
      <g transform="translate(105.997697 298.275)scale(0.1 -0.1)">
       <defs>
        <path d="M 550 1325 
Q 725 650 1150 575 
Q 1575 500 1837 662 
Q 2100 825 2212 1087 
Q 2325 1350 2312 1675 
Q 2300 2000 2137 2225 
Q 1975 2450 1725 2525 
Q 1475 2600 1162 2525 
Q 850 2450 650 2175 
L 225 2225 
Q 275 2375 700 4375 
L 2675 4375 
L 2675 3925 
L 1075 3925 
Q 950 3250 825 2850 
Q 1200 3025 1525 3012 
Q 1850 3000 2150 2862 
Q 2450 2725 2587 2487 
Q 2725 2250 2787 2012 
Q 2850 1775 2837 1500 
Q 2825 1225 2725 937 
Q 2625 650 2425 462 
Q 2225 275 1937 162 
Q 1650 50 1275 75 
Q 900 100 562 350 
Q 225 600 100 1200 
L 550 1325 
z
" id="SimHei-35" transform="scale(0.015625)"/>
       </defs>
       <use xlink:href="#SimHei-35"/>
      </g>
     </g>
    </g>
    <g id="xtick_6">
     <g id="line2d_11">
      <path clip-path="url(#p7376552198)" d="M 121.84698 284.4 
L 121.84698 7.2 
" style="fill:none;stroke:#b0b0b0;stroke-dasharray:2.96,1.28;stroke-dashoffset:0;stroke-width:0.8;"/>
     </g>
     <g id="line2d_12">
      <g>
       <use style="stroke:#000000;stroke-width:0.8;" x="121.84698" xlink:href="#meb73f1684e" y="284.4"/>
      </g>
     </g>
     <g id="text_6">
      <!-- 6 -->
      <g transform="translate(119.34698 298.275)scale(0.1 -0.1)">
       <defs>
        <path d="M 250 1612 
Q 275 1975 387 2225 
Q 500 2475 725 2850 
L 1750 4450 
L 2325 4450 
L 1275 2800 
Q 1950 2975 2350 2750 
Q 2750 2525 2887 2237 
Q 3025 1950 3037 1612 
Q 3050 1275 2937 950 
Q 2825 625 2537 362 
Q 2250 100 1737 75 
Q 1225 50 862 262 
Q 500 475 362 862 
Q 225 1250 250 1612 
z
M 1025 787 
Q 1250 550 1625 525 
Q 2000 500 2250 775 
Q 2500 1050 2500 1575 
Q 2500 2100 2187 2300 
Q 1875 2500 1487 2450 
Q 1100 2400 925 2075 
Q 750 1750 775 1387 
Q 800 1025 1025 787 
z
" id="SimHei-36" transform="scale(0.015625)"/>
       </defs>
       <use xlink:href="#SimHei-36"/>
      </g>
     </g>
    </g>
    <g id="xtick_7">
     <g id="line2d_13">
      <path clip-path="url(#p7376552198)" d="M 135.196262 284.4 
L 135.196262 7.2 
" style="fill:none;stroke:#b0b0b0;stroke-dasharray:2.96,1.28;stroke-dashoffset:0;stroke-width:0.8;"/>
     </g>
     <g id="line2d_14">
      <g>
       <use style="stroke:#000000;stroke-width:0.8;" x="135.196262" xlink:href="#meb73f1684e" y="284.4"/>
      </g>
     </g>
     <g id="text_7">
      <!-- 7 -->
      <g transform="translate(132.696262 298.275)scale(0.1 -0.1)">
       <defs>
        <path d="M 850 150 
Q 1300 2050 2425 3925 
L 275 3925 
L 275 4375 
L 2950 4375 
L 2950 3950 
Q 1775 2050 1400 150 
L 850 150 
z
" id="SimHei-37" transform="scale(0.015625)"/>
       </defs>
       <use xlink:href="#SimHei-37"/>
      </g>
     </g>
    </g>
    <g id="xtick_8">
     <g id="line2d_15">
      <path clip-path="url(#p7376552198)" d="M 148.545544 284.4 
L 148.545544 7.2 
" style="fill:none;stroke:#b0b0b0;stroke-dasharray:2.96,1.28;stroke-dashoffset:0;stroke-width:0.8;"/>
     </g>
     <g id="line2d_16">
      <g>
       <use style="stroke:#000000;stroke-width:0.8;" x="148.545544" xlink:href="#meb73f1684e" y="284.4"/>
      </g>
     </g>
     <g id="text_8">
      <!-- 8 -->
      <g transform="translate(146.045544 298.275)scale(0.1 -0.1)">
       <defs>
        <path d="M 175 1375 
Q 175 1675 325 1962 
Q 475 2250 825 2425 
Q 525 2600 425 2812 
Q 325 3025 312 3300 
Q 300 3575 387 3775 
Q 475 3975 650 4150 
Q 825 4325 1037 4387 
Q 1250 4450 1500 4450 
Q 1750 4450 1950 4400 
Q 2150 4350 2375 4187 
Q 2600 4025 2700 3725 
Q 2800 3425 2687 3025 
Q 2575 2625 2100 2400 
Q 2525 2275 2700 2012 
Q 2875 1750 2875 1375 
Q 2875 1000 2762 775 
Q 2650 550 2512 400 
Q 2375 250 2137 162 
Q 1900 75 1537 75 
Q 1175 75 912 162 
Q 650 250 475 425 
Q 300 600 237 837 
Q 175 1075 175 1375 
z
M 687 1400 
Q 675 1100 787 875 
Q 900 650 1200 587 
Q 1500 525 1825 600 
Q 2150 675 2275 950 
Q 2400 1225 2362 1500 
Q 2325 1775 2050 1962 
Q 1775 2150 1450 2125 
Q 1125 2100 912 1900 
Q 700 1700 687 1400 
z
M 775 3350 
Q 775 3100 950 2875 
Q 1125 2650 1500 2650 
Q 1875 2650 2062 2875 
Q 2250 3100 2237 3412 
Q 2225 3725 2012 3875 
Q 1800 4025 1437 4000 
Q 1075 3975 925 3787 
Q 775 3600 775 3350 
z
" id="SimHei-38" transform="scale(0.015625)"/>
       </defs>
       <use xlink:href="#SimHei-38"/>
      </g>
     </g>
    </g>
    <g id="xtick_9">
     <g id="line2d_17">
      <path clip-path="url(#p7376552198)" d="M 161.894827 284.4 
L 161.894827 7.2 
" style="fill:none;stroke:#b0b0b0;stroke-dasharray:2.96,1.28;stroke-dashoffset:0;stroke-width:0.8;"/>
     </g>
     <g id="line2d_18">
      <g>
       <use style="stroke:#000000;stroke-width:0.8;" x="161.894827" xlink:href="#meb73f1684e" y="284.4"/>
      </g>
     </g>
     <g id="text_9">
      <!-- 9 -->
      <g transform="translate(159.394827 298.275)scale(0.1 -0.1)">
       <defs>
        <path d="M 800 75 
Q 1350 1000 1700 1750 
Q 1075 1650 662 1912 
Q 250 2175 162 2625 
Q 75 3075 175 3437 
Q 275 3800 487 4037 
Q 700 4275 1000 4375 
Q 1300 4475 1537 4475 
Q 1775 4475 2025 4375 
Q 2275 4275 2475 4075 
Q 2675 3875 2750 3662 
Q 2825 3450 2825 3112 
Q 2825 2775 2575 2250 
Q 2325 1725 1350 75 
L 800 75 
z
M 662 2875 
Q 700 2550 937 2337 
Q 1175 2125 1450 2150 
Q 1725 2175 1887 2300 
Q 2050 2425 2200 2725 
Q 2300 3100 2250 3362 
Q 2200 3625 1987 3800 
Q 1775 3975 1525 3975 
Q 1375 4000 1137 3900 
Q 900 3800 762 3500 
Q 625 3200 662 2875 
z
" id="SimHei-39" transform="scale(0.015625)"/>
       </defs>
       <use xlink:href="#SimHei-39"/>
      </g>
     </g>
    </g>
    <g id="xtick_10">
     <g id="line2d_19">
      <path clip-path="url(#p7376552198)" d="M 175.244109 284.4 
L 175.244109 7.2 
" style="fill:none;stroke:#b0b0b0;stroke-dasharray:2.96,1.28;stroke-dashoffset:0;stroke-width:0.8;"/>
     </g>
     <g id="line2d_20">
      <g>
       <use style="stroke:#000000;stroke-width:0.8;" x="175.244109" xlink:href="#meb73f1684e" y="284.4"/>
      </g>
     </g>
     <g id="text_10">
      <!-- 10 -->
      <g transform="translate(170.244109 298.275)scale(0.1 -0.1)">
       <defs>
        <path d="M 225 2537 
Q 250 3200 412 3587 
Q 575 3975 875 4225 
Q 1175 4475 1612 4475 
Q 2050 4475 2375 4112 
Q 2700 3750 2800 3200 
Q 2900 2650 2862 1937 
Q 2825 1225 2612 775 
Q 2400 325 1975 150 
Q 1550 -25 1125 187 
Q 700 400 525 750 
Q 350 1100 275 1487 
Q 200 1875 225 2537 
z
M 750 2687 
Q 675 2000 800 1462 
Q 925 925 1212 700 
Q 1500 475 1800 612 
Q 2100 750 2237 1162 
Q 2375 1575 2375 2062 
Q 2375 2550 2337 2950 
Q 2300 3350 2112 3675 
Q 1925 4000 1612 4012 
Q 1300 4025 1062 3700 
Q 825 3375 750 2687 
z
" id="SimHei-30" transform="scale(0.015625)"/>
       </defs>
       <use xlink:href="#SimHei-31"/>
       <use x="50" xlink:href="#SimHei-30"/>
      </g>
     </g>
    </g>
    <g id="xtick_11">
     <g id="line2d_21">
      <path clip-path="url(#p7376552198)" d="M 188.593391 284.4 
L 188.593391 7.2 
" style="fill:none;stroke:#b0b0b0;stroke-dasharray:2.96,1.28;stroke-dashoffset:0;stroke-width:0.8;"/>
     </g>
     <g id="line2d_22">
      <g>
       <use style="stroke:#000000;stroke-width:0.8;" x="188.593391" xlink:href="#meb73f1684e" y="284.4"/>
      </g>
     </g>
     <g id="text_11">
      <!-- 11 -->
      <g transform="translate(183.593391 298.275)scale(0.1 -0.1)">
       <use xlink:href="#SimHei-31"/>
       <use x="50" xlink:href="#SimHei-31"/>
      </g>
     </g>
    </g>
    <g id="xtick_12">
     <g id="line2d_23">
      <path clip-path="url(#p7376552198)" d="M 201.942673 284.4 
L 201.942673 7.2 
" style="fill:none;stroke:#b0b0b0;stroke-dasharray:2.96,1.28;stroke-dashoffset:0;stroke-width:0.8;"/>
     </g>
     <g id="line2d_24">
      <g>
       <use style="stroke:#000000;stroke-width:0.8;" x="201.942673" xlink:href="#meb73f1684e" y="284.4"/>
      </g>
     </g>
     <g id="text_12">
      <!-- 12 -->
      <g transform="translate(196.942673 298.275)scale(0.1 -0.1)">
       <use xlink:href="#SimHei-31"/>
       <use x="50" xlink:href="#SimHei-32"/>
      </g>
     </g>
    </g>
    <g id="xtick_13">
     <g id="line2d_25">
      <path clip-path="url(#p7376552198)" d="M 215.291956 284.4 
L 215.291956 7.2 
" style="fill:none;stroke:#b0b0b0;stroke-dasharray:2.96,1.28;stroke-dashoffset:0;stroke-width:0.8;"/>
     </g>
     <g id="line2d_26">
      <g>
       <use style="stroke:#000000;stroke-width:0.8;" x="215.291956" xlink:href="#meb73f1684e" y="284.4"/>
      </g>
     </g>
     <g id="text_13">
      <!-- 13 -->
      <g transform="translate(210.291956 298.275)scale(0.1 -0.1)">
       <use xlink:href="#SimHei-31"/>
       <use x="50" xlink:href="#SimHei-33"/>
      </g>
     </g>
    </g>
    <g id="xtick_14">
     <g id="line2d_27">
      <path clip-path="url(#p7376552198)" d="M 228.641238 284.4 
L 228.641238 7.2 
" style="fill:none;stroke:#b0b0b0;stroke-dasharray:2.96,1.28;stroke-dashoffset:0;stroke-width:0.8;"/>
     </g>
     <g id="line2d_28">
      <g>
       <use style="stroke:#000000;stroke-width:0.8;" x="228.641238" xlink:href="#meb73f1684e" y="284.4"/>
      </g>
     </g>
     <g id="text_14">
      <!-- 14 -->
      <g transform="translate(223.641238 298.275)scale(0.1 -0.1)">
       <use xlink:href="#SimHei-31"/>
       <use x="50" xlink:href="#SimHei-34"/>
      </g>
     </g>
    </g>
    <g id="xtick_15">
     <g id="line2d_29">
      <path clip-path="url(#p7376552198)" d="M 241.99052 284.4 
L 241.99052 7.2 
" style="fill:none;stroke:#b0b0b0;stroke-dasharray:2.96,1.28;stroke-dashoffset:0;stroke-width:0.8;"/>
     </g>
     <g id="line2d_30">
      <g>
       <use style="stroke:#000000;stroke-width:0.8;" x="241.99052" xlink:href="#meb73f1684e" y="284.4"/>
      </g>
     </g>
     <g id="text_15">
      <!-- 15 -->
      <g transform="translate(236.99052 298.275)scale(0.1 -0.1)">
       <use xlink:href="#SimHei-31"/>
       <use x="50" xlink:href="#SimHei-35"/>
      </g>
     </g>
    </g>
    <g id="xtick_16">
     <g id="line2d_31">
      <path clip-path="url(#p7376552198)" d="M 255.339803 284.4 
L 255.339803 7.2 
" style="fill:none;stroke:#b0b0b0;stroke-dasharray:2.96,1.28;stroke-dashoffset:0;stroke-width:0.8;"/>
     </g>
     <g id="line2d_32">
      <g>
       <use style="stroke:#000000;stroke-width:0.8;" x="255.339803" xlink:href="#meb73f1684e" y="284.4"/>
      </g>
     </g>
     <g id="text_16">
      <!-- 16 -->
      <g transform="translate(250.339803 298.275)scale(0.1 -0.1)">
       <use xlink:href="#SimHei-31"/>
       <use x="50" xlink:href="#SimHei-36"/>
      </g>
     </g>
    </g>
    <g id="xtick_17">
     <g id="line2d_33">
      <path clip-path="url(#p7376552198)" d="M 268.689085 284.4 
L 268.689085 7.2 
" style="fill:none;stroke:#b0b0b0;stroke-dasharray:2.96,1.28;stroke-dashoffset:0;stroke-width:0.8;"/>
     </g>
     <g id="line2d_34">
      <g>
       <use style="stroke:#000000;stroke-width:0.8;" x="268.689085" xlink:href="#meb73f1684e" y="284.4"/>
      </g>
     </g>
     <g id="text_17">
      <!-- 17 -->
      <g transform="translate(263.689085 298.275)scale(0.1 -0.1)">
       <use xlink:href="#SimHei-31"/>
       <use x="50" xlink:href="#SimHei-37"/>
      </g>
     </g>
    </g>
    <g id="xtick_18">
     <g id="line2d_35">
      <path clip-path="url(#p7376552198)" d="M 282.038367 284.4 
L 282.038367 7.2 
" style="fill:none;stroke:#b0b0b0;stroke-dasharray:2.96,1.28;stroke-dashoffset:0;stroke-width:0.8;"/>
     </g>
     <g id="line2d_36">
      <g>
       <use style="stroke:#000000;stroke-width:0.8;" x="282.038367" xlink:href="#meb73f1684e" y="284.4"/>
      </g>
     </g>
     <g id="text_18">
      <!-- 18 -->
      <g transform="translate(277.038367 298.275)scale(0.1 -0.1)">
       <use xlink:href="#SimHei-31"/>
       <use x="50" xlink:href="#SimHei-38"/>
      </g>
     </g>
    </g>
    <g id="xtick_19">
     <g id="line2d_37">
      <path clip-path="url(#p7376552198)" d="M 295.38765 284.4 
L 295.38765 7.2 
" style="fill:none;stroke:#b0b0b0;stroke-dasharray:2.96,1.28;stroke-dashoffset:0;stroke-width:0.8;"/>
     </g>
     <g id="line2d_38">
      <g>
       <use style="stroke:#000000;stroke-width:0.8;" x="295.38765" xlink:href="#meb73f1684e" y="284.4"/>
      </g>
     </g>
     <g id="text_19">
      <!-- 19 -->
      <g transform="translate(290.38765 298.275)scale(0.1 -0.1)">
       <use xlink:href="#SimHei-31"/>
       <use x="50" xlink:href="#SimHei-39"/>
      </g>
     </g>
    </g>
    <g id="xtick_20">
     <g id="line2d_39">
      <path clip-path="url(#p7376552198)" d="M 308.736932 284.4 
L 308.736932 7.2 
" style="fill:none;stroke:#b0b0b0;stroke-dasharray:2.96,1.28;stroke-dashoffset:0;stroke-width:0.8;"/>
     </g>
     <g id="line2d_40">
      <g>
       <use style="stroke:#000000;stroke-width:0.8;" x="308.736932" xlink:href="#meb73f1684e" y="284.4"/>
      </g>
     </g>
     <g id="text_20">
      <!-- 20 -->
      <g transform="translate(303.736932 298.275)scale(0.1 -0.1)">
       <use xlink:href="#SimHei-32"/>
       <use x="50" xlink:href="#SimHei-30"/>
      </g>
     </g>
    </g>
    <g id="text_21">
     <!-- 迭代次数 -->
     <g transform="translate(161.91875 311.49375)scale(0.1 -0.1)">
      <defs>
       <path d="M 3900 1875 
Q 3600 1350 3287 1012 
Q 2975 675 2450 275 
Q 2350 475 2025 700 
Q 2600 975 3012 1425 
Q 3425 1875 3600 2450 
Q 2350 2450 1950 2425 
L 1950 2900 
Q 2375 2875 3675 2875 
Q 3725 3250 3750 3775 
L 2800 3775 
Q 2675 3450 2550 3175 
Q 2300 3300 2075 3350 
Q 2275 3675 2425 4112 
Q 2575 4550 2700 5100 
Q 2850 5000 3225 4925 
Q 3075 4725 2950 4200 
L 3750 4200 
Q 3750 4850 3700 5250 
L 4275 5225 
Q 4225 4925 4200 4200 
L 4950 4200 
Q 5175 4200 5575 4225 
L 5575 3725 
Q 5175 3775 4875 3775 
L 4200 3775 
Q 4175 3250 4125 2875 
L 5150 2875 
Q 5475 2875 5925 2900 
L 5925 2425 
Q 5475 2450 5075 2450 
L 4100 2450 
L 4050 2300 
Q 4650 1775 5725 700 
Q 5600 650 5275 300 
Q 4775 975 3900 1875 
z
M 1550 2950 
L 1550 625 
Q 2200 -25 3712 -12 
Q 5225 0 6125 100 
Q 5950 -225 5900 -475 
L 3575 -475 
Q 2975 -475 2525 -387 
Q 2075 -300 1725 -50 
Q 1375 200 1162 12 
Q 950 -175 650 -550 
Q 500 -350 250 -175 
Q 775 275 1075 575 
L 1075 2525 
Q 750 2525 350 2500 
L 350 2975 
Q 775 2950 1075 2950 
L 1550 2950 
z
M 1125 5025 
Q 1525 4275 1675 3900 
Q 1450 3875 1175 3650 
Q 950 4275 650 4750 
Q 900 4850 1125 5025 
z
" id="SimHei-8fed" transform="scale(0.015625)"/>
       <path d="M 3300 2950 
Q 3175 4575 3150 5100 
Q 3300 5075 3725 5025 
Q 3675 4725 3800 3050 
Q 5000 3275 5650 3475 
L 5775 3000 
Q 5500 2975 3850 2625 
Q 4150 1050 4737 450 
Q 5325 -150 5412 125 
Q 5500 400 5525 725 
Q 5800 550 6075 500 
Q 5900 -200 5737 -425 
Q 5575 -650 5137 -500 
Q 4700 -350 4187 300 
Q 3675 950 3350 2525 
Q 2400 2325 2175 2250 
L 2025 2725 
Q 2425 2775 3300 2950 
z
M 2250 4975 
Q 2100 4725 1700 3650 
L 1700 475 
Q 1700 -50 1725 -600 
L 1200 -600 
Q 1225 -50 1225 475 
L 1225 2750 
Q 850 2150 600 1850 
Q 450 2050 225 2225 
Q 625 2600 1050 3425 
Q 1475 4250 1675 5200 
Q 2050 5025 2250 4975 
z
M 4700 4875 
Q 5150 4325 5325 4050 
Q 5100 3900 4875 3725 
Q 4650 4150 4300 4575 
Q 4500 4700 4700 4875 
z
" id="SimHei-4ee3" transform="scale(0.015625)"/>
       <path d="M 4150 3025 
Q 4000 2550 4050 2187 
Q 4100 1825 4275 1450 
Q 4450 1075 4800 750 
Q 5150 425 5475 212 
Q 5800 0 6150 -150 
Q 5875 -350 5750 -625 
Q 5250 -325 4887 -25 
Q 4525 275 4275 612 
Q 4025 950 3825 1425 
Q 3525 625 2950 125 
Q 2375 -375 1850 -650 
Q 1675 -400 1475 -225 
Q 2025 0 2487 362 
Q 2950 725 3162 1100 
Q 3375 1475 3450 1825 
Q 3525 2175 3537 2400 
Q 3550 2625 3525 3125 
Q 3825 3050 4150 3025 
z
M 3700 4975 
Q 3625 4900 3475 4575 
Q 3325 4250 3250 4075 
L 5775 4075 
Q 5650 3725 5550 3362 
Q 5450 3000 5275 2500 
Q 5000 2575 4775 2600 
Q 5025 3350 5100 3650 
L 3100 3650 
Q 2975 3400 2812 3100 
Q 2650 2800 2425 2450 
Q 2275 2600 1975 2700 
Q 2300 3050 2625 3762 
Q 2950 4475 3125 5200 
Q 3450 5025 3700 4975 
z
M 2025 2000 
Q 1825 1675 1475 1087 
Q 1125 500 725 -200 
Q 500 -25 250 175 
Q 725 725 1037 1262 
Q 1350 1800 1575 2325 
Q 1750 2175 2025 2000 
z
M 900 4750 
Q 1725 3725 1950 3375 
Q 1750 3250 1500 3050 
Q 1250 3525 500 4425 
Q 700 4575 900 4750 
z
" id="SimHei-6b21" transform="scale(0.015625)"/>
       <path d="M 4525 4925 
Q 4475 4800 4400 4587 
Q 4325 4375 4175 3825 
L 5325 3825 
Q 5575 3825 5925 3850 
L 5925 3400 
Q 5650 3425 5500 3425 
Q 5500 3025 5362 2162 
Q 5225 1300 4875 675 
Q 5125 375 5437 137 
Q 5750 -100 6025 -200 
Q 5725 -425 5625 -625 
Q 5325 -450 5075 -225 
Q 4825 0 4575 325 
Q 4300 25 3987 -187 
Q 3675 -400 3200 -650 
Q 3075 -425 2850 -300 
Q 3225 -150 3650 125 
Q 4075 400 4300 675 
Q 4125 1025 3962 1425 
Q 3800 1825 3675 2475 
Q 3600 2275 3425 1950 
Q 3250 2050 3000 2150 
Q 3400 2850 3650 3675 
Q 3900 4500 3975 5100 
Q 4275 4975 4525 4925 
z
M 2100 2250 
Q 2000 2150 1875 1925 
L 3250 1925 
Q 3100 1300 2725 675 
Q 3125 525 3350 400 
Q 3225 225 3125 25 
Q 2900 175 2450 325 
Q 1950 -225 725 -650 
Q 600 -375 400 -275 
Q 1575 0 2000 475 
Q 1300 650 850 775 
Q 1000 1000 1250 1525 
Q 1000 1525 425 1500 
L 425 1950 
Q 900 1925 1400 1925 
Q 1500 2150 1550 2425 
Q 1825 2325 2100 2250 
z
M 1775 3950 
Q 1775 4550 1750 5100 
L 2250 5100 
Q 2225 4575 2225 3950 
Q 3075 3950 3425 3975 
L 3425 3525 
Q 3075 3550 2225 3550 
Q 2225 2825 2250 2425 
L 1750 2425 
Q 1775 2775 1775 3300 
Q 1650 3100 1300 2787 
Q 950 2475 650 2300 
Q 525 2525 275 2625 
Q 500 2700 875 2975 
Q 1250 3250 1450 3550 
Q 950 3550 500 3525 
L 500 3975 
Q 925 3950 1775 3950 
z
M 3975 3175 
Q 4200 1700 4600 1125 
Q 4850 1700 4937 2287 
Q 5025 2875 5050 3425 
L 4075 3425 
L 3975 3175 
z
M 1450 1000 
Q 1750 925 2275 800 
Q 2475 1050 2650 1525 
L 1725 1525 
Q 1600 1275 1450 1000 
z
M 3325 4825 
Q 3200 4625 3125 4450 
Q 3050 4275 2925 4025 
Q 2725 4125 2525 4175 
Q 2725 4500 2900 5000 
Q 3150 4875 3325 4825 
z
M 2575 3375 
Q 2900 3050 3200 2725 
Q 3050 2600 2875 2425 
Q 2525 2850 2300 3100 
Q 2450 3225 2575 3375 
z
M 925 5000 
Q 1275 4650 1500 4300 
L 1125 4075 
Q 950 4425 600 4725 
Q 825 4875 925 5000 
z
" id="SimHei-6570" transform="scale(0.015625)"/>
      </defs>
      <use xlink:href="#SimHei-8fed"/>
      <use x="100" xlink:href="#SimHei-4ee3"/>
      <use x="200" xlink:href="#SimHei-6b21"/>
      <use x="300" xlink:href="#SimHei-6570"/>
     </g>
    </g>
   </g>
   <g id="matplotlib.axis_2">
    <g id="ytick_1">
     <g id="line2d_41">
      <path clip-path="url(#p7376552198)" d="M 42.41875 272.099759 
L 321.41875 272.099759 
" style="fill:none;stroke:#b0b0b0;stroke-dasharray:2.96,1.28;stroke-dashoffset:0;stroke-width:0.8;"/>
     </g>
     <g id="line2d_42">
      <defs>
       <path d="M 0 0 
L -3.5 0 
" id="m79bef72185" style="stroke:#000000;stroke-width:0.8;"/>
      </defs>
      <g>
       <use style="stroke:#000000;stroke-width:0.8;" x="42.41875" xlink:href="#m79bef72185" y="272.099759"/>
      </g>
     </g>
     <g id="text_22">
      <!-- 0.0 -->
      <g transform="translate(20.41875 275.537259)scale(0.1 -0.1)">
       <defs>
        <path d="M 1075 125 
L 500 125 
L 500 675 
L 1075 675 
L 1075 125 
z
" id="SimHei-2e" transform="scale(0.015625)"/>
       </defs>
       <use xlink:href="#SimHei-30"/>
       <use x="50" xlink:href="#SimHei-2e"/>
       <use x="100" xlink:href="#SimHei-30"/>
      </g>
     </g>
    </g>
    <g id="ytick_2">
     <g id="line2d_43">
      <path clip-path="url(#p7376552198)" d="M 42.41875 232.036148 
L 321.41875 232.036148 
" style="fill:none;stroke:#b0b0b0;stroke-dasharray:2.96,1.28;stroke-dashoffset:0;stroke-width:0.8;"/>
     </g>
     <g id="line2d_44">
      <g>
       <use style="stroke:#000000;stroke-width:0.8;" x="42.41875" xlink:href="#m79bef72185" y="232.036148"/>
      </g>
     </g>
     <g id="text_23">
      <!-- 0.5 -->
      <g transform="translate(20.41875 235.473648)scale(0.1 -0.1)">
       <use xlink:href="#SimHei-30"/>
       <use x="50" xlink:href="#SimHei-2e"/>
       <use x="100" xlink:href="#SimHei-35"/>
      </g>
     </g>
    </g>
    <g id="ytick_3">
     <g id="line2d_45">
      <path clip-path="url(#p7376552198)" d="M 42.41875 191.972538 
L 321.41875 191.972538 
" style="fill:none;stroke:#b0b0b0;stroke-dasharray:2.96,1.28;stroke-dashoffset:0;stroke-width:0.8;"/>
     </g>
     <g id="line2d_46">
      <g>
       <use style="stroke:#000000;stroke-width:0.8;" x="42.41875" xlink:href="#m79bef72185" y="191.972538"/>
      </g>
     </g>
     <g id="text_24">
      <!-- 1.0 -->
      <g transform="translate(20.41875 195.410038)scale(0.1 -0.1)">
       <use xlink:href="#SimHei-31"/>
       <use x="50" xlink:href="#SimHei-2e"/>
       <use x="100" xlink:href="#SimHei-30"/>
      </g>
     </g>
    </g>
    <g id="ytick_4">
     <g id="line2d_47">
      <path clip-path="url(#p7376552198)" d="M 42.41875 151.908927 
L 321.41875 151.908927 
" style="fill:none;stroke:#b0b0b0;stroke-dasharray:2.96,1.28;stroke-dashoffset:0;stroke-width:0.8;"/>
     </g>
     <g id="line2d_48">
      <g>
       <use style="stroke:#000000;stroke-width:0.8;" x="42.41875" xlink:href="#m79bef72185" y="151.908927"/>
      </g>
     </g>
     <g id="text_25">
      <!-- 1.5 -->
      <g transform="translate(20.41875 155.346427)scale(0.1 -0.1)">
       <use xlink:href="#SimHei-31"/>
       <use x="50" xlink:href="#SimHei-2e"/>
       <use x="100" xlink:href="#SimHei-35"/>
      </g>
     </g>
    </g>
    <g id="ytick_5">
     <g id="line2d_49">
      <path clip-path="url(#p7376552198)" d="M 42.41875 111.845316 
L 321.41875 111.845316 
" style="fill:none;stroke:#b0b0b0;stroke-dasharray:2.96,1.28;stroke-dashoffset:0;stroke-width:0.8;"/>
     </g>
     <g id="line2d_50">
      <g>
       <use style="stroke:#000000;stroke-width:0.8;" x="42.41875" xlink:href="#m79bef72185" y="111.845316"/>
      </g>
     </g>
     <g id="text_26">
      <!-- 2.0 -->
      <g transform="translate(20.41875 115.282816)scale(0.1 -0.1)">
       <use xlink:href="#SimHei-32"/>
       <use x="50" xlink:href="#SimHei-2e"/>
       <use x="100" xlink:href="#SimHei-30"/>
      </g>
     </g>
    </g>
    <g id="ytick_6">
     <g id="line2d_51">
      <path clip-path="url(#p7376552198)" d="M 42.41875 71.781706 
L 321.41875 71.781706 
" style="fill:none;stroke:#b0b0b0;stroke-dasharray:2.96,1.28;stroke-dashoffset:0;stroke-width:0.8;"/>
     </g>
     <g id="line2d_52">
      <g>
       <use style="stroke:#000000;stroke-width:0.8;" x="42.41875" xlink:href="#m79bef72185" y="71.781706"/>
      </g>
     </g>
     <g id="text_27">
      <!-- 2.5 -->
      <g transform="translate(20.41875 75.219206)scale(0.1 -0.1)">
       <use xlink:href="#SimHei-32"/>
       <use x="50" xlink:href="#SimHei-2e"/>
       <use x="100" xlink:href="#SimHei-35"/>
      </g>
     </g>
    </g>
    <g id="ytick_7">
     <g id="line2d_53">
      <path clip-path="url(#p7376552198)" d="M 42.41875 31.718095 
L 321.41875 31.718095 
" style="fill:none;stroke:#b0b0b0;stroke-dasharray:2.96,1.28;stroke-dashoffset:0;stroke-width:0.8;"/>
     </g>
     <g id="line2d_54">
      <g>
       <use style="stroke:#000000;stroke-width:0.8;" x="42.41875" xlink:href="#m79bef72185" y="31.718095"/>
      </g>
     </g>
     <g id="text_28">
      <!-- 3.0 -->
      <g transform="translate(20.41875 35.155595)scale(0.1 -0.1)">
       <use xlink:href="#SimHei-33"/>
       <use x="50" xlink:href="#SimHei-2e"/>
       <use x="100" xlink:href="#SimHei-30"/>
      </g>
     </g>
    </g>
    <g id="text_29">
     <!-- 训练损失值 -->
     <g transform="translate(15.16875 170.8)rotate(-90)scale(0.1 -0.1)">
      <defs>
       <path d="M 1650 3300 
Q 1625 2725 1625 2225 
L 1625 675 
Q 1950 1125 2050 1275 
Q 2175 1125 2350 900 
Q 2025 500 1800 212 
Q 1575 -75 1325 -425 
Q 1150 -200 950 -50 
Q 1150 225 1150 625 
L 1150 2875 
L 975 2875 
Q 600 2875 300 2850 
L 300 3325 
Q 600 3300 975 3300 
L 1650 3300 
z
M 3425 4600 
Q 3375 4350 3387 3362 
Q 3400 2375 3337 1887 
Q 3275 1400 3087 837 
Q 2900 275 2450 -375 
Q 2225 -200 1975 -125 
Q 2550 500 2762 1362 
Q 2975 2225 2950 3337 
Q 2925 4450 2900 4675 
Q 3150 4625 3425 4600 
z
M 5875 4700 
Q 5850 4500 5850 3975 
L 5850 625 
Q 5850 125 5875 -400 
L 5400 -400 
Q 5425 125 5425 600 
L 5425 3975 
Q 5425 4500 5400 4700 
L 5875 4700 
z
M 4600 175 
L 4125 175 
Q 4150 725 4150 1150 
L 4150 3600 
Q 4150 4050 4125 4350 
L 4600 4350 
L 4600 175 
z
M 1000 5150 
Q 1650 4600 2100 4100 
Q 1875 3925 1750 3750 
Q 1050 4550 700 4800 
Q 850 4950 1000 5150 
z
" id="SimHei-8bad" transform="scale(0.015625)"/>
       <path d="M 3300 3825 
Q 2950 3825 2400 3800 
L 2400 4250 
Q 2950 4225 3325 4225 
L 3625 4225 
Q 3875 4950 3900 5175 
Q 4200 5025 4450 4925 
Q 4350 4825 4262 4612 
Q 4175 4400 4100 4225 
L 5025 4225 
Q 5425 4225 5900 4250 
L 5900 3800 
Q 5550 3825 5025 3825 
L 3975 3825 
Q 3850 3525 3700 3150 
L 4675 3150 
Q 4650 2875 4650 2475 
L 4650 1975 
L 4975 1975 
Q 5350 1975 5800 2000 
L 5800 1550 
Q 5350 1575 4975 1575 
L 4650 1575 
L 4650 125 
Q 4650 -300 4462 -425 
Q 4275 -550 3650 -625 
Q 3625 -375 3450 -100 
Q 4075 -125 4137 -25 
Q 4200 75 4200 325 
L 4200 1575 
L 3425 1575 
Q 3250 1575 3100 1562 
Q 2950 1550 2750 1475 
Q 2650 1725 2550 1950 
Q 2800 2025 3125 2775 
Q 2950 2775 2450 2750 
L 2450 3175 
Q 3025 3150 3250 3150 
Q 3400 3525 3500 3825 
L 3300 3825 
z
M 1650 2950 
Q 1875 3300 2100 3900 
Q 2325 3725 2575 3600 
Q 2325 3275 2025 2750 
Q 1725 2225 1075 1350 
Q 1300 1400 2400 1575 
Q 2350 1300 2375 1150 
Q 1825 1100 650 825 
Q 525 1075 400 1275 
Q 625 1400 887 1737 
Q 1150 2075 1450 2575 
Q 1300 2600 1012 2562 
Q 725 2525 450 2450 
Q 350 2675 250 2925 
Q 500 3075 812 3725 
Q 1125 4375 1325 5000 
Q 1600 4825 1850 4750 
Q 1600 4375 1387 3962 
Q 1175 3550 800 2925 
Q 1375 2925 1650 2950 
z
M 2425 700 
Q 2400 425 2425 250 
Q 2000 150 1462 -25 
Q 925 -200 475 -425 
Q 400 -150 300 125 
Q 950 275 1187 337 
Q 1425 400 2425 700 
z
M 3725 875 
Q 3650 800 3287 400 
Q 2925 0 2475 -475 
Q 2300 -250 2150 -125 
Q 2425 100 2750 462 
Q 3075 825 3325 1225 
Q 3475 1050 3725 875 
z
M 5275 1225 
Q 5925 375 6200 -100 
Q 5950 -200 5750 -375 
Q 5475 175 4900 950 
Q 5075 1050 5275 1225 
z
M 4200 1975 
L 4200 2775 
L 3575 2775 
Q 3325 2250 3175 1975 
L 4200 1975 
z
" id="SimHei-7ec3" transform="scale(0.015625)"/>
       <path d="M 1175 4600 
Q 1175 4950 1150 5250 
L 1675 5250 
Q 1650 4975 1650 4600 
L 1650 4075 
Q 1950 4075 2325 4100 
L 2325 3625 
Q 1950 3650 1650 3650 
L 1650 2500 
Q 1875 2550 2275 2750 
Q 2275 2550 2300 2300 
Q 2025 2200 1650 2025 
L 1650 175 
Q 1650 -225 1425 -325 
Q 1200 -425 625 -500 
Q 600 -250 450 50 
Q 800 25 987 37 
Q 1175 50 1175 350 
L 1175 1850 
Q 675 1675 400 1500 
Q 375 1800 250 2100 
Q 600 2150 1175 2350 
L 1175 3650 
Q 650 3650 325 3625 
L 325 4100 
Q 625 4075 1175 4075 
L 1175 4600 
z
M 5550 5025 
Q 5525 4650 5525 4275 
Q 5525 3925 5550 3525 
L 2900 3525 
Q 2925 3925 2925 4275 
Q 2925 4650 2900 5025 
L 5550 5025 
z
M 5775 3075 
Q 5750 2725 5750 2350 
L 5750 1725 
Q 5750 1350 5775 875 
L 5275 875 
L 5275 2650 
L 3150 2650 
L 3150 850 
L 2650 850 
Q 2675 1275 2675 1700 
L 2675 2325 
Q 2675 2600 2650 3075 
L 5775 3075 
z
M 4525 2200 
Q 4425 1825 4362 1337 
Q 4300 850 4125 537 
Q 3950 225 3600 -62 
Q 3250 -350 2425 -650 
Q 2325 -450 2050 -175 
Q 2750 -50 3137 200 
Q 3525 450 3700 762 
Q 3875 1075 3900 1462 
Q 3925 1850 3925 2275 
Q 4225 2225 4525 2200 
z
M 5100 3925 
L 5100 4650 
L 3375 4650 
L 3375 3925 
L 5100 3925 
z
M 4675 750 
Q 4975 575 5412 337 
Q 5850 100 6175 -125 
Q 5975 -325 5850 -550 
Q 5525 -300 5200 -87 
Q 4875 125 4375 350 
Q 4550 550 4675 750 
z
" id="SimHei-635f" transform="scale(0.015625)"/>
       <path d="M 2050 4450 
Q 1925 4325 1675 3750 
L 2950 3750 
Q 2950 4650 2925 5100 
Q 3175 5075 3500 5050 
Q 3450 4700 3437 4425 
Q 3425 4150 3425 3750 
L 4600 3750 
Q 5000 3750 5425 3775 
L 5425 3300 
Q 5025 3325 4600 3325 
L 3425 3325 
Q 3425 2775 3375 2200 
L 5050 2200 
Q 5425 2200 5875 2225 
L 5875 1750 
Q 5425 1775 5050 1775 
L 3575 1775 
Q 3875 1100 4600 675 
Q 5325 250 6025 100 
Q 5825 -150 5675 -475 
Q 4950 -200 4250 287 
Q 3550 775 3200 1475 
Q 2900 825 2325 300 
Q 1750 -225 775 -650 
Q 650 -400 400 -175 
Q 1250 50 1912 587 
Q 2575 1125 2775 1775 
L 1325 1775 
Q 925 1775 450 1750 
L 450 2225 
Q 925 2200 1325 2200 
L 2875 2200 
Q 2950 2725 2950 3325 
L 1500 3325 
Q 1200 2800 975 2450 
Q 775 2575 500 2675 
Q 950 3225 1187 3750 
Q 1425 4275 1500 4675 
Q 1800 4525 2050 4450 
z
" id="SimHei-5931" transform="scale(0.015625)"/>
       <path d="M 3675 4450 
L 3675 5100 
Q 3975 5075 4350 5050 
Q 4225 4875 4200 4450 
L 5125 4450 
Q 5550 4450 5875 4475 
L 5875 4025 
Q 5525 4050 5125 4050 
L 4175 4050 
L 4125 3500 
L 5400 3500 
Q 5375 3200 5375 2700 
L 5375 150 
Q 5875 150 6100 175 
L 6100 -275 
Q 5775 -250 5200 -250 
L 2850 -250 
Q 2275 -250 1900 -275 
L 1900 175 
Q 2125 150 2600 150 
L 2600 2700 
Q 2600 3175 2575 3500 
L 3600 3500 
L 3650 4050 
L 3200 4050 
Q 2575 4050 2225 4025 
L 2225 4475 
Q 2550 4450 3200 4450 
L 3675 4450 
z
M 2225 4900 
Q 2025 4675 1650 3750 
L 1650 450 
Q 1650 -75 1675 -550 
L 1150 -550 
Q 1175 -125 1175 375 
L 1175 2950 
Q 875 2450 625 2150 
Q 425 2425 250 2575 
Q 500 2825 937 3537 
Q 1375 4250 1625 5150 
Q 1975 4975 2225 4900 
z
M 4925 2650 
L 4925 3150 
L 3075 3150 
L 3075 2650 
L 4925 2650 
z
M 4925 150 
L 4925 625 
L 3075 625 
L 3075 150 
L 4925 150 
z
M 4925 1000 
L 4925 1450 
L 3075 1450 
L 3075 1000 
L 4925 1000 
z
M 4925 1825 
L 4925 2275 
L 3075 2275 
L 3075 1825 
L 4925 1825 
z
" id="SimHei-503c" transform="scale(0.015625)"/>
      </defs>
      <use xlink:href="#SimHei-8bad"/>
      <use x="100" xlink:href="#SimHei-7ec3"/>
      <use x="200" xlink:href="#SimHei-635f"/>
      <use x="300" xlink:href="#SimHei-5931"/>
      <use x="400" xlink:href="#SimHei-503c"/>
     </g>
    </g>
   </g>
   <g id="line2d_55">
    <path clip-path="url(#p7376552198)" d="M 55.100568 19.8 
L 68.44985 203.471337 
L 81.799133 224.267862 
L 95.148415 234.502658 
L 108.497697 240.516275 
L 121.84698 244.498411 
L 135.196262 247.115586 
L 148.545544 249.233048 
L 161.894827 251.05749 
L 175.244109 252.38488 
L 188.593391 253.493414 
L 201.942673 254.555768 
L 215.291956 255.331284 
L 228.641238 256.044641 
L 241.99052 256.825562 
L 255.339803 257.500074 
L 268.689085 257.978424 
L 282.038367 258.452497 
L 295.38765 258.891406 
L 308.736932 259.302872 
" style="fill:none;stroke:#add8e6;stroke-linecap:square;stroke-width:1.5;"/>
   </g>
   <g id="line2d_56">
    <path clip-path="url(#p7376552198)" d="M 55.100568 194.888106 
L 68.44985 253.008694 
L 81.799133 256.387152 
L 95.148415 257.438394 
L 108.497697 258.092554 
L 121.84698 258.151107 
L 135.196262 258.586566 
L 148.545544 259.054284 
L 161.894827 259.539078 
L 175.244109 258.636643 
L 188.593391 258.223915 
L 201.942673 259.75093 
L 215.291956 260.156175 
L 228.641238 256.388646 
L 241.99052 259.234735 
L 255.339803 258.341318 
L 268.689085 258.491723 
L 282.038367 257.604112 
L 295.38765 260.52827 
L 308.736932 259.838654 
" style="fill:none;stroke:#4169e1;stroke-linecap:square;stroke-width:1.5;"/>
   </g>
   <g id="line2d_57">
    <path clip-path="url(#p7376552198)" d="M 55.100568 267.84522 
L 68.44985 270.143425 
L 81.799133 270.64993 
L 95.148415 270.926066 
L 108.497697 271.104721 
L 121.84698 271.23197 
L 135.196262 271.335581 
L 148.545544 271.412989 
L 161.894827 271.475821 
L 175.244109 271.529303 
L 188.593391 271.575472 
L 201.942673 271.610673 
L 215.291956 271.647751 
L 228.641238 271.679523 
L 241.99052 271.704184 
L 255.339803 271.728561 
L 268.689085 271.74979 
L 282.038367 271.76881 
L 295.38765 271.780502 
L 308.736932 271.8 
" style="fill:none;stroke:#ffa500;stroke-linecap:square;stroke-width:1.5;"/>
   </g>
   <g id="patch_3">
    <path d="M 42.41875 284.4 
L 42.41875 7.2 
" style="fill:none;stroke:#000000;stroke-linecap:square;stroke-linejoin:miter;stroke-width:0.8;"/>
   </g>
   <g id="patch_4">
    <path d="M 321.41875 284.4 
L 321.41875 7.2 
" style="fill:none;stroke:#000000;stroke-linecap:square;stroke-linejoin:miter;stroke-width:0.8;"/>
   </g>
   <g id="patch_5">
    <path d="M 42.41875 284.4 
L 321.41875 284.4 
" style="fill:none;stroke:#000000;stroke-linecap:square;stroke-linejoin:miter;stroke-width:0.8;"/>
   </g>
   <g id="patch_6">
    <path d="M 42.41875 7.2 
L 321.41875 7.2 
" style="fill:none;stroke:#000000;stroke-linecap:square;stroke-linejoin:miter;stroke-width:0.8;"/>
   </g>
   <g id="legend_1">
    <g id="patch_7">
     <path d="M 247.41875 54.95 
L 314.41875 54.95 
Q 316.41875 54.95 316.41875 52.95 
L 316.41875 14.2 
Q 316.41875 12.2 314.41875 12.2 
L 247.41875 12.2 
Q 245.41875 12.2 245.41875 14.2 
L 245.41875 52.95 
Q 245.41875 54.95 247.41875 54.95 
z
" style="fill:#ffffff;opacity:0.8;stroke:#cccccc;stroke-linejoin:miter;"/>
    </g>
    <g id="line2d_58">
     <path d="M 249.41875 19.7 
L 269.41875 19.7 
" style="fill:none;stroke:#add8e6;stroke-linecap:square;stroke-width:1.5;"/>
    </g>
    <g id="line2d_59"/>
    <g id="text_30">
     <!-- SGD -->
     <g transform="translate(277.41875 23.2)scale(0.1 -0.1)">
      <defs>
       <path d="M 2900 1325 
Q 2900 750 2537 412 
Q 2175 75 1550 75 
Q 925 75 575 425 
Q 225 775 225 1300 
L 225 1475 
L 800 1475 
L 800 1325 
Q 800 950 1025 750 
Q 1250 550 1550 550 
Q 1950 550 2137 762 
Q 2325 975 2325 1275 
Q 2325 1525 2100 1737 
Q 1875 1950 1450 2125 
Q 850 2350 587 2625 
Q 325 2900 325 3275 
Q 325 3800 687 4125 
Q 1050 4450 1550 4450 
Q 2200 4450 2487 4062 
Q 2775 3675 2775 3225 
L 2200 3225 
Q 2225 3500 2050 3725 
Q 1875 3950 1550 3950 
Q 1250 3950 1075 3787 
Q 900 3625 900 3350 
Q 900 3125 1037 2962 
Q 1175 2800 1750 2575 
Q 2300 2350 2600 2037 
Q 2900 1725 2900 1325 
z
" id="SimHei-53" transform="scale(0.015625)"/>
       <path d="M 2850 75 
L 2425 75 
L 2350 425 
Q 2250 275 2037 175 
Q 1825 75 1575 75 
Q 1050 75 637 562 
Q 225 1050 225 2125 
Q 225 3300 600 3875 
Q 975 4450 1625 4450 
Q 2200 4450 2525 4025 
Q 2850 3600 2850 2925 
L 2300 2925 
Q 2300 3450 2125 3712 
Q 1950 3975 1625 3975 
Q 1225 3975 1025 3562 
Q 825 3150 825 2175 
Q 825 1250 1075 900 
Q 1325 550 1650 550 
Q 1975 550 2162 787 
Q 2350 1025 2350 1525 
L 2350 1800 
L 1575 1800 
L 1575 2275 
L 2850 2275 
L 2850 75 
z
" id="SimHei-47" transform="scale(0.015625)"/>
       <path d="M 2925 2250 
Q 2925 1100 2437 612 
Q 1950 125 1125 125 
L 275 125 
L 275 4400 
L 1125 4400 
Q 2050 4400 2487 3900 
Q 2925 3400 2925 2250 
z
M 2325 2250 
Q 2325 3175 2025 3550 
Q 1725 3925 1125 3925 
L 850 3925 
L 850 600 
L 1125 600 
Q 1725 600 2025 962 
Q 2325 1325 2325 2250 
z
" id="SimHei-44" transform="scale(0.015625)"/>
      </defs>
      <use xlink:href="#SimHei-53"/>
      <use x="50" xlink:href="#SimHei-47"/>
      <use x="100" xlink:href="#SimHei-44"/>
     </g>
    </g>
    <g id="line2d_60">
     <path d="M 249.41875 32.95 
L 269.41875 32.95 
" style="fill:none;stroke:#4169e1;stroke-linecap:square;stroke-width:1.5;"/>
    </g>
    <g id="line2d_61"/>
    <g id="text_31">
     <!-- Adam -->
     <g transform="translate(277.41875 36.45)scale(0.1 -0.1)">
      <defs>
       <path d="M 3075 125 
L 2475 125 
L 2125 1450 
L 1025 1450 
L 675 125 
L 75 125 
L 1325 4450 
L 1825 4450 
L 3075 125 
z
M 2000 1925 
L 1600 3450 
L 1550 3450 
L 1150 1925 
L 2000 1925 
z
" id="SimHei-41" transform="scale(0.015625)"/>
       <path d="M 2750 125 
L 2250 125 
L 2250 500 
Q 2100 275 1900 175 
Q 1700 75 1425 75 
Q 925 75 575 437 
Q 225 800 225 1525 
Q 225 2250 575 2625 
Q 925 3000 1425 3000 
Q 1700 3000 1900 2887 
Q 2100 2775 2250 2550 
L 2250 4400 
L 2750 4400 
L 2750 125 
z
M 2250 1525 
Q 2250 2000 2037 2275 
Q 1825 2550 1525 2550 
Q 1150 2550 962 2275 
Q 775 2000 775 1525 
Q 775 1050 962 787 
Q 1150 525 1525 525 
Q 1825 525 2037 787 
Q 2250 1050 2250 1525 
z
" id="SimHei-64" transform="scale(0.015625)"/>
       <path d="M 2875 125 
L 2275 125 
Q 2225 175 2200 262 
Q 2175 350 2175 475 
Q 2000 275 1750 175 
Q 1500 75 1225 75 
Q 825 75 550 275 
Q 275 475 275 850 
Q 275 1225 525 1450 
Q 775 1675 1300 1750 
Q 1650 1800 1912 1875 
Q 2175 1950 2175 2075 
Q 2175 2225 2062 2375 
Q 1950 2525 1575 2525 
Q 1275 2525 1137 2412 
Q 1000 2300 950 2100 
L 400 2100 
Q 450 2500 762 2737 
Q 1075 2975 1575 2975 
Q 2125 2975 2400 2725 
Q 2675 2475 2675 2025 
L 2675 650 
Q 2675 500 2725 375 
Q 2775 250 2875 125 
z
M 2175 1050 
L 2175 1550 
Q 2025 1500 1887 1462 
Q 1750 1425 1425 1375 
Q 1050 1325 937 1200 
Q 825 1075 825 900 
Q 825 750 937 637 
Q 1050 525 1275 525 
Q 1500 525 1762 650 
Q 2025 775 2175 1050 
z
" id="SimHei-61" transform="scale(0.015625)"/>
       <path d="M 3050 125 
L 2550 125 
L 2550 2150 
Q 2550 2300 2500 2400 
Q 2450 2500 2300 2500 
Q 2125 2500 1975 2312 
Q 1825 2125 1825 1825 
L 1825 125 
L 1325 125 
L 1325 2150 
Q 1325 2300 1275 2400 
Q 1225 2500 1075 2500 
Q 900 2500 750 2312 
Q 600 2125 600 1825 
L 600 125 
L 100 125 
L 100 2925 
L 600 2925 
L 600 2550 
Q 725 2750 900 2862 
Q 1075 2975 1275 2975 
Q 1475 2975 1612 2862 
Q 1750 2750 1800 2550 
Q 1925 2750 2087 2862 
Q 2250 2975 2450 2975 
Q 2750 2975 2900 2812 
Q 3050 2650 3050 2350 
L 3050 125 
z
" id="SimHei-6d" transform="scale(0.015625)"/>
      </defs>
      <use xlink:href="#SimHei-41"/>
      <use x="50" xlink:href="#SimHei-64"/>
      <use x="100" xlink:href="#SimHei-61"/>
      <use x="150" xlink:href="#SimHei-6d"/>
     </g>
    </g>
    <g id="line2d_62">
     <path d="M 249.41875 46.2 
L 269.41875 46.2 
" style="fill:none;stroke:#ffa500;stroke-linecap:square;stroke-width:1.5;"/>
    </g>
    <g id="line2d_63"/>
    <g id="text_32">
     <!-- Adagrad -->
     <g transform="translate(277.41875 49.7)scale(0.1 -0.1)">
      <defs>
       <path d="M 2975 2500 
Q 2800 2550 2637 2562 
Q 2475 2575 2300 2525 
Q 2375 2450 2425 2337 
Q 2475 2225 2475 2000 
Q 2475 1575 2187 1300 
Q 1900 1025 1475 1025 
Q 1375 1025 1212 1062 
Q 1050 1100 950 1150 
Q 875 1100 850 1050 
Q 825 1000 825 925 
Q 825 800 1000 737 
Q 1175 675 1625 675 
Q 2350 675 2612 475 
Q 2875 275 2875 -25 
Q 2875 -425 2487 -612 
Q 2100 -800 1575 -800 
Q 900 -800 575 -625 
Q 250 -450 250 -150 
Q 250 0 375 150 
Q 500 300 700 400 
Q 550 475 462 587 
Q 375 700 375 875 
Q 375 1025 487 1137 
Q 600 1250 750 1325 
Q 625 1450 550 1625 
Q 475 1800 475 2000 
Q 475 2425 762 2700 
Q 1050 2975 1475 2975 
Q 1700 2975 1862 2912 
Q 2025 2850 2150 2725 
Q 2350 2875 2550 2937 
Q 2750 3000 2975 2975 
L 2975 2500 
z
M 1975 2000 
Q 1975 2250 1850 2400 
Q 1725 2550 1475 2550 
Q 1225 2550 1100 2400 
Q 975 2250 975 2000 
Q 975 1750 1100 1600 
Q 1225 1450 1475 1450 
Q 1725 1450 1850 1600 
Q 1975 1750 1975 2000 
z
M 2400 -75 
Q 2400 25 2287 125 
Q 2175 225 1725 225 
Q 1625 225 1450 237 
Q 1275 250 1050 275 
Q 850 200 775 100 
Q 700 0 700 -100 
Q 700 -250 900 -350 
Q 1100 -450 1600 -450 
Q 2025 -450 2212 -337 
Q 2400 -225 2400 -75 
z
" id="SimHei-67" transform="scale(0.015625)"/>
       <path d="M 2500 2425 
Q 2025 2500 1700 2287 
Q 1375 2075 1150 1550 
L 1150 125 
L 650 125 
L 650 2925 
L 1150 2925 
L 1150 2200 
Q 1375 2600 1712 2787 
Q 2050 2975 2500 2975 
L 2500 2425 
z
" id="SimHei-72" transform="scale(0.015625)"/>
      </defs>
      <use xlink:href="#SimHei-41"/>
      <use x="50" xlink:href="#SimHei-64"/>
      <use x="100" xlink:href="#SimHei-61"/>
      <use x="150" xlink:href="#SimHei-67"/>
      <use x="200" xlink:href="#SimHei-72"/>
      <use x="250" xlink:href="#SimHei-61"/>
      <use x="300" xlink:href="#SimHei-64"/>
     </g>
    </g>
   </g>
  </g>
  <g id="axes_2">
   <g id="patch_8">
    <path d="M 377.21875 284.4 
L 656.21875 284.4 
L 656.21875 7.2 
L 377.21875 7.2 
z
" style="fill:#ffffff;"/>
   </g>
   <g id="matplotlib.axis_3">
    <g id="xtick_21">
     <g id="line2d_64">
      <path clip-path="url(#p3f13e12cd1)" d="M 389.900568 284.4 
L 389.900568 7.2 
" style="fill:none;stroke:#b0b0b0;stroke-dasharray:2.96,1.28;stroke-dashoffset:0;stroke-width:0.8;"/>
     </g>
     <g id="line2d_65">
      <g>
       <use style="stroke:#000000;stroke-width:0.8;" x="389.900568" xlink:href="#meb73f1684e" y="284.4"/>
      </g>
     </g>
     <g id="text_33">
      <!-- 1 -->
      <g transform="translate(387.400568 298.275)scale(0.1 -0.1)">
       <use xlink:href="#SimHei-31"/>
      </g>
     </g>
    </g>
    <g id="xtick_22">
     <g id="line2d_66">
      <path clip-path="url(#p3f13e12cd1)" d="M 403.24985 284.4 
L 403.24985 7.2 
" style="fill:none;stroke:#b0b0b0;stroke-dasharray:2.96,1.28;stroke-dashoffset:0;stroke-width:0.8;"/>
     </g>
     <g id="line2d_67">
      <g>
       <use style="stroke:#000000;stroke-width:0.8;" x="403.24985" xlink:href="#meb73f1684e" y="284.4"/>
      </g>
     </g>
     <g id="text_34">
      <!-- 2 -->
      <g transform="translate(400.74985 298.275)scale(0.1 -0.1)">
       <use xlink:href="#SimHei-32"/>
      </g>
     </g>
    </g>
    <g id="xtick_23">
     <g id="line2d_68">
      <path clip-path="url(#p3f13e12cd1)" d="M 416.599133 284.4 
L 416.599133 7.2 
" style="fill:none;stroke:#b0b0b0;stroke-dasharray:2.96,1.28;stroke-dashoffset:0;stroke-width:0.8;"/>
     </g>
     <g id="line2d_69">
      <g>
       <use style="stroke:#000000;stroke-width:0.8;" x="416.599133" xlink:href="#meb73f1684e" y="284.4"/>
      </g>
     </g>
     <g id="text_35">
      <!-- 3 -->
      <g transform="translate(414.099133 298.275)scale(0.1 -0.1)">
       <use xlink:href="#SimHei-33"/>
      </g>
     </g>
    </g>
    <g id="xtick_24">
     <g id="line2d_70">
      <path clip-path="url(#p3f13e12cd1)" d="M 429.948415 284.4 
L 429.948415 7.2 
" style="fill:none;stroke:#b0b0b0;stroke-dasharray:2.96,1.28;stroke-dashoffset:0;stroke-width:0.8;"/>
     </g>
     <g id="line2d_71">
      <g>
       <use style="stroke:#000000;stroke-width:0.8;" x="429.948415" xlink:href="#meb73f1684e" y="284.4"/>
      </g>
     </g>
     <g id="text_36">
      <!-- 4 -->
      <g transform="translate(427.448415 298.275)scale(0.1 -0.1)">
       <use xlink:href="#SimHei-34"/>
      </g>
     </g>
    </g>
    <g id="xtick_25">
     <g id="line2d_72">
      <path clip-path="url(#p3f13e12cd1)" d="M 443.297697 284.4 
L 443.297697 7.2 
" style="fill:none;stroke:#b0b0b0;stroke-dasharray:2.96,1.28;stroke-dashoffset:0;stroke-width:0.8;"/>
     </g>
     <g id="line2d_73">
      <g>
       <use style="stroke:#000000;stroke-width:0.8;" x="443.297697" xlink:href="#meb73f1684e" y="284.4"/>
      </g>
     </g>
     <g id="text_37">
      <!-- 5 -->
      <g transform="translate(440.797697 298.275)scale(0.1 -0.1)">
       <use xlink:href="#SimHei-35"/>
      </g>
     </g>
    </g>
    <g id="xtick_26">
     <g id="line2d_74">
      <path clip-path="url(#p3f13e12cd1)" d="M 456.64698 284.4 
L 456.64698 7.2 
" style="fill:none;stroke:#b0b0b0;stroke-dasharray:2.96,1.28;stroke-dashoffset:0;stroke-width:0.8;"/>
     </g>
     <g id="line2d_75">
      <g>
       <use style="stroke:#000000;stroke-width:0.8;" x="456.64698" xlink:href="#meb73f1684e" y="284.4"/>
      </g>
     </g>
     <g id="text_38">
      <!-- 6 -->
      <g transform="translate(454.14698 298.275)scale(0.1 -0.1)">
       <use xlink:href="#SimHei-36"/>
      </g>
     </g>
    </g>
    <g id="xtick_27">
     <g id="line2d_76">
      <path clip-path="url(#p3f13e12cd1)" d="M 469.996262 284.4 
L 469.996262 7.2 
" style="fill:none;stroke:#b0b0b0;stroke-dasharray:2.96,1.28;stroke-dashoffset:0;stroke-width:0.8;"/>
     </g>
     <g id="line2d_77">
      <g>
       <use style="stroke:#000000;stroke-width:0.8;" x="469.996262" xlink:href="#meb73f1684e" y="284.4"/>
      </g>
     </g>
     <g id="text_39">
      <!-- 7 -->
      <g transform="translate(467.496262 298.275)scale(0.1 -0.1)">
       <use xlink:href="#SimHei-37"/>
      </g>
     </g>
    </g>
    <g id="xtick_28">
     <g id="line2d_78">
      <path clip-path="url(#p3f13e12cd1)" d="M 483.345544 284.4 
L 483.345544 7.2 
" style="fill:none;stroke:#b0b0b0;stroke-dasharray:2.96,1.28;stroke-dashoffset:0;stroke-width:0.8;"/>
     </g>
     <g id="line2d_79">
      <g>
       <use style="stroke:#000000;stroke-width:0.8;" x="483.345544" xlink:href="#meb73f1684e" y="284.4"/>
      </g>
     </g>
     <g id="text_40">
      <!-- 8 -->
      <g transform="translate(480.845544 298.275)scale(0.1 -0.1)">
       <use xlink:href="#SimHei-38"/>
      </g>
     </g>
    </g>
    <g id="xtick_29">
     <g id="line2d_80">
      <path clip-path="url(#p3f13e12cd1)" d="M 496.694827 284.4 
L 496.694827 7.2 
" style="fill:none;stroke:#b0b0b0;stroke-dasharray:2.96,1.28;stroke-dashoffset:0;stroke-width:0.8;"/>
     </g>
     <g id="line2d_81">
      <g>
       <use style="stroke:#000000;stroke-width:0.8;" x="496.694827" xlink:href="#meb73f1684e" y="284.4"/>
      </g>
     </g>
     <g id="text_41">
      <!-- 9 -->
      <g transform="translate(494.194827 298.275)scale(0.1 -0.1)">
       <use xlink:href="#SimHei-39"/>
      </g>
     </g>
    </g>
    <g id="xtick_30">
     <g id="line2d_82">
      <path clip-path="url(#p3f13e12cd1)" d="M 510.044109 284.4 
L 510.044109 7.2 
" style="fill:none;stroke:#b0b0b0;stroke-dasharray:2.96,1.28;stroke-dashoffset:0;stroke-width:0.8;"/>
     </g>
     <g id="line2d_83">
      <g>
       <use style="stroke:#000000;stroke-width:0.8;" x="510.044109" xlink:href="#meb73f1684e" y="284.4"/>
      </g>
     </g>
     <g id="text_42">
      <!-- 10 -->
      <g transform="translate(505.044109 298.275)scale(0.1 -0.1)">
       <use xlink:href="#SimHei-31"/>
       <use x="50" xlink:href="#SimHei-30"/>
      </g>
     </g>
    </g>
    <g id="xtick_31">
     <g id="line2d_84">
      <path clip-path="url(#p3f13e12cd1)" d="M 523.393391 284.4 
L 523.393391 7.2 
" style="fill:none;stroke:#b0b0b0;stroke-dasharray:2.96,1.28;stroke-dashoffset:0;stroke-width:0.8;"/>
     </g>
     <g id="line2d_85">
      <g>
       <use style="stroke:#000000;stroke-width:0.8;" x="523.393391" xlink:href="#meb73f1684e" y="284.4"/>
      </g>
     </g>
     <g id="text_43">
      <!-- 11 -->
      <g transform="translate(518.393391 298.275)scale(0.1 -0.1)">
       <use xlink:href="#SimHei-31"/>
       <use x="50" xlink:href="#SimHei-31"/>
      </g>
     </g>
    </g>
    <g id="xtick_32">
     <g id="line2d_86">
      <path clip-path="url(#p3f13e12cd1)" d="M 536.742673 284.4 
L 536.742673 7.2 
" style="fill:none;stroke:#b0b0b0;stroke-dasharray:2.96,1.28;stroke-dashoffset:0;stroke-width:0.8;"/>
     </g>
     <g id="line2d_87">
      <g>
       <use style="stroke:#000000;stroke-width:0.8;" x="536.742673" xlink:href="#meb73f1684e" y="284.4"/>
      </g>
     </g>
     <g id="text_44">
      <!-- 12 -->
      <g transform="translate(531.742673 298.275)scale(0.1 -0.1)">
       <use xlink:href="#SimHei-31"/>
       <use x="50" xlink:href="#SimHei-32"/>
      </g>
     </g>
    </g>
    <g id="xtick_33">
     <g id="line2d_88">
      <path clip-path="url(#p3f13e12cd1)" d="M 550.091956 284.4 
L 550.091956 7.2 
" style="fill:none;stroke:#b0b0b0;stroke-dasharray:2.96,1.28;stroke-dashoffset:0;stroke-width:0.8;"/>
     </g>
     <g id="line2d_89">
      <g>
       <use style="stroke:#000000;stroke-width:0.8;" x="550.091956" xlink:href="#meb73f1684e" y="284.4"/>
      </g>
     </g>
     <g id="text_45">
      <!-- 13 -->
      <g transform="translate(545.091956 298.275)scale(0.1 -0.1)">
       <use xlink:href="#SimHei-31"/>
       <use x="50" xlink:href="#SimHei-33"/>
      </g>
     </g>
    </g>
    <g id="xtick_34">
     <g id="line2d_90">
      <path clip-path="url(#p3f13e12cd1)" d="M 563.441238 284.4 
L 563.441238 7.2 
" style="fill:none;stroke:#b0b0b0;stroke-dasharray:2.96,1.28;stroke-dashoffset:0;stroke-width:0.8;"/>
     </g>
     <g id="line2d_91">
      <g>
       <use style="stroke:#000000;stroke-width:0.8;" x="563.441238" xlink:href="#meb73f1684e" y="284.4"/>
      </g>
     </g>
     <g id="text_46">
      <!-- 14 -->
      <g transform="translate(558.441238 298.275)scale(0.1 -0.1)">
       <use xlink:href="#SimHei-31"/>
       <use x="50" xlink:href="#SimHei-34"/>
      </g>
     </g>
    </g>
    <g id="xtick_35">
     <g id="line2d_92">
      <path clip-path="url(#p3f13e12cd1)" d="M 576.79052 284.4 
L 576.79052 7.2 
" style="fill:none;stroke:#b0b0b0;stroke-dasharray:2.96,1.28;stroke-dashoffset:0;stroke-width:0.8;"/>
     </g>
     <g id="line2d_93">
      <g>
       <use style="stroke:#000000;stroke-width:0.8;" x="576.79052" xlink:href="#meb73f1684e" y="284.4"/>
      </g>
     </g>
     <g id="text_47">
      <!-- 15 -->
      <g transform="translate(571.79052 298.275)scale(0.1 -0.1)">
       <use xlink:href="#SimHei-31"/>
       <use x="50" xlink:href="#SimHei-35"/>
      </g>
     </g>
    </g>
    <g id="xtick_36">
     <g id="line2d_94">
      <path clip-path="url(#p3f13e12cd1)" d="M 590.139803 284.4 
L 590.139803 7.2 
" style="fill:none;stroke:#b0b0b0;stroke-dasharray:2.96,1.28;stroke-dashoffset:0;stroke-width:0.8;"/>
     </g>
     <g id="line2d_95">
      <g>
       <use style="stroke:#000000;stroke-width:0.8;" x="590.139803" xlink:href="#meb73f1684e" y="284.4"/>
      </g>
     </g>
     <g id="text_48">
      <!-- 16 -->
      <g transform="translate(585.139803 298.275)scale(0.1 -0.1)">
       <use xlink:href="#SimHei-31"/>
       <use x="50" xlink:href="#SimHei-36"/>
      </g>
     </g>
    </g>
    <g id="xtick_37">
     <g id="line2d_96">
      <path clip-path="url(#p3f13e12cd1)" d="M 603.489085 284.4 
L 603.489085 7.2 
" style="fill:none;stroke:#b0b0b0;stroke-dasharray:2.96,1.28;stroke-dashoffset:0;stroke-width:0.8;"/>
     </g>
     <g id="line2d_97">
      <g>
       <use style="stroke:#000000;stroke-width:0.8;" x="603.489085" xlink:href="#meb73f1684e" y="284.4"/>
      </g>
     </g>
     <g id="text_49">
      <!-- 17 -->
      <g transform="translate(598.489085 298.275)scale(0.1 -0.1)">
       <use xlink:href="#SimHei-31"/>
       <use x="50" xlink:href="#SimHei-37"/>
      </g>
     </g>
    </g>
    <g id="xtick_38">
     <g id="line2d_98">
      <path clip-path="url(#p3f13e12cd1)" d="M 616.838367 284.4 
L 616.838367 7.2 
" style="fill:none;stroke:#b0b0b0;stroke-dasharray:2.96,1.28;stroke-dashoffset:0;stroke-width:0.8;"/>
     </g>
     <g id="line2d_99">
      <g>
       <use style="stroke:#000000;stroke-width:0.8;" x="616.838367" xlink:href="#meb73f1684e" y="284.4"/>
      </g>
     </g>
     <g id="text_50">
      <!-- 18 -->
      <g transform="translate(611.838367 298.275)scale(0.1 -0.1)">
       <use xlink:href="#SimHei-31"/>
       <use x="50" xlink:href="#SimHei-38"/>
      </g>
     </g>
    </g>
    <g id="xtick_39">
     <g id="line2d_100">
      <path clip-path="url(#p3f13e12cd1)" d="M 630.18765 284.4 
L 630.18765 7.2 
" style="fill:none;stroke:#b0b0b0;stroke-dasharray:2.96,1.28;stroke-dashoffset:0;stroke-width:0.8;"/>
     </g>
     <g id="line2d_101">
      <g>
       <use style="stroke:#000000;stroke-width:0.8;" x="630.18765" xlink:href="#meb73f1684e" y="284.4"/>
      </g>
     </g>
     <g id="text_51">
      <!-- 19 -->
      <g transform="translate(625.18765 298.275)scale(0.1 -0.1)">
       <use xlink:href="#SimHei-31"/>
       <use x="50" xlink:href="#SimHei-39"/>
      </g>
     </g>
    </g>
    <g id="xtick_40">
     <g id="line2d_102">
      <path clip-path="url(#p3f13e12cd1)" d="M 643.536932 284.4 
L 643.536932 7.2 
" style="fill:none;stroke:#b0b0b0;stroke-dasharray:2.96,1.28;stroke-dashoffset:0;stroke-width:0.8;"/>
     </g>
     <g id="line2d_103">
      <g>
       <use style="stroke:#000000;stroke-width:0.8;" x="643.536932" xlink:href="#meb73f1684e" y="284.4"/>
      </g>
     </g>
     <g id="text_52">
      <!-- 20 -->
      <g transform="translate(638.536932 298.275)scale(0.1 -0.1)">
       <use xlink:href="#SimHei-32"/>
       <use x="50" xlink:href="#SimHei-30"/>
      </g>
     </g>
    </g>
    <g id="text_53">
     <!-- 迭代次数 -->
     <g transform="translate(496.71875 311.49375)scale(0.1 -0.1)">
      <use xlink:href="#SimHei-8fed"/>
      <use x="100" xlink:href="#SimHei-4ee3"/>
      <use x="200" xlink:href="#SimHei-6b21"/>
      <use x="300" xlink:href="#SimHei-6570"/>
     </g>
    </g>
   </g>
   <g id="matplotlib.axis_4">
    <g id="ytick_8">
     <g id="line2d_104">
      <path clip-path="url(#p3f13e12cd1)" d="M 377.21875 258.70562 
L 656.21875 258.70562 
" style="fill:none;stroke:#b0b0b0;stroke-dasharray:2.96,1.28;stroke-dashoffset:0;stroke-width:0.8;"/>
     </g>
     <g id="line2d_105">
      <g>
       <use style="stroke:#000000;stroke-width:0.8;" x="377.21875" xlink:href="#m79bef72185" y="258.70562"/>
      </g>
     </g>
     <g id="text_54">
      <!-- 0.90 -->
      <g transform="translate(350.21875 262.14312)scale(0.1 -0.1)">
       <use xlink:href="#SimHei-30"/>
       <use x="50" xlink:href="#SimHei-2e"/>
       <use x="100" xlink:href="#SimHei-39"/>
       <use x="150" xlink:href="#SimHei-30"/>
      </g>
     </g>
    </g>
    <g id="ytick_9">
     <g id="line2d_106">
      <path clip-path="url(#p3f13e12cd1)" d="M 377.21875 205.259173 
L 656.21875 205.259173 
" style="fill:none;stroke:#b0b0b0;stroke-dasharray:2.96,1.28;stroke-dashoffset:0;stroke-width:0.8;"/>
     </g>
     <g id="line2d_107">
      <g>
       <use style="stroke:#000000;stroke-width:0.8;" x="377.21875" xlink:href="#m79bef72185" y="205.259173"/>
      </g>
     </g>
     <g id="text_55">
      <!-- 0.92 -->
      <g transform="translate(350.21875 208.696673)scale(0.1 -0.1)">
       <use xlink:href="#SimHei-30"/>
       <use x="50" xlink:href="#SimHei-2e"/>
       <use x="100" xlink:href="#SimHei-39"/>
       <use x="150" xlink:href="#SimHei-32"/>
      </g>
     </g>
    </g>
    <g id="ytick_10">
     <g id="line2d_108">
      <path clip-path="url(#p3f13e12cd1)" d="M 377.21875 151.812725 
L 656.21875 151.812725 
" style="fill:none;stroke:#b0b0b0;stroke-dasharray:2.96,1.28;stroke-dashoffset:0;stroke-width:0.8;"/>
     </g>
     <g id="line2d_109">
      <g>
       <use style="stroke:#000000;stroke-width:0.8;" x="377.21875" xlink:href="#m79bef72185" y="151.812725"/>
      </g>
     </g>
     <g id="text_56">
      <!-- 0.94 -->
      <g transform="translate(350.21875 155.250225)scale(0.1 -0.1)">
       <use xlink:href="#SimHei-30"/>
       <use x="50" xlink:href="#SimHei-2e"/>
       <use x="100" xlink:href="#SimHei-39"/>
       <use x="150" xlink:href="#SimHei-34"/>
      </g>
     </g>
    </g>
    <g id="ytick_11">
     <g id="line2d_110">
      <path clip-path="url(#p3f13e12cd1)" d="M 377.21875 98.366278 
L 656.21875 98.366278 
" style="fill:none;stroke:#b0b0b0;stroke-dasharray:2.96,1.28;stroke-dashoffset:0;stroke-width:0.8;"/>
     </g>
     <g id="line2d_111">
      <g>
       <use style="stroke:#000000;stroke-width:0.8;" x="377.21875" xlink:href="#m79bef72185" y="98.366278"/>
      </g>
     </g>
     <g id="text_57">
      <!-- 0.96 -->
      <g transform="translate(350.21875 101.803778)scale(0.1 -0.1)">
       <use xlink:href="#SimHei-30"/>
       <use x="50" xlink:href="#SimHei-2e"/>
       <use x="100" xlink:href="#SimHei-39"/>
       <use x="150" xlink:href="#SimHei-36"/>
      </g>
     </g>
    </g>
    <g id="ytick_12">
     <g id="line2d_112">
      <path clip-path="url(#p3f13e12cd1)" d="M 377.21875 44.91983 
L 656.21875 44.91983 
" style="fill:none;stroke:#b0b0b0;stroke-dasharray:2.96,1.28;stroke-dashoffset:0;stroke-width:0.8;"/>
     </g>
     <g id="line2d_113">
      <g>
       <use style="stroke:#000000;stroke-width:0.8;" x="377.21875" xlink:href="#m79bef72185" y="44.91983"/>
      </g>
     </g>
     <g id="text_58">
      <!-- 0.98 -->
      <g transform="translate(350.21875 48.35733)scale(0.1 -0.1)">
       <use xlink:href="#SimHei-30"/>
       <use x="50" xlink:href="#SimHei-2e"/>
       <use x="100" xlink:href="#SimHei-39"/>
       <use x="150" xlink:href="#SimHei-38"/>
      </g>
     </g>
    </g>
    <g id="text_59">
     <!-- 精度 -->
     <g transform="translate(344.96875 155.8)rotate(-90)scale(0.1 -0.1)">
      <defs>
       <path d="M 5600 2300 
Q 5575 1825 5575 1400 
L 5575 -100 
Q 5575 -475 5337 -550 
Q 5100 -625 4775 -675 
Q 4700 -375 4550 -175 
Q 4900 -175 5012 -137 
Q 5125 -100 5125 75 
L 5125 325 
L 3425 325 
L 3425 -625 
L 2975 -625 
Q 3000 75 3000 925 
Q 3000 1775 2975 2300 
L 5600 2300 
z
M 1275 4450 
Q 1275 4875 1250 5125 
L 1750 5125 
Q 1725 4675 1725 4425 
L 1725 3175 
Q 2125 3175 2450 3200 
L 2450 2750 
Q 2125 2775 1725 2775 
L 1725 325 
Q 1725 -75 1750 -650 
L 1250 -650 
Q 1275 -75 1275 325 
L 1275 1925 
Q 1050 1350 575 675 
Q 400 825 200 1000 
Q 450 1275 712 1737 
Q 975 2200 1150 2775 
Q 700 2775 350 2750 
L 350 3200 
Q 700 3175 1275 3175 
L 1275 4450 
z
M 4050 4550 
Q 4050 4850 4025 5125 
L 4525 5125 
Q 4500 4800 4500 4550 
L 5050 4550 
Q 5475 4550 5800 4575 
L 5800 4175 
Q 5450 4200 5050 4200 
L 4500 4200 
L 4500 3725 
L 4850 3725 
Q 5250 3725 5625 3750 
L 5625 3350 
Q 5250 3375 4825 3375 
L 4500 3375 
L 4500 2950 
L 5100 2950 
Q 5550 2950 6075 2975 
L 6075 2575 
Q 5575 2600 5100 2600 
L 3600 2600 
Q 3200 2600 2625 2575 
L 2625 2975 
Q 3150 2950 3575 2950 
L 4050 2950 
L 4050 3375 
L 3675 3375 
Q 3300 3375 2975 3350 
L 2975 3750 
Q 3325 3725 3575 3725 
L 4050 3725 
L 4050 4200 
L 3650 4200 
Q 3250 4200 2800 4175 
L 2800 4575 
Q 3250 4550 3650 4550 
L 4050 4550 
z
M 5125 675 
L 5125 1175 
L 3425 1175 
L 3425 675 
L 5125 675 
z
M 5125 1525 
L 5125 1950 
L 3425 1950 
L 3425 1525 
L 5125 1525 
z
M 2650 4375 
Q 2300 3650 2175 3375 
Q 1975 3475 1775 3525 
Q 2025 4050 2200 4550 
Q 2475 4450 2650 4375 
z
M 2125 2350 
Q 2475 1900 2775 1475 
Q 2600 1350 2400 1200 
Q 2125 1700 1775 2075 
Q 1975 2200 2125 2350 
z
M 650 4525 
Q 900 4150 1175 3625 
Q 1025 3550 800 3400 
Q 600 3800 275 4300 
Q 500 4425 650 4525 
z
" id="SimHei-7cbe" transform="scale(0.015625)"/>
       <path d="M 1750 1675 
Q 2450 1650 2875 1650 
L 5200 1650 
Q 4975 1250 4650 850 
Q 4325 450 4025 200 
Q 4350 50 4950 -50 
Q 5550 -150 6100 -150 
Q 5950 -300 5825 -650 
Q 5100 -550 4550 -412 
Q 4000 -275 3625 -100 
Q 3100 -325 2587 -462 
Q 2075 -600 1525 -675 
Q 1450 -475 1225 -250 
Q 1675 -250 2250 -125 
Q 2825 0 3250 200 
Q 2825 550 2400 1275 
L 1750 1250 
L 1750 1675 
z
M 2975 5075 
Q 3250 5150 3475 5250 
Q 3625 4975 3775 4525 
L 4700 4525 
Q 4975 4525 5700 4550 
L 5700 4100 
Q 5000 4125 4650 4125 
L 1375 4125 
Q 1375 3000 1350 2312 
Q 1325 1625 1212 950 
Q 1100 275 725 -525 
Q 500 -375 250 -300 
Q 650 400 762 1075 
Q 875 1750 887 2800 
Q 900 3850 875 4525 
L 3200 4525 
Q 3100 4850 2975 5075 
z
M 2475 3300 
Q 2475 3700 2450 3925 
L 2975 3925 
Q 2950 3725 2950 3300 
L 4300 3300 
Q 4300 3700 4275 3950 
L 4800 3950 
Q 4775 3650 4775 3300 
Q 5325 3300 5725 3325 
L 5725 2900 
Q 5350 2925 4775 2925 
Q 4775 2250 4800 1950 
L 2450 1950 
Q 2475 2350 2475 2925 
Q 2175 2925 1600 2900 
L 1600 3325 
Q 2175 3300 2475 3300 
z
M 4300 2350 
L 4300 2925 
L 2950 2925 
L 2950 2350 
L 4300 2350 
z
M 2875 1275 
Q 3200 775 3650 425 
Q 4025 700 4425 1275 
L 2900 1275 
L 2875 1275 
z
" id="SimHei-5ea6" transform="scale(0.015625)"/>
      </defs>
      <use xlink:href="#SimHei-7cbe"/>
      <use x="100" xlink:href="#SimHei-5ea6"/>
     </g>
    </g>
   </g>
   <g id="line2d_114">
    <path clip-path="url(#p3f13e12cd1)" d="M 389.900568 271.8 
L 403.24985 124.555037 
L 416.599133 94.892259 
L 429.948415 73.246448 
L 443.297697 59.350371 
L 456.64698 56.410817 
L 469.996262 49.462778 
L 483.345544 43.316437 
L 496.694827 40.10965 
L 510.044109 40.10965 
L 523.393391 37.70456 
L 536.742673 35.032238 
L 550.091956 34.230541 
L 563.441238 33.161612 
L 576.79052 33.161612 
L 590.139803 30.48929 
L 603.489085 30.48929 
L 616.838367 32.359915 
L 630.18765 29.687593 
L 643.536932 32.627147 
" style="fill:none;stroke:#add8e6;stroke-linecap:square;stroke-width:1.5;"/>
   </g>
   <g id="line2d_115">
    <path clip-path="url(#p3f13e12cd1)" d="M 389.900568 46.790456 
L 403.24985 42.247508 
L 416.599133 50.79894 
L 429.948415 35.29947 
L 443.297697 33.428844 
L 456.64698 36.902863 
L 469.996262 28.885896 
L 483.345544 28.885896 
L 496.694827 33.963309 
L 510.044109 33.428844 
L 523.393391 27.816967 
L 536.742673 30.222057 
L 550.091956 42.781972 
L 563.441238 46.255992 
L 576.79052 38.773489 
L 590.139803 67.100106 
L 603.489085 41.178579 
L 616.838367 33.963309 
L 630.18765 28.351432 
L 643.536932 40.376882 
" style="fill:none;stroke:#4169e1;stroke-linecap:square;stroke-width:1.5;"/>
   </g>
   <g id="line2d_116">
    <path clip-path="url(#p3f13e12cd1)" d="M 389.900568 21.937858 
L 403.24985 20.868929 
L 416.599133 20.067232 
L 429.948415 20.868929 
L 443.297697 21.937858 
L 456.64698 21.937858 
L 469.996262 20.601697 
L 483.345544 20.868929 
L 496.694827 20.868929 
L 510.044109 19.8 
L 523.393391 20.601697 
L 536.742673 20.601697 
L 550.091956 20.601697 
L 563.441238 20.067232 
L 576.79052 20.334464 
L 590.139803 20.601697 
L 603.489085 20.334464 
L 616.838367 20.601697 
L 630.18765 20.601697 
L 643.536932 19.8 
" style="fill:none;stroke:#ffa500;stroke-linecap:square;stroke-width:1.5;"/>
   </g>
   <g id="patch_9">
    <path d="M 377.21875 284.4 
L 377.21875 7.2 
" style="fill:none;stroke:#000000;stroke-linecap:square;stroke-linejoin:miter;stroke-width:0.8;"/>
   </g>
   <g id="patch_10">
    <path d="M 656.21875 284.4 
L 656.21875 7.2 
" style="fill:none;stroke:#000000;stroke-linecap:square;stroke-linejoin:miter;stroke-width:0.8;"/>
   </g>
   <g id="patch_11">
    <path d="M 377.21875 284.4 
L 656.21875 284.4 
" style="fill:none;stroke:#000000;stroke-linecap:square;stroke-linejoin:miter;stroke-width:0.8;"/>
   </g>
   <g id="patch_12">
    <path d="M 377.21875 7.2 
L 656.21875 7.2 
" style="fill:none;stroke:#000000;stroke-linecap:square;stroke-linejoin:miter;stroke-width:0.8;"/>
   </g>
   <g id="legend_2">
    <g id="patch_13">
     <path d="M 384.21875 54.95 
L 451.21875 54.95 
Q 453.21875 54.95 453.21875 52.95 
L 453.21875 14.2 
Q 453.21875 12.2 451.21875 12.2 
L 384.21875 12.2 
Q 382.21875 12.2 382.21875 14.2 
L 382.21875 52.95 
Q 382.21875 54.95 384.21875 54.95 
z
" style="fill:#ffffff;opacity:0.8;stroke:#cccccc;stroke-linejoin:miter;"/>
    </g>
    <g id="line2d_117">
     <path d="M 386.21875 19.7 
L 406.21875 19.7 
" style="fill:none;stroke:#add8e6;stroke-linecap:square;stroke-width:1.5;"/>
    </g>
    <g id="line2d_118"/>
    <g id="text_60">
     <!-- SGD -->
     <g transform="translate(414.21875 23.2)scale(0.1 -0.1)">
      <use xlink:href="#SimHei-53"/>
      <use x="50" xlink:href="#SimHei-47"/>
      <use x="100" xlink:href="#SimHei-44"/>
     </g>
    </g>
    <g id="line2d_119">
     <path d="M 386.21875 32.95 
L 406.21875 32.95 
" style="fill:none;stroke:#4169e1;stroke-linecap:square;stroke-width:1.5;"/>
    </g>
    <g id="line2d_120"/>
    <g id="text_61">
     <!-- Adam -->
     <g transform="translate(414.21875 36.45)scale(0.1 -0.1)">
      <use xlink:href="#SimHei-41"/>
      <use x="50" xlink:href="#SimHei-64"/>
      <use x="100" xlink:href="#SimHei-61"/>
      <use x="150" xlink:href="#SimHei-6d"/>
     </g>
    </g>
    <g id="line2d_121">
     <path d="M 386.21875 46.2 
L 406.21875 46.2 
" style="fill:none;stroke:#ffa500;stroke-linecap:square;stroke-width:1.5;"/>
    </g>
    <g id="line2d_122"/>
    <g id="text_62">
     <!-- Adagrad -->
     <g transform="translate(414.21875 49.7)scale(0.1 -0.1)">
      <use xlink:href="#SimHei-41"/>
      <use x="50" xlink:href="#SimHei-64"/>
      <use x="100" xlink:href="#SimHei-61"/>
      <use x="150" xlink:href="#SimHei-67"/>
      <use x="200" xlink:href="#SimHei-72"/>
      <use x="250" xlink:href="#SimHei-61"/>
      <use x="300" xlink:href="#SimHei-64"/>
     </g>
    </g>
   </g>
  </g>
 </g>
 <defs>
  <clipPath id="p7376552198">
   <rect height="277.2" width="279" x="42.41875" y="7.2"/>
  </clipPath>
  <clipPath id="p3f13e12cd1">
   <rect height="277.2" width="279" x="377.21875" y="7.2"/>
  </clipPath>
 </defs>
</svg>
