<?xml version="1.0" encoding="utf-8" standalone="no"?>
<!DOCTYPE svg PUBLIC "-//W3C//DTD SVG 1.1//EN"
  "http://www.w3.org/Graphics/SVG/1.1/DTD/svg11.dtd">
<svg height="319.94375pt" version="1.1" viewBox="0 0 653.41875 319.94375" width="653.41875pt" xmlns="http://www.w3.org/2000/svg" xmlns:xlink="http://www.w3.org/1999/xlink">
 <metadata>
  <rdf:RDF xmlns:cc="http://creativecommons.org/ns#" xmlns:dc="http://purl.org/dc/elements/1.1/" xmlns:rdf="http://www.w3.org/1999/02/22-rdf-syntax-ns#">
   <cc:Work>
    <dc:type rdf:resource="http://purl.org/dc/dcmitype/StillImage"/>
    <dc:date>2022-01-13T21:35:41.524106</dc:date>
    <dc:format>image/svg+xml</dc:format>
    <dc:creator>
     <cc:Agent>
      <dc:title>Matplotlib v3.4.3, https://matplotlib.org/</dc:title>
     </cc:Agent>
    </dc:creator>
   </cc:Work>
  </rdf:RDF>
 </metadata>
 <defs>
  <style type="text/css">*{stroke-linecap:butt;stroke-linejoin:round;}</style>
 </defs>
 <g id="figure_1">
  <g id="patch_1">
   <path d="M 0 319.94375 
L 653.41875 319.94375 
L 653.41875 0 
L 0 0 
z
" style="fill:#ffffff;"/>
  </g>
  <g id="axes_1">
   <g id="patch_2">
    <path d="M 32.41875 284.4 
L 311.41875 284.4 
L 311.41875 7.2 
L 32.41875 7.2 
z
" style="fill:#ffffff;"/>
   </g>
   <g id="matplotlib.axis_1">
    <g id="xtick_1">
     <g id="line2d_1">
      <path clip-path="url(#p17395e3d9f)" d="M 45.100568 284.4 
L 45.100568 7.2 
" style="fill:none;stroke:#b0b0b0;stroke-dasharray:2.96,1.28;stroke-dashoffset:0;stroke-width:0.8;"/>
     </g>
     <g id="line2d_2">
      <defs>
       <path d="M 0 0 
L 0 3.5 
" id="mabdb86ad0a" style="stroke:#000000;stroke-width:0.8;"/>
      </defs>
      <g>
       <use style="stroke:#000000;stroke-width:0.8;" x="45.100568" xlink:href="#mabdb86ad0a" y="284.4"/>
      </g>
     </g>
     <g id="text_1">
      <!-- 1 -->
      <g transform="translate(42.600568 298.275)scale(0.1 -0.1)">
       <defs>
        <path d="M 1400 3600 
Q 1075 3275 575 2975 
L 575 3450 
Q 1200 3875 1600 4450 
L 1900 4450 
L 1900 150 
L 1400 150 
L 1400 3600 
z
" id="SimHei-31" transform="scale(0.015625)"/>
       </defs>
       <use xlink:href="#SimHei-31"/>
      </g>
     </g>
    </g>
    <g id="xtick_2">
     <g id="line2d_3">
      <path clip-path="url(#p17395e3d9f)" d="M 58.44985 284.4 
L 58.44985 7.2 
" style="fill:none;stroke:#b0b0b0;stroke-dasharray:2.96,1.28;stroke-dashoffset:0;stroke-width:0.8;"/>
     </g>
     <g id="line2d_4">
      <g>
       <use style="stroke:#000000;stroke-width:0.8;" x="58.44985" xlink:href="#mabdb86ad0a" y="284.4"/>
      </g>
     </g>
     <g id="text_2">
      <!-- 2 -->
      <g transform="translate(55.94985 298.275)scale(0.1 -0.1)">
       <defs>
        <path d="M 300 250 
Q 325 625 650 925 
Q 975 1225 1475 1862 
Q 1975 2500 2125 2850 
Q 2275 3200 2237 3450 
Q 2200 3700 2000 3862 
Q 1800 4025 1537 4000 
Q 1275 3975 1037 3800 
Q 800 3625 675 3275 
L 200 3350 
Q 400 3925 712 4187 
Q 1025 4450 1450 4475 
Q 1700 4500 1900 4462 
Q 2100 4425 2312 4287 
Q 2525 4150 2662 3875 
Q 2800 3600 2762 3212 
Q 2725 2825 2375 2287 
Q 2025 1750 1025 600 
L 2825 600 
L 2825 150 
L 300 150 
L 300 250 
z
" id="SimHei-32" transform="scale(0.015625)"/>
       </defs>
       <use xlink:href="#SimHei-32"/>
      </g>
     </g>
    </g>
    <g id="xtick_3">
     <g id="line2d_5">
      <path clip-path="url(#p17395e3d9f)" d="M 71.799133 284.4 
L 71.799133 7.2 
" style="fill:none;stroke:#b0b0b0;stroke-dasharray:2.96,1.28;stroke-dashoffset:0;stroke-width:0.8;"/>
     </g>
     <g id="line2d_6">
      <g>
       <use style="stroke:#000000;stroke-width:0.8;" x="71.799133" xlink:href="#mabdb86ad0a" y="284.4"/>
      </g>
     </g>
     <g id="text_3">
      <!-- 3 -->
      <g transform="translate(69.299133 298.275)scale(0.1 -0.1)">
       <defs>
        <path d="M 250 1225 
L 700 1300 
Q 800 975 1025 762 
Q 1250 550 1587 562 
Q 1925 575 2125 837 
Q 2325 1100 2300 1437 
Q 2275 1775 2037 1962 
Q 1800 2150 1275 2225 
L 1275 2550 
Q 1800 2600 2037 2825 
Q 2275 3050 2250 3412 
Q 2225 3775 1925 3937 
Q 1625 4100 1287 3975 
Q 950 3850 750 3275 
L 300 3350 
Q 450 3800 712 4100 
Q 975 4400 1425 4450 
Q 1875 4500 2212 4337 
Q 2550 4175 2687 3837 
Q 2825 3500 2725 3100 
Q 2625 2700 2150 2400 
Q 2500 2250 2687 1950 
Q 2875 1650 2812 1162 
Q 2750 675 2375 375 
Q 2000 75 1525 87 
Q 1050 100 700 387 
Q 350 675 250 1225 
z
" id="SimHei-33" transform="scale(0.015625)"/>
       </defs>
       <use xlink:href="#SimHei-33"/>
      </g>
     </g>
    </g>
    <g id="xtick_4">
     <g id="line2d_7">
      <path clip-path="url(#p17395e3d9f)" d="M 85.148415 284.4 
L 85.148415 7.2 
" style="fill:none;stroke:#b0b0b0;stroke-dasharray:2.96,1.28;stroke-dashoffset:0;stroke-width:0.8;"/>
     </g>
     <g id="line2d_8">
      <g>
       <use style="stroke:#000000;stroke-width:0.8;" x="85.148415" xlink:href="#mabdb86ad0a" y="284.4"/>
      </g>
     </g>
     <g id="text_4">
      <!-- 4 -->
      <g transform="translate(82.648415 298.275)scale(0.1 -0.1)">
       <defs>
        <path d="M 2000 1100 
L 75 1100 
L 75 1525 
L 2100 4450 
L 2475 4450 
L 2475 1525 
L 3075 1525 
L 3075 1100 
L 2475 1100 
L 2475 150 
L 2000 150 
L 2000 1100 
z
M 2000 1525 
L 2000 3500 
L 600 1525 
L 2000 1525 
z
" id="SimHei-34" transform="scale(0.015625)"/>
       </defs>
       <use xlink:href="#SimHei-34"/>
      </g>
     </g>
    </g>
    <g id="xtick_5">
     <g id="line2d_9">
      <path clip-path="url(#p17395e3d9f)" d="M 98.497697 284.4 
L 98.497697 7.2 
" style="fill:none;stroke:#b0b0b0;stroke-dasharray:2.96,1.28;stroke-dashoffset:0;stroke-width:0.8;"/>
     </g>
     <g id="line2d_10">
      <g>
       <use style="stroke:#000000;stroke-width:0.8;" x="98.497697" xlink:href="#mabdb86ad0a" y="284.4"/>
      </g>
     </g>
     <g id="text_5">
      <!-- 5 -->
      <g transform="translate(95.997697 298.275)scale(0.1 -0.1)">
       <defs>
        <path d="M 550 1325 
Q 725 650 1150 575 
Q 1575 500 1837 662 
Q 2100 825 2212 1087 
Q 2325 1350 2312 1675 
Q 2300 2000 2137 2225 
Q 1975 2450 1725 2525 
Q 1475 2600 1162 2525 
Q 850 2450 650 2175 
L 225 2225 
Q 275 2375 700 4375 
L 2675 4375 
L 2675 3925 
L 1075 3925 
Q 950 3250 825 2850 
Q 1200 3025 1525 3012 
Q 1850 3000 2150 2862 
Q 2450 2725 2587 2487 
Q 2725 2250 2787 2012 
Q 2850 1775 2837 1500 
Q 2825 1225 2725 937 
Q 2625 650 2425 462 
Q 2225 275 1937 162 
Q 1650 50 1275 75 
Q 900 100 562 350 
Q 225 600 100 1200 
L 550 1325 
z
" id="SimHei-35" transform="scale(0.015625)"/>
       </defs>
       <use xlink:href="#SimHei-35"/>
      </g>
     </g>
    </g>
    <g id="xtick_6">
     <g id="line2d_11">
      <path clip-path="url(#p17395e3d9f)" d="M 111.84698 284.4 
L 111.84698 7.2 
" style="fill:none;stroke:#b0b0b0;stroke-dasharray:2.96,1.28;stroke-dashoffset:0;stroke-width:0.8;"/>
     </g>
     <g id="line2d_12">
      <g>
       <use style="stroke:#000000;stroke-width:0.8;" x="111.84698" xlink:href="#mabdb86ad0a" y="284.4"/>
      </g>
     </g>
     <g id="text_6">
      <!-- 6 -->
      <g transform="translate(109.34698 298.275)scale(0.1 -0.1)">
       <defs>
        <path d="M 250 1612 
Q 275 1975 387 2225 
Q 500 2475 725 2850 
L 1750 4450 
L 2325 4450 
L 1275 2800 
Q 1950 2975 2350 2750 
Q 2750 2525 2887 2237 
Q 3025 1950 3037 1612 
Q 3050 1275 2937 950 
Q 2825 625 2537 362 
Q 2250 100 1737 75 
Q 1225 50 862 262 
Q 500 475 362 862 
Q 225 1250 250 1612 
z
M 1025 787 
Q 1250 550 1625 525 
Q 2000 500 2250 775 
Q 2500 1050 2500 1575 
Q 2500 2100 2187 2300 
Q 1875 2500 1487 2450 
Q 1100 2400 925 2075 
Q 750 1750 775 1387 
Q 800 1025 1025 787 
z
" id="SimHei-36" transform="scale(0.015625)"/>
       </defs>
       <use xlink:href="#SimHei-36"/>
      </g>
     </g>
    </g>
    <g id="xtick_7">
     <g id="line2d_13">
      <path clip-path="url(#p17395e3d9f)" d="M 125.196262 284.4 
L 125.196262 7.2 
" style="fill:none;stroke:#b0b0b0;stroke-dasharray:2.96,1.28;stroke-dashoffset:0;stroke-width:0.8;"/>
     </g>
     <g id="line2d_14">
      <g>
       <use style="stroke:#000000;stroke-width:0.8;" x="125.196262" xlink:href="#mabdb86ad0a" y="284.4"/>
      </g>
     </g>
     <g id="text_7">
      <!-- 7 -->
      <g transform="translate(122.696262 298.275)scale(0.1 -0.1)">
       <defs>
        <path d="M 850 150 
Q 1300 2050 2425 3925 
L 275 3925 
L 275 4375 
L 2950 4375 
L 2950 3950 
Q 1775 2050 1400 150 
L 850 150 
z
" id="SimHei-37" transform="scale(0.015625)"/>
       </defs>
       <use xlink:href="#SimHei-37"/>
      </g>
     </g>
    </g>
    <g id="xtick_8">
     <g id="line2d_15">
      <path clip-path="url(#p17395e3d9f)" d="M 138.545544 284.4 
L 138.545544 7.2 
" style="fill:none;stroke:#b0b0b0;stroke-dasharray:2.96,1.28;stroke-dashoffset:0;stroke-width:0.8;"/>
     </g>
     <g id="line2d_16">
      <g>
       <use style="stroke:#000000;stroke-width:0.8;" x="138.545544" xlink:href="#mabdb86ad0a" y="284.4"/>
      </g>
     </g>
     <g id="text_8">
      <!-- 8 -->
      <g transform="translate(136.045544 298.275)scale(0.1 -0.1)">
       <defs>
        <path d="M 175 1375 
Q 175 1675 325 1962 
Q 475 2250 825 2425 
Q 525 2600 425 2812 
Q 325 3025 312 3300 
Q 300 3575 387 3775 
Q 475 3975 650 4150 
Q 825 4325 1037 4387 
Q 1250 4450 1500 4450 
Q 1750 4450 1950 4400 
Q 2150 4350 2375 4187 
Q 2600 4025 2700 3725 
Q 2800 3425 2687 3025 
Q 2575 2625 2100 2400 
Q 2525 2275 2700 2012 
Q 2875 1750 2875 1375 
Q 2875 1000 2762 775 
Q 2650 550 2512 400 
Q 2375 250 2137 162 
Q 1900 75 1537 75 
Q 1175 75 912 162 
Q 650 250 475 425 
Q 300 600 237 837 
Q 175 1075 175 1375 
z
M 687 1400 
Q 675 1100 787 875 
Q 900 650 1200 587 
Q 1500 525 1825 600 
Q 2150 675 2275 950 
Q 2400 1225 2362 1500 
Q 2325 1775 2050 1962 
Q 1775 2150 1450 2125 
Q 1125 2100 912 1900 
Q 700 1700 687 1400 
z
M 775 3350 
Q 775 3100 950 2875 
Q 1125 2650 1500 2650 
Q 1875 2650 2062 2875 
Q 2250 3100 2237 3412 
Q 2225 3725 2012 3875 
Q 1800 4025 1437 4000 
Q 1075 3975 925 3787 
Q 775 3600 775 3350 
z
" id="SimHei-38" transform="scale(0.015625)"/>
       </defs>
       <use xlink:href="#SimHei-38"/>
      </g>
     </g>
    </g>
    <g id="xtick_9">
     <g id="line2d_17">
      <path clip-path="url(#p17395e3d9f)" d="M 151.894827 284.4 
L 151.894827 7.2 
" style="fill:none;stroke:#b0b0b0;stroke-dasharray:2.96,1.28;stroke-dashoffset:0;stroke-width:0.8;"/>
     </g>
     <g id="line2d_18">
      <g>
       <use style="stroke:#000000;stroke-width:0.8;" x="151.894827" xlink:href="#mabdb86ad0a" y="284.4"/>
      </g>
     </g>
     <g id="text_9">
      <!-- 9 -->
      <g transform="translate(149.394827 298.275)scale(0.1 -0.1)">
       <defs>
        <path d="M 800 75 
Q 1350 1000 1700 1750 
Q 1075 1650 662 1912 
Q 250 2175 162 2625 
Q 75 3075 175 3437 
Q 275 3800 487 4037 
Q 700 4275 1000 4375 
Q 1300 4475 1537 4475 
Q 1775 4475 2025 4375 
Q 2275 4275 2475 4075 
Q 2675 3875 2750 3662 
Q 2825 3450 2825 3112 
Q 2825 2775 2575 2250 
Q 2325 1725 1350 75 
L 800 75 
z
M 662 2875 
Q 700 2550 937 2337 
Q 1175 2125 1450 2150 
Q 1725 2175 1887 2300 
Q 2050 2425 2200 2725 
Q 2300 3100 2250 3362 
Q 2200 3625 1987 3800 
Q 1775 3975 1525 3975 
Q 1375 4000 1137 3900 
Q 900 3800 762 3500 
Q 625 3200 662 2875 
z
" id="SimHei-39" transform="scale(0.015625)"/>
       </defs>
       <use xlink:href="#SimHei-39"/>
      </g>
     </g>
    </g>
    <g id="xtick_10">
     <g id="line2d_19">
      <path clip-path="url(#p17395e3d9f)" d="M 165.244109 284.4 
L 165.244109 7.2 
" style="fill:none;stroke:#b0b0b0;stroke-dasharray:2.96,1.28;stroke-dashoffset:0;stroke-width:0.8;"/>
     </g>
     <g id="line2d_20">
      <g>
       <use style="stroke:#000000;stroke-width:0.8;" x="165.244109" xlink:href="#mabdb86ad0a" y="284.4"/>
      </g>
     </g>
     <g id="text_10">
      <!-- 10 -->
      <g transform="translate(160.244109 298.275)scale(0.1 -0.1)">
       <defs>
        <path d="M 225 2537 
Q 250 3200 412 3587 
Q 575 3975 875 4225 
Q 1175 4475 1612 4475 
Q 2050 4475 2375 4112 
Q 2700 3750 2800 3200 
Q 2900 2650 2862 1937 
Q 2825 1225 2612 775 
Q 2400 325 1975 150 
Q 1550 -25 1125 187 
Q 700 400 525 750 
Q 350 1100 275 1487 
Q 200 1875 225 2537 
z
M 750 2687 
Q 675 2000 800 1462 
Q 925 925 1212 700 
Q 1500 475 1800 612 
Q 2100 750 2237 1162 
Q 2375 1575 2375 2062 
Q 2375 2550 2337 2950 
Q 2300 3350 2112 3675 
Q 1925 4000 1612 4012 
Q 1300 4025 1062 3700 
Q 825 3375 750 2687 
z
" id="SimHei-30" transform="scale(0.015625)"/>
       </defs>
       <use xlink:href="#SimHei-31"/>
       <use x="50" xlink:href="#SimHei-30"/>
      </g>
     </g>
    </g>
    <g id="xtick_11">
     <g id="line2d_21">
      <path clip-path="url(#p17395e3d9f)" d="M 178.593391 284.4 
L 178.593391 7.2 
" style="fill:none;stroke:#b0b0b0;stroke-dasharray:2.96,1.28;stroke-dashoffset:0;stroke-width:0.8;"/>
     </g>
     <g id="line2d_22">
      <g>
       <use style="stroke:#000000;stroke-width:0.8;" x="178.593391" xlink:href="#mabdb86ad0a" y="284.4"/>
      </g>
     </g>
     <g id="text_11">
      <!-- 11 -->
      <g transform="translate(173.593391 298.275)scale(0.1 -0.1)">
       <use xlink:href="#SimHei-31"/>
       <use x="50" xlink:href="#SimHei-31"/>
      </g>
     </g>
    </g>
    <g id="xtick_12">
     <g id="line2d_23">
      <path clip-path="url(#p17395e3d9f)" d="M 191.942673 284.4 
L 191.942673 7.2 
" style="fill:none;stroke:#b0b0b0;stroke-dasharray:2.96,1.28;stroke-dashoffset:0;stroke-width:0.8;"/>
     </g>
     <g id="line2d_24">
      <g>
       <use style="stroke:#000000;stroke-width:0.8;" x="191.942673" xlink:href="#mabdb86ad0a" y="284.4"/>
      </g>
     </g>
     <g id="text_12">
      <!-- 12 -->
      <g transform="translate(186.942673 298.275)scale(0.1 -0.1)">
       <use xlink:href="#SimHei-31"/>
       <use x="50" xlink:href="#SimHei-32"/>
      </g>
     </g>
    </g>
    <g id="xtick_13">
     <g id="line2d_25">
      <path clip-path="url(#p17395e3d9f)" d="M 205.291956 284.4 
L 205.291956 7.2 
" style="fill:none;stroke:#b0b0b0;stroke-dasharray:2.96,1.28;stroke-dashoffset:0;stroke-width:0.8;"/>
     </g>
     <g id="line2d_26">
      <g>
       <use style="stroke:#000000;stroke-width:0.8;" x="205.291956" xlink:href="#mabdb86ad0a" y="284.4"/>
      </g>
     </g>
     <g id="text_13">
      <!-- 13 -->
      <g transform="translate(200.291956 298.275)scale(0.1 -0.1)">
       <use xlink:href="#SimHei-31"/>
       <use x="50" xlink:href="#SimHei-33"/>
      </g>
     </g>
    </g>
    <g id="xtick_14">
     <g id="line2d_27">
      <path clip-path="url(#p17395e3d9f)" d="M 218.641238 284.4 
L 218.641238 7.2 
" style="fill:none;stroke:#b0b0b0;stroke-dasharray:2.96,1.28;stroke-dashoffset:0;stroke-width:0.8;"/>
     </g>
     <g id="line2d_28">
      <g>
       <use style="stroke:#000000;stroke-width:0.8;" x="218.641238" xlink:href="#mabdb86ad0a" y="284.4"/>
      </g>
     </g>
     <g id="text_14">
      <!-- 14 -->
      <g transform="translate(213.641238 298.275)scale(0.1 -0.1)">
       <use xlink:href="#SimHei-31"/>
       <use x="50" xlink:href="#SimHei-34"/>
      </g>
     </g>
    </g>
    <g id="xtick_15">
     <g id="line2d_29">
      <path clip-path="url(#p17395e3d9f)" d="M 231.99052 284.4 
L 231.99052 7.2 
" style="fill:none;stroke:#b0b0b0;stroke-dasharray:2.96,1.28;stroke-dashoffset:0;stroke-width:0.8;"/>
     </g>
     <g id="line2d_30">
      <g>
       <use style="stroke:#000000;stroke-width:0.8;" x="231.99052" xlink:href="#mabdb86ad0a" y="284.4"/>
      </g>
     </g>
     <g id="text_15">
      <!-- 15 -->
      <g transform="translate(226.99052 298.275)scale(0.1 -0.1)">
       <use xlink:href="#SimHei-31"/>
       <use x="50" xlink:href="#SimHei-35"/>
      </g>
     </g>
    </g>
    <g id="xtick_16">
     <g id="line2d_31">
      <path clip-path="url(#p17395e3d9f)" d="M 245.339803 284.4 
L 245.339803 7.2 
" style="fill:none;stroke:#b0b0b0;stroke-dasharray:2.96,1.28;stroke-dashoffset:0;stroke-width:0.8;"/>
     </g>
     <g id="line2d_32">
      <g>
       <use style="stroke:#000000;stroke-width:0.8;" x="245.339803" xlink:href="#mabdb86ad0a" y="284.4"/>
      </g>
     </g>
     <g id="text_16">
      <!-- 16 -->
      <g transform="translate(240.339803 298.275)scale(0.1 -0.1)">
       <use xlink:href="#SimHei-31"/>
       <use x="50" xlink:href="#SimHei-36"/>
      </g>
     </g>
    </g>
    <g id="xtick_17">
     <g id="line2d_33">
      <path clip-path="url(#p17395e3d9f)" d="M 258.689085 284.4 
L 258.689085 7.2 
" style="fill:none;stroke:#b0b0b0;stroke-dasharray:2.96,1.28;stroke-dashoffset:0;stroke-width:0.8;"/>
     </g>
     <g id="line2d_34">
      <g>
       <use style="stroke:#000000;stroke-width:0.8;" x="258.689085" xlink:href="#mabdb86ad0a" y="284.4"/>
      </g>
     </g>
     <g id="text_17">
      <!-- 17 -->
      <g transform="translate(253.689085 298.275)scale(0.1 -0.1)">
       <use xlink:href="#SimHei-31"/>
       <use x="50" xlink:href="#SimHei-37"/>
      </g>
     </g>
    </g>
    <g id="xtick_18">
     <g id="line2d_35">
      <path clip-path="url(#p17395e3d9f)" d="M 272.038367 284.4 
L 272.038367 7.2 
" style="fill:none;stroke:#b0b0b0;stroke-dasharray:2.96,1.28;stroke-dashoffset:0;stroke-width:0.8;"/>
     </g>
     <g id="line2d_36">
      <g>
       <use style="stroke:#000000;stroke-width:0.8;" x="272.038367" xlink:href="#mabdb86ad0a" y="284.4"/>
      </g>
     </g>
     <g id="text_18">
      <!-- 18 -->
      <g transform="translate(267.038367 298.275)scale(0.1 -0.1)">
       <use xlink:href="#SimHei-31"/>
       <use x="50" xlink:href="#SimHei-38"/>
      </g>
     </g>
    </g>
    <g id="xtick_19">
     <g id="line2d_37">
      <path clip-path="url(#p17395e3d9f)" d="M 285.38765 284.4 
L 285.38765 7.2 
" style="fill:none;stroke:#b0b0b0;stroke-dasharray:2.96,1.28;stroke-dashoffset:0;stroke-width:0.8;"/>
     </g>
     <g id="line2d_38">
      <g>
       <use style="stroke:#000000;stroke-width:0.8;" x="285.38765" xlink:href="#mabdb86ad0a" y="284.4"/>
      </g>
     </g>
     <g id="text_19">
      <!-- 19 -->
      <g transform="translate(280.38765 298.275)scale(0.1 -0.1)">
       <use xlink:href="#SimHei-31"/>
       <use x="50" xlink:href="#SimHei-39"/>
      </g>
     </g>
    </g>
    <g id="xtick_20">
     <g id="line2d_39">
      <path clip-path="url(#p17395e3d9f)" d="M 298.736932 284.4 
L 298.736932 7.2 
" style="fill:none;stroke:#b0b0b0;stroke-dasharray:2.96,1.28;stroke-dashoffset:0;stroke-width:0.8;"/>
     </g>
     <g id="line2d_40">
      <g>
       <use style="stroke:#000000;stroke-width:0.8;" x="298.736932" xlink:href="#mabdb86ad0a" y="284.4"/>
      </g>
     </g>
     <g id="text_20">
      <!-- 20 -->
      <g transform="translate(293.736932 298.275)scale(0.1 -0.1)">
       <use xlink:href="#SimHei-32"/>
       <use x="50" xlink:href="#SimHei-30"/>
      </g>
     </g>
    </g>
    <g id="text_21">
     <!-- 迭代次数 -->
     <g transform="translate(151.91875 311.49375)scale(0.1 -0.1)">
      <defs>
       <path d="M 3900 1875 
Q 3600 1350 3287 1012 
Q 2975 675 2450 275 
Q 2350 475 2025 700 
Q 2600 975 3012 1425 
Q 3425 1875 3600 2450 
Q 2350 2450 1950 2425 
L 1950 2900 
Q 2375 2875 3675 2875 
Q 3725 3250 3750 3775 
L 2800 3775 
Q 2675 3450 2550 3175 
Q 2300 3300 2075 3350 
Q 2275 3675 2425 4112 
Q 2575 4550 2700 5100 
Q 2850 5000 3225 4925 
Q 3075 4725 2950 4200 
L 3750 4200 
Q 3750 4850 3700 5250 
L 4275 5225 
Q 4225 4925 4200 4200 
L 4950 4200 
Q 5175 4200 5575 4225 
L 5575 3725 
Q 5175 3775 4875 3775 
L 4200 3775 
Q 4175 3250 4125 2875 
L 5150 2875 
Q 5475 2875 5925 2900 
L 5925 2425 
Q 5475 2450 5075 2450 
L 4100 2450 
L 4050 2300 
Q 4650 1775 5725 700 
Q 5600 650 5275 300 
Q 4775 975 3900 1875 
z
M 1550 2950 
L 1550 625 
Q 2200 -25 3712 -12 
Q 5225 0 6125 100 
Q 5950 -225 5900 -475 
L 3575 -475 
Q 2975 -475 2525 -387 
Q 2075 -300 1725 -50 
Q 1375 200 1162 12 
Q 950 -175 650 -550 
Q 500 -350 250 -175 
Q 775 275 1075 575 
L 1075 2525 
Q 750 2525 350 2500 
L 350 2975 
Q 775 2950 1075 2950 
L 1550 2950 
z
M 1125 5025 
Q 1525 4275 1675 3900 
Q 1450 3875 1175 3650 
Q 950 4275 650 4750 
Q 900 4850 1125 5025 
z
" id="SimHei-8fed" transform="scale(0.015625)"/>
       <path d="M 3300 2950 
Q 3175 4575 3150 5100 
Q 3300 5075 3725 5025 
Q 3675 4725 3800 3050 
Q 5000 3275 5650 3475 
L 5775 3000 
Q 5500 2975 3850 2625 
Q 4150 1050 4737 450 
Q 5325 -150 5412 125 
Q 5500 400 5525 725 
Q 5800 550 6075 500 
Q 5900 -200 5737 -425 
Q 5575 -650 5137 -500 
Q 4700 -350 4187 300 
Q 3675 950 3350 2525 
Q 2400 2325 2175 2250 
L 2025 2725 
Q 2425 2775 3300 2950 
z
M 2250 4975 
Q 2100 4725 1700 3650 
L 1700 475 
Q 1700 -50 1725 -600 
L 1200 -600 
Q 1225 -50 1225 475 
L 1225 2750 
Q 850 2150 600 1850 
Q 450 2050 225 2225 
Q 625 2600 1050 3425 
Q 1475 4250 1675 5200 
Q 2050 5025 2250 4975 
z
M 4700 4875 
Q 5150 4325 5325 4050 
Q 5100 3900 4875 3725 
Q 4650 4150 4300 4575 
Q 4500 4700 4700 4875 
z
" id="SimHei-4ee3" transform="scale(0.015625)"/>
       <path d="M 4150 3025 
Q 4000 2550 4050 2187 
Q 4100 1825 4275 1450 
Q 4450 1075 4800 750 
Q 5150 425 5475 212 
Q 5800 0 6150 -150 
Q 5875 -350 5750 -625 
Q 5250 -325 4887 -25 
Q 4525 275 4275 612 
Q 4025 950 3825 1425 
Q 3525 625 2950 125 
Q 2375 -375 1850 -650 
Q 1675 -400 1475 -225 
Q 2025 0 2487 362 
Q 2950 725 3162 1100 
Q 3375 1475 3450 1825 
Q 3525 2175 3537 2400 
Q 3550 2625 3525 3125 
Q 3825 3050 4150 3025 
z
M 3700 4975 
Q 3625 4900 3475 4575 
Q 3325 4250 3250 4075 
L 5775 4075 
Q 5650 3725 5550 3362 
Q 5450 3000 5275 2500 
Q 5000 2575 4775 2600 
Q 5025 3350 5100 3650 
L 3100 3650 
Q 2975 3400 2812 3100 
Q 2650 2800 2425 2450 
Q 2275 2600 1975 2700 
Q 2300 3050 2625 3762 
Q 2950 4475 3125 5200 
Q 3450 5025 3700 4975 
z
M 2025 2000 
Q 1825 1675 1475 1087 
Q 1125 500 725 -200 
Q 500 -25 250 175 
Q 725 725 1037 1262 
Q 1350 1800 1575 2325 
Q 1750 2175 2025 2000 
z
M 900 4750 
Q 1725 3725 1950 3375 
Q 1750 3250 1500 3050 
Q 1250 3525 500 4425 
Q 700 4575 900 4750 
z
" id="SimHei-6b21" transform="scale(0.015625)"/>
       <path d="M 4525 4925 
Q 4475 4800 4400 4587 
Q 4325 4375 4175 3825 
L 5325 3825 
Q 5575 3825 5925 3850 
L 5925 3400 
Q 5650 3425 5500 3425 
Q 5500 3025 5362 2162 
Q 5225 1300 4875 675 
Q 5125 375 5437 137 
Q 5750 -100 6025 -200 
Q 5725 -425 5625 -625 
Q 5325 -450 5075 -225 
Q 4825 0 4575 325 
Q 4300 25 3987 -187 
Q 3675 -400 3200 -650 
Q 3075 -425 2850 -300 
Q 3225 -150 3650 125 
Q 4075 400 4300 675 
Q 4125 1025 3962 1425 
Q 3800 1825 3675 2475 
Q 3600 2275 3425 1950 
Q 3250 2050 3000 2150 
Q 3400 2850 3650 3675 
Q 3900 4500 3975 5100 
Q 4275 4975 4525 4925 
z
M 2100 2250 
Q 2000 2150 1875 1925 
L 3250 1925 
Q 3100 1300 2725 675 
Q 3125 525 3350 400 
Q 3225 225 3125 25 
Q 2900 175 2450 325 
Q 1950 -225 725 -650 
Q 600 -375 400 -275 
Q 1575 0 2000 475 
Q 1300 650 850 775 
Q 1000 1000 1250 1525 
Q 1000 1525 425 1500 
L 425 1950 
Q 900 1925 1400 1925 
Q 1500 2150 1550 2425 
Q 1825 2325 2100 2250 
z
M 1775 3950 
Q 1775 4550 1750 5100 
L 2250 5100 
Q 2225 4575 2225 3950 
Q 3075 3950 3425 3975 
L 3425 3525 
Q 3075 3550 2225 3550 
Q 2225 2825 2250 2425 
L 1750 2425 
Q 1775 2775 1775 3300 
Q 1650 3100 1300 2787 
Q 950 2475 650 2300 
Q 525 2525 275 2625 
Q 500 2700 875 2975 
Q 1250 3250 1450 3550 
Q 950 3550 500 3525 
L 500 3975 
Q 925 3950 1775 3950 
z
M 3975 3175 
Q 4200 1700 4600 1125 
Q 4850 1700 4937 2287 
Q 5025 2875 5050 3425 
L 4075 3425 
L 3975 3175 
z
M 1450 1000 
Q 1750 925 2275 800 
Q 2475 1050 2650 1525 
L 1725 1525 
Q 1600 1275 1450 1000 
z
M 3325 4825 
Q 3200 4625 3125 4450 
Q 3050 4275 2925 4025 
Q 2725 4125 2525 4175 
Q 2725 4500 2900 5000 
Q 3150 4875 3325 4825 
z
M 2575 3375 
Q 2900 3050 3200 2725 
Q 3050 2600 2875 2425 
Q 2525 2850 2300 3100 
Q 2450 3225 2575 3375 
z
M 925 5000 
Q 1275 4650 1500 4300 
L 1125 4075 
Q 950 4425 600 4725 
Q 825 4875 925 5000 
z
" id="SimHei-6570" transform="scale(0.015625)"/>
      </defs>
      <use xlink:href="#SimHei-8fed"/>
      <use x="100" xlink:href="#SimHei-4ee3"/>
      <use x="200" xlink:href="#SimHei-6b21"/>
      <use x="300" xlink:href="#SimHei-6570"/>
     </g>
    </g>
   </g>
   <g id="matplotlib.axis_2">
    <g id="ytick_1">
     <g id="line2d_41">
      <path clip-path="url(#p17395e3d9f)" d="M 32.41875 278.960571 
L 311.41875 278.960571 
" style="fill:none;stroke:#b0b0b0;stroke-dasharray:2.96,1.28;stroke-dashoffset:0;stroke-width:0.8;"/>
     </g>
     <g id="line2d_42">
      <defs>
       <path d="M 0 0 
L -3.5 0 
" id="maf567ab1ba" style="stroke:#000000;stroke-width:0.8;"/>
      </defs>
      <g>
       <use style="stroke:#000000;stroke-width:0.8;" x="32.41875" xlink:href="#maf567ab1ba" y="278.960571"/>
      </g>
     </g>
     <g id="text_22">
      <!-- 0 -->
      <g transform="translate(20.41875 282.398071)scale(0.1 -0.1)">
       <use xlink:href="#SimHei-30"/>
      </g>
     </g>
    </g>
    <g id="ytick_2">
     <g id="line2d_43">
      <path clip-path="url(#p17395e3d9f)" d="M 32.41875 228.654429 
L 311.41875 228.654429 
" style="fill:none;stroke:#b0b0b0;stroke-dasharray:2.96,1.28;stroke-dashoffset:0;stroke-width:0.8;"/>
     </g>
     <g id="line2d_44">
      <g>
       <use style="stroke:#000000;stroke-width:0.8;" x="32.41875" xlink:href="#maf567ab1ba" y="228.654429"/>
      </g>
     </g>
     <g id="text_23">
      <!-- 1 -->
      <g transform="translate(20.41875 232.091929)scale(0.1 -0.1)">
       <use xlink:href="#SimHei-31"/>
      </g>
     </g>
    </g>
    <g id="ytick_3">
     <g id="line2d_45">
      <path clip-path="url(#p17395e3d9f)" d="M 32.41875 178.348286 
L 311.41875 178.348286 
" style="fill:none;stroke:#b0b0b0;stroke-dasharray:2.96,1.28;stroke-dashoffset:0;stroke-width:0.8;"/>
     </g>
     <g id="line2d_46">
      <g>
       <use style="stroke:#000000;stroke-width:0.8;" x="32.41875" xlink:href="#maf567ab1ba" y="178.348286"/>
      </g>
     </g>
     <g id="text_24">
      <!-- 2 -->
      <g transform="translate(20.41875 181.785786)scale(0.1 -0.1)">
       <use xlink:href="#SimHei-32"/>
      </g>
     </g>
    </g>
    <g id="ytick_4">
     <g id="line2d_47">
      <path clip-path="url(#p17395e3d9f)" d="M 32.41875 128.042143 
L 311.41875 128.042143 
" style="fill:none;stroke:#b0b0b0;stroke-dasharray:2.96,1.28;stroke-dashoffset:0;stroke-width:0.8;"/>
     </g>
     <g id="line2d_48">
      <g>
       <use style="stroke:#000000;stroke-width:0.8;" x="32.41875" xlink:href="#maf567ab1ba" y="128.042143"/>
      </g>
     </g>
     <g id="text_25">
      <!-- 3 -->
      <g transform="translate(20.41875 131.479643)scale(0.1 -0.1)">
       <use xlink:href="#SimHei-33"/>
      </g>
     </g>
    </g>
    <g id="ytick_5">
     <g id="line2d_49">
      <path clip-path="url(#p17395e3d9f)" d="M 32.41875 77.736 
L 311.41875 77.736 
" style="fill:none;stroke:#b0b0b0;stroke-dasharray:2.96,1.28;stroke-dashoffset:0;stroke-width:0.8;"/>
     </g>
     <g id="line2d_50">
      <g>
       <use style="stroke:#000000;stroke-width:0.8;" x="32.41875" xlink:href="#maf567ab1ba" y="77.736"/>
      </g>
     </g>
     <g id="text_26">
      <!-- 4 -->
      <g transform="translate(20.41875 81.1735)scale(0.1 -0.1)">
       <use xlink:href="#SimHei-34"/>
      </g>
     </g>
    </g>
    <g id="ytick_6">
     <g id="line2d_51">
      <path clip-path="url(#p17395e3d9f)" d="M 32.41875 27.429857 
L 311.41875 27.429857 
" style="fill:none;stroke:#b0b0b0;stroke-dasharray:2.96,1.28;stroke-dashoffset:0;stroke-width:0.8;"/>
     </g>
     <g id="line2d_52">
      <g>
       <use style="stroke:#000000;stroke-width:0.8;" x="32.41875" xlink:href="#maf567ab1ba" y="27.429857"/>
      </g>
     </g>
     <g id="text_27">
      <!-- 5 -->
      <g transform="translate(20.41875 30.867357)scale(0.1 -0.1)">
       <use xlink:href="#SimHei-35"/>
      </g>
     </g>
    </g>
    <g id="text_28">
     <!-- 训练损失值 -->
     <g transform="translate(15.16875 170.8)rotate(-90)scale(0.1 -0.1)">
      <defs>
       <path d="M 1650 3300 
Q 1625 2725 1625 2225 
L 1625 675 
Q 1950 1125 2050 1275 
Q 2175 1125 2350 900 
Q 2025 500 1800 212 
Q 1575 -75 1325 -425 
Q 1150 -200 950 -50 
Q 1150 225 1150 625 
L 1150 2875 
L 975 2875 
Q 600 2875 300 2850 
L 300 3325 
Q 600 3300 975 3300 
L 1650 3300 
z
M 3425 4600 
Q 3375 4350 3387 3362 
Q 3400 2375 3337 1887 
Q 3275 1400 3087 837 
Q 2900 275 2450 -375 
Q 2225 -200 1975 -125 
Q 2550 500 2762 1362 
Q 2975 2225 2950 3337 
Q 2925 4450 2900 4675 
Q 3150 4625 3425 4600 
z
M 5875 4700 
Q 5850 4500 5850 3975 
L 5850 625 
Q 5850 125 5875 -400 
L 5400 -400 
Q 5425 125 5425 600 
L 5425 3975 
Q 5425 4500 5400 4700 
L 5875 4700 
z
M 4600 175 
L 4125 175 
Q 4150 725 4150 1150 
L 4150 3600 
Q 4150 4050 4125 4350 
L 4600 4350 
L 4600 175 
z
M 1000 5150 
Q 1650 4600 2100 4100 
Q 1875 3925 1750 3750 
Q 1050 4550 700 4800 
Q 850 4950 1000 5150 
z
" id="SimHei-8bad" transform="scale(0.015625)"/>
       <path d="M 3300 3825 
Q 2950 3825 2400 3800 
L 2400 4250 
Q 2950 4225 3325 4225 
L 3625 4225 
Q 3875 4950 3900 5175 
Q 4200 5025 4450 4925 
Q 4350 4825 4262 4612 
Q 4175 4400 4100 4225 
L 5025 4225 
Q 5425 4225 5900 4250 
L 5900 3800 
Q 5550 3825 5025 3825 
L 3975 3825 
Q 3850 3525 3700 3150 
L 4675 3150 
Q 4650 2875 4650 2475 
L 4650 1975 
L 4975 1975 
Q 5350 1975 5800 2000 
L 5800 1550 
Q 5350 1575 4975 1575 
L 4650 1575 
L 4650 125 
Q 4650 -300 4462 -425 
Q 4275 -550 3650 -625 
Q 3625 -375 3450 -100 
Q 4075 -125 4137 -25 
Q 4200 75 4200 325 
L 4200 1575 
L 3425 1575 
Q 3250 1575 3100 1562 
Q 2950 1550 2750 1475 
Q 2650 1725 2550 1950 
Q 2800 2025 3125 2775 
Q 2950 2775 2450 2750 
L 2450 3175 
Q 3025 3150 3250 3150 
Q 3400 3525 3500 3825 
L 3300 3825 
z
M 1650 2950 
Q 1875 3300 2100 3900 
Q 2325 3725 2575 3600 
Q 2325 3275 2025 2750 
Q 1725 2225 1075 1350 
Q 1300 1400 2400 1575 
Q 2350 1300 2375 1150 
Q 1825 1100 650 825 
Q 525 1075 400 1275 
Q 625 1400 887 1737 
Q 1150 2075 1450 2575 
Q 1300 2600 1012 2562 
Q 725 2525 450 2450 
Q 350 2675 250 2925 
Q 500 3075 812 3725 
Q 1125 4375 1325 5000 
Q 1600 4825 1850 4750 
Q 1600 4375 1387 3962 
Q 1175 3550 800 2925 
Q 1375 2925 1650 2950 
z
M 2425 700 
Q 2400 425 2425 250 
Q 2000 150 1462 -25 
Q 925 -200 475 -425 
Q 400 -150 300 125 
Q 950 275 1187 337 
Q 1425 400 2425 700 
z
M 3725 875 
Q 3650 800 3287 400 
Q 2925 0 2475 -475 
Q 2300 -250 2150 -125 
Q 2425 100 2750 462 
Q 3075 825 3325 1225 
Q 3475 1050 3725 875 
z
M 5275 1225 
Q 5925 375 6200 -100 
Q 5950 -200 5750 -375 
Q 5475 175 4900 950 
Q 5075 1050 5275 1225 
z
M 4200 1975 
L 4200 2775 
L 3575 2775 
Q 3325 2250 3175 1975 
L 4200 1975 
z
" id="SimHei-7ec3" transform="scale(0.015625)"/>
       <path d="M 1175 4600 
Q 1175 4950 1150 5250 
L 1675 5250 
Q 1650 4975 1650 4600 
L 1650 4075 
Q 1950 4075 2325 4100 
L 2325 3625 
Q 1950 3650 1650 3650 
L 1650 2500 
Q 1875 2550 2275 2750 
Q 2275 2550 2300 2300 
Q 2025 2200 1650 2025 
L 1650 175 
Q 1650 -225 1425 -325 
Q 1200 -425 625 -500 
Q 600 -250 450 50 
Q 800 25 987 37 
Q 1175 50 1175 350 
L 1175 1850 
Q 675 1675 400 1500 
Q 375 1800 250 2100 
Q 600 2150 1175 2350 
L 1175 3650 
Q 650 3650 325 3625 
L 325 4100 
Q 625 4075 1175 4075 
L 1175 4600 
z
M 5550 5025 
Q 5525 4650 5525 4275 
Q 5525 3925 5550 3525 
L 2900 3525 
Q 2925 3925 2925 4275 
Q 2925 4650 2900 5025 
L 5550 5025 
z
M 5775 3075 
Q 5750 2725 5750 2350 
L 5750 1725 
Q 5750 1350 5775 875 
L 5275 875 
L 5275 2650 
L 3150 2650 
L 3150 850 
L 2650 850 
Q 2675 1275 2675 1700 
L 2675 2325 
Q 2675 2600 2650 3075 
L 5775 3075 
z
M 4525 2200 
Q 4425 1825 4362 1337 
Q 4300 850 4125 537 
Q 3950 225 3600 -62 
Q 3250 -350 2425 -650 
Q 2325 -450 2050 -175 
Q 2750 -50 3137 200 
Q 3525 450 3700 762 
Q 3875 1075 3900 1462 
Q 3925 1850 3925 2275 
Q 4225 2225 4525 2200 
z
M 5100 3925 
L 5100 4650 
L 3375 4650 
L 3375 3925 
L 5100 3925 
z
M 4675 750 
Q 4975 575 5412 337 
Q 5850 100 6175 -125 
Q 5975 -325 5850 -550 
Q 5525 -300 5200 -87 
Q 4875 125 4375 350 
Q 4550 550 4675 750 
z
" id="SimHei-635f" transform="scale(0.015625)"/>
       <path d="M 2050 4450 
Q 1925 4325 1675 3750 
L 2950 3750 
Q 2950 4650 2925 5100 
Q 3175 5075 3500 5050 
Q 3450 4700 3437 4425 
Q 3425 4150 3425 3750 
L 4600 3750 
Q 5000 3750 5425 3775 
L 5425 3300 
Q 5025 3325 4600 3325 
L 3425 3325 
Q 3425 2775 3375 2200 
L 5050 2200 
Q 5425 2200 5875 2225 
L 5875 1750 
Q 5425 1775 5050 1775 
L 3575 1775 
Q 3875 1100 4600 675 
Q 5325 250 6025 100 
Q 5825 -150 5675 -475 
Q 4950 -200 4250 287 
Q 3550 775 3200 1475 
Q 2900 825 2325 300 
Q 1750 -225 775 -650 
Q 650 -400 400 -175 
Q 1250 50 1912 587 
Q 2575 1125 2775 1775 
L 1325 1775 
Q 925 1775 450 1750 
L 450 2225 
Q 925 2200 1325 2200 
L 2875 2200 
Q 2950 2725 2950 3325 
L 1500 3325 
Q 1200 2800 975 2450 
Q 775 2575 500 2675 
Q 950 3225 1187 3750 
Q 1425 4275 1500 4675 
Q 1800 4525 2050 4450 
z
" id="SimHei-5931" transform="scale(0.015625)"/>
       <path d="M 3675 4450 
L 3675 5100 
Q 3975 5075 4350 5050 
Q 4225 4875 4200 4450 
L 5125 4450 
Q 5550 4450 5875 4475 
L 5875 4025 
Q 5525 4050 5125 4050 
L 4175 4050 
L 4125 3500 
L 5400 3500 
Q 5375 3200 5375 2700 
L 5375 150 
Q 5875 150 6100 175 
L 6100 -275 
Q 5775 -250 5200 -250 
L 2850 -250 
Q 2275 -250 1900 -275 
L 1900 175 
Q 2125 150 2600 150 
L 2600 2700 
Q 2600 3175 2575 3500 
L 3600 3500 
L 3650 4050 
L 3200 4050 
Q 2575 4050 2225 4025 
L 2225 4475 
Q 2550 4450 3200 4450 
L 3675 4450 
z
M 2225 4900 
Q 2025 4675 1650 3750 
L 1650 450 
Q 1650 -75 1675 -550 
L 1150 -550 
Q 1175 -125 1175 375 
L 1175 2950 
Q 875 2450 625 2150 
Q 425 2425 250 2575 
Q 500 2825 937 3537 
Q 1375 4250 1625 5150 
Q 1975 4975 2225 4900 
z
M 4925 2650 
L 4925 3150 
L 3075 3150 
L 3075 2650 
L 4925 2650 
z
M 4925 150 
L 4925 625 
L 3075 625 
L 3075 150 
L 4925 150 
z
M 4925 1000 
L 4925 1450 
L 3075 1450 
L 3075 1000 
L 4925 1000 
z
M 4925 1825 
L 4925 2275 
L 3075 2275 
L 3075 1825 
L 4925 1825 
z
" id="SimHei-503c" transform="scale(0.015625)"/>
      </defs>
      <use xlink:href="#SimHei-8bad"/>
      <use x="100" xlink:href="#SimHei-7ec3"/>
      <use x="200" xlink:href="#SimHei-635f"/>
      <use x="300" xlink:href="#SimHei-5931"/>
      <use x="400" xlink:href="#SimHei-503c"/>
     </g>
    </g>
   </g>
   <g id="line2d_53">
    <path clip-path="url(#p17395e3d9f)" d="M 45.100568 19.8 
L 58.44985 216.493768 
L 71.799133 235.54956 
L 85.148415 244.604525 
L 98.497697 249.227491 
L 111.84698 252.255796 
L 125.196262 254.346243 
L 138.545544 255.979771 
L 151.894827 257.190114 
L 165.244109 258.229285 
L 178.593391 259.123123 
L 191.942673 259.902641 
L 205.291956 260.569326 
L 218.641238 261.116489 
L 231.99052 261.812263 
L 245.339803 262.215412 
L 258.689085 262.680093 
L 272.038367 263.115558 
L 285.38765 263.481557 
L 298.736932 263.837315 
" style="fill:none;stroke:#808080;stroke-linecap:square;stroke-width:1.5;"/>
   </g>
   <g id="line2d_54">
    <path clip-path="url(#p17395e3d9f)" d="M 45.100568 67.837227 
L 58.44985 225.364194 
L 71.799133 242.513613 
L 85.148415 250.428579 
L 98.497697 254.91822 
L 111.84698 257.681292 
L 125.196262 259.647935 
L 138.545544 261.187568 
L 151.894827 262.301145 
L 165.244109 263.166487 
L 178.593391 263.949828 
L 191.942673 264.651635 
L 205.291956 265.194247 
L 218.641238 265.756596 
L 231.99052 266.071731 
L 245.339803 266.610681 
L 258.689085 266.861333 
L 272.038367 267.21278 
L 285.38765 267.524828 
L 298.736932 267.81057 
" style="fill:none;stroke:#add8e6;stroke-linecap:square;stroke-width:1.5;"/>
   </g>
   <g id="line2d_55">
    <path clip-path="url(#p17395e3d9f)" d="M 45.100568 112.754269 
L 58.44985 231.55687 
L 71.799133 245.609158 
L 85.148415 253.068081 
L 98.497697 257.575429 
L 111.84698 260.403815 
L 125.196262 262.540341 
L 138.545544 263.991085 
L 151.894827 265.202285 
L 165.244109 266.127634 
L 178.593391 266.902263 
L 191.942673 267.620936 
L 205.291956 268.132222 
L 218.641238 268.569849 
L 231.99052 269.001061 
L 245.339803 269.338032 
L 258.689085 269.708519 
L 272.038367 269.951174 
L 285.38765 270.287032 
L 298.736932 270.502101 
" style="fill:none;stroke:#4169e1;stroke-linecap:square;stroke-width:1.5;"/>
   </g>
   <g id="line2d_56">
    <path clip-path="url(#p17395e3d9f)" d="M 45.100568 138.740629 
L 58.44985 241.674987 
L 71.799133 252.230498 
L 85.148415 257.311926 
L 98.497697 260.32497 
L 111.84698 262.334425 
L 125.196262 263.862026 
L 138.545544 264.992528 
L 151.894827 265.988391 
L 165.244109 266.755317 
L 178.593391 267.319083 
L 191.942673 267.929516 
L 205.291956 268.435483 
L 218.641238 268.886693 
L 231.99052 269.269142 
L 245.339803 269.629533 
L 258.689085 270.017259 
L 272.038367 270.265363 
L 285.38765 270.575471 
L 298.736932 270.838775 
" style="fill:none;stroke:#ffa500;stroke-linecap:square;stroke-width:1.5;"/>
   </g>
   <g id="line2d_57">
    <path clip-path="url(#p17395e3d9f)" d="M 45.100568 160.069857 
L 58.44985 243.068408 
L 71.799133 253.45592 
L 85.148415 258.587774 
L 98.497697 261.534458 
L 111.84698 263.660798 
L 125.196262 265.109161 
L 138.545544 266.282096 
L 151.894827 267.231665 
L 165.244109 267.929017 
L 178.593391 268.581034 
L 191.942673 269.067308 
L 205.291956 269.563609 
L 218.641238 269.996225 
L 231.99052 270.360645 
L 245.339803 270.71677 
L 258.689085 270.973757 
L 272.038367 271.32122 
L 285.38765 271.534799 
L 298.736932 271.8 
" style="fill:none;stroke:#ff0000;stroke-linecap:square;stroke-width:1.5;"/>
   </g>
   <g id="patch_3">
    <path d="M 32.41875 284.4 
L 32.41875 7.2 
" style="fill:none;stroke:#000000;stroke-linecap:square;stroke-linejoin:miter;stroke-width:0.8;"/>
   </g>
   <g id="patch_4">
    <path d="M 311.41875 284.4 
L 311.41875 7.2 
" style="fill:none;stroke:#000000;stroke-linecap:square;stroke-linejoin:miter;stroke-width:0.8;"/>
   </g>
   <g id="patch_5">
    <path d="M 32.41875 284.4 
L 311.41875 284.4 
" style="fill:none;stroke:#000000;stroke-linecap:square;stroke-linejoin:miter;stroke-width:0.8;"/>
   </g>
   <g id="patch_6">
    <path d="M 32.41875 7.2 
L 311.41875 7.2 
" style="fill:none;stroke:#000000;stroke-linecap:square;stroke-linejoin:miter;stroke-width:0.8;"/>
   </g>
   <g id="legend_1">
    <g id="patch_7">
     <path d="M 197.41875 86.29375 
L 304.41875 86.29375 
Q 306.41875 86.29375 306.41875 84.29375 
L 306.41875 14.2 
Q 306.41875 12.2 304.41875 12.2 
L 197.41875 12.2 
Q 195.41875 12.2 195.41875 14.2 
L 195.41875 84.29375 
Q 195.41875 86.29375 197.41875 86.29375 
z
" style="fill:#ffffff;opacity:0.8;stroke:#cccccc;stroke-linejoin:miter;"/>
    </g>
    <g id="line2d_58">
     <path d="M 199.41875 20.66875 
L 219.41875 20.66875 
" style="fill:none;stroke:#808080;stroke-linecap:square;stroke-width:1.5;"/>
    </g>
    <g id="line2d_59"/>
    <g id="text_29">
     <!-- 卷积核数量4*4 -->
     <g transform="translate(227.41875 24.16875)scale(0.1 -0.1)">
      <defs>
       <path d="M 3550 5125 
Q 3400 4950 3362 4600 
Q 3325 4250 3250 3900 
L 4650 3900 
Q 5200 3900 5675 3925 
L 5675 3450 
Q 5200 3500 4650 3500 
L 3150 3500 
Q 3050 3175 2925 2875 
L 5050 2875 
Q 5650 2875 6075 2900 
L 6075 2450 
Q 5650 2475 5075 2475 
L 4525 2475 
Q 4825 2025 5262 1875 
Q 5700 1725 6175 1650 
Q 6025 1450 5900 1050 
Q 5500 1200 5225 1337 
Q 4950 1475 4650 1700 
L 4650 1150 
Q 4650 725 4375 612 
Q 4100 500 3450 425 
Q 3400 750 3300 975 
Q 3850 950 4000 987 
Q 4150 1025 4150 1225 
L 4150 1500 
L 2325 1500 
L 2325 350 
Q 2325 0 2725 0 
L 4300 0 
Q 4700 0 4787 150 
Q 4875 300 4925 625 
Q 5175 400 5475 300 
Q 5325 -50 5175 -237 
Q 5025 -425 4650 -400 
L 2375 -400 
Q 1850 -400 1850 50 
L 1850 1650 
Q 1650 1475 1400 1300 
Q 1150 1125 775 900 
Q 625 1125 350 1350 
Q 950 1525 1375 1837 
Q 1800 2150 2075 2475 
L 1400 2475 
Q 775 2475 450 2450 
L 450 2900 
Q 850 2875 1400 2875 
L 2375 2875 
Q 2525 3150 2625 3500 
L 1925 3500 
Q 1250 3500 850 3450 
L 850 3925 
Q 1325 3900 1900 3900 
L 2725 3900 
Q 2775 4125 2837 4450 
Q 2900 4775 2925 5225 
Q 3175 5175 3550 5125 
z
M 4400 1900 
Q 4100 2275 3975 2475 
L 2675 2475 
Q 2400 2150 2150 1900 
L 4400 1900 
z
M 4175 4250 
Q 4400 4450 4512 4600 
Q 4625 4750 4775 5000 
Q 5000 4825 5250 4650 
Q 5100 4525 4937 4350 
Q 4775 4175 4550 3950 
Q 4375 4125 4175 4250 
z
M 1475 5000 
Q 1725 4775 1850 4650 
L 2125 4375 
Q 1950 4225 1775 4025 
Q 1575 4250 1437 4375 
Q 1300 4500 1150 4625 
Q 1325 4825 1475 5000 
z
" id="SimHei-5377" transform="scale(0.015625)"/>
       <path d="M 5675 4700 
Q 5650 4275 5650 3575 
L 5650 2750 
Q 5650 2225 5675 1750 
L 3100 1750 
Q 3125 2225 3125 2750 
L 3125 3600 
Q 3125 4275 3100 4700 
L 5675 4700 
z
M 2850 4625 
Q 2600 4575 2400 4525 
Q 2200 4475 1925 4425 
L 1925 3275 
Q 2525 3275 2875 3300 
L 2875 2825 
Q 2525 2850 1925 2850 
L 1925 2075 
Q 2125 2225 2250 2350 
Q 2650 1775 2875 1450 
Q 2750 1375 2450 1150 
Q 2250 1575 1925 2000 
L 1925 300 
Q 1925 -75 1950 -675 
L 1425 -675 
Q 1475 -75 1475 300 
L 1475 1925 
Q 1275 1475 1125 1225 
Q 975 975 650 525 
Q 450 700 200 825 
Q 575 1200 900 1750 
Q 1225 2300 1375 2850 
Q 1025 2850 300 2825 
L 300 3300 
Q 1025 3275 1475 3275 
L 1475 4325 
Q 975 4250 525 4175 
Q 450 4400 350 4625 
Q 675 4600 1462 4750 
Q 2250 4900 2550 5075 
Q 2725 4775 2850 4625 
z
M 5175 2175 
L 5175 4300 
L 3575 4300 
L 3575 2175 
L 5175 2175 
z
M 4025 1075 
Q 3875 850 3512 350 
Q 3150 -150 2700 -650 
Q 2525 -475 2300 -300 
Q 2625 -50 2950 375 
Q 3275 800 3575 1400 
Q 3825 1200 4025 1075 
z
M 5050 1325 
Q 5275 1025 5587 625 
Q 5900 225 6200 -225 
Q 5900 -400 5725 -550 
Q 5550 -225 5200 287 
Q 4850 800 4650 1025 
Q 4850 1150 5050 1325 
z
" id="SimHei-79ef" transform="scale(0.015625)"/>
       <path d="M 1275 4375 
Q 1275 4800 1250 5150 
L 1775 5150 
Q 1750 4850 1750 4375 
L 1750 3825 
Q 2075 3825 2450 3850 
L 2450 3350 
Q 2075 3375 1750 3375 
L 1750 2500 
Q 1800 2550 2050 2725 
Q 2375 2225 2625 1850 
Q 2375 1700 2200 1575 
Q 1950 2025 1750 2350 
L 1750 500 
Q 1750 -25 1775 -550 
L 1250 -550 
Q 1300 0 1275 500 
L 1275 2225 
Q 1025 1625 525 925 
Q 325 1250 200 1400 
Q 475 1675 775 2175 
Q 1075 2675 1250 3375 
Q 875 3375 450 3350 
L 450 3850 
Q 900 3825 1275 3825 
L 1275 4375 
z
M 2725 2650 
Q 2875 2650 3175 2937 
Q 3475 3225 3775 3825 
L 4300 3525 
Q 4100 3400 3912 3175 
Q 3725 2950 3425 2650 
L 4525 2675 
Q 4775 3000 4925 3400 
L 5500 3150 
Q 5375 3075 5150 2725 
Q 4925 2375 4500 1900 
Q 4075 1425 3675 1112 
Q 3275 800 2825 525 
Q 2650 725 2400 925 
Q 2925 1125 3400 1487 
Q 3875 1850 4225 2275 
Q 3825 2275 3525 2250 
Q 3225 2225 2875 2150 
L 2725 2650 
z
M 5950 2050 
Q 5800 1950 5612 1675 
Q 5425 1400 5100 975 
Q 5600 525 5862 250 
Q 6125 -25 6150 -50 
Q 5925 -200 5675 -450 
Q 5525 -225 5312 25 
Q 5100 275 4750 625 
Q 4400 300 4100 87 
Q 3800 -125 3462 -300 
Q 3125 -475 2775 -625 
Q 2650 -375 2400 -175 
Q 3075 25 3600 350 
Q 4125 675 4500 1062 
Q 4875 1450 5087 1775 
Q 5300 2100 5400 2350 
Q 5650 2175 5950 2050 
z
M 3100 3875 
Q 2875 3875 2650 3850 
L 2650 4350 
Q 2975 4300 3325 4300 
L 5200 4300 
Q 5600 4300 6025 4350 
L 6025 3850 
Q 5600 3875 5200 3875 
L 3100 3875 
z
M 4350 5225 
Q 4500 4975 4725 4575 
Q 4350 4425 4225 4325 
Q 4050 4750 3850 5000 
Q 4225 5175 4350 5225 
z
" id="SimHei-6838" transform="scale(0.015625)"/>
       <path d="M 5250 2500 
Q 5225 2200 5225 1700 
Q 5225 1225 5250 950 
L 3425 950 
L 3425 625 
L 4575 625 
Q 5000 625 5375 650 
L 5375 275 
Q 5025 300 4575 300 
L 3425 300 
L 3425 -75 
L 5125 -75 
Q 5525 -75 5925 -50 
L 5925 -425 
Q 5525 -400 5125 -400 
L 1275 -400 
Q 900 -400 475 -425 
L 475 -50 
Q 925 -50 1275 -75 
L 2975 -75 
L 2975 300 
L 1725 300 
Q 1350 300 975 250 
L 975 650 
Q 1375 625 1725 625 
L 2975 625 
L 2975 950 
L 1150 950 
Q 1175 1375 1175 1775 
Q 1175 2175 1150 2500 
L 5250 2500 
z
M 5200 4950 
Q 5175 4575 5175 4250 
Q 5175 3925 5200 3400 
L 1200 3400 
Q 1225 3925 1225 4250 
Q 1225 4575 1200 4950 
L 5200 4950 
z
M 4900 3100 
Q 5500 3125 6000 3150 
L 6000 2750 
Q 5500 2775 4925 2775 
L 1650 2775 
Q 975 2775 325 2750 
L 325 3150 
Q 975 3125 1650 3100 
L 4900 3100 
z
M 4725 3700 
L 4725 4025 
L 1675 4025 
L 1675 3700 
L 4725 3700 
z
M 4725 4350 
L 4725 4650 
L 1675 4650 
L 1675 4350 
L 4725 4350 
z
M 4750 1875 
L 4750 2175 
L 3425 2175 
L 3425 1875 
L 4750 1875 
z
M 2975 1875 
L 2975 2175 
L 1650 2175 
L 1650 1875 
L 2975 1875 
z
M 2975 1275 
L 2975 1550 
L 1650 1550 
L 1650 1275 
L 2975 1275 
z
M 4750 1275 
L 4750 1550 
L 3425 1550 
L 3425 1275 
L 4750 1275 
z
" id="SimHei-91cf" transform="scale(0.015625)"/>
       <path d="M 3075 2350 
L 2825 1900 
L 1800 2550 
L 1850 1275 
L 1350 1275 
L 1400 2550 
L 375 1900 
L 125 2350 
L 1200 2900 
L 125 3450 
L 375 3900 
L 1400 3250 
L 1350 4450 
L 1850 4450 
L 1800 3250 
L 2825 3900 
L 3075 3450 
L 2000 2900 
L 3075 2350 
z
" id="SimHei-2a" transform="scale(0.015625)"/>
      </defs>
      <use xlink:href="#SimHei-5377"/>
      <use x="100" xlink:href="#SimHei-79ef"/>
      <use x="200" xlink:href="#SimHei-6838"/>
      <use x="300" xlink:href="#SimHei-6570"/>
      <use x="400" xlink:href="#SimHei-91cf"/>
      <use x="500" xlink:href="#SimHei-34"/>
      <use x="550" xlink:href="#SimHei-2a"/>
      <use x="600" xlink:href="#SimHei-34"/>
     </g>
    </g>
    <g id="line2d_60">
     <path d="M 199.41875 34.8875 
L 219.41875 34.8875 
" style="fill:none;stroke:#add8e6;stroke-linecap:square;stroke-width:1.5;"/>
    </g>
    <g id="line2d_61"/>
    <g id="text_30">
     <!-- 卷积核数量8*8 -->
     <g transform="translate(227.41875 38.3875)scale(0.1 -0.1)">
      <use xlink:href="#SimHei-5377"/>
      <use x="100" xlink:href="#SimHei-79ef"/>
      <use x="200" xlink:href="#SimHei-6838"/>
      <use x="300" xlink:href="#SimHei-6570"/>
      <use x="400" xlink:href="#SimHei-91cf"/>
      <use x="500" xlink:href="#SimHei-38"/>
      <use x="550" xlink:href="#SimHei-2a"/>
      <use x="600" xlink:href="#SimHei-38"/>
     </g>
    </g>
    <g id="line2d_62">
     <path d="M 199.41875 49.10625 
L 219.41875 49.10625 
" style="fill:none;stroke:#4169e1;stroke-linecap:square;stroke-width:1.5;"/>
    </g>
    <g id="line2d_63"/>
    <g id="text_31">
     <!-- 卷积核数量16*16 -->
     <g transform="translate(227.41875 52.60625)scale(0.1 -0.1)">
      <use xlink:href="#SimHei-5377"/>
      <use x="100" xlink:href="#SimHei-79ef"/>
      <use x="200" xlink:href="#SimHei-6838"/>
      <use x="300" xlink:href="#SimHei-6570"/>
      <use x="400" xlink:href="#SimHei-91cf"/>
      <use x="500" xlink:href="#SimHei-31"/>
      <use x="550" xlink:href="#SimHei-36"/>
      <use x="600" xlink:href="#SimHei-2a"/>
      <use x="650" xlink:href="#SimHei-31"/>
      <use x="700" xlink:href="#SimHei-36"/>
     </g>
    </g>
    <g id="line2d_64">
     <path d="M 199.41875 63.325 
L 219.41875 63.325 
" style="fill:none;stroke:#ffa500;stroke-linecap:square;stroke-width:1.5;"/>
    </g>
    <g id="line2d_65"/>
    <g id="text_32">
     <!-- 卷积核数量32*32 -->
     <g transform="translate(227.41875 66.825)scale(0.1 -0.1)">
      <use xlink:href="#SimHei-5377"/>
      <use x="100" xlink:href="#SimHei-79ef"/>
      <use x="200" xlink:href="#SimHei-6838"/>
      <use x="300" xlink:href="#SimHei-6570"/>
      <use x="400" xlink:href="#SimHei-91cf"/>
      <use x="500" xlink:href="#SimHei-33"/>
      <use x="550" xlink:href="#SimHei-32"/>
      <use x="600" xlink:href="#SimHei-2a"/>
      <use x="650" xlink:href="#SimHei-33"/>
      <use x="700" xlink:href="#SimHei-32"/>
     </g>
    </g>
    <g id="line2d_66">
     <path d="M 199.41875 77.54375 
L 219.41875 77.54375 
" style="fill:none;stroke:#ff0000;stroke-linecap:square;stroke-width:1.5;"/>
    </g>
    <g id="line2d_67"/>
    <g id="text_33">
     <!-- 卷积核数量64*64 -->
     <g transform="translate(227.41875 81.04375)scale(0.1 -0.1)">
      <use xlink:href="#SimHei-5377"/>
      <use x="100" xlink:href="#SimHei-79ef"/>
      <use x="200" xlink:href="#SimHei-6838"/>
      <use x="300" xlink:href="#SimHei-6570"/>
      <use x="400" xlink:href="#SimHei-91cf"/>
      <use x="500" xlink:href="#SimHei-36"/>
      <use x="550" xlink:href="#SimHei-34"/>
      <use x="600" xlink:href="#SimHei-2a"/>
      <use x="650" xlink:href="#SimHei-36"/>
      <use x="700" xlink:href="#SimHei-34"/>
     </g>
    </g>
   </g>
  </g>
  <g id="axes_2">
   <g id="patch_8">
    <path d="M 367.21875 284.4 
L 646.21875 284.4 
L 646.21875 7.2 
L 367.21875 7.2 
z
" style="fill:#ffffff;"/>
   </g>
   <g id="matplotlib.axis_3">
    <g id="xtick_21">
     <g id="line2d_68">
      <path clip-path="url(#p4ca2241e9c)" d="M 379.900568 284.4 
L 379.900568 7.2 
" style="fill:none;stroke:#b0b0b0;stroke-dasharray:2.96,1.28;stroke-dashoffset:0;stroke-width:0.8;"/>
     </g>
     <g id="line2d_69">
      <g>
       <use style="stroke:#000000;stroke-width:0.8;" x="379.900568" xlink:href="#mabdb86ad0a" y="284.4"/>
      </g>
     </g>
     <g id="text_34">
      <!-- 1 -->
      <g transform="translate(377.400568 298.275)scale(0.1 -0.1)">
       <use xlink:href="#SimHei-31"/>
      </g>
     </g>
    </g>
    <g id="xtick_22">
     <g id="line2d_70">
      <path clip-path="url(#p4ca2241e9c)" d="M 393.24985 284.4 
L 393.24985 7.2 
" style="fill:none;stroke:#b0b0b0;stroke-dasharray:2.96,1.28;stroke-dashoffset:0;stroke-width:0.8;"/>
     </g>
     <g id="line2d_71">
      <g>
       <use style="stroke:#000000;stroke-width:0.8;" x="393.24985" xlink:href="#mabdb86ad0a" y="284.4"/>
      </g>
     </g>
     <g id="text_35">
      <!-- 2 -->
      <g transform="translate(390.74985 298.275)scale(0.1 -0.1)">
       <use xlink:href="#SimHei-32"/>
      </g>
     </g>
    </g>
    <g id="xtick_23">
     <g id="line2d_72">
      <path clip-path="url(#p4ca2241e9c)" d="M 406.599133 284.4 
L 406.599133 7.2 
" style="fill:none;stroke:#b0b0b0;stroke-dasharray:2.96,1.28;stroke-dashoffset:0;stroke-width:0.8;"/>
     </g>
     <g id="line2d_73">
      <g>
       <use style="stroke:#000000;stroke-width:0.8;" x="406.599133" xlink:href="#mabdb86ad0a" y="284.4"/>
      </g>
     </g>
     <g id="text_36">
      <!-- 3 -->
      <g transform="translate(404.099133 298.275)scale(0.1 -0.1)">
       <use xlink:href="#SimHei-33"/>
      </g>
     </g>
    </g>
    <g id="xtick_24">
     <g id="line2d_74">
      <path clip-path="url(#p4ca2241e9c)" d="M 419.948415 284.4 
L 419.948415 7.2 
" style="fill:none;stroke:#b0b0b0;stroke-dasharray:2.96,1.28;stroke-dashoffset:0;stroke-width:0.8;"/>
     </g>
     <g id="line2d_75">
      <g>
       <use style="stroke:#000000;stroke-width:0.8;" x="419.948415" xlink:href="#mabdb86ad0a" y="284.4"/>
      </g>
     </g>
     <g id="text_37">
      <!-- 4 -->
      <g transform="translate(417.448415 298.275)scale(0.1 -0.1)">
       <use xlink:href="#SimHei-34"/>
      </g>
     </g>
    </g>
    <g id="xtick_25">
     <g id="line2d_76">
      <path clip-path="url(#p4ca2241e9c)" d="M 433.297697 284.4 
L 433.297697 7.2 
" style="fill:none;stroke:#b0b0b0;stroke-dasharray:2.96,1.28;stroke-dashoffset:0;stroke-width:0.8;"/>
     </g>
     <g id="line2d_77">
      <g>
       <use style="stroke:#000000;stroke-width:0.8;" x="433.297697" xlink:href="#mabdb86ad0a" y="284.4"/>
      </g>
     </g>
     <g id="text_38">
      <!-- 5 -->
      <g transform="translate(430.797697 298.275)scale(0.1 -0.1)">
       <use xlink:href="#SimHei-35"/>
      </g>
     </g>
    </g>
    <g id="xtick_26">
     <g id="line2d_78">
      <path clip-path="url(#p4ca2241e9c)" d="M 446.64698 284.4 
L 446.64698 7.2 
" style="fill:none;stroke:#b0b0b0;stroke-dasharray:2.96,1.28;stroke-dashoffset:0;stroke-width:0.8;"/>
     </g>
     <g id="line2d_79">
      <g>
       <use style="stroke:#000000;stroke-width:0.8;" x="446.64698" xlink:href="#mabdb86ad0a" y="284.4"/>
      </g>
     </g>
     <g id="text_39">
      <!-- 6 -->
      <g transform="translate(444.14698 298.275)scale(0.1 -0.1)">
       <use xlink:href="#SimHei-36"/>
      </g>
     </g>
    </g>
    <g id="xtick_27">
     <g id="line2d_80">
      <path clip-path="url(#p4ca2241e9c)" d="M 459.996262 284.4 
L 459.996262 7.2 
" style="fill:none;stroke:#b0b0b0;stroke-dasharray:2.96,1.28;stroke-dashoffset:0;stroke-width:0.8;"/>
     </g>
     <g id="line2d_81">
      <g>
       <use style="stroke:#000000;stroke-width:0.8;" x="459.996262" xlink:href="#mabdb86ad0a" y="284.4"/>
      </g>
     </g>
     <g id="text_40">
      <!-- 7 -->
      <g transform="translate(457.496262 298.275)scale(0.1 -0.1)">
       <use xlink:href="#SimHei-37"/>
      </g>
     </g>
    </g>
    <g id="xtick_28">
     <g id="line2d_82">
      <path clip-path="url(#p4ca2241e9c)" d="M 473.345544 284.4 
L 473.345544 7.2 
" style="fill:none;stroke:#b0b0b0;stroke-dasharray:2.96,1.28;stroke-dashoffset:0;stroke-width:0.8;"/>
     </g>
     <g id="line2d_83">
      <g>
       <use style="stroke:#000000;stroke-width:0.8;" x="473.345544" xlink:href="#mabdb86ad0a" y="284.4"/>
      </g>
     </g>
     <g id="text_41">
      <!-- 8 -->
      <g transform="translate(470.845544 298.275)scale(0.1 -0.1)">
       <use xlink:href="#SimHei-38"/>
      </g>
     </g>
    </g>
    <g id="xtick_29">
     <g id="line2d_84">
      <path clip-path="url(#p4ca2241e9c)" d="M 486.694827 284.4 
L 486.694827 7.2 
" style="fill:none;stroke:#b0b0b0;stroke-dasharray:2.96,1.28;stroke-dashoffset:0;stroke-width:0.8;"/>
     </g>
     <g id="line2d_85">
      <g>
       <use style="stroke:#000000;stroke-width:0.8;" x="486.694827" xlink:href="#mabdb86ad0a" y="284.4"/>
      </g>
     </g>
     <g id="text_42">
      <!-- 9 -->
      <g transform="translate(484.194827 298.275)scale(0.1 -0.1)">
       <use xlink:href="#SimHei-39"/>
      </g>
     </g>
    </g>
    <g id="xtick_30">
     <g id="line2d_86">
      <path clip-path="url(#p4ca2241e9c)" d="M 500.044109 284.4 
L 500.044109 7.2 
" style="fill:none;stroke:#b0b0b0;stroke-dasharray:2.96,1.28;stroke-dashoffset:0;stroke-width:0.8;"/>
     </g>
     <g id="line2d_87">
      <g>
       <use style="stroke:#000000;stroke-width:0.8;" x="500.044109" xlink:href="#mabdb86ad0a" y="284.4"/>
      </g>
     </g>
     <g id="text_43">
      <!-- 10 -->
      <g transform="translate(495.044109 298.275)scale(0.1 -0.1)">
       <use xlink:href="#SimHei-31"/>
       <use x="50" xlink:href="#SimHei-30"/>
      </g>
     </g>
    </g>
    <g id="xtick_31">
     <g id="line2d_88">
      <path clip-path="url(#p4ca2241e9c)" d="M 513.393391 284.4 
L 513.393391 7.2 
" style="fill:none;stroke:#b0b0b0;stroke-dasharray:2.96,1.28;stroke-dashoffset:0;stroke-width:0.8;"/>
     </g>
     <g id="line2d_89">
      <g>
       <use style="stroke:#000000;stroke-width:0.8;" x="513.393391" xlink:href="#mabdb86ad0a" y="284.4"/>
      </g>
     </g>
     <g id="text_44">
      <!-- 11 -->
      <g transform="translate(508.393391 298.275)scale(0.1 -0.1)">
       <use xlink:href="#SimHei-31"/>
       <use x="50" xlink:href="#SimHei-31"/>
      </g>
     </g>
    </g>
    <g id="xtick_32">
     <g id="line2d_90">
      <path clip-path="url(#p4ca2241e9c)" d="M 526.742673 284.4 
L 526.742673 7.2 
" style="fill:none;stroke:#b0b0b0;stroke-dasharray:2.96,1.28;stroke-dashoffset:0;stroke-width:0.8;"/>
     </g>
     <g id="line2d_91">
      <g>
       <use style="stroke:#000000;stroke-width:0.8;" x="526.742673" xlink:href="#mabdb86ad0a" y="284.4"/>
      </g>
     </g>
     <g id="text_45">
      <!-- 12 -->
      <g transform="translate(521.742673 298.275)scale(0.1 -0.1)">
       <use xlink:href="#SimHei-31"/>
       <use x="50" xlink:href="#SimHei-32"/>
      </g>
     </g>
    </g>
    <g id="xtick_33">
     <g id="line2d_92">
      <path clip-path="url(#p4ca2241e9c)" d="M 540.091956 284.4 
L 540.091956 7.2 
" style="fill:none;stroke:#b0b0b0;stroke-dasharray:2.96,1.28;stroke-dashoffset:0;stroke-width:0.8;"/>
     </g>
     <g id="line2d_93">
      <g>
       <use style="stroke:#000000;stroke-width:0.8;" x="540.091956" xlink:href="#mabdb86ad0a" y="284.4"/>
      </g>
     </g>
     <g id="text_46">
      <!-- 13 -->
      <g transform="translate(535.091956 298.275)scale(0.1 -0.1)">
       <use xlink:href="#SimHei-31"/>
       <use x="50" xlink:href="#SimHei-33"/>
      </g>
     </g>
    </g>
    <g id="xtick_34">
     <g id="line2d_94">
      <path clip-path="url(#p4ca2241e9c)" d="M 553.441238 284.4 
L 553.441238 7.2 
" style="fill:none;stroke:#b0b0b0;stroke-dasharray:2.96,1.28;stroke-dashoffset:0;stroke-width:0.8;"/>
     </g>
     <g id="line2d_95">
      <g>
       <use style="stroke:#000000;stroke-width:0.8;" x="553.441238" xlink:href="#mabdb86ad0a" y="284.4"/>
      </g>
     </g>
     <g id="text_47">
      <!-- 14 -->
      <g transform="translate(548.441238 298.275)scale(0.1 -0.1)">
       <use xlink:href="#SimHei-31"/>
       <use x="50" xlink:href="#SimHei-34"/>
      </g>
     </g>
    </g>
    <g id="xtick_35">
     <g id="line2d_96">
      <path clip-path="url(#p4ca2241e9c)" d="M 566.79052 284.4 
L 566.79052 7.2 
" style="fill:none;stroke:#b0b0b0;stroke-dasharray:2.96,1.28;stroke-dashoffset:0;stroke-width:0.8;"/>
     </g>
     <g id="line2d_97">
      <g>
       <use style="stroke:#000000;stroke-width:0.8;" x="566.79052" xlink:href="#mabdb86ad0a" y="284.4"/>
      </g>
     </g>
     <g id="text_48">
      <!-- 15 -->
      <g transform="translate(561.79052 298.275)scale(0.1 -0.1)">
       <use xlink:href="#SimHei-31"/>
       <use x="50" xlink:href="#SimHei-35"/>
      </g>
     </g>
    </g>
    <g id="xtick_36">
     <g id="line2d_98">
      <path clip-path="url(#p4ca2241e9c)" d="M 580.139803 284.4 
L 580.139803 7.2 
" style="fill:none;stroke:#b0b0b0;stroke-dasharray:2.96,1.28;stroke-dashoffset:0;stroke-width:0.8;"/>
     </g>
     <g id="line2d_99">
      <g>
       <use style="stroke:#000000;stroke-width:0.8;" x="580.139803" xlink:href="#mabdb86ad0a" y="284.4"/>
      </g>
     </g>
     <g id="text_49">
      <!-- 16 -->
      <g transform="translate(575.139803 298.275)scale(0.1 -0.1)">
       <use xlink:href="#SimHei-31"/>
       <use x="50" xlink:href="#SimHei-36"/>
      </g>
     </g>
    </g>
    <g id="xtick_37">
     <g id="line2d_100">
      <path clip-path="url(#p4ca2241e9c)" d="M 593.489085 284.4 
L 593.489085 7.2 
" style="fill:none;stroke:#b0b0b0;stroke-dasharray:2.96,1.28;stroke-dashoffset:0;stroke-width:0.8;"/>
     </g>
     <g id="line2d_101">
      <g>
       <use style="stroke:#000000;stroke-width:0.8;" x="593.489085" xlink:href="#mabdb86ad0a" y="284.4"/>
      </g>
     </g>
     <g id="text_50">
      <!-- 17 -->
      <g transform="translate(588.489085 298.275)scale(0.1 -0.1)">
       <use xlink:href="#SimHei-31"/>
       <use x="50" xlink:href="#SimHei-37"/>
      </g>
     </g>
    </g>
    <g id="xtick_38">
     <g id="line2d_102">
      <path clip-path="url(#p4ca2241e9c)" d="M 606.838367 284.4 
L 606.838367 7.2 
" style="fill:none;stroke:#b0b0b0;stroke-dasharray:2.96,1.28;stroke-dashoffset:0;stroke-width:0.8;"/>
     </g>
     <g id="line2d_103">
      <g>
       <use style="stroke:#000000;stroke-width:0.8;" x="606.838367" xlink:href="#mabdb86ad0a" y="284.4"/>
      </g>
     </g>
     <g id="text_51">
      <!-- 18 -->
      <g transform="translate(601.838367 298.275)scale(0.1 -0.1)">
       <use xlink:href="#SimHei-31"/>
       <use x="50" xlink:href="#SimHei-38"/>
      </g>
     </g>
    </g>
    <g id="xtick_39">
     <g id="line2d_104">
      <path clip-path="url(#p4ca2241e9c)" d="M 620.18765 284.4 
L 620.18765 7.2 
" style="fill:none;stroke:#b0b0b0;stroke-dasharray:2.96,1.28;stroke-dashoffset:0;stroke-width:0.8;"/>
     </g>
     <g id="line2d_105">
      <g>
       <use style="stroke:#000000;stroke-width:0.8;" x="620.18765" xlink:href="#mabdb86ad0a" y="284.4"/>
      </g>
     </g>
     <g id="text_52">
      <!-- 19 -->
      <g transform="translate(615.18765 298.275)scale(0.1 -0.1)">
       <use xlink:href="#SimHei-31"/>
       <use x="50" xlink:href="#SimHei-39"/>
      </g>
     </g>
    </g>
    <g id="xtick_40">
     <g id="line2d_106">
      <path clip-path="url(#p4ca2241e9c)" d="M 633.536932 284.4 
L 633.536932 7.2 
" style="fill:none;stroke:#b0b0b0;stroke-dasharray:2.96,1.28;stroke-dashoffset:0;stroke-width:0.8;"/>
     </g>
     <g id="line2d_107">
      <g>
       <use style="stroke:#000000;stroke-width:0.8;" x="633.536932" xlink:href="#mabdb86ad0a" y="284.4"/>
      </g>
     </g>
     <g id="text_53">
      <!-- 20 -->
      <g transform="translate(628.536932 298.275)scale(0.1 -0.1)">
       <use xlink:href="#SimHei-32"/>
       <use x="50" xlink:href="#SimHei-30"/>
      </g>
     </g>
    </g>
    <g id="text_54">
     <!-- 迭代次数 -->
     <g transform="translate(486.71875 311.49375)scale(0.1 -0.1)">
      <use xlink:href="#SimHei-8fed"/>
      <use x="100" xlink:href="#SimHei-4ee3"/>
      <use x="200" xlink:href="#SimHei-6b21"/>
      <use x="300" xlink:href="#SimHei-6570"/>
     </g>
    </g>
   </g>
   <g id="matplotlib.axis_4">
    <g id="ytick_7">
     <g id="line2d_108">
      <path clip-path="url(#p4ca2241e9c)" d="M 367.21875 244.449544 
L 646.21875 244.449544 
" style="fill:none;stroke:#b0b0b0;stroke-dasharray:2.96,1.28;stroke-dashoffset:0;stroke-width:0.8;"/>
     </g>
     <g id="line2d_109">
      <g>
       <use style="stroke:#000000;stroke-width:0.8;" x="367.21875" xlink:href="#maf567ab1ba" y="244.449544"/>
      </g>
     </g>
     <g id="text_55">
      <!-- 0.88 -->
      <g transform="translate(340.21875 247.887044)scale(0.1 -0.1)">
       <defs>
        <path d="M 1075 125 
L 500 125 
L 500 675 
L 1075 675 
L 1075 125 
z
" id="SimHei-2e" transform="scale(0.015625)"/>
       </defs>
       <use xlink:href="#SimHei-30"/>
       <use x="50" xlink:href="#SimHei-2e"/>
       <use x="100" xlink:href="#SimHei-38"/>
       <use x="150" xlink:href="#SimHei-38"/>
      </g>
     </g>
    </g>
    <g id="ytick_8">
     <g id="line2d_110">
      <path clip-path="url(#p4ca2241e9c)" d="M 367.21875 202.693123 
L 646.21875 202.693123 
" style="fill:none;stroke:#b0b0b0;stroke-dasharray:2.96,1.28;stroke-dashoffset:0;stroke-width:0.8;"/>
     </g>
     <g id="line2d_111">
      <g>
       <use style="stroke:#000000;stroke-width:0.8;" x="367.21875" xlink:href="#maf567ab1ba" y="202.693123"/>
      </g>
     </g>
     <g id="text_56">
      <!-- 0.90 -->
      <g transform="translate(340.21875 206.130623)scale(0.1 -0.1)">
       <use xlink:href="#SimHei-30"/>
       <use x="50" xlink:href="#SimHei-2e"/>
       <use x="100" xlink:href="#SimHei-39"/>
       <use x="150" xlink:href="#SimHei-30"/>
      </g>
     </g>
    </g>
    <g id="ytick_9">
     <g id="line2d_112">
      <path clip-path="url(#p4ca2241e9c)" d="M 367.21875 160.936703 
L 646.21875 160.936703 
" style="fill:none;stroke:#b0b0b0;stroke-dasharray:2.96,1.28;stroke-dashoffset:0;stroke-width:0.8;"/>
     </g>
     <g id="line2d_113">
      <g>
       <use style="stroke:#000000;stroke-width:0.8;" x="367.21875" xlink:href="#maf567ab1ba" y="160.936703"/>
      </g>
     </g>
     <g id="text_57">
      <!-- 0.92 -->
      <g transform="translate(340.21875 164.374203)scale(0.1 -0.1)">
       <use xlink:href="#SimHei-30"/>
       <use x="50" xlink:href="#SimHei-2e"/>
       <use x="100" xlink:href="#SimHei-39"/>
       <use x="150" xlink:href="#SimHei-32"/>
      </g>
     </g>
    </g>
    <g id="ytick_10">
     <g id="line2d_114">
      <path clip-path="url(#p4ca2241e9c)" d="M 367.21875 119.180282 
L 646.21875 119.180282 
" style="fill:none;stroke:#b0b0b0;stroke-dasharray:2.96,1.28;stroke-dashoffset:0;stroke-width:0.8;"/>
     </g>
     <g id="line2d_115">
      <g>
       <use style="stroke:#000000;stroke-width:0.8;" x="367.21875" xlink:href="#maf567ab1ba" y="119.180282"/>
      </g>
     </g>
     <g id="text_58">
      <!-- 0.94 -->
      <g transform="translate(340.21875 122.617782)scale(0.1 -0.1)">
       <use xlink:href="#SimHei-30"/>
       <use x="50" xlink:href="#SimHei-2e"/>
       <use x="100" xlink:href="#SimHei-39"/>
       <use x="150" xlink:href="#SimHei-34"/>
      </g>
     </g>
    </g>
    <g id="ytick_11">
     <g id="line2d_116">
      <path clip-path="url(#p4ca2241e9c)" d="M 367.21875 77.423861 
L 646.21875 77.423861 
" style="fill:none;stroke:#b0b0b0;stroke-dasharray:2.96,1.28;stroke-dashoffset:0;stroke-width:0.8;"/>
     </g>
     <g id="line2d_117">
      <g>
       <use style="stroke:#000000;stroke-width:0.8;" x="367.21875" xlink:href="#maf567ab1ba" y="77.423861"/>
      </g>
     </g>
     <g id="text_59">
      <!-- 0.96 -->
      <g transform="translate(340.21875 80.861361)scale(0.1 -0.1)">
       <use xlink:href="#SimHei-30"/>
       <use x="50" xlink:href="#SimHei-2e"/>
       <use x="100" xlink:href="#SimHei-39"/>
       <use x="150" xlink:href="#SimHei-36"/>
      </g>
     </g>
    </g>
    <g id="ytick_12">
     <g id="line2d_118">
      <path clip-path="url(#p4ca2241e9c)" d="M 367.21875 35.66744 
L 646.21875 35.66744 
" style="fill:none;stroke:#b0b0b0;stroke-dasharray:2.96,1.28;stroke-dashoffset:0;stroke-width:0.8;"/>
     </g>
     <g id="line2d_119">
      <g>
       <use style="stroke:#000000;stroke-width:0.8;" x="367.21875" xlink:href="#maf567ab1ba" y="35.66744"/>
      </g>
     </g>
     <g id="text_60">
      <!-- 0.98 -->
      <g transform="translate(340.21875 39.10494)scale(0.1 -0.1)">
       <use xlink:href="#SimHei-30"/>
       <use x="50" xlink:href="#SimHei-2e"/>
       <use x="100" xlink:href="#SimHei-39"/>
       <use x="150" xlink:href="#SimHei-38"/>
      </g>
     </g>
    </g>
    <g id="text_61">
     <!-- 精度 -->
     <g transform="translate(334.96875 155.8)rotate(-90)scale(0.1 -0.1)">
      <defs>
       <path d="M 5600 2300 
Q 5575 1825 5575 1400 
L 5575 -100 
Q 5575 -475 5337 -550 
Q 5100 -625 4775 -675 
Q 4700 -375 4550 -175 
Q 4900 -175 5012 -137 
Q 5125 -100 5125 75 
L 5125 325 
L 3425 325 
L 3425 -625 
L 2975 -625 
Q 3000 75 3000 925 
Q 3000 1775 2975 2300 
L 5600 2300 
z
M 1275 4450 
Q 1275 4875 1250 5125 
L 1750 5125 
Q 1725 4675 1725 4425 
L 1725 3175 
Q 2125 3175 2450 3200 
L 2450 2750 
Q 2125 2775 1725 2775 
L 1725 325 
Q 1725 -75 1750 -650 
L 1250 -650 
Q 1275 -75 1275 325 
L 1275 1925 
Q 1050 1350 575 675 
Q 400 825 200 1000 
Q 450 1275 712 1737 
Q 975 2200 1150 2775 
Q 700 2775 350 2750 
L 350 3200 
Q 700 3175 1275 3175 
L 1275 4450 
z
M 4050 4550 
Q 4050 4850 4025 5125 
L 4525 5125 
Q 4500 4800 4500 4550 
L 5050 4550 
Q 5475 4550 5800 4575 
L 5800 4175 
Q 5450 4200 5050 4200 
L 4500 4200 
L 4500 3725 
L 4850 3725 
Q 5250 3725 5625 3750 
L 5625 3350 
Q 5250 3375 4825 3375 
L 4500 3375 
L 4500 2950 
L 5100 2950 
Q 5550 2950 6075 2975 
L 6075 2575 
Q 5575 2600 5100 2600 
L 3600 2600 
Q 3200 2600 2625 2575 
L 2625 2975 
Q 3150 2950 3575 2950 
L 4050 2950 
L 4050 3375 
L 3675 3375 
Q 3300 3375 2975 3350 
L 2975 3750 
Q 3325 3725 3575 3725 
L 4050 3725 
L 4050 4200 
L 3650 4200 
Q 3250 4200 2800 4175 
L 2800 4575 
Q 3250 4550 3650 4550 
L 4050 4550 
z
M 5125 675 
L 5125 1175 
L 3425 1175 
L 3425 675 
L 5125 675 
z
M 5125 1525 
L 5125 1950 
L 3425 1950 
L 3425 1525 
L 5125 1525 
z
M 2650 4375 
Q 2300 3650 2175 3375 
Q 1975 3475 1775 3525 
Q 2025 4050 2200 4550 
Q 2475 4450 2650 4375 
z
M 2125 2350 
Q 2475 1900 2775 1475 
Q 2600 1350 2400 1200 
Q 2125 1700 1775 2075 
Q 1975 2200 2125 2350 
z
M 650 4525 
Q 900 4150 1175 3625 
Q 1025 3550 800 3400 
Q 600 3800 275 4300 
Q 500 4425 650 4525 
z
" id="SimHei-7cbe" transform="scale(0.015625)"/>
       <path d="M 1750 1675 
Q 2450 1650 2875 1650 
L 5200 1650 
Q 4975 1250 4650 850 
Q 4325 450 4025 200 
Q 4350 50 4950 -50 
Q 5550 -150 6100 -150 
Q 5950 -300 5825 -650 
Q 5100 -550 4550 -412 
Q 4000 -275 3625 -100 
Q 3100 -325 2587 -462 
Q 2075 -600 1525 -675 
Q 1450 -475 1225 -250 
Q 1675 -250 2250 -125 
Q 2825 0 3250 200 
Q 2825 550 2400 1275 
L 1750 1250 
L 1750 1675 
z
M 2975 5075 
Q 3250 5150 3475 5250 
Q 3625 4975 3775 4525 
L 4700 4525 
Q 4975 4525 5700 4550 
L 5700 4100 
Q 5000 4125 4650 4125 
L 1375 4125 
Q 1375 3000 1350 2312 
Q 1325 1625 1212 950 
Q 1100 275 725 -525 
Q 500 -375 250 -300 
Q 650 400 762 1075 
Q 875 1750 887 2800 
Q 900 3850 875 4525 
L 3200 4525 
Q 3100 4850 2975 5075 
z
M 2475 3300 
Q 2475 3700 2450 3925 
L 2975 3925 
Q 2950 3725 2950 3300 
L 4300 3300 
Q 4300 3700 4275 3950 
L 4800 3950 
Q 4775 3650 4775 3300 
Q 5325 3300 5725 3325 
L 5725 2900 
Q 5350 2925 4775 2925 
Q 4775 2250 4800 1950 
L 2450 1950 
Q 2475 2350 2475 2925 
Q 2175 2925 1600 2900 
L 1600 3325 
Q 2175 3300 2475 3300 
z
M 4300 2350 
L 4300 2925 
L 2950 2925 
L 2950 2350 
L 4300 2350 
z
M 2875 1275 
Q 3200 775 3650 425 
Q 4025 700 4425 1275 
L 2900 1275 
L 2875 1275 
z
" id="SimHei-5ea6" transform="scale(0.015625)"/>
      </defs>
      <use xlink:href="#SimHei-7cbe"/>
      <use x="100" xlink:href="#SimHei-5ea6"/>
     </g>
    </g>
   </g>
   <g id="line2d_120">
    <path clip-path="url(#p4ca2241e9c)" d="M 379.900568 271.8 
L 393.24985 148.409776 
L 406.599133 112.08169 
L 419.948415 93.082519 
L 433.297697 79.929246 
L 446.64698 80.764374 
L 459.996262 66.567191 
L 473.345544 65.732063 
L 486.694827 58.842254 
L 500.044109 58.842254 
L 513.393391 54.040265 
L 526.742673 50.908534 
L 540.091956 53.413919 
L 553.441238 49.864623 
L 566.79052 48.194366 
L 580.139803 45.897763 
L 593.489085 45.897763 
L 606.838367 42.974814 
L 620.18765 43.183596 
L 633.536932 41.095775 
" style="fill:none;stroke:#808080;stroke-linecap:square;stroke-width:1.5;"/>
   </g>
   <g id="line2d_121">
    <path clip-path="url(#p4ca2241e9c)" d="M 379.900568 218.978128 
L 393.24985 128.993041 
L 406.599133 97.466943 
L 419.948415 71.995526 
L 433.297697 62.182767 
L 446.64698 56.54565 
L 459.996262 48.403148 
L 473.345544 52.370008 
L 486.694827 48.61193 
L 500.044109 39.007954 
L 513.393391 40.051864 
L 526.742673 35.876222 
L 540.091956 37.755261 
L 553.441238 34.414747 
L 566.79052 32.74449 
L 580.139803 32.953273 
L 593.489085 30.239105 
L 606.838367 31.283016 
L 620.18765 28.77763 
L 633.536932 31.074234 
" style="fill:none;stroke:#add8e6;stroke-linecap:square;stroke-width:1.5;"/>
   </g>
   <g id="line2d_122">
    <path clip-path="url(#p4ca2241e9c)" d="M 379.900568 180.353438 
L 393.24985 119.806628 
L 406.599133 82.852196 
L 419.948415 63.017896 
L 433.297697 51.743662 
L 446.64698 47.776802 
L 459.996262 38.590389 
L 473.345544 40.67821 
L 486.694827 36.920133 
L 500.044109 34.205965 
L 513.393391 30.865452 
L 526.742673 27.942502 
L 540.091956 26.689809 
L 553.441238 27.107374 
L 566.79052 24.601988 
L 580.139803 31.074234 
L 593.489085 23.76686 
L 606.838367 25.019553 
L 620.18765 21.052693 
L 633.536932 22.931732 
" style="fill:none;stroke:#4169e1;stroke-linecap:square;stroke-width:1.5;"/>
   </g>
   <g id="line2d_123">
    <path clip-path="url(#p4ca2241e9c)" d="M 379.900568 147.365866 
L 393.24985 80.764374 
L 406.599133 65.732063 
L 419.948415 52.787572 
L 433.297697 48.194366 
L 446.64698 40.469428 
L 459.996262 37.128915 
L 473.345544 35.876222 
L 486.694827 33.579619 
L 500.044109 34.832312 
L 513.393391 30.447887 
L 526.742673 29.612759 
L 540.091956 28.360066 
L 553.441238 26.481027 
L 566.79052 25.228335 
L 580.139803 26.481027 
L 593.489085 22.931732 
L 606.838367 22.305385 
L 620.18765 21.679039 
L 633.536932 21.679039 
" style="fill:none;stroke:#ffa500;stroke-linecap:square;stroke-width:1.5;"/>
   </g>
   <g id="line2d_124">
    <path clip-path="url(#p4ca2241e9c)" d="M 379.900568 129.828169 
L 393.24985 73.457001 
L 406.599133 61.347639 
L 419.948415 48.61193 
L 433.297697 44.64507 
L 446.64698 37.128915 
L 459.996262 33.788401 
L 473.345544 32.118144 
L 486.694827 29.195195 
L 500.044109 29.195195 
L 513.393391 28.360066 
L 526.742673 22.931732 
L 540.091956 23.349296 
L 553.441238 27.107374 
L 566.79052 22.514167 
L 580.139803 20.217564 
L 593.489085 22.514167 
L 606.838367 19.8 
L 620.18765 20.217564 
L 633.536932 20.217564 
" style="fill:none;stroke:#ff0000;stroke-linecap:square;stroke-width:1.5;"/>
   </g>
   <g id="patch_9">
    <path d="M 367.21875 284.4 
L 367.21875 7.2 
" style="fill:none;stroke:#000000;stroke-linecap:square;stroke-linejoin:miter;stroke-width:0.8;"/>
   </g>
   <g id="patch_10">
    <path d="M 646.21875 284.4 
L 646.21875 7.2 
" style="fill:none;stroke:#000000;stroke-linecap:square;stroke-linejoin:miter;stroke-width:0.8;"/>
   </g>
   <g id="patch_11">
    <path d="M 367.21875 284.4 
L 646.21875 284.4 
" style="fill:none;stroke:#000000;stroke-linecap:square;stroke-linejoin:miter;stroke-width:0.8;"/>
   </g>
   <g id="patch_12">
    <path d="M 367.21875 7.2 
L 646.21875 7.2 
" style="fill:none;stroke:#000000;stroke-linecap:square;stroke-linejoin:miter;stroke-width:0.8;"/>
   </g>
   <g id="legend_2">
    <g id="patch_13">
     <path d="M 374.21875 86.29375 
L 481.21875 86.29375 
Q 483.21875 86.29375 483.21875 84.29375 
L 483.21875 14.2 
Q 483.21875 12.2 481.21875 12.2 
L 374.21875 12.2 
Q 372.21875 12.2 372.21875 14.2 
L 372.21875 84.29375 
Q 372.21875 86.29375 374.21875 86.29375 
z
" style="fill:#ffffff;opacity:0.8;stroke:#cccccc;stroke-linejoin:miter;"/>
    </g>
    <g id="line2d_125">
     <path d="M 376.21875 20.66875 
L 396.21875 20.66875 
" style="fill:none;stroke:#808080;stroke-linecap:square;stroke-width:1.5;"/>
    </g>
    <g id="line2d_126"/>
    <g id="text_62">
     <!-- 卷积核数量4*4 -->
     <g transform="translate(404.21875 24.16875)scale(0.1 -0.1)">
      <use xlink:href="#SimHei-5377"/>
      <use x="100" xlink:href="#SimHei-79ef"/>
      <use x="200" xlink:href="#SimHei-6838"/>
      <use x="300" xlink:href="#SimHei-6570"/>
      <use x="400" xlink:href="#SimHei-91cf"/>
      <use x="500" xlink:href="#SimHei-34"/>
      <use x="550" xlink:href="#SimHei-2a"/>
      <use x="600" xlink:href="#SimHei-34"/>
     </g>
    </g>
    <g id="line2d_127">
     <path d="M 376.21875 34.8875 
L 396.21875 34.8875 
" style="fill:none;stroke:#add8e6;stroke-linecap:square;stroke-width:1.5;"/>
    </g>
    <g id="line2d_128"/>
    <g id="text_63">
     <!-- 卷积核数量8*8 -->
     <g transform="translate(404.21875 38.3875)scale(0.1 -0.1)">
      <use xlink:href="#SimHei-5377"/>
      <use x="100" xlink:href="#SimHei-79ef"/>
      <use x="200" xlink:href="#SimHei-6838"/>
      <use x="300" xlink:href="#SimHei-6570"/>
      <use x="400" xlink:href="#SimHei-91cf"/>
      <use x="500" xlink:href="#SimHei-38"/>
      <use x="550" xlink:href="#SimHei-2a"/>
      <use x="600" xlink:href="#SimHei-38"/>
     </g>
    </g>
    <g id="line2d_129">
     <path d="M 376.21875 49.10625 
L 396.21875 49.10625 
" style="fill:none;stroke:#4169e1;stroke-linecap:square;stroke-width:1.5;"/>
    </g>
    <g id="line2d_130"/>
    <g id="text_64">
     <!-- 卷积核数量16*16 -->
     <g transform="translate(404.21875 52.60625)scale(0.1 -0.1)">
      <use xlink:href="#SimHei-5377"/>
      <use x="100" xlink:href="#SimHei-79ef"/>
      <use x="200" xlink:href="#SimHei-6838"/>
      <use x="300" xlink:href="#SimHei-6570"/>
      <use x="400" xlink:href="#SimHei-91cf"/>
      <use x="500" xlink:href="#SimHei-31"/>
      <use x="550" xlink:href="#SimHei-36"/>
      <use x="600" xlink:href="#SimHei-2a"/>
      <use x="650" xlink:href="#SimHei-31"/>
      <use x="700" xlink:href="#SimHei-36"/>
     </g>
    </g>
    <g id="line2d_131">
     <path d="M 376.21875 63.325 
L 396.21875 63.325 
" style="fill:none;stroke:#ffa500;stroke-linecap:square;stroke-width:1.5;"/>
    </g>
    <g id="line2d_132"/>
    <g id="text_65">
     <!-- 卷积核数量32*32 -->
     <g transform="translate(404.21875 66.825)scale(0.1 -0.1)">
      <use xlink:href="#SimHei-5377"/>
      <use x="100" xlink:href="#SimHei-79ef"/>
      <use x="200" xlink:href="#SimHei-6838"/>
      <use x="300" xlink:href="#SimHei-6570"/>
      <use x="400" xlink:href="#SimHei-91cf"/>
      <use x="500" xlink:href="#SimHei-33"/>
      <use x="550" xlink:href="#SimHei-32"/>
      <use x="600" xlink:href="#SimHei-2a"/>
      <use x="650" xlink:href="#SimHei-33"/>
      <use x="700" xlink:href="#SimHei-32"/>
     </g>
    </g>
    <g id="line2d_133">
     <path d="M 376.21875 77.54375 
L 396.21875 77.54375 
" style="fill:none;stroke:#ff0000;stroke-linecap:square;stroke-width:1.5;"/>
    </g>
    <g id="line2d_134"/>
    <g id="text_66">
     <!-- 卷积核数量64*64 -->
     <g transform="translate(404.21875 81.04375)scale(0.1 -0.1)">
      <use xlink:href="#SimHei-5377"/>
      <use x="100" xlink:href="#SimHei-79ef"/>
      <use x="200" xlink:href="#SimHei-6838"/>
      <use x="300" xlink:href="#SimHei-6570"/>
      <use x="400" xlink:href="#SimHei-91cf"/>
      <use x="500" xlink:href="#SimHei-36"/>
      <use x="550" xlink:href="#SimHei-34"/>
      <use x="600" xlink:href="#SimHei-2a"/>
      <use x="650" xlink:href="#SimHei-36"/>
      <use x="700" xlink:href="#SimHei-34"/>
     </g>
    </g>
   </g>
  </g>
 </g>
 <defs>
  <clipPath id="p17395e3d9f">
   <rect height="277.2" width="279" x="32.41875" y="7.2"/>
  </clipPath>
  <clipPath id="p4ca2241e9c">
   <rect height="277.2" width="279" x="367.21875" y="7.2"/>
  </clipPath>
 </defs>
</svg>
