<?xml version="1.0" encoding="utf-8" standalone="no"?>
<!DOCTYPE svg PUBLIC "-//W3C//DTD SVG 1.1//EN"
  "http://www.w3.org/Graphics/SVG/1.1/DTD/svg11.dtd">
<!-- Created with matplotlib (https://matplotlib.org/) -->
<svg height="310.181019pt" version="1.1" viewBox="0 0 406.73875 310.181019" width="406.73875pt" xmlns="http://www.w3.org/2000/svg" xmlns:xlink="http://www.w3.org/1999/xlink">
 <metadata>
  <rdf:RDF xmlns:cc="http://creativecommons.org/ns#" xmlns:dc="http://purl.org/dc/elements/1.1/" xmlns:rdf="http://www.w3.org/1999/02/22-rdf-syntax-ns#">
   <cc:Work>
    <dc:type rdf:resource="http://purl.org/dc/dcmitype/StillImage"/>
    <dc:date>2022-01-05T18:17:57.851546</dc:date>
    <dc:format>image/svg+xml</dc:format>
    <dc:creator>
     <cc:Agent>
      <dc:title>Matplotlib v3.3.2, https://matplotlib.org/</dc:title>
     </cc:Agent>
    </dc:creator>
   </cc:Work>
  </rdf:RDF>
 </metadata>
 <defs>
  <style type="text/css">*{stroke-linecap:butt;stroke-linejoin:round;}</style>
 </defs>
 <g id="figure_1">
  <g id="patch_1">
   <path d="M 0 310.181019 
L 406.73875 310.181019 
L 406.73875 0 
L 0 0 
z
" style="fill:#ffffff;"/>
  </g>
  <g id="axes_1">
   <g id="patch_2">
    <path d="M 42.41875 274.637269 
L 399.53875 274.637269 
L 399.53875 8.525269 
L 42.41875 8.525269 
z
" style="fill:#ffffff;"/>
   </g>
   <g id="matplotlib.axis_1">
    <g id="xtick_1">
     <g id="line2d_1">
      <path clip-path="url(#p2b102dbb8d)" d="M 58.651477 274.637269 
L 58.651477 8.525269 
" style="fill:none;stroke:#b0b0b0;stroke-dasharray:2.96,1.28;stroke-dashoffset:0;stroke-width:0.8;"/>
     </g>
     <g id="line2d_2">
      <defs>
       <path d="M 0 0 
L 0 3.5 
" id="m1f57848c5a" style="stroke:#000000;stroke-width:0.8;"/>
      </defs>
      <g>
       <use style="stroke:#000000;stroke-width:0.8;" x="58.651477" xlink:href="#m1f57848c5a" y="274.637269"/>
      </g>
     </g>
     <g id="text_1">
      <!-- 1 -->
      <g transform="translate(56.151477 288.512269)scale(0.1 -0.1)">
       <defs>
        <path d="M 21.875 56.25 
Q 16.796875 51.171875 8.984375 46.484375 
L 8.984375 53.90625 
Q 18.75 60.546875 25 69.53125 
L 29.6875 69.53125 
L 29.6875 2.34375 
L 21.875 2.34375 
z
" id="SimHei-49"/>
       </defs>
       <use xlink:href="#SimHei-49"/>
      </g>
     </g>
    </g>
    <g id="xtick_2">
     <g id="line2d_3">
      <path clip-path="url(#p2b102dbb8d)" d="M 75.738559 274.637269 
L 75.738559 8.525269 
" style="fill:none;stroke:#b0b0b0;stroke-dasharray:2.96,1.28;stroke-dashoffset:0;stroke-width:0.8;"/>
     </g>
     <g id="line2d_4">
      <g>
       <use style="stroke:#000000;stroke-width:0.8;" x="75.738559" xlink:href="#m1f57848c5a" y="274.637269"/>
      </g>
     </g>
     <g id="text_2">
      <!-- 2 -->
      <g transform="translate(73.238559 288.512269)scale(0.1 -0.1)">
       <defs>
        <path d="M 4.6875 3.90625 
Q 5.078125 9.765625 10.15625 14.453125 
Q 15.234375 19.140625 23.046875 29.09375 
Q 30.859375 39.0625 33.203125 44.53125 
Q 35.546875 50 34.953125 53.90625 
Q 34.375 57.8125 31.25 60.34375 
Q 28.125 62.890625 24.015625 62.5 
Q 19.921875 62.109375 16.203125 59.375 
Q 12.5 56.640625 10.546875 51.171875 
L 3.125 52.34375 
Q 6.25 61.328125 11.125 65.421875 
Q 16.015625 69.53125 22.65625 69.921875 
Q 26.5625 70.3125 29.6875 69.71875 
Q 32.8125 69.140625 36.125 66.984375 
Q 39.453125 64.84375 41.59375 60.546875 
Q 43.75 56.25 43.15625 50.1875 
Q 42.578125 44.140625 37.109375 35.734375 
Q 31.640625 27.34375 16.015625 9.375 
L 44.140625 9.375 
L 44.140625 2.34375 
L 4.6875 2.34375 
z
" id="SimHei-50"/>
       </defs>
       <use xlink:href="#SimHei-50"/>
      </g>
     </g>
    </g>
    <g id="xtick_3">
     <g id="line2d_5">
      <path clip-path="url(#p2b102dbb8d)" d="M 92.82564 274.637269 
L 92.82564 8.525269 
" style="fill:none;stroke:#b0b0b0;stroke-dasharray:2.96,1.28;stroke-dashoffset:0;stroke-width:0.8;"/>
     </g>
     <g id="line2d_6">
      <g>
       <use style="stroke:#000000;stroke-width:0.8;" x="92.82564" xlink:href="#m1f57848c5a" y="274.637269"/>
      </g>
     </g>
     <g id="text_3">
      <!-- 3 -->
      <g transform="translate(90.32564 288.512269)scale(0.1 -0.1)">
       <defs>
        <path d="M 3.90625 19.140625 
L 10.9375 20.3125 
Q 12.5 15.234375 16.015625 11.90625 
Q 19.53125 8.59375 24.796875 8.78125 
Q 30.078125 8.984375 33.203125 13.078125 
Q 36.328125 17.1875 35.9375 22.453125 
Q 35.546875 27.734375 31.828125 30.65625 
Q 28.125 33.59375 19.921875 34.765625 
L 19.921875 39.84375 
Q 28.125 40.625 31.828125 44.140625 
Q 35.546875 47.65625 35.15625 53.3125 
Q 34.765625 58.984375 30.078125 61.515625 
Q 25.390625 64.0625 20.109375 62.109375 
Q 14.84375 60.15625 11.71875 51.171875 
L 4.6875 52.34375 
Q 7.03125 59.375 11.125 64.0625 
Q 15.234375 68.75 22.265625 69.53125 
Q 29.296875 70.3125 34.5625 67.765625 
Q 39.84375 65.234375 41.984375 59.953125 
Q 44.140625 54.6875 42.578125 48.4375 
Q 41.015625 42.1875 33.59375 37.5 
Q 39.0625 35.15625 41.984375 30.46875 
Q 44.921875 25.78125 43.9375 18.15625 
Q 42.96875 10.546875 37.109375 5.859375 
Q 31.25 1.171875 23.828125 1.359375 
Q 16.40625 1.5625 10.9375 6.046875 
Q 5.46875 10.546875 3.90625 19.140625 
z
" id="SimHei-51"/>
       </defs>
       <use xlink:href="#SimHei-51"/>
      </g>
     </g>
    </g>
    <g id="xtick_4">
     <g id="line2d_7">
      <path clip-path="url(#p2b102dbb8d)" d="M 109.912721 274.637269 
L 109.912721 8.525269 
" style="fill:none;stroke:#b0b0b0;stroke-dasharray:2.96,1.28;stroke-dashoffset:0;stroke-width:0.8;"/>
     </g>
     <g id="line2d_8">
      <g>
       <use style="stroke:#000000;stroke-width:0.8;" x="109.912721" xlink:href="#m1f57848c5a" y="274.637269"/>
      </g>
     </g>
     <g id="text_4">
      <!-- 4 -->
      <g transform="translate(107.412721 288.512269)scale(0.1 -0.1)">
       <defs>
        <path d="M 31.25 17.1875 
L 1.171875 17.1875 
L 1.171875 23.828125 
L 32.8125 69.53125 
L 38.671875 69.53125 
L 38.671875 23.828125 
L 48.046875 23.828125 
L 48.046875 17.1875 
L 38.671875 17.1875 
L 38.671875 2.34375 
L 31.25 2.34375 
z
M 31.25 23.828125 
L 31.25 54.6875 
L 9.375 23.828125 
z
" id="SimHei-52"/>
       </defs>
       <use xlink:href="#SimHei-52"/>
      </g>
     </g>
    </g>
    <g id="xtick_5">
     <g id="line2d_9">
      <path clip-path="url(#p2b102dbb8d)" d="M 126.999803 274.637269 
L 126.999803 8.525269 
" style="fill:none;stroke:#b0b0b0;stroke-dasharray:2.96,1.28;stroke-dashoffset:0;stroke-width:0.8;"/>
     </g>
     <g id="line2d_10">
      <g>
       <use style="stroke:#000000;stroke-width:0.8;" x="126.999803" xlink:href="#m1f57848c5a" y="274.637269"/>
      </g>
     </g>
     <g id="text_5">
      <!-- 5 -->
      <g transform="translate(124.499803 288.512269)scale(0.1 -0.1)">
       <defs>
        <path d="M 8.59375 20.703125 
Q 11.328125 10.15625 17.96875 8.984375 
Q 24.609375 7.8125 28.703125 10.34375 
Q 32.8125 12.890625 34.5625 16.984375 
Q 36.328125 21.09375 36.125 26.171875 
Q 35.9375 31.25 33.390625 34.765625 
Q 30.859375 38.28125 26.953125 39.453125 
Q 23.046875 40.625 18.15625 39.453125 
Q 13.28125 38.28125 10.15625 33.984375 
L 3.515625 34.765625 
Q 4.296875 37.109375 10.9375 68.359375 
L 41.796875 68.359375 
L 41.796875 61.328125 
L 16.796875 61.328125 
Q 14.84375 50.78125 12.890625 44.53125 
Q 18.75 47.265625 23.828125 47.0625 
Q 28.90625 46.875 33.59375 44.71875 
Q 38.28125 42.578125 40.421875 38.859375 
Q 42.578125 35.15625 43.546875 31.4375 
Q 44.53125 27.734375 44.328125 23.4375 
Q 44.140625 19.140625 42.578125 14.640625 
Q 41.015625 10.15625 37.890625 7.21875 
Q 34.765625 4.296875 30.265625 2.53125 
Q 25.78125 0.78125 19.921875 1.171875 
Q 14.0625 1.5625 8.78125 5.46875 
Q 3.515625 9.375 1.5625 18.75 
z
" id="SimHei-53"/>
       </defs>
       <use xlink:href="#SimHei-53"/>
      </g>
     </g>
    </g>
    <g id="xtick_6">
     <g id="line2d_11">
      <path clip-path="url(#p2b102dbb8d)" d="M 144.086884 274.637269 
L 144.086884 8.525269 
" style="fill:none;stroke:#b0b0b0;stroke-dasharray:2.96,1.28;stroke-dashoffset:0;stroke-width:0.8;"/>
     </g>
     <g id="line2d_12">
      <g>
       <use style="stroke:#000000;stroke-width:0.8;" x="144.086884" xlink:href="#m1f57848c5a" y="274.637269"/>
      </g>
     </g>
     <g id="text_6">
      <!-- 6 -->
      <g transform="translate(141.586884 288.512269)scale(0.1 -0.1)">
       <defs>
        <path d="M 3.515625 19.53125 
Q 4.296875 30.859375 6.046875 34.765625 
Q 7.8125 38.671875 11.328125 44.53125 
L 27.34375 69.53125 
L 36.328125 69.53125 
L 19.921875 43.75 
Q 30.46875 46.484375 36.71875 42.96875 
Q 42.96875 39.453125 45.109375 34.953125 
Q 47.265625 30.46875 47.453125 25.1875 
Q 47.65625 19.921875 45.890625 14.84375 
Q 44.140625 9.765625 39.640625 5.65625 
Q 35.15625 1.5625 27.140625 1.171875 
Q 19.140625 0.78125 13.46875 4.09375 
Q 7.8125 7.421875 5.65625 13.46875 
Q 3.515625 19.53125 4.296875 30.859375 
z
M 12.5 16.015625 
Q 19.53125 8.59375 25.390625 8.203125 
Q 31.25 7.8125 35.15625 12.109375 
Q 39.0625 16.40625 39.0625 24.609375 
Q 39.0625 32.8125 34.171875 35.9375 
Q 29.296875 39.0625 23.234375 38.28125 
Q 17.1875 37.5 14.453125 32.421875 
Q 11.71875 27.34375 12.109375 21.671875 
Q 12.5 16.015625 19.53125 8.59375 
z
" id="SimHei-54"/>
       </defs>
       <use xlink:href="#SimHei-54"/>
      </g>
     </g>
    </g>
    <g id="xtick_7">
     <g id="line2d_13">
      <path clip-path="url(#p2b102dbb8d)" d="M 161.173965 274.637269 
L 161.173965 8.525269 
" style="fill:none;stroke:#b0b0b0;stroke-dasharray:2.96,1.28;stroke-dashoffset:0;stroke-width:0.8;"/>
     </g>
     <g id="line2d_14">
      <g>
       <use style="stroke:#000000;stroke-width:0.8;" x="161.173965" xlink:href="#m1f57848c5a" y="274.637269"/>
      </g>
     </g>
     <g id="text_7">
      <!-- 7 -->
      <g transform="translate(158.673965 288.512269)scale(0.1 -0.1)">
       <defs>
        <path d="M 13.28125 2.34375 
Q 20.3125 32.03125 37.890625 61.328125 
L 4.296875 61.328125 
L 4.296875 68.359375 
L 46.09375 68.359375 
L 46.09375 61.71875 
Q 27.734375 32.03125 21.875 2.34375 
L 13.28125 2.34375 
z
" id="SimHei-55"/>
       </defs>
       <use xlink:href="#SimHei-55"/>
      </g>
     </g>
    </g>
    <g id="xtick_8">
     <g id="line2d_15">
      <path clip-path="url(#p2b102dbb8d)" d="M 178.261047 274.637269 
L 178.261047 8.525269 
" style="fill:none;stroke:#b0b0b0;stroke-dasharray:2.96,1.28;stroke-dashoffset:0;stroke-width:0.8;"/>
     </g>
     <g id="line2d_16">
      <g>
       <use style="stroke:#000000;stroke-width:0.8;" x="178.261047" xlink:href="#m1f57848c5a" y="274.637269"/>
      </g>
     </g>
     <g id="text_8">
      <!-- 8 -->
      <g transform="translate(175.761047 288.512269)scale(0.1 -0.1)">
       <defs>
        <path d="M 2.734375 16.796875 
Q 2.734375 26.171875 5.078125 30.65625 
Q 7.421875 35.15625 12.890625 37.890625 
Q 8.203125 40.625 6.640625 43.9375 
Q 5.078125 47.265625 4.875 51.5625 
Q 4.6875 55.859375 6.046875 58.984375 
Q 7.421875 62.109375 10.15625 64.84375 
Q 12.890625 67.578125 16.203125 68.546875 
Q 19.53125 69.53125 23.4375 69.53125 
Q 27.34375 69.53125 30.46875 68.75 
Q 33.59375 67.96875 37.109375 65.421875 
Q 40.625 62.890625 42.1875 58.203125 
Q 43.75 53.515625 41.984375 47.265625 
Q 40.234375 41.015625 32.8125 37.5 
Q 39.453125 35.546875 42.1875 31.4375 
Q 44.921875 27.34375 44.921875 21.484375 
Q 44.921875 15.625 43.15625 12.109375 
Q 41.40625 8.59375 39.25 6.25 
Q 37.109375 3.90625 33.390625 2.53125 
Q 29.6875 1.171875 24.015625 1.171875 
Q 18.359375 1.171875 14.25 2.53125 
Q 10.15625 3.90625 7.421875 6.640625 
Q 4.6875 9.375 3.703125 13.078125 
Q 2.734375 16.796875 2.734375 26.171875 
z
M 10.9375 26.5625 
Q 10.546875 17.1875 12.296875 13.671875 
Q 14.0625 10.15625 18.75 9.171875 
Q 23.4375 8.203125 28.515625 9.375 
Q 33.59375 10.546875 35.546875 14.84375 
Q 37.5 19.140625 36.90625 23.4375 
Q 36.328125 27.734375 32.03125 30.65625 
Q 27.734375 33.59375 22.65625 33.203125 
Q 17.578125 32.8125 14.25 29.6875 
Q 10.9375 26.5625 10.546875 17.1875 
z
M 12.109375 56.25 
Q 12.109375 48.4375 14.84375 44.921875 
Q 17.578125 41.40625 23.4375 41.40625 
Q 29.296875 41.40625 32.21875 44.921875 
Q 35.15625 48.4375 34.953125 53.3125 
Q 34.765625 58.203125 31.4375 60.546875 
Q 28.125 62.890625 22.453125 62.5 
Q 16.796875 62.109375 14.453125 59.171875 
Q 12.109375 56.25 12.109375 48.4375 
z
" id="SimHei-56"/>
       </defs>
       <use xlink:href="#SimHei-56"/>
      </g>
     </g>
    </g>
    <g id="xtick_9">
     <g id="line2d_17">
      <path clip-path="url(#p2b102dbb8d)" d="M 195.348128 274.637269 
L 195.348128 8.525269 
" style="fill:none;stroke:#b0b0b0;stroke-dasharray:2.96,1.28;stroke-dashoffset:0;stroke-width:0.8;"/>
     </g>
     <g id="line2d_18">
      <g>
       <use style="stroke:#000000;stroke-width:0.8;" x="195.348128" xlink:href="#m1f57848c5a" y="274.637269"/>
      </g>
     </g>
     <g id="text_9">
      <!-- 9 -->
      <g transform="translate(192.848128 288.512269)scale(0.1 -0.1)">
       <defs>
        <path d="M 12.5 1.171875 
Q 21.09375 15.625 26.5625 27.34375 
Q 16.796875 25.78125 10.34375 29.875 
Q 3.90625 33.984375 2.53125 41.015625 
Q 1.171875 48.046875 2.734375 53.703125 
Q 4.296875 59.375 7.609375 63.078125 
Q 10.9375 66.796875 15.625 68.359375 
Q 20.3125 69.921875 24.015625 69.921875 
Q 27.734375 69.921875 31.640625 68.359375 
Q 35.546875 66.796875 38.671875 63.671875 
Q 41.796875 60.546875 42.96875 57.21875 
Q 44.140625 53.90625 44.140625 48.625 
Q 44.140625 43.359375 40.234375 35.15625 
Q 36.328125 26.953125 21.09375 1.171875 
z
M 9.765625 50 
Q 10.9375 39.84375 14.640625 36.515625 
Q 18.359375 33.203125 22.65625 33.59375 
Q 26.953125 33.984375 29.484375 35.9375 
Q 32.03125 37.890625 34.375 42.578125 
Q 35.9375 48.4375 35.15625 52.53125 
Q 34.375 56.640625 31.046875 59.375 
Q 27.734375 62.109375 23.828125 62.109375 
Q 21.484375 62.5 17.765625 60.9375 
Q 14.0625 59.375 11.90625 54.6875 
Q 9.765625 50 10.9375 39.84375 
z
" id="SimHei-57"/>
       </defs>
       <use xlink:href="#SimHei-57"/>
      </g>
     </g>
    </g>
    <g id="xtick_10">
     <g id="line2d_19">
      <path clip-path="url(#p2b102dbb8d)" d="M 212.435209 274.637269 
L 212.435209 8.525269 
" style="fill:none;stroke:#b0b0b0;stroke-dasharray:2.96,1.28;stroke-dashoffset:0;stroke-width:0.8;"/>
     </g>
     <g id="line2d_20">
      <g>
       <use style="stroke:#000000;stroke-width:0.8;" x="212.435209" xlink:href="#m1f57848c5a" y="274.637269"/>
      </g>
     </g>
     <g id="text_10">
      <!-- 10 -->
      <g transform="translate(207.435209 288.512269)scale(0.1 -0.1)">
       <defs>
        <path d="M 3.125 29.296875 
Q 3.90625 50 6.4375 56.046875 
Q 8.984375 62.109375 13.671875 66.015625 
Q 18.359375 69.921875 25.1875 69.921875 
Q 32.03125 69.921875 37.109375 64.25 
Q 42.1875 58.59375 43.75 50 
Q 45.3125 41.40625 44.71875 30.265625 
Q 44.140625 19.140625 40.8125 12.109375 
Q 37.5 5.078125 30.859375 2.34375 
Q 24.21875 -0.390625 17.578125 2.921875 
Q 10.9375 6.25 8.203125 11.71875 
Q 5.46875 17.1875 4.296875 23.234375 
Q 3.125 29.296875 3.90625 50 
z
M 12.890625 52.734375 
Q 10.546875 31.25 12.5 22.84375 
Q 14.453125 14.453125 18.9375 10.9375 
Q 23.4375 7.421875 28.125 9.5625 
Q 32.8125 11.71875 34.953125 18.15625 
Q 37.109375 24.609375 37.109375 32.21875 
Q 37.109375 39.84375 36.515625 46.09375 
Q 35.9375 52.34375 33 57.421875 
Q 30.078125 62.5 25.1875 62.6875 
Q 20.3125 62.890625 16.59375 57.8125 
Q 12.890625 52.734375 10.546875 31.25 
z
" id="SimHei-48"/>
       </defs>
       <use xlink:href="#SimHei-49"/>
       <use x="50" xlink:href="#SimHei-48"/>
      </g>
     </g>
    </g>
    <g id="xtick_11">
     <g id="line2d_21">
      <path clip-path="url(#p2b102dbb8d)" d="M 229.522291 274.637269 
L 229.522291 8.525269 
" style="fill:none;stroke:#b0b0b0;stroke-dasharray:2.96,1.28;stroke-dashoffset:0;stroke-width:0.8;"/>
     </g>
     <g id="line2d_22">
      <g>
       <use style="stroke:#000000;stroke-width:0.8;" x="229.522291" xlink:href="#m1f57848c5a" y="274.637269"/>
      </g>
     </g>
     <g id="text_11">
      <!-- 11 -->
      <g transform="translate(224.522291 288.512269)scale(0.1 -0.1)">
       <use xlink:href="#SimHei-49"/>
       <use x="50" xlink:href="#SimHei-49"/>
      </g>
     </g>
    </g>
    <g id="xtick_12">
     <g id="line2d_23">
      <path clip-path="url(#p2b102dbb8d)" d="M 246.609372 274.637269 
L 246.609372 8.525269 
" style="fill:none;stroke:#b0b0b0;stroke-dasharray:2.96,1.28;stroke-dashoffset:0;stroke-width:0.8;"/>
     </g>
     <g id="line2d_24">
      <g>
       <use style="stroke:#000000;stroke-width:0.8;" x="246.609372" xlink:href="#m1f57848c5a" y="274.637269"/>
      </g>
     </g>
     <g id="text_12">
      <!-- 12 -->
      <g transform="translate(241.609372 288.512269)scale(0.1 -0.1)">
       <use xlink:href="#SimHei-49"/>
       <use x="50" xlink:href="#SimHei-50"/>
      </g>
     </g>
    </g>
    <g id="xtick_13">
     <g id="line2d_25">
      <path clip-path="url(#p2b102dbb8d)" d="M 263.696453 274.637269 
L 263.696453 8.525269 
" style="fill:none;stroke:#b0b0b0;stroke-dasharray:2.96,1.28;stroke-dashoffset:0;stroke-width:0.8;"/>
     </g>
     <g id="line2d_26">
      <g>
       <use style="stroke:#000000;stroke-width:0.8;" x="263.696453" xlink:href="#m1f57848c5a" y="274.637269"/>
      </g>
     </g>
     <g id="text_13">
      <!-- 13 -->
      <g transform="translate(258.696453 288.512269)scale(0.1 -0.1)">
       <use xlink:href="#SimHei-49"/>
       <use x="50" xlink:href="#SimHei-51"/>
      </g>
     </g>
    </g>
    <g id="xtick_14">
     <g id="line2d_27">
      <path clip-path="url(#p2b102dbb8d)" d="M 280.783535 274.637269 
L 280.783535 8.525269 
" style="fill:none;stroke:#b0b0b0;stroke-dasharray:2.96,1.28;stroke-dashoffset:0;stroke-width:0.8;"/>
     </g>
     <g id="line2d_28">
      <g>
       <use style="stroke:#000000;stroke-width:0.8;" x="280.783535" xlink:href="#m1f57848c5a" y="274.637269"/>
      </g>
     </g>
     <g id="text_14">
      <!-- 14 -->
      <g transform="translate(275.783535 288.512269)scale(0.1 -0.1)">
       <use xlink:href="#SimHei-49"/>
       <use x="50" xlink:href="#SimHei-52"/>
      </g>
     </g>
    </g>
    <g id="xtick_15">
     <g id="line2d_29">
      <path clip-path="url(#p2b102dbb8d)" d="M 297.870616 274.637269 
L 297.870616 8.525269 
" style="fill:none;stroke:#b0b0b0;stroke-dasharray:2.96,1.28;stroke-dashoffset:0;stroke-width:0.8;"/>
     </g>
     <g id="line2d_30">
      <g>
       <use style="stroke:#000000;stroke-width:0.8;" x="297.870616" xlink:href="#m1f57848c5a" y="274.637269"/>
      </g>
     </g>
     <g id="text_15">
      <!-- 15 -->
      <g transform="translate(292.870616 288.512269)scale(0.1 -0.1)">
       <use xlink:href="#SimHei-49"/>
       <use x="50" xlink:href="#SimHei-53"/>
      </g>
     </g>
    </g>
    <g id="xtick_16">
     <g id="line2d_31">
      <path clip-path="url(#p2b102dbb8d)" d="M 314.957697 274.637269 
L 314.957697 8.525269 
" style="fill:none;stroke:#b0b0b0;stroke-dasharray:2.96,1.28;stroke-dashoffset:0;stroke-width:0.8;"/>
     </g>
     <g id="line2d_32">
      <g>
       <use style="stroke:#000000;stroke-width:0.8;" x="314.957697" xlink:href="#m1f57848c5a" y="274.637269"/>
      </g>
     </g>
     <g id="text_16">
      <!-- 16 -->
      <g transform="translate(309.957697 288.512269)scale(0.1 -0.1)">
       <use xlink:href="#SimHei-49"/>
       <use x="50" xlink:href="#SimHei-54"/>
      </g>
     </g>
    </g>
    <g id="xtick_17">
     <g id="line2d_33">
      <path clip-path="url(#p2b102dbb8d)" d="M 332.044779 274.637269 
L 332.044779 8.525269 
" style="fill:none;stroke:#b0b0b0;stroke-dasharray:2.96,1.28;stroke-dashoffset:0;stroke-width:0.8;"/>
     </g>
     <g id="line2d_34">
      <g>
       <use style="stroke:#000000;stroke-width:0.8;" x="332.044779" xlink:href="#m1f57848c5a" y="274.637269"/>
      </g>
     </g>
     <g id="text_17">
      <!-- 17 -->
      <g transform="translate(327.044779 288.512269)scale(0.1 -0.1)">
       <use xlink:href="#SimHei-49"/>
       <use x="50" xlink:href="#SimHei-55"/>
      </g>
     </g>
    </g>
    <g id="xtick_18">
     <g id="line2d_35">
      <path clip-path="url(#p2b102dbb8d)" d="M 349.13186 274.637269 
L 349.13186 8.525269 
" style="fill:none;stroke:#b0b0b0;stroke-dasharray:2.96,1.28;stroke-dashoffset:0;stroke-width:0.8;"/>
     </g>
     <g id="line2d_36">
      <g>
       <use style="stroke:#000000;stroke-width:0.8;" x="349.13186" xlink:href="#m1f57848c5a" y="274.637269"/>
      </g>
     </g>
     <g id="text_18">
      <!-- 18 -->
      <g transform="translate(344.13186 288.512269)scale(0.1 -0.1)">
       <use xlink:href="#SimHei-49"/>
       <use x="50" xlink:href="#SimHei-56"/>
      </g>
     </g>
    </g>
    <g id="xtick_19">
     <g id="line2d_37">
      <path clip-path="url(#p2b102dbb8d)" d="M 366.218941 274.637269 
L 366.218941 8.525269 
" style="fill:none;stroke:#b0b0b0;stroke-dasharray:2.96,1.28;stroke-dashoffset:0;stroke-width:0.8;"/>
     </g>
     <g id="line2d_38">
      <g>
       <use style="stroke:#000000;stroke-width:0.8;" x="366.218941" xlink:href="#m1f57848c5a" y="274.637269"/>
      </g>
     </g>
     <g id="text_19">
      <!-- 19 -->
      <g transform="translate(361.218941 288.512269)scale(0.1 -0.1)">
       <use xlink:href="#SimHei-49"/>
       <use x="50" xlink:href="#SimHei-57"/>
      </g>
     </g>
    </g>
    <g id="xtick_20">
     <g id="line2d_39">
      <path clip-path="url(#p2b102dbb8d)" d="M 383.306023 274.637269 
L 383.306023 8.525269 
" style="fill:none;stroke:#b0b0b0;stroke-dasharray:2.96,1.28;stroke-dashoffset:0;stroke-width:0.8;"/>
     </g>
     <g id="line2d_40">
      <g>
       <use style="stroke:#000000;stroke-width:0.8;" x="383.306023" xlink:href="#m1f57848c5a" y="274.637269"/>
      </g>
     </g>
     <g id="text_20">
      <!-- 20 -->
      <g transform="translate(378.306023 288.512269)scale(0.1 -0.1)">
       <use xlink:href="#SimHei-50"/>
       <use x="50" xlink:href="#SimHei-48"/>
      </g>
     </g>
    </g>
    <g id="text_21">
     <!-- 迭代次数 -->
     <g transform="translate(200.97875 301.731019)scale(0.1 -0.1)">
      <defs>
       <path d="M 60.9375 29.296875 
Q 56.25 21.09375 51.359375 15.8125 
Q 46.484375 10.546875 38.28125 4.296875 
Q 36.71875 7.421875 31.640625 10.9375 
Q 40.625 15.234375 47.0625 22.265625 
Q 53.515625 29.296875 56.25 38.28125 
Q 36.71875 38.28125 30.46875 37.890625 
L 30.46875 45.3125 
Q 37.109375 44.921875 57.421875 44.921875 
Q 58.203125 50.78125 58.59375 58.984375 
L 43.75 58.984375 
Q 41.796875 53.90625 39.84375 49.609375 
Q 35.9375 51.5625 32.421875 52.34375 
Q 35.546875 57.421875 37.890625 64.25 
Q 40.234375 71.09375 42.1875 79.6875 
Q 44.53125 78.125 50.390625 76.953125 
Q 48.046875 73.828125 46.09375 65.625 
L 58.59375 65.625 
Q 58.59375 75.78125 57.8125 82.03125 
L 66.796875 81.640625 
Q 66.015625 76.953125 65.625 65.625 
L 77.34375 65.625 
Q 80.859375 65.625 87.109375 66.015625 
L 87.109375 58.203125 
Q 80.859375 58.984375 76.171875 58.984375 
L 65.625 58.984375 
Q 65.234375 50.78125 64.453125 44.921875 
L 80.46875 44.921875 
Q 85.546875 44.921875 92.578125 45.3125 
L 92.578125 37.890625 
Q 85.546875 38.28125 79.296875 38.28125 
L 64.0625 38.28125 
L 63.28125 35.9375 
Q 72.65625 27.734375 89.453125 10.9375 
Q 87.5 10.15625 82.421875 4.6875 
Q 74.609375 15.234375 60.9375 29.296875 
z
M 24.21875 46.09375 
L 24.21875 9.765625 
Q 34.375 -0.390625 58 -0.1875 
Q 81.640625 0 95.703125 1.5625 
Q 92.96875 -3.515625 92.1875 -7.421875 
L 55.859375 -7.421875 
Q 46.484375 -7.421875 39.453125 -6.046875 
Q 32.421875 -4.6875 26.953125 -0.78125 
Q 21.484375 3.125 18.15625 0.1875 
Q 14.84375 -2.734375 10.15625 -8.59375 
Q 7.8125 -5.46875 3.90625 -2.734375 
Q 12.109375 4.296875 16.796875 8.984375 
L 16.796875 39.453125 
Q 11.71875 39.453125 5.46875 39.0625 
L 5.46875 46.484375 
Q 12.109375 46.09375 16.796875 46.09375 
z
M 17.578125 78.515625 
Q 23.828125 66.796875 26.171875 60.9375 
Q 22.65625 60.546875 18.359375 57.03125 
Q 14.84375 66.796875 10.15625 74.21875 
Q 14.0625 75.78125 17.578125 78.515625 
z
" id="SimHei-36845"/>
       <path d="M 51.5625 46.09375 
Q 49.609375 71.484375 49.21875 79.6875 
Q 51.5625 79.296875 58.203125 78.515625 
Q 57.421875 73.828125 59.375 47.65625 
Q 78.125 51.171875 88.28125 54.296875 
L 90.234375 46.875 
Q 85.9375 46.484375 60.15625 41.015625 
Q 64.84375 16.40625 74.015625 7.03125 
Q 83.203125 -2.34375 84.5625 1.953125 
Q 85.9375 6.25 86.328125 11.328125 
Q 90.625 8.59375 94.921875 7.8125 
Q 92.1875 -3.125 89.640625 -6.640625 
Q 87.109375 -10.15625 80.265625 -7.8125 
Q 73.4375 -5.46875 65.421875 4.6875 
Q 57.421875 14.84375 52.34375 39.453125 
Q 37.5 36.328125 33.984375 35.15625 
L 31.640625 42.578125 
Q 37.890625 43.359375 51.5625 46.09375 
z
M 35.15625 77.734375 
Q 32.8125 73.828125 26.5625 57.03125 
L 26.5625 7.421875 
Q 26.5625 -0.78125 26.953125 -9.375 
L 18.75 -9.375 
Q 19.140625 -0.78125 19.140625 7.421875 
L 19.140625 42.96875 
Q 13.28125 33.59375 9.375 28.90625 
Q 7.03125 32.03125 3.515625 34.765625 
Q 9.765625 40.625 16.40625 53.515625 
Q 23.046875 66.40625 26.171875 81.25 
Q 32.03125 78.515625 35.15625 77.734375 
z
M 73.4375 76.171875 
Q 80.46875 67.578125 83.203125 63.28125 
Q 79.6875 60.9375 76.171875 58.203125 
Q 72.65625 64.84375 67.1875 71.484375 
Q 70.3125 73.4375 73.4375 76.171875 
z
" id="SimHei-20195"/>
       <path d="M 64.84375 47.265625 
Q 62.5 39.84375 63.28125 34.171875 
Q 64.0625 28.515625 66.796875 22.65625 
Q 69.53125 16.796875 75 11.71875 
Q 80.46875 6.640625 85.546875 3.3125 
Q 90.625 0 96.09375 -2.34375 
Q 91.796875 -5.46875 89.84375 -9.765625 
Q 82.03125 -5.078125 76.359375 -0.390625 
Q 70.703125 4.296875 66.796875 9.5625 
Q 62.890625 14.84375 59.765625 22.265625 
Q 55.078125 9.765625 46.09375 1.953125 
Q 37.109375 -5.859375 28.90625 -10.15625 
Q 26.171875 -6.25 23.046875 -3.515625 
Q 31.640625 0 38.859375 5.65625 
Q 46.09375 11.328125 49.40625 17.1875 
Q 52.734375 23.046875 53.90625 28.515625 
Q 55.078125 33.984375 55.265625 37.5 
Q 55.46875 41.015625 55.078125 48.828125 
Q 59.765625 47.65625 64.84375 47.265625 
z
M 57.8125 77.734375 
Q 56.640625 76.5625 54.296875 71.484375 
Q 51.953125 66.40625 50.78125 63.671875 
L 90.234375 63.671875 
Q 88.28125 58.203125 86.71875 52.53125 
Q 85.15625 46.875 82.421875 39.0625 
Q 78.125 40.234375 74.609375 40.625 
Q 78.515625 52.34375 79.6875 57.03125 
L 48.4375 57.03125 
Q 46.484375 53.125 43.9375 48.4375 
Q 41.40625 43.75 37.890625 38.28125 
Q 35.546875 40.625 30.859375 42.1875 
Q 35.9375 47.65625 41.015625 58.78125 
Q 46.09375 69.921875 48.828125 81.25 
Q 53.90625 78.515625 57.8125 77.734375 
z
M 31.640625 31.25 
Q 28.515625 26.171875 23.046875 16.984375 
Q 17.578125 7.8125 11.328125 -3.125 
Q 7.8125 -0.390625 3.90625 2.734375 
Q 11.328125 11.328125 16.203125 19.71875 
Q 21.09375 28.125 24.609375 36.328125 
Q 27.34375 33.984375 31.640625 31.25 
z
M 14.0625 74.21875 
Q 26.953125 58.203125 30.46875 52.734375 
Q 27.34375 50.78125 23.4375 47.65625 
Q 19.53125 55.078125 7.8125 69.140625 
Q 10.9375 71.484375 14.0625 74.21875 
z
" id="SimHei-27425"/>
       <path d="M 70.703125 76.953125 
Q 69.921875 75 68.75 71.671875 
Q 67.578125 68.359375 65.234375 59.765625 
L 83.203125 59.765625 
Q 87.109375 59.765625 92.578125 60.15625 
L 92.578125 53.125 
Q 88.28125 53.515625 85.9375 53.515625 
Q 85.9375 47.265625 83.78125 33.78125 
Q 81.640625 20.3125 76.171875 10.546875 
Q 80.078125 5.859375 84.953125 2.140625 
Q 89.84375 -1.5625 94.140625 -3.125 
Q 89.453125 -6.640625 87.890625 -9.765625 
Q 83.203125 -7.03125 79.296875 -3.515625 
Q 75.390625 0 71.484375 5.078125 
Q 67.1875 0.390625 62.296875 -2.921875 
Q 57.421875 -6.25 50 -10.15625 
Q 48.046875 -6.640625 44.53125 -4.6875 
Q 50.390625 -2.34375 57.03125 1.953125 
Q 63.671875 6.25 67.1875 10.546875 
Q 64.453125 16.015625 61.90625 22.265625 
Q 59.375 28.515625 57.421875 38.671875 
Q 56.25 35.546875 53.515625 30.46875 
Q 50.78125 32.03125 46.875 33.59375 
Q 53.125 44.53125 57.03125 57.421875 
Q 60.9375 70.3125 62.109375 79.6875 
Q 66.796875 77.734375 70.703125 76.953125 
z
M 32.8125 35.15625 
Q 31.25 33.59375 29.296875 30.078125 
L 50.78125 30.078125 
Q 48.4375 20.3125 42.578125 10.546875 
Q 48.828125 8.203125 52.34375 6.25 
Q 50.390625 3.515625 48.828125 0.390625 
Q 45.3125 2.734375 38.28125 5.078125 
Q 30.46875 -3.515625 11.328125 -10.15625 
Q 9.375 -5.859375 6.25 -4.296875 
Q 24.609375 0 31.25 7.421875 
Q 20.3125 10.15625 13.28125 12.109375 
Q 15.625 15.625 19.53125 23.828125 
Q 15.625 23.828125 6.640625 23.4375 
L 6.640625 30.46875 
Q 14.0625 30.078125 21.875 30.078125 
Q 23.4375 33.59375 24.21875 37.890625 
Q 28.515625 36.328125 32.8125 35.15625 
z
M 27.734375 61.71875 
Q 27.734375 71.09375 27.34375 79.6875 
L 35.15625 79.6875 
Q 34.765625 71.484375 34.765625 61.71875 
Q 48.046875 61.71875 53.515625 62.109375 
L 53.515625 55.078125 
Q 48.046875 55.46875 34.765625 55.46875 
Q 34.765625 44.140625 35.15625 37.890625 
L 27.34375 37.890625 
Q 27.734375 43.359375 27.734375 51.5625 
Q 25.78125 48.4375 20.3125 43.546875 
Q 14.84375 38.671875 10.15625 35.9375 
Q 8.203125 39.453125 4.296875 41.015625 
Q 7.8125 42.1875 13.671875 46.484375 
Q 19.53125 50.78125 22.65625 55.46875 
Q 14.84375 55.46875 7.8125 55.078125 
L 7.8125 62.109375 
Q 14.453125 61.71875 27.734375 61.71875 
z
M 62.109375 49.609375 
Q 65.625 26.5625 71.875 17.578125 
Q 75.78125 26.5625 77.140625 35.734375 
Q 78.515625 44.921875 78.90625 53.515625 
L 63.671875 53.515625 
L 62.109375 49.609375 
z
M 22.65625 15.625 
Q 27.34375 14.453125 35.546875 12.5 
Q 38.671875 16.40625 41.40625 23.828125 
L 26.953125 23.828125 
Q 25 19.921875 22.65625 15.625 
z
M 51.953125 75.390625 
Q 50 72.265625 48.828125 69.53125 
Q 47.65625 66.796875 45.703125 62.890625 
Q 42.578125 64.453125 39.453125 65.234375 
Q 42.578125 70.3125 45.3125 78.125 
Q 49.21875 76.171875 51.953125 75.390625 
z
M 40.234375 52.734375 
Q 45.3125 47.65625 50 42.578125 
Q 47.65625 40.625 44.921875 37.890625 
Q 39.453125 44.53125 35.9375 48.4375 
Q 38.28125 50.390625 40.234375 52.734375 
z
M 14.453125 78.125 
Q 19.921875 72.65625 23.4375 67.1875 
L 17.578125 63.671875 
Q 14.84375 69.140625 9.375 73.828125 
Q 12.890625 76.171875 14.453125 78.125 
z
" id="SimHei-25968"/>
      </defs>
      <use xlink:href="#SimHei-36845"/>
      <use x="100" xlink:href="#SimHei-20195"/>
      <use x="200" xlink:href="#SimHei-27425"/>
      <use x="300" xlink:href="#SimHei-25968"/>
     </g>
    </g>
   </g>
   <g id="matplotlib.axis_2">
    <g id="ytick_1">
     <g id="line2d_41">
      <path clip-path="url(#p2b102dbb8d)" d="M 42.41875 264.955855 
L 399.53875 264.955855 
" style="fill:none;stroke:#b0b0b0;stroke-dasharray:2.96,1.28;stroke-dashoffset:0;stroke-width:0.8;"/>
     </g>
     <g id="line2d_42">
      <defs>
       <path d="M 0 0 
L -3.5 0 
" id="md8b11f0022" style="stroke:#000000;stroke-width:0.8;"/>
      </defs>
      <g>
       <use style="stroke:#000000;stroke-width:0.8;" x="42.41875" xlink:href="#md8b11f0022" y="264.955855"/>
      </g>
     </g>
     <g id="text_22">
      <!-- 0.0 -->
      <g transform="translate(20.41875 268.393355)scale(0.1 -0.1)">
       <defs>
        <path d="M 16.796875 1.953125 
L 7.8125 1.953125 
L 7.8125 10.546875 
L 16.796875 10.546875 
z
" id="SimHei-46"/>
       </defs>
       <use xlink:href="#SimHei-48"/>
       <use x="50" xlink:href="#SimHei-46"/>
       <use x="100" xlink:href="#SimHei-48"/>
      </g>
     </g>
    </g>
    <g id="ytick_2">
     <g id="line2d_43">
      <path clip-path="url(#p2b102dbb8d)" d="M 42.41875 214.092184 
L 399.53875 214.092184 
" style="fill:none;stroke:#b0b0b0;stroke-dasharray:2.96,1.28;stroke-dashoffset:0;stroke-width:0.8;"/>
     </g>
     <g id="line2d_44">
      <g>
       <use style="stroke:#000000;stroke-width:0.8;" x="42.41875" xlink:href="#md8b11f0022" y="214.092184"/>
      </g>
     </g>
     <g id="text_23">
      <!-- 0.2 -->
      <g transform="translate(20.41875 217.529684)scale(0.1 -0.1)">
       <use xlink:href="#SimHei-48"/>
       <use x="50" xlink:href="#SimHei-46"/>
       <use x="100" xlink:href="#SimHei-50"/>
      </g>
     </g>
    </g>
    <g id="ytick_3">
     <g id="line2d_45">
      <path clip-path="url(#p2b102dbb8d)" d="M 42.41875 163.228513 
L 399.53875 163.228513 
" style="fill:none;stroke:#b0b0b0;stroke-dasharray:2.96,1.28;stroke-dashoffset:0;stroke-width:0.8;"/>
     </g>
     <g id="line2d_46">
      <g>
       <use style="stroke:#000000;stroke-width:0.8;" x="42.41875" xlink:href="#md8b11f0022" y="163.228513"/>
      </g>
     </g>
     <g id="text_24">
      <!-- 0.4 -->
      <g transform="translate(20.41875 166.666013)scale(0.1 -0.1)">
       <use xlink:href="#SimHei-48"/>
       <use x="50" xlink:href="#SimHei-46"/>
       <use x="100" xlink:href="#SimHei-52"/>
      </g>
     </g>
    </g>
    <g id="ytick_4">
     <g id="line2d_47">
      <path clip-path="url(#p2b102dbb8d)" d="M 42.41875 112.364842 
L 399.53875 112.364842 
" style="fill:none;stroke:#b0b0b0;stroke-dasharray:2.96,1.28;stroke-dashoffset:0;stroke-width:0.8;"/>
     </g>
     <g id="line2d_48">
      <g>
       <use style="stroke:#000000;stroke-width:0.8;" x="42.41875" xlink:href="#md8b11f0022" y="112.364842"/>
      </g>
     </g>
     <g id="text_25">
      <!-- 0.6 -->
      <g transform="translate(20.41875 115.802342)scale(0.1 -0.1)">
       <use xlink:href="#SimHei-48"/>
       <use x="50" xlink:href="#SimHei-46"/>
       <use x="100" xlink:href="#SimHei-54"/>
      </g>
     </g>
    </g>
    <g id="ytick_5">
     <g id="line2d_49">
      <path clip-path="url(#p2b102dbb8d)" d="M 42.41875 61.501171 
L 399.53875 61.501171 
" style="fill:none;stroke:#b0b0b0;stroke-dasharray:2.96,1.28;stroke-dashoffset:0;stroke-width:0.8;"/>
     </g>
     <g id="line2d_50">
      <g>
       <use style="stroke:#000000;stroke-width:0.8;" x="42.41875" xlink:href="#md8b11f0022" y="61.501171"/>
      </g>
     </g>
     <g id="text_26">
      <!-- 0.8 -->
      <g transform="translate(20.41875 64.938671)scale(0.1 -0.1)">
       <use xlink:href="#SimHei-48"/>
       <use x="50" xlink:href="#SimHei-46"/>
       <use x="100" xlink:href="#SimHei-56"/>
      </g>
     </g>
    </g>
    <g id="ytick_6">
     <g id="line2d_51">
      <path clip-path="url(#p2b102dbb8d)" d="M 42.41875 10.6375 
L 399.53875 10.6375 
" style="fill:none;stroke:#b0b0b0;stroke-dasharray:2.96,1.28;stroke-dashoffset:0;stroke-width:0.8;"/>
     </g>
     <g id="line2d_52">
      <g>
       <use style="stroke:#000000;stroke-width:0.8;" x="42.41875" xlink:href="#md8b11f0022" y="10.6375"/>
      </g>
     </g>
     <g id="text_27">
      <!-- 1.0 -->
      <g transform="translate(20.41875 14.075)scale(0.1 -0.1)">
       <use xlink:href="#SimHei-49"/>
       <use x="50" xlink:href="#SimHei-46"/>
       <use x="100" xlink:href="#SimHei-48"/>
      </g>
     </g>
    </g>
    <g id="text_28">
     <!-- 训练损失值 -->
     <g transform="translate(15.16875 166.581269)rotate(-90)scale(0.1 -0.1)">
      <defs>
       <path d="M 25.78125 51.5625 
Q 25.390625 42.578125 25.390625 34.765625 
L 25.390625 10.546875 
Q 30.46875 17.578125 32.03125 19.921875 
Q 33.984375 17.578125 36.71875 14.0625 
Q 31.640625 7.8125 28.125 3.3125 
Q 24.609375 -1.171875 20.703125 -6.640625 
Q 17.96875 -3.125 14.84375 -0.78125 
Q 17.96875 3.515625 17.96875 9.765625 
L 17.96875 44.921875 
L 15.234375 44.921875 
Q 9.375 44.921875 4.6875 44.53125 
L 4.6875 51.953125 
Q 9.375 51.5625 15.234375 51.5625 
z
M 53.515625 71.875 
Q 52.734375 67.96875 52.921875 52.53125 
Q 53.125 37.109375 52.140625 29.484375 
Q 51.171875 21.875 48.234375 13.078125 
Q 45.3125 4.296875 38.28125 -5.859375 
Q 34.765625 -3.125 30.859375 -1.953125 
Q 39.84375 7.8125 43.15625 21.28125 
Q 46.484375 34.765625 46.09375 52.140625 
Q 45.703125 69.53125 45.3125 73.046875 
Q 49.21875 72.265625 53.515625 71.875 
z
M 91.796875 73.4375 
Q 91.40625 70.3125 91.40625 62.109375 
L 91.40625 9.765625 
Q 91.40625 1.953125 91.796875 -6.25 
L 84.375 -6.25 
Q 84.765625 1.953125 84.765625 9.375 
L 84.765625 62.109375 
Q 84.765625 70.3125 84.375 73.4375 
L 91.796875 73.4375 
z
M 71.875 2.734375 
L 64.453125 2.734375 
Q 64.84375 11.328125 64.84375 17.96875 
L 64.84375 56.25 
Q 64.84375 63.28125 64.453125 67.96875 
L 71.875 67.96875 
z
M 15.625 80.46875 
Q 25.78125 71.875 32.8125 64.0625 
Q 29.296875 61.328125 27.34375 58.59375 
Q 16.40625 71.09375 10.9375 75 
Q 13.28125 77.34375 15.625 80.46875 
z
" id="SimHei-35757"/>
       <path d="M 51.5625 59.765625 
Q 46.09375 59.765625 37.5 59.375 
L 37.5 66.40625 
Q 46.09375 66.015625 51.953125 66.015625 
L 56.640625 66.015625 
Q 60.546875 77.34375 60.9375 80.859375 
Q 65.625 78.515625 69.53125 76.953125 
Q 67.96875 75.390625 66.59375 72.0625 
Q 65.234375 68.75 64.0625 66.015625 
L 78.515625 66.015625 
Q 84.765625 66.015625 92.1875 66.40625 
L 92.1875 59.375 
Q 86.71875 59.765625 78.515625 59.765625 
L 62.109375 59.765625 
Q 60.15625 55.078125 57.8125 49.21875 
L 73.046875 49.21875 
Q 72.65625 44.921875 72.65625 38.671875 
L 72.65625 30.859375 
L 77.734375 30.859375 
Q 83.59375 30.859375 90.625 31.25 
L 90.625 24.21875 
Q 83.59375 24.609375 77.734375 24.609375 
L 72.65625 24.609375 
L 72.65625 1.953125 
Q 72.65625 -4.6875 69.71875 -6.640625 
Q 66.796875 -8.59375 57.03125 -9.765625 
Q 56.640625 -5.859375 53.90625 -1.5625 
Q 63.671875 -1.953125 64.640625 -0.390625 
Q 65.625 1.171875 65.625 5.078125 
L 65.625 24.609375 
L 53.515625 24.609375 
Q 50.78125 24.609375 48.4375 24.40625 
Q 46.09375 24.21875 42.96875 23.046875 
Q 41.40625 26.953125 39.84375 30.46875 
Q 43.75 31.640625 48.828125 43.359375 
Q 46.09375 43.359375 38.28125 42.96875 
L 38.28125 49.609375 
Q 47.265625 49.21875 50.78125 49.21875 
Q 53.125 55.078125 54.6875 59.765625 
z
M 25.78125 46.09375 
Q 29.296875 51.5625 32.8125 60.9375 
Q 36.328125 58.203125 40.234375 56.25 
Q 36.328125 51.171875 31.640625 42.96875 
Q 26.953125 34.765625 16.796875 21.09375 
Q 20.3125 21.875 37.5 24.609375 
Q 36.71875 20.3125 37.109375 17.96875 
Q 28.515625 17.1875 10.15625 12.890625 
Q 8.203125 16.796875 6.25 19.921875 
Q 9.765625 21.875 13.859375 27.140625 
Q 17.96875 32.421875 22.65625 40.234375 
Q 20.3125 40.625 15.8125 40.03125 
Q 11.328125 39.453125 7.03125 38.28125 
Q 5.46875 41.796875 3.90625 45.703125 
Q 7.8125 48.046875 12.6875 58.203125 
Q 17.578125 68.359375 20.703125 78.125 
Q 25 75.390625 28.90625 74.21875 
Q 25 68.359375 21.671875 61.90625 
Q 18.359375 55.46875 12.5 45.703125 
Q 21.484375 45.703125 25.78125 46.09375 
z
M 37.890625 10.9375 
Q 37.5 6.640625 37.890625 3.90625 
Q 31.25 2.34375 22.84375 -0.390625 
Q 14.453125 -3.125 7.421875 -6.640625 
Q 6.25 -2.34375 4.6875 1.953125 
Q 14.84375 4.296875 18.546875 5.265625 
Q 22.265625 6.25 37.890625 10.9375 
z
M 58.203125 13.671875 
Q 57.03125 12.5 51.359375 6.25 
Q 45.703125 0 38.671875 -7.421875 
Q 35.9375 -3.90625 33.59375 -1.953125 
Q 37.890625 1.5625 42.96875 7.21875 
Q 48.046875 12.890625 51.953125 19.140625 
Q 54.296875 16.40625 58.203125 13.671875 
z
M 82.421875 19.140625 
Q 92.578125 5.859375 96.875 -1.5625 
Q 92.96875 -3.125 89.84375 -5.859375 
Q 85.546875 2.734375 76.5625 14.84375 
Q 79.296875 16.40625 82.421875 19.140625 
z
M 65.625 30.859375 
L 65.625 43.359375 
L 55.859375 43.359375 
Q 51.953125 35.15625 49.609375 30.859375 
z
" id="SimHei-32451"/>
       <path d="M 18.359375 71.875 
Q 18.359375 77.34375 17.96875 82.03125 
L 26.171875 82.03125 
Q 25.78125 77.734375 25.78125 71.875 
L 25.78125 63.671875 
Q 30.46875 63.671875 36.328125 64.0625 
L 36.328125 56.640625 
Q 30.46875 57.03125 25.78125 57.03125 
L 25.78125 39.0625 
Q 29.296875 39.84375 35.546875 42.96875 
Q 35.546875 39.84375 35.9375 35.9375 
Q 31.640625 34.375 25.78125 31.640625 
L 25.78125 2.734375 
Q 25.78125 -3.515625 22.265625 -5.078125 
Q 18.75 -6.640625 9.765625 -7.8125 
Q 9.375 -3.90625 7.03125 0.78125 
Q 12.5 0.390625 15.421875 0.578125 
Q 18.359375 0.78125 18.359375 5.46875 
L 18.359375 28.90625 
Q 10.546875 26.171875 6.25 23.4375 
Q 5.859375 28.125 3.90625 32.8125 
Q 9.375 33.59375 18.359375 36.71875 
L 18.359375 57.03125 
Q 10.15625 57.03125 5.078125 56.640625 
L 5.078125 64.0625 
Q 9.765625 63.671875 18.359375 63.671875 
z
M 86.71875 78.515625 
Q 86.328125 72.65625 86.328125 66.796875 
Q 86.328125 61.328125 86.71875 55.078125 
L 45.3125 55.078125 
Q 45.703125 61.328125 45.703125 66.796875 
Q 45.703125 72.65625 45.3125 78.515625 
L 86.71875 78.515625 
z
M 90.234375 48.046875 
Q 89.84375 42.578125 89.84375 36.71875 
L 89.84375 26.953125 
Q 89.84375 21.09375 90.234375 13.671875 
L 82.421875 13.671875 
L 82.421875 41.40625 
L 49.21875 41.40625 
L 49.21875 13.28125 
L 41.40625 13.28125 
Q 41.796875 19.921875 41.796875 26.5625 
L 41.796875 36.328125 
Q 41.796875 40.625 41.40625 48.046875 
L 90.234375 48.046875 
z
M 70.703125 34.375 
Q 69.140625 28.515625 68.15625 20.890625 
Q 67.1875 13.28125 64.453125 8.390625 
Q 61.71875 3.515625 56.25 -0.96875 
Q 50.78125 -5.46875 37.890625 -10.15625 
Q 36.328125 -7.03125 32.03125 -2.734375 
Q 42.96875 -0.78125 49.015625 3.125 
Q 55.078125 7.03125 57.8125 11.90625 
Q 60.546875 16.796875 60.9375 22.84375 
Q 61.328125 28.90625 61.328125 35.546875 
Q 66.015625 34.765625 70.703125 34.375 
z
M 79.6875 61.328125 
L 79.6875 72.65625 
L 52.734375 72.65625 
L 52.734375 61.328125 
z
M 73.046875 11.71875 
Q 77.734375 8.984375 84.5625 5.265625 
Q 91.40625 1.5625 96.484375 -1.953125 
Q 93.359375 -5.078125 91.40625 -8.59375 
Q 86.328125 -4.6875 81.25 -1.359375 
Q 76.171875 1.953125 68.359375 5.46875 
Q 71.09375 8.59375 73.046875 11.71875 
z
" id="SimHei-25439"/>
       <path d="M 32.03125 69.53125 
Q 30.078125 67.578125 26.171875 58.59375 
L 46.09375 58.59375 
Q 46.09375 72.65625 45.703125 79.6875 
Q 49.609375 79.296875 54.6875 78.90625 
Q 53.90625 73.4375 53.703125 69.140625 
Q 53.515625 64.84375 53.515625 58.59375 
L 71.875 58.59375 
Q 78.125 58.59375 84.765625 58.984375 
L 84.765625 51.5625 
Q 78.515625 51.953125 71.875 51.953125 
L 53.515625 51.953125 
Q 53.515625 43.359375 52.734375 34.375 
L 78.90625 34.375 
Q 84.765625 34.375 91.796875 34.765625 
L 91.796875 27.34375 
Q 84.765625 27.734375 78.90625 27.734375 
L 55.859375 27.734375 
Q 60.546875 17.1875 71.875 10.546875 
Q 83.203125 3.90625 94.140625 1.5625 
Q 91.015625 -2.34375 88.671875 -7.421875 
Q 77.34375 -3.125 66.40625 4.484375 
Q 55.46875 12.109375 50 23.046875 
Q 45.3125 12.890625 36.328125 4.6875 
Q 27.34375 -3.515625 12.109375 -10.15625 
Q 10.15625 -6.25 6.25 -2.734375 
Q 19.53125 0.78125 29.875 9.171875 
Q 40.234375 17.578125 43.359375 27.734375 
L 20.703125 27.734375 
Q 14.453125 27.734375 7.03125 27.34375 
L 7.03125 34.765625 
Q 14.453125 34.375 20.703125 34.375 
L 44.921875 34.375 
Q 46.09375 42.578125 46.09375 51.953125 
L 23.4375 51.953125 
Q 18.75 43.75 15.234375 38.28125 
Q 12.109375 40.234375 7.8125 41.796875 
Q 14.84375 50.390625 18.546875 58.59375 
Q 22.265625 66.796875 23.4375 73.046875 
Q 28.125 70.703125 32.03125 69.53125 
z
" id="SimHei-22833"/>
       <path d="M 57.421875 69.53125 
L 57.421875 79.6875 
Q 62.109375 79.296875 67.96875 78.90625 
Q 66.015625 76.171875 65.625 69.53125 
L 80.078125 69.53125 
Q 86.71875 69.53125 91.796875 69.921875 
L 91.796875 62.890625 
Q 86.328125 63.28125 80.078125 63.28125 
L 65.234375 63.28125 
L 64.453125 54.6875 
L 84.375 54.6875 
Q 83.984375 50 83.984375 42.1875 
L 83.984375 2.34375 
Q 91.796875 2.34375 95.3125 2.734375 
L 95.3125 -4.296875 
Q 90.234375 -3.90625 81.25 -3.90625 
L 44.53125 -3.90625 
Q 35.546875 -3.90625 29.6875 -4.296875 
L 29.6875 2.734375 
Q 33.203125 2.34375 40.625 2.34375 
L 40.625 42.1875 
Q 40.625 49.609375 40.234375 54.6875 
L 56.25 54.6875 
L 57.03125 63.28125 
L 50 63.28125 
Q 40.234375 63.28125 34.765625 62.890625 
L 34.765625 69.921875 
Q 39.84375 69.53125 50 69.53125 
z
M 34.765625 76.5625 
Q 31.640625 73.046875 25.78125 58.59375 
L 25.78125 7.03125 
Q 25.78125 -1.171875 26.171875 -8.59375 
L 17.96875 -8.59375 
Q 18.359375 -1.953125 18.359375 5.859375 
L 18.359375 46.09375 
Q 13.671875 38.28125 9.765625 33.59375 
Q 6.640625 37.890625 3.90625 40.234375 
Q 7.8125 44.140625 14.640625 55.265625 
Q 21.484375 66.40625 25.390625 80.46875 
Q 30.859375 77.734375 34.765625 76.5625 
z
M 76.953125 41.40625 
L 76.953125 49.21875 
L 48.046875 49.21875 
L 48.046875 41.40625 
z
M 76.953125 2.34375 
L 76.953125 9.765625 
L 48.046875 9.765625 
L 48.046875 2.34375 
z
M 76.953125 15.625 
L 76.953125 22.65625 
L 48.046875 22.65625 
L 48.046875 15.625 
z
M 76.953125 28.515625 
L 76.953125 35.546875 
L 48.046875 35.546875 
L 48.046875 28.515625 
z
" id="SimHei-20540"/>
      </defs>
      <use xlink:href="#SimHei-35757"/>
      <use x="100" xlink:href="#SimHei-32451"/>
      <use x="200" xlink:href="#SimHei-25439"/>
      <use x="300" xlink:href="#SimHei-22833"/>
      <use x="400" xlink:href="#SimHei-20540"/>
     </g>
    </g>
   </g>
   <g id="line2d_53">
    <path clip-path="url(#p2b102dbb8d)" d="M 58.651477 20.621269 
L 75.738559 176.555614 
L 92.82564 192.452782 
L 109.912721 200.05817 
L 126.999803 204.860627 
L 144.086884 209.04419 
L 161.173965 211.091685 
L 178.261047 213.345313 
L 195.348128 215.822827 
L 212.435209 217.047916 
L 229.522291 217.646459 
L 246.609372 219.235551 
L 263.696453 219.377213 
L 280.783535 220.35697 
L 297.870616 221.66082 
L 314.957697 222.066109 
L 332.044779 221.932086 
L 349.13186 223.730961 
L 366.218941 224.674645 
L 383.306023 224.314424 
" style="fill:none;stroke:#808080;stroke-linecap:square;stroke-width:1.5;"/>
   </g>
   <g id="line2d_54">
    <path clip-path="url(#p2b102dbb8d)" d="M 58.651477 61.606524 
L 75.738559 203.257094 
L 92.82564 216.124749 
L 109.912721 222.311418 
L 126.999803 227.282223 
L 144.086884 229.978472 
L 161.173965 232.650301 
L 178.261047 235.6199 
L 195.348128 237.188262 
L 212.435209 239.232176 
L 229.522291 240.479214 
L 246.609372 242.570511 
L 263.696453 243.246915 
L 280.783535 245.2155 
L 297.870616 246.543601 
L 314.957697 246.807209 
L 332.044779 247.224346 
L 349.13186 249.202745 
L 366.218941 249.850242 
L 383.306023 249.982221 
" style="fill:none;stroke:#add8e6;stroke-linecap:square;stroke-width:1.5;"/>
   </g>
   <g id="line2d_55">
    <path clip-path="url(#p2b102dbb8d)" d="M 58.651477 75.133453 
L 75.738559 209.54836 
L 92.82564 223.765275 
L 109.912721 230.929255 
L 126.999803 235.213494 
L 144.086884 239.550373 
L 161.173965 241.276996 
L 178.261047 244.783744 
L 195.348128 246.596762 
L 212.435209 248.174749 
L 229.522291 249.582952 
L 246.609372 251.000449 
L 263.696453 252.7644 
L 280.783535 253.387841 
L 297.870616 254.757766 
L 314.957697 256.226391 
L 332.044779 256.911531 
L 349.13186 256.959255 
L 366.218941 258.239834 
L 383.306023 258.290673 
" style="fill:none;stroke:#4169e1;stroke-linecap:square;stroke-width:1.5;"/>
   </g>
   <g id="line2d_56">
    <path clip-path="url(#p2b102dbb8d)" d="M 58.651477 84.358504 
L 75.738559 214.431284 
L 92.82564 227.954486 
L 109.912721 234.923194 
L 126.999803 239.509724 
L 144.086884 242.995939 
L 161.173965 246.156846 
L 178.261047 247.897171 
L 195.348128 250.563515 
L 212.435209 252.396615 
L 229.522291 253.780713 
L 246.609372 255.121294 
L 263.696453 256.87927 
L 280.783535 257.372599 
L 297.870616 259.128116 
L 314.957697 258.063631 
L 332.044779 259.776797 
L 349.13186 261.322905 
L 366.218941 261.650366 
L 383.306023 262.222608 
" style="fill:none;stroke:#ffa500;stroke-linecap:square;stroke-width:1.5;"/>
   </g>
   <g id="line2d_57">
    <path clip-path="url(#p2b102dbb8d)" d="M 58.651477 27.96788 
L 75.738559 211.790248 
L 92.82564 226.224694 
L 109.912721 234.134165 
L 126.999803 239.037654 
L 144.086884 242.477749 
L 161.173965 246.382977 
L 178.261047 249.25114 
L 195.348128 251.02809 
L 212.435209 252.744034 
L 229.522291 254.2252 
L 246.609372 255.579474 
L 263.696453 256.798492 
L 280.783535 258.184836 
L 297.870616 259.774283 
L 314.957697 260.089559 
L 332.044779 260.824956 
L 349.13186 261.738953 
L 366.218941 261.987133 
L 383.306023 262.541269 
" style="fill:none;stroke:#ff0000;stroke-linecap:square;stroke-width:1.5;"/>
   </g>
   <g id="patch_3">
    <path d="M 42.41875 274.637269 
L 42.41875 8.525269 
" style="fill:none;stroke:#000000;stroke-linecap:square;stroke-linejoin:miter;stroke-width:0.8;"/>
   </g>
   <g id="patch_4">
    <path d="M 399.53875 274.637269 
L 399.53875 8.525269 
" style="fill:none;stroke:#000000;stroke-linecap:square;stroke-linejoin:miter;stroke-width:0.8;"/>
   </g>
   <g id="patch_5">
    <path d="M 42.41875 274.637269 
L 399.53875 274.637269 
" style="fill:none;stroke:#000000;stroke-linecap:square;stroke-linejoin:miter;stroke-width:0.8;"/>
   </g>
   <g id="patch_6">
    <path d="M 42.41875 8.525269 
L 399.53875 8.525269 
" style="fill:none;stroke:#000000;stroke-linecap:square;stroke-linejoin:miter;stroke-width:0.8;"/>
   </g>
   <g id="legend_1">
    <g id="patch_7">
     <path d="M 285.53875 87.619019 
L 392.53875 87.619019 
Q 394.53875 87.619019 394.53875 85.619019 
L 394.53875 15.525269 
Q 394.53875 13.525269 392.53875 13.525269 
L 285.53875 13.525269 
Q 283.53875 13.525269 283.53875 15.525269 
L 283.53875 85.619019 
Q 283.53875 87.619019 285.53875 87.619019 
z
" style="fill:#ffffff;opacity:0.8;stroke:#cccccc;stroke-linejoin:miter;"/>
    </g>
    <g id="line2d_58">
     <path d="M 287.53875 21.994019 
L 307.53875 21.994019 
" style="fill:none;stroke:#808080;stroke-linecap:square;stroke-width:1.5;"/>
    </g>
    <g id="line2d_59"/>
    <g id="text_29">
     <!-- 卷积核数量4*4 -->
     <g transform="translate(315.53875 25.494019)scale(0.1 -0.1)">
      <defs>
       <path d="M 55.46875 80.078125 
Q 53.125 77.34375 52.53125 71.875 
Q 51.953125 66.40625 50.78125 60.9375 
L 72.65625 60.9375 
Q 81.25 60.9375 88.671875 61.328125 
L 88.671875 53.90625 
Q 81.25 54.6875 72.65625 54.6875 
L 49.21875 54.6875 
Q 47.65625 49.609375 45.703125 44.921875 
L 78.90625 44.921875 
Q 88.28125 44.921875 94.921875 45.3125 
L 94.921875 38.28125 
Q 88.28125 38.671875 79.296875 38.671875 
L 70.703125 38.671875 
Q 75.390625 31.640625 82.21875 29.296875 
Q 89.0625 26.953125 96.484375 25.78125 
Q 94.140625 22.65625 92.1875 16.40625 
Q 85.9375 18.75 81.640625 20.890625 
Q 77.34375 23.046875 72.65625 26.5625 
L 72.65625 17.96875 
Q 72.65625 11.328125 68.359375 9.5625 
Q 64.0625 7.8125 53.90625 6.640625 
Q 53.125 11.71875 51.5625 15.234375 
Q 60.15625 14.84375 62.5 15.421875 
Q 64.84375 16.015625 64.84375 19.140625 
L 64.84375 23.4375 
L 36.328125 23.4375 
L 36.328125 5.46875 
Q 36.328125 0 42.578125 0 
L 67.1875 0 
Q 73.4375 0 74.796875 2.34375 
Q 76.171875 4.6875 76.953125 9.765625 
Q 80.859375 6.25 85.546875 4.6875 
Q 83.203125 -0.78125 80.859375 -3.703125 
Q 78.515625 -6.640625 72.65625 -6.25 
L 37.109375 -6.25 
Q 28.90625 -6.25 28.90625 0.78125 
L 28.90625 25.78125 
Q 25.78125 23.046875 21.875 20.3125 
Q 17.96875 17.578125 12.109375 14.0625 
Q 9.765625 17.578125 5.46875 21.09375 
Q 14.84375 23.828125 21.484375 28.703125 
Q 28.125 33.59375 32.421875 38.671875 
L 21.875 38.671875 
Q 12.109375 38.671875 7.03125 38.28125 
L 7.03125 45.3125 
Q 13.28125 44.921875 21.875 44.921875 
L 37.109375 44.921875 
Q 39.453125 49.21875 41.015625 54.6875 
L 30.078125 54.6875 
Q 19.53125 54.6875 13.28125 53.90625 
L 13.28125 61.328125 
Q 20.703125 60.9375 29.6875 60.9375 
L 42.578125 60.9375 
Q 43.359375 64.453125 44.328125 69.53125 
Q 45.3125 74.609375 45.703125 81.640625 
Q 49.609375 80.859375 55.46875 80.078125 
z
M 68.75 29.6875 
Q 64.0625 35.546875 62.109375 38.671875 
L 41.796875 38.671875 
Q 37.5 33.59375 33.59375 29.6875 
z
M 65.234375 66.40625 
Q 68.75 69.53125 70.5 71.875 
Q 72.265625 74.21875 74.609375 78.125 
Q 78.125 75.390625 82.03125 72.65625 
Q 79.6875 70.703125 77.140625 67.96875 
Q 74.609375 65.234375 71.09375 61.71875 
Q 68.359375 64.453125 65.234375 66.40625 
z
M 23.046875 78.125 
Q 26.953125 74.609375 28.90625 72.65625 
L 33.203125 68.359375 
Q 30.46875 66.015625 27.734375 62.890625 
Q 24.609375 66.40625 22.453125 68.359375 
Q 20.3125 70.3125 17.96875 72.265625 
Q 20.703125 75.390625 23.046875 78.125 
z
" id="SimHei-21367"/>
       <path d="M 88.671875 73.4375 
Q 88.28125 66.796875 88.28125 55.859375 
L 88.28125 42.96875 
Q 88.28125 34.765625 88.671875 27.34375 
L 48.4375 27.34375 
Q 48.828125 34.765625 48.828125 42.96875 
L 48.828125 56.25 
Q 48.828125 66.796875 48.4375 73.4375 
L 88.671875 73.4375 
z
M 44.53125 72.265625 
Q 40.625 71.484375 37.5 70.703125 
Q 34.375 69.921875 30.078125 69.140625 
L 30.078125 51.171875 
Q 39.453125 51.171875 44.921875 51.5625 
L 44.921875 44.140625 
Q 39.453125 44.53125 30.078125 44.53125 
L 30.078125 32.421875 
Q 33.203125 34.765625 35.15625 36.71875 
Q 41.40625 27.734375 44.921875 22.65625 
Q 42.96875 21.484375 38.28125 17.96875 
Q 35.15625 24.609375 30.078125 31.25 
L 30.078125 4.6875 
Q 30.078125 -1.171875 30.46875 -10.546875 
L 22.265625 -10.546875 
Q 23.046875 -1.171875 23.046875 4.6875 
L 23.046875 30.078125 
Q 19.921875 23.046875 17.578125 19.140625 
Q 15.234375 15.234375 10.15625 8.203125 
Q 7.03125 10.9375 3.125 12.890625 
Q 8.984375 18.75 14.0625 27.34375 
Q 19.140625 35.9375 21.484375 44.53125 
Q 16.015625 44.53125 4.6875 44.140625 
L 4.6875 51.5625 
Q 16.015625 51.171875 23.046875 51.171875 
L 23.046875 67.578125 
Q 15.234375 66.40625 8.203125 65.234375 
Q 7.03125 68.75 5.46875 72.265625 
Q 10.546875 71.875 22.84375 74.21875 
Q 35.15625 76.5625 39.84375 79.296875 
Q 42.578125 74.609375 44.53125 72.265625 
z
M 80.859375 33.984375 
L 80.859375 67.1875 
L 55.859375 67.1875 
L 55.859375 33.984375 
z
M 62.890625 16.796875 
Q 60.546875 13.28125 54.875 5.46875 
Q 49.21875 -2.34375 42.1875 -10.15625 
Q 39.453125 -7.421875 35.9375 -4.6875 
Q 41.015625 -0.78125 46.09375 5.859375 
Q 51.171875 12.5 55.859375 21.875 
Q 59.765625 18.75 62.890625 16.796875 
z
M 78.90625 20.703125 
Q 82.421875 16.015625 87.296875 9.765625 
Q 92.1875 3.515625 96.875 -3.515625 
Q 92.1875 -6.25 89.453125 -8.59375 
Q 86.71875 -3.515625 81.25 4.484375 
Q 75.78125 12.5 72.65625 16.015625 
Q 75.78125 17.96875 78.90625 20.703125 
z
" id="SimHei-31215"/>
       <path d="M 19.921875 68.359375 
Q 19.921875 75 19.53125 80.46875 
L 27.734375 80.46875 
Q 27.34375 75.78125 27.34375 68.359375 
L 27.34375 59.765625 
Q 32.421875 59.765625 38.28125 60.15625 
L 38.28125 52.34375 
Q 32.421875 52.734375 27.34375 52.734375 
L 27.34375 39.0625 
Q 28.125 39.84375 32.03125 42.578125 
Q 37.109375 34.765625 41.015625 28.90625 
Q 37.109375 26.5625 34.375 24.609375 
Q 30.46875 31.640625 27.34375 36.71875 
L 27.34375 7.8125 
Q 27.34375 -0.390625 27.734375 -8.59375 
L 19.53125 -8.59375 
Q 20.3125 0 19.921875 7.8125 
L 19.921875 34.765625 
Q 16.015625 25.390625 8.203125 14.453125 
Q 5.078125 19.53125 3.125 21.875 
Q 7.421875 26.171875 12.109375 33.984375 
Q 16.796875 41.796875 19.53125 52.734375 
Q 13.671875 52.734375 7.03125 52.34375 
L 7.03125 60.15625 
Q 14.0625 59.765625 19.921875 59.765625 
z
M 42.578125 41.40625 
Q 44.921875 41.40625 49.609375 45.890625 
Q 54.296875 50.390625 58.984375 59.765625 
L 67.1875 55.078125 
Q 64.0625 53.125 61.125 49.609375 
Q 58.203125 46.09375 53.515625 41.40625 
L 70.703125 41.796875 
Q 74.609375 46.875 76.953125 53.125 
L 85.9375 49.21875 
Q 83.984375 48.046875 80.46875 42.578125 
Q 76.953125 37.109375 70.3125 29.6875 
Q 63.671875 22.265625 57.421875 17.375 
Q 51.171875 12.5 44.140625 8.203125 
Q 41.40625 11.328125 37.5 14.453125 
Q 45.703125 17.578125 53.125 23.234375 
Q 60.546875 28.90625 66.015625 35.546875 
Q 59.765625 35.546875 55.078125 35.15625 
Q 50.390625 34.765625 44.921875 33.59375 
z
M 92.96875 32.03125 
Q 90.625 30.46875 87.6875 26.171875 
Q 84.765625 21.875 79.6875 15.234375 
Q 87.5 8.203125 91.59375 3.90625 
Q 95.703125 -0.390625 96.09375 -0.78125 
Q 92.578125 -3.125 88.671875 -7.03125 
Q 86.328125 -3.515625 83 0.390625 
Q 79.6875 4.296875 74.21875 9.765625 
Q 68.75 4.6875 64.0625 1.359375 
Q 59.375 -1.953125 54.09375 -4.6875 
Q 48.828125 -7.421875 43.359375 -9.765625 
Q 41.40625 -5.859375 37.5 -2.734375 
Q 48.046875 0.390625 56.25 5.46875 
Q 64.453125 10.546875 70.3125 16.59375 
Q 76.171875 22.65625 79.484375 27.734375 
Q 82.8125 32.8125 84.375 36.71875 
Q 88.28125 33.984375 92.96875 32.03125 
z
M 48.4375 60.546875 
Q 44.921875 60.546875 41.40625 60.15625 
L 41.40625 67.96875 
Q 46.484375 67.1875 51.953125 67.1875 
L 81.25 67.1875 
Q 87.5 67.1875 94.140625 67.96875 
L 94.140625 60.15625 
Q 87.5 60.546875 81.25 60.546875 
L 48.4375 60.546875 
z
M 67.96875 81.640625 
Q 70.3125 77.734375 73.828125 71.484375 
Q 67.96875 69.140625 66.015625 67.578125 
Q 63.28125 74.21875 60.15625 78.125 
Q 66.015625 80.859375 67.96875 81.640625 
z
" id="SimHei-26680"/>
       <path d="M 82.03125 39.0625 
Q 81.640625 34.375 81.640625 26.5625 
Q 81.640625 19.140625 82.03125 14.84375 
L 53.515625 14.84375 
L 53.515625 9.765625 
L 71.484375 9.765625 
Q 78.125 9.765625 83.984375 10.15625 
L 83.984375 4.296875 
Q 78.515625 4.6875 71.484375 4.6875 
L 53.515625 4.6875 
L 53.515625 -1.171875 
L 80.078125 -1.171875 
Q 86.328125 -1.171875 92.578125 -0.78125 
L 92.578125 -6.640625 
Q 86.328125 -6.25 80.078125 -6.25 
L 19.921875 -6.25 
Q 14.0625 -6.25 7.421875 -6.640625 
L 7.421875 -0.78125 
Q 14.453125 -0.78125 19.921875 -1.171875 
L 46.484375 -1.171875 
L 46.484375 4.6875 
L 26.953125 4.6875 
Q 21.09375 4.6875 15.234375 3.90625 
L 15.234375 10.15625 
Q 21.484375 9.765625 26.953125 9.765625 
L 46.484375 9.765625 
L 46.484375 14.84375 
L 17.96875 14.84375 
Q 18.359375 21.484375 18.359375 27.734375 
Q 18.359375 33.984375 17.96875 39.0625 
L 82.03125 39.0625 
z
M 81.25 77.34375 
Q 80.859375 71.484375 80.859375 66.40625 
Q 80.859375 61.328125 81.25 53.125 
L 18.75 53.125 
Q 19.140625 61.328125 19.140625 66.40625 
Q 19.140625 71.484375 18.75 77.34375 
L 81.25 77.34375 
z
M 76.5625 48.4375 
Q 85.9375 48.828125 93.75 49.21875 
L 93.75 42.96875 
Q 85.9375 43.359375 76.953125 43.359375 
L 25.78125 43.359375 
Q 15.234375 43.359375 5.078125 42.96875 
L 5.078125 49.21875 
Q 15.234375 48.828125 25.78125 48.4375 
z
M 73.828125 57.8125 
L 73.828125 62.890625 
L 26.171875 62.890625 
L 26.171875 57.8125 
z
M 73.828125 67.96875 
L 73.828125 72.65625 
L 26.171875 72.65625 
L 26.171875 67.96875 
z
M 74.21875 29.296875 
L 74.21875 33.984375 
L 53.515625 33.984375 
L 53.515625 29.296875 
z
M 46.484375 29.296875 
L 46.484375 33.984375 
L 25.78125 33.984375 
L 25.78125 29.296875 
z
M 46.484375 19.921875 
L 46.484375 24.21875 
L 25.78125 24.21875 
L 25.78125 19.921875 
z
M 74.21875 19.921875 
L 74.21875 24.21875 
L 53.515625 24.21875 
L 53.515625 19.921875 
z
" id="SimHei-37327"/>
       <path d="M 48.046875 36.71875 
L 44.140625 29.6875 
L 28.125 39.84375 
L 28.90625 19.921875 
L 21.09375 19.921875 
L 21.875 39.84375 
L 5.859375 29.6875 
L 1.953125 36.71875 
L 18.75 45.3125 
L 1.953125 53.90625 
L 5.859375 60.9375 
L 21.875 50.78125 
L 21.09375 69.53125 
L 28.90625 69.53125 
L 28.125 50.78125 
L 44.140625 60.9375 
L 48.046875 53.90625 
L 31.25 45.3125 
z
" id="SimHei-42"/>
      </defs>
      <use xlink:href="#SimHei-21367"/>
      <use x="100" xlink:href="#SimHei-31215"/>
      <use x="200" xlink:href="#SimHei-26680"/>
      <use x="300" xlink:href="#SimHei-25968"/>
      <use x="400" xlink:href="#SimHei-37327"/>
      <use x="500" xlink:href="#SimHei-52"/>
      <use x="550" xlink:href="#SimHei-42"/>
      <use x="600" xlink:href="#SimHei-52"/>
     </g>
    </g>
    <g id="line2d_60">
     <path d="M 287.53875 36.212769 
L 307.53875 36.212769 
" style="fill:none;stroke:#add8e6;stroke-linecap:square;stroke-width:1.5;"/>
    </g>
    <g id="line2d_61"/>
    <g id="text_30">
     <!-- 卷积核数量8*8 -->
     <g transform="translate(315.53875 39.712769)scale(0.1 -0.1)">
      <use xlink:href="#SimHei-21367"/>
      <use x="100" xlink:href="#SimHei-31215"/>
      <use x="200" xlink:href="#SimHei-26680"/>
      <use x="300" xlink:href="#SimHei-25968"/>
      <use x="400" xlink:href="#SimHei-37327"/>
      <use x="500" xlink:href="#SimHei-56"/>
      <use x="550" xlink:href="#SimHei-42"/>
      <use x="600" xlink:href="#SimHei-56"/>
     </g>
    </g>
    <g id="line2d_62">
     <path d="M 287.53875 50.431519 
L 307.53875 50.431519 
" style="fill:none;stroke:#4169e1;stroke-linecap:square;stroke-width:1.5;"/>
    </g>
    <g id="line2d_63"/>
    <g id="text_31">
     <!-- 卷积核数量16*16 -->
     <g transform="translate(315.53875 53.931519)scale(0.1 -0.1)">
      <use xlink:href="#SimHei-21367"/>
      <use x="100" xlink:href="#SimHei-31215"/>
      <use x="200" xlink:href="#SimHei-26680"/>
      <use x="300" xlink:href="#SimHei-25968"/>
      <use x="400" xlink:href="#SimHei-37327"/>
      <use x="500" xlink:href="#SimHei-49"/>
      <use x="550" xlink:href="#SimHei-54"/>
      <use x="600" xlink:href="#SimHei-42"/>
      <use x="650" xlink:href="#SimHei-49"/>
      <use x="700" xlink:href="#SimHei-54"/>
     </g>
    </g>
    <g id="line2d_64">
     <path d="M 287.53875 64.650269 
L 307.53875 64.650269 
" style="fill:none;stroke:#ffa500;stroke-linecap:square;stroke-width:1.5;"/>
    </g>
    <g id="line2d_65"/>
    <g id="text_32">
     <!-- 卷积核数量32*32 -->
     <g transform="translate(315.53875 68.150269)scale(0.1 -0.1)">
      <use xlink:href="#SimHei-21367"/>
      <use x="100" xlink:href="#SimHei-31215"/>
      <use x="200" xlink:href="#SimHei-26680"/>
      <use x="300" xlink:href="#SimHei-25968"/>
      <use x="400" xlink:href="#SimHei-37327"/>
      <use x="500" xlink:href="#SimHei-51"/>
      <use x="550" xlink:href="#SimHei-50"/>
      <use x="600" xlink:href="#SimHei-42"/>
      <use x="650" xlink:href="#SimHei-51"/>
      <use x="700" xlink:href="#SimHei-50"/>
     </g>
    </g>
    <g id="line2d_66">
     <path d="M 287.53875 78.869019 
L 307.53875 78.869019 
" style="fill:none;stroke:#ff0000;stroke-linecap:square;stroke-width:1.5;"/>
    </g>
    <g id="line2d_67"/>
    <g id="text_33">
     <!-- 卷积核数量64*64 -->
     <g transform="translate(315.53875 82.369019)scale(0.1 -0.1)">
      <use xlink:href="#SimHei-21367"/>
      <use x="100" xlink:href="#SimHei-31215"/>
      <use x="200" xlink:href="#SimHei-26680"/>
      <use x="300" xlink:href="#SimHei-25968"/>
      <use x="400" xlink:href="#SimHei-37327"/>
      <use x="500" xlink:href="#SimHei-54"/>
      <use x="550" xlink:href="#SimHei-52"/>
      <use x="600" xlink:href="#SimHei-42"/>
      <use x="650" xlink:href="#SimHei-54"/>
      <use x="700" xlink:href="#SimHei-52"/>
     </g>
    </g>
   </g>
  </g>
 </g>
 <defs>
  <clipPath id="p2b102dbb8d">
   <rect height="266.112" width="357.12" x="42.41875" y="8.525269"/>
  </clipPath>
 </defs>
</svg>
